<svg width="93" height="93" viewBox="0 0 93 93" fill="none" xmlns="http://www.w3.org/2000/svg">
<path d="M80.2947 14.6759C70.5241 11.6089 59.7973 11.0702 49.6239 13.1355C45.8761 13.9607 42.3689 15.2536 38.6897 16.2255C35.489 17.0521 32.1829 17.5903 28.8329 17.8301C28.7068 15.2444 27.9504 12.7963 24.489 11.5401C19.5721 9.7521 13.7267 12.6496 12.4545 16.6198C12.1749 17.7328 12.0671 18.8691 12.1336 20.0032V70.4977C11.9555 72.6348 11.9555 74.779 12.1336 76.9161C12.1336 76.9161 12.1336 77.0262 12.1336 77.0262C12.1751 78.0824 12.5961 79.1068 13.3461 79.9767C14.0961 80.8466 15.1434 81.5253 16.3629 81.9317L16.5806 82.005H16.6952C17.9741 82.3132 19.3023 82.4708 20.638 82.4726C28.1338 82.4726 30.9533 82.1334 36.4089 80.8864C40.1797 80.0245 43.7213 78.7133 47.4348 77.7597C57.0395 75.2749 68.0654 75.9809 77.4065 78.8692C79.0569 79.3735 80.9595 77.8331 80.9595 76.5585V15.5928C80.966 15.4057 80.9072 15.2208 80.7898 15.0589C80.6724 14.897 80.501 14.7644 80.2947 14.6759V14.6759ZM16.7755 15.7304C17.9216 13.814 21.1652 14.1808 22.8615 15.3636C23.3058 15.6679 23.6717 16.0385 23.9389 16.4548L16.4545 21.9562V18.4445C16.3233 17.5318 16.4326 16.6072 16.7755 15.7304V15.7304ZM16.4545 75.6141C16.5577 73.872 18.7468 73.2852 20.6265 73.5694C21.675 73.703 22.6354 74.118 23.3499 74.7463C24.0643 75.3745 24.4903 76.1785 24.5578 77.0262C24.2712 80.8589 16.2482 79.0067 16.4545 75.6141V75.6141ZM24.5578 60.6317L16.4545 66.555V56.1572L24.5578 50.2339V60.6317ZM24.5578 38.314L16.4545 44.2373V33.8395L24.5578 27.9162V38.314ZM28.8329 21.0943C31.4092 20.8649 33.9581 20.4693 36.4548 19.9115C40.2256 19.0588 43.7672 17.7476 47.4807 16.7848C47.9391 16.6656 48.409 16.5556 48.879 16.4548L28.8329 31.1254V21.0943ZM76.7417 63.0065L63.1026 72.9551C58.5576 72.8261 54.0142 73.2433 49.6239 74.1929C48.3517 74.468 47.1024 74.8072 45.8646 75.1648L76.7417 52.6087V63.0065ZM76.7417 40.7255L28.8329 75.715V75.6141C28.8394 75.5317 28.8394 75.449 28.8329 75.3666C28.8277 75.2902 28.8277 75.2137 28.8329 75.1373C28.8329 74.2204 28.8329 73.3035 28.8329 72.3866V65.308L76.7417 30.2635V40.7255ZM76.7417 18.4078L28.8329 53.4064V42.9903L66.3118 15.5928C69.8727 15.9761 73.3703 16.6711 76.7417 17.6651V18.4078Z" fill="#4ea2e2"/>
</svg>
