<svg width="93" height="93" viewBox="0 0 93 93" fill="none" xmlns="http://www.w3.org/2000/svg">
<path d="M50.1991 53.1005C51.0105 53.1005 51.6682 52.4428 51.6682 51.6314C51.6682 50.8201 51.0105 50.1623 50.1991 50.1623C49.3877 50.1623 48.73 50.8201 48.73 51.6314C48.73 52.4428 49.3877 53.1005 50.1991 53.1005Z" fill="#4ea2e2"/>
<path d="M57.1312 53.1005C57.9426 53.1005 58.6003 52.4428 58.6003 51.6314C58.6003 50.8201 57.9426 50.1623 57.1312 50.1623C56.3198 50.1623 55.6621 50.8201 55.6621 51.6314C55.6621 52.4428 56.3198 53.1005 57.1312 53.1005Z" fill="#4ea2e2"/>
<path d="M64.0653 53.1005C64.8767 53.1005 65.5344 52.4428 65.5344 51.6314C65.5344 50.8201 64.8767 50.1623 64.0653 50.1623C63.2539 50.1623 62.5962 50.8201 62.5962 51.6314C62.5962 52.4428 63.2539 53.1005 64.0653 53.1005Z" fill="#4ea2e2"/>
<path d="M70.9994 53.1005C71.8108 53.1005 72.4685 52.4428 72.4685 51.6314C72.4685 50.8201 71.8108 50.1623 70.9994 50.1623C70.188 50.1623 69.5303 50.8201 69.5303 51.6314C69.5303 52.4428 70.188 53.1005 70.9994 53.1005Z" fill="#4ea2e2"/>
<path d="M77.9335 53.1005C78.7448 53.1005 79.4026 52.4428 79.4026 51.6314C79.4026 50.8201 78.7448 50.1623 77.9335 50.1623C77.1221 50.1623 76.4644 50.8201 76.4644 51.6314C76.4644 52.4428 77.1221 53.1005 77.9335 53.1005Z" fill="#4ea2e2"/>
<path d="M53.9208 58.3892C54.7321 58.3892 55.3899 57.7315 55.3899 56.9201C55.3899 56.1088 54.7321 55.451 53.9208 55.451C53.1094 55.451 52.4517 56.1088 52.4517 56.9201C52.4517 57.7315 53.1094 58.3892 53.9208 58.3892Z" fill="#4ea2e2"/>
<path d="M60.8529 58.3892C61.6643 58.3892 62.322 57.7315 62.322 56.9201C62.322 56.1088 61.6643 55.451 60.8529 55.451C60.0415 55.451 59.3838 56.1088 59.3838 56.9201C59.3838 57.7315 60.0415 58.3892 60.8529 58.3892Z" fill="#4ea2e2"/>
<path d="M67.787 58.3892C68.5983 58.3892 69.2561 57.7315 69.2561 56.9201C69.2561 56.1088 68.5983 55.451 67.787 55.451C66.9756 55.451 66.3179 56.1088 66.3179 56.9201C66.3179 57.7315 66.9756 58.3892 67.787 58.3892Z" fill="#4ea2e2"/>
<path d="M74.7211 58.3892C75.5324 58.3892 76.1902 57.7315 76.1902 56.9201C76.1902 56.1088 75.5324 55.451 74.7211 55.451C73.9097 55.451 73.252 56.1088 73.252 56.9201C73.252 57.7315 73.9097 58.3892 74.7211 58.3892Z" fill="#4ea2e2"/>
<path d="M81.6551 58.3892C82.4665 58.3892 83.1243 57.7315 83.1243 56.9201C83.1243 56.1088 82.4665 55.451 81.6551 55.451C80.8438 55.451 80.186 56.1088 80.186 56.9201C80.186 57.7315 80.8438 58.3892 81.6551 58.3892Z" fill="#4ea2e2"/>
<path d="M50.6029 63.6112C51.4143 63.6112 52.072 62.9535 52.072 62.1421C52.072 61.3307 51.4143 60.673 50.6029 60.673C49.7915 60.673 49.1338 61.3307 49.1338 62.1421C49.1338 62.9535 49.7915 63.6112 50.6029 63.6112Z" fill="#4ea2e2"/>
<path d="M57.537 63.6112C58.3483 63.6112 59.0061 62.9535 59.0061 62.1421C59.0061 61.3307 58.3483 60.673 57.537 60.673C56.7256 60.673 56.0679 61.3307 56.0679 62.1421C56.0679 62.9535 56.7256 63.6112 57.537 63.6112Z" fill="#4ea2e2"/>
<path d="M64.4711 63.6112C65.2824 63.6112 65.9402 62.9535 65.9402 62.1421C65.9402 61.3307 65.2824 60.673 64.4711 60.673C63.6597 60.673 63.002 61.3307 63.002 62.1421C63.002 62.9535 63.6597 63.6112 64.4711 63.6112Z" fill="#4ea2e2"/>
<path d="M71.4047 63.6112C72.216 63.6112 72.8738 62.9535 72.8738 62.1421C72.8738 61.3307 72.216 60.673 71.4047 60.673C70.5933 60.673 69.9355 61.3307 69.9355 62.1421C69.9355 62.9535 70.5933 63.6112 71.4047 63.6112Z" fill="#4ea2e2"/>
<path d="M78.3392 63.6112C79.1506 63.6112 79.8083 62.9535 79.8083 62.1421C79.8083 61.3307 79.1506 60.673 78.3392 60.673C77.5279 60.673 76.8701 61.3307 76.8701 62.1421C76.8701 62.9535 77.5279 63.6112 78.3392 63.6112Z" fill="#4ea2e2"/>
<path d="M53.9208 68.7039C54.7321 68.7039 55.3899 68.0462 55.3899 67.2348C55.3899 66.4235 54.7321 65.7657 53.9208 65.7657C53.1094 65.7657 52.4517 66.4235 52.4517 67.2348C52.4517 68.0462 53.1094 68.7039 53.9208 68.7039Z" fill="#4ea2e2"/>
<path d="M60.8529 68.7039C61.6643 68.7039 62.322 68.0462 62.322 67.2348C62.322 66.4235 61.6643 65.7657 60.8529 65.7657C60.0415 65.7657 59.3838 66.4235 59.3838 67.2348C59.3838 68.0462 60.0415 68.7039 60.8529 68.7039Z" fill="#4ea2e2"/>
<path d="M67.787 68.7039C68.5983 68.7039 69.2561 68.0462 69.2561 67.2348C69.2561 66.4235 68.5983 65.7657 67.787 65.7657C66.9756 65.7657 66.3179 66.4235 66.3179 67.2348C66.3179 68.0462 66.9756 68.7039 67.787 68.7039Z" fill="#4ea2e2"/>
<path d="M74.7211 68.7039C75.5324 68.7039 76.1902 68.0462 76.1902 67.2348C76.1902 66.4235 75.5324 65.7657 74.7211 65.7657C73.9097 65.7657 73.252 66.4235 73.252 67.2348C73.252 68.0462 73.9097 68.7039 74.7211 68.7039Z" fill="#4ea2e2"/>
<path d="M81.6551 68.7039C82.4665 68.7039 83.1243 68.0462 83.1243 67.2348C83.1243 66.4235 82.4665 65.7657 81.6551 65.7657C80.8438 65.7657 80.186 66.4235 80.186 67.2348C80.186 68.0462 80.8438 68.7039 81.6551 68.7039Z" fill="#4ea2e2"/>
<path d="M50.6029 73.2757C51.4143 73.2757 52.072 72.618 52.072 71.8066C52.072 70.9952 51.4143 70.3375 50.6029 70.3375C49.7915 70.3375 49.1338 70.9952 49.1338 71.8066C49.1338 72.618 49.7915 73.2757 50.6029 73.2757Z" fill="#4ea2e2"/>
<path d="M57.537 73.2757C58.3483 73.2757 59.0061 72.618 59.0061 71.8066C59.0061 70.9952 58.3483 70.3375 57.537 70.3375C56.7256 70.3375 56.0679 70.9952 56.0679 71.8066C56.0679 72.618 56.7256 73.2757 57.537 73.2757Z" fill="#4ea2e2"/>
<path d="M64.4711 73.2757C65.2824 73.2757 65.9402 72.618 65.9402 71.8066C65.9402 70.9952 65.2824 70.3375 64.4711 70.3375C63.6597 70.3375 63.002 70.9952 63.002 71.8066C63.002 72.618 63.6597 73.2757 64.4711 73.2757Z" fill="#4ea2e2"/>
<path d="M71.4047 73.2757C72.216 73.2757 72.8738 72.618 72.8738 71.8066C72.8738 70.9952 72.216 70.3375 71.4047 70.3375C70.5933 70.3375 69.9355 70.9952 69.9355 71.8066C69.9355 72.618 70.5933 73.2757 71.4047 73.2757Z" fill="#4ea2e2"/>
<path d="M78.3392 73.2757C79.1506 73.2757 79.8083 72.618 79.8083 71.8066C79.8083 70.9952 79.1506 70.3375 78.3392 70.3375C77.5279 70.3375 76.8701 70.9952 76.8701 71.8066C76.8701 72.618 77.5279 73.2757 78.3392 73.2757Z" fill="#4ea2e2"/>
<path d="M26.179 24.6633C23.2092 24.6633 20.793 27.6433 20.793 31.3067C20.793 34.97 23.2092 37.95 26.179 37.95C29.1488 37.95 31.565 34.97 31.565 31.3067C31.565 27.6435 29.149 24.6633 26.179 24.6633ZM26.179 35.0118C24.8521 35.0118 23.7312 33.3151 23.7312 31.3067C23.7312 29.2981 24.8523 27.6014 26.179 27.6014C27.5059 27.6014 28.6268 29.2981 28.6268 31.3067C28.6268 33.3151 27.5057 35.0118 26.179 35.0118Z" fill="#4ea2e2"/>
<path d="M35.1648 54.3378C32.195 54.3378 29.7788 57.3178 29.7788 60.981C29.7788 64.6441 32.195 67.6243 35.1648 67.6243C38.1346 67.6243 40.5508 64.6441 40.5508 60.981C40.5508 57.3178 38.1346 54.3378 35.1648 54.3378ZM35.1648 64.6861C33.8379 64.6861 32.717 62.9894 32.717 60.981C32.717 58.9726 33.8381 57.2761 35.1648 57.2761C36.4917 57.2761 37.6126 58.9728 37.6126 60.981C37.6126 62.9894 36.4917 64.6861 35.1648 64.6861Z" fill="#4ea2e2"/>
<path d="M12.7009 54.3378C9.73112 54.3378 7.31494 57.3178 7.31494 60.981C7.31494 64.6441 9.73112 67.6243 12.7009 67.6243C15.6708 67.6243 18.087 64.6441 18.087 60.981C18.087 57.3178 15.6708 54.3378 12.7009 54.3378ZM12.7011 64.6861C11.3742 64.6861 10.2533 62.9894 10.2533 60.981C10.2533 58.9726 11.3744 57.2761 12.7011 57.2761C14.028 57.2761 15.1489 58.9728 15.1489 60.981C15.1489 62.9894 14.028 64.6861 12.7011 64.6861Z" fill="#4ea2e2"/>
<path d="M83.2108 47.1753C88.8148 45.4804 93 39.0111 93 31.3064C93 30.495 92.3423 29.8373 91.5309 29.8373H81.7139C81.1332 21.5322 75.6844 15 69.067 15H26.1788C19.1754 15 13.4777 22.315 13.4777 31.3062C13.4777 36.8336 15.6327 41.7239 18.9188 44.6744H12.701C5.6977 44.6746 0 51.9897 0 60.9811C0 69.9725 5.6977 77.2873 12.701 77.2873H76.4642C83.4675 77.2873 89.1652 69.9723 89.1652 60.9811C89.165 55.1707 86.7841 50.0641 83.2108 47.1753ZM90.0033 32.7759C89.5448 38.4949 86.4397 43.1369 82.4069 44.3573C84.5027 42.3356 86.1049 39.4735 86.9098 36.0552C87.0956 35.2655 86.6064 34.4744 85.8165 34.2886C85.0272 34.1026 84.2357 34.5919 84.0498 35.3821C82.9209 40.1761 79.8459 43.7029 76.2863 44.5026C78.3423 42.5899 79.9528 39.8904 80.8215 36.669C81.033 35.8858 80.5691 35.0795 79.7856 34.868C79.0024 34.6566 78.1959 35.1207 77.9847 35.9039C76.7553 40.4622 73.8131 43.7194 70.3945 44.4955C72.5614 42.467 74.2193 39.5522 75.0426 36.0554C75.2285 35.2656 74.7393 34.4748 73.9493 34.2888C73.1599 34.1028 72.3687 34.5921 72.1827 35.3821C71.0587 40.1556 68.005 43.6723 64.4648 44.4919C66.6298 42.4635 68.2863 39.5502 69.109 36.0552C69.2948 35.2655 68.8056 34.4746 68.0157 34.2886C67.2266 34.1026 66.4349 34.5919 66.2491 35.3819C65.1214 40.1707 62.0519 43.6954 58.497 44.5004C60.5808 42.5583 62.2032 39.8045 63.0614 36.5146C63.2663 35.7296 62.7961 34.9271 62.011 34.7224C61.2262 34.5173 60.4237 34.9879 60.2188 35.7728C59.0065 40.4186 56.0372 43.7336 52.5672 44.5033C54.6724 42.5405 56.3044 39.7467 57.1559 36.4062C57.3563 35.6198 56.8815 34.8201 56.0952 34.6197C55.3094 34.4192 54.5091 34.8942 54.3087 35.6807C52.9375 41.0602 49.2308 44.6748 45.0848 44.6748H44.676C47.6656 41.9883 49.7167 37.6931 50.0602 32.7757H90.0033V32.7759ZM69.067 17.9388V17.9386C74.0876 17.9386 78.2337 23.1553 78.7695 29.8377H75.7826C75.5483 26.4959 74.5201 23.3131 72.8275 20.7498C72.3807 20.0727 71.469 19.8861 70.7923 20.3333C70.1155 20.7805 69.9286 21.6918 70.3758 22.3686C71.7584 24.4629 72.6103 27.0727 72.8346 29.8379H69.8486C69.6181 26.5558 68.6204 23.4203 66.9803 20.8821C66.54 20.2006 65.6308 20.0051 64.9491 20.4454C64.2675 20.8857 64.0721 21.7952 64.5124 22.4767C65.8525 24.5508 66.6795 27.1225 66.9006 29.8379H63.9153C63.6823 26.5146 62.6637 23.3471 60.9878 20.7914C60.5428 20.113 59.6323 19.9237 58.9536 20.3686C58.275 20.8134 58.0859 21.7242 58.5308 22.4028C59.9 24.4905 60.7441 27.0885 60.9673 29.8379H57.981C57.7561 26.6484 56.8056 23.5872 55.246 21.0908C54.8161 20.4027 53.9097 20.1931 53.2218 20.6232C52.5337 21.0532 52.3243 21.9596 52.7543 22.6474C54.0294 24.6885 54.8184 27.1993 55.0338 29.8379H52.0477C51.8228 26.6484 50.8723 23.5872 49.3127 21.0908C48.8828 20.4027 47.9762 20.1931 47.2885 20.6232C46.6004 21.0532 46.391 21.9596 46.821 22.6474C48.0961 24.6885 48.8851 27.1993 49.1005 29.8379H48.6432C47.8318 29.8379 47.1741 30.4956 47.1741 31.307C47.1741 36.0712 45.3429 40.2588 42.5955 42.6265C44.8042 39.6913 46.1672 35.7007 46.1672 31.307C46.1672 27.7499 45.2968 24.3721 43.6497 21.5392C43.2417 20.8376 42.3426 20.5996 41.6413 21.0076C40.9398 21.4154 40.7019 22.3145 41.1096 23.016C42.4963 25.4009 43.2292 28.2679 43.2292 31.307C43.2292 38.6781 38.8497 44.6752 33.4664 44.6752H33.4393C36.7254 41.7246 38.8804 36.8343 38.8804 31.307C38.8804 25.7796 36.7254 20.8893 33.4393 17.9388H69.067V17.9388ZM16.416 31.3064C16.416 23.9353 20.7955 17.9382 26.1788 17.9382C31.5621 17.9382 35.9416 23.9353 35.9416 31.3064C35.9416 38.6776 31.5621 44.6746 26.1788 44.6746C20.7957 44.6746 16.416 38.6778 16.416 31.3064ZM27.9049 47.6129C26.25 49.0989 24.8829 51.076 23.933 53.3805C22.9832 51.0762 21.616 49.0989 19.961 47.6129H27.9049ZM12.701 74.3493C7.31776 74.3493 2.93822 68.3522 2.93822 60.9811C2.93822 53.6099 7.31776 47.6129 12.701 47.6129C18.0843 47.6129 22.4639 53.6099 22.4639 60.9811C22.4639 68.3522 18.0843 74.3493 12.701 74.3493ZM19.961 74.3493C21.616 72.8633 22.983 70.8861 23.933 68.5816C24.8828 70.8859 26.25 72.8633 27.9049 74.3493H19.961ZM35.1647 74.3493C29.7814 74.3493 25.4019 68.3522 25.4019 60.9811C25.4019 53.6099 29.7814 47.6129 35.1647 47.6129C40.548 47.6129 44.9275 53.6099 44.9275 60.9811C44.9275 68.3522 40.548 74.3493 35.1647 74.3493ZM76.4642 74.3493H42.4247C45.7108 71.3987 47.8658 66.5084 47.8658 60.9811C47.8658 55.4537 45.7108 50.5632 42.4247 47.6129H76.464C81.8473 47.6129 86.2268 53.6099 86.2268 60.9811C86.2268 68.3522 81.8474 74.3493 76.4642 74.3493Z" fill="#4ea2e2"/>
</svg>
