<svg width="93" height="90" viewBox="0 0 93 90" fill="none" xmlns="http://www.w3.org/2000/svg">
<path d="M73.7143 60.1H71.8127C70.4791 60.1012 69.1641 60.4122 67.9707 61.0088C66.2344 61.8736 64.1941 61.8736 62.4579 61.0088C61.7653 60.6683 61.0302 60.4227 60.2721 60.2788L62.6388 41.85H65.2143C65.8849 41.85 66.4286 41.3052 66.4286 40.6333V35.7667C66.4286 35.0948 65.8849 34.55 65.2143 34.55H60.3571V30.9C60.3571 30.5773 60.229 30.2679 60.0014 30.0398L54.2857 24.313V20.534L56.1266 19.0594L59.2704 25.3605L61.4439 24.2728L58.0658 17.5045L59.5679 16.3H64C64.6706 16.3 65.2143 15.7552 65.2143 15.0833V10.2167C65.2143 9.54476 64.6706 9 64 9H51.8571C45.8246 9.0073 40.9359 13.9056 40.9286 19.95C40.9286 20.6219 41.4723 21.1667 42.1429 21.1667H44.5714V24.313L41.2844 27.6065C41.0567 27.8346 40.9286 28.1439 40.9286 28.4667V34.55H38.5V24.8167C38.4982 24.6659 38.4681 24.5171 38.4114 24.3774C38.3892 24.3301 38.364 24.2842 38.3361 24.24C38.3069 24.1762 38.2728 24.1148 38.2341 24.0562L33.6429 18.3075V10.2167C33.6429 9.54476 33.0992 9 32.4286 9H25.1429C24.4723 9 23.9286 9.54476 23.9286 10.2167V18.3075L19.3374 24.0562C19.2987 24.1148 19.2645 24.1762 19.2354 24.24C19.2074 24.2842 19.1822 24.3301 19.1601 24.3774C19.1033 24.5171 19.0733 24.6659 19.0714 24.8167V34.55H14.2143C13.5437 34.55 13 35.0948 13 35.7667V40.6333C13 41.3052 13.5437 41.85 14.2143 41.85H16.7898L21.5097 78.5057C21.5879 79.1125 22.1037 79.5668 22.7143 79.5667H51.2986C52.6757 81.1133 54.6456 81.9985 56.7143 82H58.6159C59.9494 81.9988 61.2645 81.6878 62.4579 81.0911C64.1941 80.2264 66.2344 80.2264 67.9707 81.0911C69.1641 81.6878 70.4791 81.9988 71.8127 82H73.7143C77.7365 81.996 80.9961 78.73 81 74.7V67.4C80.9961 63.3699 77.7365 60.1039 73.7143 60.1ZM60.3571 11.4333H62.7857V13.8667H60.3571V11.4333ZM64 36.9833V39.4167H47V36.9833H64ZM43.4434 18.7333C44.0525 14.5457 47.6336 11.4387 51.8571 11.4333H57.9286V14.4993L52.6452 18.7333H43.4434ZM51.8571 21.1667V23.6H47V21.1667H51.8571ZM43.3571 28.9704L46.2884 26.0333H52.5687L57.9286 31.4037V34.55H43.3571V28.9704ZM42.1429 36.9833H44.5714V45.5C44.5688 45.9634 44.8293 46.3879 45.2429 46.595L52.5286 50.245C52.884 50.4205 53.1532 50.7324 53.2754 51.11C53.4013 51.5153 53.3575 51.9544 53.154 52.3267C52.8046 53.0292 51.9531 53.3148 51.252 52.9645C51.2509 52.9641 51.2498 52.9635 51.2488 52.963L46.3188 50.4932C45.7162 50.1982 44.9891 50.4485 44.6947 51.0523C44.6141 51.2177 44.5719 51.3993 44.5714 51.5833V63.75C44.5714 65.094 43.4842 66.1833 42.1429 66.1833V55.2333H39.7143V66.1833H37.2857V55.2333H34.8571V66.1833H32.4286V55.2333H30V66.1833C28.6587 66.1833 27.5714 65.094 27.5714 63.75V36.9833H42.1429ZM26.3571 11.4333H31.2143V17.5167H26.3571V11.4333ZM25.7257 19.95H31.8457L34.76 23.6H22.8114L25.7257 19.95ZM21.5 26.0333H36.0714V34.55H21.5V26.0333ZM15.4286 39.4167V36.9833H25.1429V39.4167H15.4286ZM49.4286 67.4V74.7C49.4307 75.5295 49.5744 76.3524 49.8536 77.1333H23.7816L19.2378 41.85H25.1429V63.75C25.1429 66.4378 27.3175 68.6167 30 68.6167H42.1429C44.8254 68.6167 47 66.4378 47 63.75V53.5519L50.1717 55.1409C52.0883 56.0886 54.4088 55.3002 55.3547 53.3799C55.3587 53.372 55.3625 53.3639 55.3664 53.356C55.8368 52.4218 55.9168 51.3382 55.5886 50.3448C55.265 49.3509 54.5562 48.5293 53.6215 48.0647L47 44.7481V41.85H60.1908L57.8399 60.1H56.7143C52.6921 60.1039 49.4325 63.3699 49.4286 67.4ZM78.5714 74.7C78.5714 77.3878 76.3968 79.5667 73.7143 79.5667H71.8127C70.8563 79.5653 69.9133 79.3422 69.0575 78.9145C66.6365 77.7093 63.7921 77.7093 61.3711 78.9145C60.5153 79.3422 59.5723 79.5653 58.6159 79.5667H56.7143C54.0318 79.5667 51.8571 77.3878 51.8571 74.7V72.8263C53.1888 74.0319 54.9196 74.6995 56.7143 74.7H58.6159C59.9494 74.6988 61.2645 74.3878 62.4579 73.7911C64.1941 72.9264 66.2344 72.9264 67.9707 73.7911C69.1641 74.3878 70.4791 74.6988 71.8127 74.7H73.7143C75.509 74.6995 77.2398 74.0319 78.5714 72.8263V74.7ZM73.7143 72.2667H71.8127C70.8563 72.2653 69.9133 72.0422 69.0575 71.6145C66.6365 70.4093 63.7921 70.4093 61.3711 71.6145C60.5153 72.0422 59.5723 72.2653 58.6159 72.2667H56.7143C54.0318 72.2667 51.8571 70.0878 51.8571 67.4C51.8571 64.7122 54.0318 62.5333 56.7143 62.5333H58.6159C59.5723 62.5347 60.5153 62.7578 61.3711 63.1855C63.7922 64.39 66.6364 64.39 69.0575 63.1855C69.9133 62.7578 70.8563 62.5347 71.8127 62.5333H73.7143C76.3968 62.5333 78.5714 64.7122 78.5714 67.4C78.5714 70.0878 76.3968 72.2667 73.7143 72.2667Z" fill="#4EA2E2"/>
<path d="M74.9286 64.9667H72.5V67.4H74.9286V64.9667Z" fill="#4EA2E2"/>
<path d="M62.786 64.9667H60.3574V67.4H62.786V64.9667Z" fill="#4EA2E2"/>
<path d="M57.9286 66.1833H55.5V68.6167H57.9286V66.1833Z" fill="#4EA2E2"/>
<path d="M70.0711 66.1833H67.6426V68.6167H70.0711V66.1833Z" fill="#4EA2E2"/>
</svg>
