<svg width="80" height="80" viewBox="0 0 80 80" fill="none" xmlns="http://www.w3.org/2000/svg">
<path d="M40.0511 12.9125C25.1288 12.9125 12.9197 25.0484 12.9197 40.097C12.9197 55.1455 25.032 67.2814 40.0511 67.2814C55.0704 67.2814 67.1826 55.1455 67.1826 40.097C67.1826 25.0484 54.9735 12.9125 40.0511 12.9125ZM40.0511 64.2717C26.6793 64.2717 15.8265 53.398 15.8265 39.9998C15.8265 26.6019 26.6793 15.7281 40.0511 15.7281C53.4231 15.7281 64.2757 26.6019 64.2757 39.9998C64.2757 53.398 53.4231 64.2717 40.0511 64.2717Z" fill="#4ea2e2"/>
<path d="M79.9729 40.097C79.9729 40.097 79.9729 40 79.9729 40.097C79.9729 17.9611 62.0469 0 40.0509 0C18.0551 0 0.128906 17.9611 0.128906 40C0.128906 62.0389 18.0551 80 40.0509 80C47.2214 80 53.9074 78.0583 59.7212 74.7573C59.8181 74.7573 59.9151 74.6602 59.9151 74.6602C60.0119 74.5631 60.1089 74.5631 60.2058 74.4661C63.1127 72.8155 65.7289 70.7767 68.0545 68.4466C68.1513 68.4466 68.1513 68.3495 68.2483 68.3495L68.3452 68.2525C70.7676 65.8253 72.8026 63.1067 74.5467 60.1942C74.5467 60.1942 74.5467 60.1942 74.5467 60.097C78.035 54.1747 79.9729 47.3786 79.9729 40.097ZM70.0893 49.8058L75.4187 51.2622C74.7405 53.3981 73.8685 55.5339 72.8026 57.4758L67.9577 54.6602C67.2793 54.2719 66.4072 54.4661 66.0196 55.1456C65.632 55.8253 65.8259 56.6991 66.5041 57.0873L71.2522 59.8058C69.9924 61.7475 68.6359 63.4952 67.0854 65.1456L63.2096 61.2622C62.6282 60.6797 61.7562 60.6797 61.1747 61.2622C60.5933 61.8447 60.5933 62.7184 61.1747 63.3009L65.0507 67.1845C63.4034 68.7378 61.6592 70.097 59.7212 71.2622L57.0081 66.5048C56.6206 65.8253 55.7484 65.5339 55.0702 66.0194C54.3918 66.4078 54.1011 67.2816 54.5856 67.9611L57.2988 72.7184C55.3609 73.7864 53.2291 74.6602 51.0973 75.3398L49.5469 70.1942C49.3532 69.4175 48.578 68.932 47.8028 69.1262C47.0276 69.3205 46.5431 70.097 46.7369 70.8738L48.1903 76.1166C46.0585 76.6019 43.8299 76.8933 41.5045 76.9903V71.4563C41.5045 70.6797 40.8261 70 40.0509 70C39.2757 70 38.5975 70.6797 38.5975 71.4563V76.9903C36.3687 76.8933 34.1401 76.6019 32.0083 76.1166L33.4619 70.7767C33.6556 70 33.1712 69.2233 32.396 69.0291C31.6208 68.835 30.8456 69.3205 30.6518 70.097L29.1984 75.4369C27.0666 74.7573 24.9348 73.8834 22.9969 72.8155L25.8069 67.9611C26.1945 67.2816 26.0007 66.4078 25.3225 66.0194C24.6441 65.6311 23.7721 65.8253 23.3844 66.5048L20.5744 71.3592C18.6365 70.1942 16.8922 68.7378 15.245 67.2816L19.2178 63.3009C19.7992 62.7184 19.7992 61.8447 19.2178 61.2622C18.6365 60.6797 17.7644 60.6797 17.1829 61.2622L13.2102 65.2427C11.6598 63.5922 10.3032 61.7475 9.04353 59.903L13.8884 57.0873C14.5667 56.6991 14.8574 55.8253 14.3729 55.1456C13.9853 54.4661 13.1133 54.1747 12.435 54.6602L7.59006 57.4758C6.52419 55.5339 5.65209 53.3981 4.97381 51.165L10.497 49.7087C11.2722 49.5145 11.7567 48.7378 11.5629 47.9611C11.3691 47.1845 10.5939 46.6991 9.81872 46.8931L4.29552 48.3495C3.81103 46.1166 3.52033 43.8834 3.42344 41.5534H9.14043C9.91562 41.5534 10.5939 40.8738 10.5939 40.097C10.5939 39.3203 9.91562 38.6408 9.14043 38.6408H3.42344C3.52033 36.4078 3.81103 34.1747 4.29552 32.0389L9.81872 33.4952C9.91562 33.4952 10.1094 33.5922 10.2063 33.5922C10.8846 33.5922 11.466 33.2039 11.5629 32.5242C11.7567 31.7475 11.2722 30.9709 10.497 30.7767L4.97381 29.3203C5.65209 27.0873 6.52419 25.0486 7.59006 23.0097L12.5319 25.8253C12.7257 25.9223 13.0163 26.0194 13.2102 26.0194C13.6946 26.0194 14.1791 25.7281 14.4698 25.2427C14.8574 24.5631 14.6636 23.6894 13.9853 23.3009L9.04353 20.4855C10.2063 18.5437 11.6598 16.6991 13.2102 15.0485L17.2799 19.1262C17.5706 19.4175 17.9581 19.5145 18.3458 19.5145C18.7333 19.5145 19.121 19.4175 19.4117 19.1262C19.9931 18.5437 19.9931 17.6698 19.4117 17.0873L14.8574 12.9126C16.5047 11.3592 18.3458 10 20.2837 8.73786L23.0937 13.6893C23.3844 14.1748 23.8689 14.466 24.3534 14.466C24.6441 14.466 24.838 14.3689 25.0316 14.2718C25.71 13.8835 26.0007 13.0097 25.5162 12.3301L22.7062 7.37864C24.741 6.31067 26.7759 5.43689 29.0045 4.75728L30.4581 10.2913C30.6518 10.9709 31.2331 11.3592 31.8146 11.3592C31.9115 11.3592 32.1053 11.3592 32.2022 11.2621C32.9774 11.068 33.4619 10.2913 33.2681 9.51456L31.8146 3.98058C34.0433 3.49514 36.2719 3.20389 38.5975 3.1068V8.83495C38.5975 9.61166 39.2757 10.2913 40.0509 10.2913C40.8261 10.2913 41.5045 9.61166 41.5045 8.83495V3.1068C43.8299 3.20389 46.1555 3.49514 48.2873 3.98058L46.8338 9.41747C46.6401 10.1942 47.1244 10.9709 47.8996 11.165C47.9966 11.165 48.1903 11.2621 48.2873 11.2621C48.9655 11.2621 49.5469 10.8738 49.6439 10.1942L51.0973 4.75728C53.3259 5.43689 55.3609 6.31067 57.3956 7.37864L54.5856 12.233C54.1981 12.9126 54.3918 13.7864 55.0702 14.1747C55.264 14.2718 55.5547 14.3689 55.7484 14.3689C56.2329 14.3689 56.7174 14.0777 57.0081 13.5922L59.8181 8.73786C61.7562 10 63.5003 11.3592 65.1475 12.9126L61.3685 16.7961C60.7871 17.3786 60.7871 18.2525 61.3685 18.835C61.6592 19.1262 62.0469 19.2233 62.4344 19.2233C62.8221 19.2233 63.2096 19.1262 63.5003 18.835L67.4731 14.8544C69.0235 16.5048 70.3801 18.3495 71.5428 20.2912L66.6011 23.1067C65.9227 23.4952 65.632 24.3689 66.1166 25.0486C66.4072 25.5339 66.8918 25.8253 67.3761 25.8253C67.667 25.8253 67.8607 25.7281 68.0545 25.6311L72.8026 22.9127C73.8685 24.8544 74.7405 26.9903 75.4187 29.1263L70.0893 30.5825C69.3142 30.7767 68.8297 31.5534 69.0235 32.3302C69.2172 33.0097 69.7986 33.3981 70.3801 33.3981C70.477 33.3981 70.6708 33.3981 70.7676 33.3009L76.0971 31.8447C76.5816 33.9806 76.8723 36.2136 76.9691 38.5437H71.5428C70.7676 38.5437 70.0893 39.2233 70.0893 40C70.0893 40.7767 70.7676 41.4563 71.5428 41.4563H76.9691C76.8723 43.7864 76.5816 46.0194 76.0971 48.2525L70.7676 46.7961C69.9924 46.6019 69.2172 47.0873 69.0235 47.8641C68.8297 48.7378 69.3142 49.5145 70.0893 49.8058Z" fill="#4ea2e2"/>
</svg>
