<svg width="70" height="74" viewBox="0 0 76 80" fill="none" xmlns="http://www.w3.org/2000/svg">
<path d="M12.4846 78.6668C25.7313 79.9842 36.5113 80.0002 36.618 80.0002H39.2846C39.3913 80.0002 50.1713 79.9841 63.418 78.6601C68.0606 78.1962 71.486 76.3628 73.6006 73.2122C76.7086 68.5788 76.026 62.2948 75.2286 59.6201C71.1366 45.8668 68.3286 14.2535 67.5673 4.89213C67.3558 2.11805 65.0333 -0.0191329 62.2513 0.000129176H58.7846C57.5927 -0.00217022 56.6207 0.954936 56.6046 2.1468L56.586 2.79213V2.82013C56.0726 15.0375 46.57 20.6041 37.9513 20.6041C29.3326 20.6041 19.8393 15.0415 19.3166 2.84413V2.80146L19.298 2.1548C19.2862 0.958239 18.3106 -0.00432757 17.114 0.000129176H13.6473C10.8668 -0.0170225 8.5467 2.1196 8.33529 4.89213C7.57396 14.2535 4.76596 45.8668 0.673957 59.6201C-0.126044 62.2948 -0.806044 68.5788 2.30196 73.2122C4.41662 76.3628 7.84196 78.1962 12.4846 78.6668ZM37.9513 23.2708C44.0054 23.3362 49.8137 20.8793 53.9833 16.4895C50.4766 25.2268 44.002 29.3335 37.9513 29.3335C31.9006 29.3335 25.4273 25.2268 21.9206 16.4921C26.0906 20.8803 31.8981 23.336 37.9513 23.2708ZM3.22862 60.3801C7.28462 46.7601 10.01 17.1908 10.994 5.10813C11.1004 3.72243 12.2615 2.6557 13.6513 2.6668H16.642V2.87346V2.91213C17.2166 22.8961 28.0846 32.0001 37.9513 32.0001C47.818 32.0001 58.702 22.8855 59.2553 2.8748L59.2606 2.6668H62.2513C63.641 2.6557 64.8021 3.72243 64.9086 5.10813C65.8926 17.1908 68.618 46.7601 72.674 60.3801C73.214 62.1961 74.0353 67.7761 71.386 71.7268C69.7366 74.1855 66.966 75.6255 63.1513 76.0068C50.0446 77.3175 39.39 77.3335 39.2846 77.3335H36.618C36.5126 77.3335 25.8673 77.3188 12.7513 76.0068C8.93662 75.6255 6.16596 74.1855 4.51662 71.7268C1.86729 67.7761 2.68862 62.1961 3.22862 60.3801Z" fill="#4EA2E2"/>
<path d="M13.018 73.3534C13.0622 73.3583 13.1068 73.3605 13.1513 73.3601C13.8877 73.3969 14.5145 72.8298 14.5513 72.0934C14.5881 71.3571 14.021 70.7303 13.2846 70.6934C10.0366 70.3681 9.21664 69.1494 8.9473 68.7481C7.66864 66.8401 7.92864 63.2814 8.3433 61.8961C8.53621 61.1967 8.13455 60.4715 7.43939 60.2639C6.74422 60.0564 6.01071 60.4428 5.78864 61.1334C5.26997 62.8668 4.8193 67.3801 6.73397 70.2361C7.17397 70.9001 8.5193 72.9041 13.018 73.3534Z" fill="#4EA2E2"/>
<path d="M62.7513 73.3601C62.7959 73.3606 62.8404 73.3583 62.8847 73.3535C67.382 72.9041 68.7273 70.9001 69.17 70.2415C71.0847 67.3868 70.6367 62.8775 70.1153 61.1401C69.8933 60.4495 69.1597 60.0631 68.4646 60.2707C67.7694 60.4782 67.3677 61.2034 67.5607 61.9028C67.9753 63.2948 68.2353 66.8468 66.9553 68.7548C66.6887 69.1548 65.8673 70.3748 62.6193 70.7001C61.8829 70.737 61.3158 71.3638 61.3526 72.1001C61.3895 72.8365 62.0163 73.4036 62.7527 73.3668L62.7513 73.3601Z" fill="#4EA2E2"/>
</svg>
