<svg width="75" height="75" viewBox="0 0 75 75" fill="none" xmlns="http://www.w3.org/2000/svg">
<g clip-path="url(#clip0)">
<path d="M74.8418 28.8964C74.8418 28.8964 74.8418 28.8964 74.8418 28.7381C74.6835 28.5799 74.6835 28.4217 74.5253 28.4217L38.7658 6.74446C38.6076 6.58623 38.4494 6.58623 38.2911 6.58623L1.26582 4.6875C0.632911 4.6875 0.316456 5.00396 0 5.47864C0 5.63687 0 5.7951 0 5.7951V16.3964C0 16.871 0.158228 17.1875 0.632911 17.3457L9.81013 23.0419L1.74051 28.2635C1.42405 28.5799 1.26582 28.8964 1.26582 29.371L1.74051 45.6685C1.74051 45.985 1.89873 46.4597 2.21519 46.6179L37.6582 70.0356C37.8165 70.0356 37.9747 70.1938 38.1329 70.1938C38.2911 70.1938 38.4494 70.1938 38.6076 70.0356L74.0506 46.6179C74.3671 46.4597 74.5253 45.985 74.5253 45.6685L75 29.371C75 29.2128 75 29.0546 74.8418 28.8964ZM37.8165 8.95965L69.6203 27.947L36.8671 27.1559L5.6962 7.21915L37.8165 8.95965ZM70.0949 30.3204L61.5506 35.7002H41.6139L38.4494 29.5293L70.0949 30.3204ZM2.37342 15.7635V8.01029L34.4937 28.5799L30.2215 32.6938L2.37342 15.7635ZM12.1835 24.3078L19.3038 28.8964L12.0253 33.8014L4.74684 29.2128L12.1835 24.3078ZM37.0253 66.8711L3.9557 44.8774L3.63924 31.428L37.0253 52.1559V66.8711ZM38.2911 50.0989L14.2405 35.2255L21.6772 30.3204L29.9051 35.3837C30.3797 35.7002 31.0127 35.5419 31.3291 35.2255L36.2342 30.4786L39.8734 37.5989C40.0317 38.0736 40.5063 38.2318 40.981 38.2318H57.7532L38.2911 50.0989ZM72.4684 44.8774L39.3987 66.8711V52.1559L72.7848 31.428L72.4684 44.8774Z" fill="#4EA2E2"/>
</g>
<defs>
<clipPath id="clip0">
<rect width="75" height="75" fill="white"/>
</clipPath>
</defs>
</svg>
