<svg width="80" height="80" viewBox="0 0 80 80" fill="none" xmlns="http://www.w3.org/2000/svg">
<path d="M75.5 47V19C75.4974 17.1441 74.5746 15.3649 72.9343 14.0526C71.2939 12.7403 69.0698 12.0021 66.75 12H48.7725L47.875 10.553C47.7707 10.386 47.61 10.2457 47.4112 10.148C47.2124 10.0503 46.9834 9.999 46.75 10H34.25C34.0177 9.99993 33.79 10.0516 33.5924 10.1493C33.3948 10.247 33.2351 10.3868 33.1312 10.553L32.2275 12H14.25C11.9302 12.0021 9.70611 12.7403 8.06574 14.0526C6.42537 15.3649 5.50265 17.1441 5.5 19V47C5.49973 47.9322 5.73311 48.855 6.18634 49.7138C6.63958 50.5726 7.30347 51.35 8.13875 52H3V54H5.64625L7.73625 67.372C7.84959 68.0976 8.29031 68.7651 8.97557 69.2491C9.66083 69.733 10.5434 70.0001 11.4575 70H28.45C29.316 69.9983 30.1547 69.7575 30.8243 69.3182C31.4939 68.8789 31.9534 68.2681 32.125 67.589L33.7325 61.157C33.8142 60.8306 34.0346 60.5369 34.3564 60.3259C34.6782 60.1149 35.0814 59.9996 35.4975 59.9996C35.9136 59.9996 36.3168 60.1149 36.6386 60.3259C36.9604 60.5369 37.1808 60.8306 37.2625 61.157L38.875 67.589C39.0466 68.2681 39.5061 68.8789 40.1757 69.3182C40.8453 69.7575 41.684 69.9983 42.55 70H69.5425C70.4566 70.0001 71.3392 69.733 72.0244 69.2491C72.7097 68.7651 73.1504 68.0976 73.2637 67.372L75.3537 54H78V52H72.8612C73.6965 51.35 74.3604 50.5726 74.8137 49.7138C75.2669 48.855 75.5003 47.9322 75.5 47V47ZM8 47V19C8.00198 17.6744 8.6611 16.4036 9.83277 15.4662C11.0044 14.5289 12.593 14.0016 14.25 14H33C33.2323 14.0001 33.46 13.9484 33.6576 13.8507C33.8552 13.753 34.0149 13.6132 34.1188 13.447L35.0225 12H45.9775L46.875 13.447C46.9793 13.614 47.14 13.7543 47.3388 13.852C47.5376 13.9498 47.7666 14.001 48 14H66.75C68.407 14.0016 69.9956 14.5289 71.1672 15.4662C72.3389 16.4036 72.998 17.6744 73 19V47C72.998 48.3256 72.3389 49.5965 71.1672 50.5338C69.9956 51.4711 68.407 51.9984 66.75 52H14.25C12.593 51.9984 11.0044 51.4711 9.83277 50.5338C8.6611 49.5965 8.00198 48.3256 8 47ZM72.8338 54L70.7838 67.124C70.746 67.366 70.5989 67.5886 70.3703 67.7499C70.1417 67.9112 69.8473 68.0002 69.5425 68H42.55C42.2616 68.0003 41.982 67.9208 41.7585 67.775C41.535 67.6292 41.3814 67.4261 41.3238 67.2L39.7162 60.769C39.5211 59.9894 38.9943 59.288 38.2257 58.784C37.457 58.2801 36.4938 58.0046 35.5 58.0046C34.5062 58.0046 33.543 58.2801 32.7743 58.784C32.0057 59.288 31.4789 59.9894 31.2838 60.769L29.6762 67.2C29.6186 67.4261 29.465 67.6292 29.2415 67.775C29.018 67.9208 28.7384 68.0003 28.45 68H11.4575C11.1527 68.0002 10.8583 67.9112 10.6297 67.7499C10.4011 67.5886 10.254 67.366 10.2162 67.124L8.16625 54H72.8338Z" fill="#4ea2e2"/>
<path d="M68 45V21C68 20.2044 67.6049 19.4413 66.9016 18.8787C66.1984 18.3161 65.2446 18 64.25 18H16.75C15.7554 18 14.8016 18.3161 14.0983 18.8787C13.3951 19.4413 13 20.2044 13 21V45C13 45.7956 13.3951 46.5587 14.0983 47.1213C14.8016 47.6839 15.7554 48 16.75 48H64.25C65.2446 48 66.1984 47.6839 66.9016 47.1213C67.6049 46.5587 68 45.7956 68 45ZM65.5 45C65.5 45.2652 65.3683 45.5196 65.1339 45.7071C64.8995 45.8946 64.5815 46 64.25 46H16.75C16.4185 46 16.1005 45.8946 15.8661 45.7071C15.6317 45.5196 15.5 45.2652 15.5 45V21C15.5 20.7348 15.6317 20.4804 15.8661 20.2929C16.1005 20.1054 16.4185 20 16.75 20H64.25C64.5815 20 64.8995 20.1054 65.1339 20.2929C65.3683 20.4804 65.5 20.7348 65.5 21V45Z" fill="#4ea2e2"/>
<path d="M39.4099 26.589C39.5186 26.4342 39.6768 26.3052 39.8684 26.2155C40.06 26.1258 40.2779 26.0785 40.4999 26.0785C40.7219 26.0785 40.9399 26.1258 41.1314 26.2155C41.323 26.3052 41.4813 26.4342 41.5899 26.589L44.1337 30.208L40.0637 29.3L41.8274 31.8L47.5999 33.1L49.2162 28.483L47.4512 25.974L46.3124 29.23L43.7687 25.611C43.4425 25.1469 42.9678 24.7606 42.3934 24.4918C41.8189 24.223 41.1654 24.0813 40.4999 24.0813C39.8344 24.0813 39.1809 24.223 38.6064 24.4918C38.032 24.7606 37.5573 25.1469 37.2312 25.611L35.6599 27.846L37.8399 28.826L39.4099 26.589Z" fill="#2C8E58"/>
<path d="M49.0899 33.177L46.9099 34.157L48.5649 36.51C48.6719 36.6622 48.7271 36.8341 48.7252 37.0087C48.7233 37.1833 48.6643 37.3544 48.5541 37.5051C48.4439 37.6558 48.2863 37.7807 48.0969 37.8676C47.9076 37.9544 47.6932 38 47.4749 38H42.3399L45.3299 35.609H41.7312L37.4924 39L41.7312 42.391H45.3299L42.3399 40H47.4749C48.1302 40.0009 48.7744 39.8645 49.3432 39.6043C49.9121 39.344 50.3858 38.9691 50.7171 38.5168C51.0484 38.0645 51.2258 37.5506 51.2315 37.0264C51.2373 36.5022 51.0712 35.9859 50.7499 35.529L49.0899 33.177Z" fill="#2C8E58"/>
<path d="M32.4462 37.505C32.3339 37.355 32.2736 37.1837 32.2716 37.0087C32.2696 36.8338 32.326 36.6617 32.435 36.51L35.06 32.773L36.1987 36.029L37.9637 33.52L36.35 28.9L30.5775 30.2L28.8137 32.709L32.8837 31.796L30.2587 35.533C29.939 35.9893 29.7739 36.5045 29.7799 37.0275C29.7859 37.5506 29.9628 38.0633 30.2929 38.5148C30.623 38.9663 31.095 39.3409 31.6619 39.6014C32.2289 39.8619 32.8711 39.9994 33.525 40H36.75V38H33.525C33.3064 38.0016 33.0912 37.9566 32.9016 37.8696C32.712 37.7826 32.5548 37.6568 32.4462 37.505V37.505Z" fill="#2C8E58"/>
</svg>
