<svg width="70" height="70" viewBox="0 0 70 70" fill="none" xmlns="http://www.w3.org/2000/svg">
<g clip-path="url(#clip0)">
<path d="M70 32.2932C70 29.5896 67.9552 27.3551 65.3287 27.0467L60.5388 13.9099C59.6166 11.3809 57.7123 9.98498 55.1753 9.97951L34.8258 9.95258L14.4748 9.97951C11.9391 9.98498 10.0346 11.3809 9.11244 13.9099L4.30186 27.1033C1.85555 27.5681 0 29.7179 0 32.2932C0 34.8355 1.80797 36.964 4.20752 37.4653L9.4377 57.5034C9.85031 59.0964 10.9144 60.0474 12.2843 60.0474H23.9338C25.7262 60.0474 27.1845 58.5893 27.1845 56.7972V56.279C27.1845 54.9583 28.2644 53.8837 29.592 53.8837H40.4044C41.7318 53.8837 42.8118 54.9582 42.8118 56.279V56.7972C42.8118 58.5893 44.2719 60.0474 46.0664 60.0474H57.712C59.0767 60.0474 60.1416 59.0986 60.5618 57.5058L65.7925 37.4653C68.192 36.964 70 34.8357 70 32.2932ZM11.6814 14.8467C12.2109 13.3946 13.1004 12.7169 14.4795 12.7139L34.8257 12.687L55.1705 12.7139C56.5508 12.7168 57.4403 13.3946 57.9698 14.8467L62.4045 27.0091H7.24678L11.6814 14.8467ZM57.9168 56.8118C57.8383 57.1093 57.7377 57.2615 57.6898 57.3131H46.0663C45.7844 57.3131 45.5461 57.0768 45.5461 56.7972V56.279C45.5461 53.4506 43.2395 51.1494 40.4042 51.1494H29.5918C26.7565 51.1494 24.45 53.4505 24.45 56.279V56.7972C24.45 57.0769 24.2136 57.3131 23.9337 57.3131L12.3066 57.3129C12.2592 57.2611 12.1604 57.1102 12.084 56.8153L7.06275 37.5776H20.5319V40.8544C20.5319 42.7383 22.0667 44.271 23.953 44.271H46.0428C47.9292 44.271 49.4639 42.7383 49.4639 40.8544V37.5776H62.937L57.9168 56.8118ZM46.7298 37.5776V40.8544C46.7298 41.2307 46.4218 41.5367 46.043 41.5367H23.9531C23.5808 41.5367 23.2664 41.2243 23.2664 40.8544V37.5776H46.7298ZM64.7071 34.8432H5.29293C3.88213 34.8432 2.73438 33.6994 2.73438 32.2934C2.73438 30.8874 3.88213 29.7436 5.29293 29.7436H64.7069C66.1177 29.7436 67.2655 30.8874 67.2655 32.2934C67.2655 33.6994 66.1179 34.8432 64.7071 34.8432Z" fill="#4EA2E2"/>
<path d="M23.0889 19.7516H46.9072C47.6623 19.7516 48.2744 19.1394 48.2744 18.3844C48.2744 17.6295 47.6623 17.0172 46.9072 17.0172H23.0889C22.3338 17.0172 21.7217 17.6295 21.7217 18.3844C21.7217 19.1394 22.3338 19.7516 23.0889 19.7516Z" fill="#4EA2E2"/>
</g>
<defs>
<clipPath id="clip0">
<rect width="70" height="70" fill="white"/>
</clipPath>
</defs>
</svg>
