<svg width="113" height="114" viewBox="0 0 113 114" fill="none" xmlns="http://www.w3.org/2000/svg">
<g clip-path="url(#clip0)">
<path d="M84.0443 26.9756C80.5528 22.8145 75.9055 21.1588 73.4641 23.2073L23.0105 65.5429C20.5691 67.5915 21.3927 72.4557 24.8842 76.6168C28.05 80.3896 32.1604 82.092 34.721 80.8522C35.323 81.3751 35.896 81.9394 36.4123 82.5547C39.3522 86.0584 40.3111 90.2975 38.5068 91.8115C38.2236 92.0491 38.1747 92.4557 38.3964 92.72C38.6182 92.9843 39.0271 93.0067 39.3103 92.769L89.8689 50.3454C92.3103 48.2968 91.4867 43.4325 87.9951 39.2715C87.4918 38.6716 86.9367 38.1224 86.3589 37.6045C88.2362 35.3578 87.3045 30.8609 84.0443 26.9756Z" fill="#F5F5F5"/>
<path d="M72.1929 33.6553C68.9758 29.8213 68.0875 25.27 70.2088 23.49L19.7552 65.8256C17.6339 67.6056 18.5222 72.1569 21.7393 75.9909C24.9565 79.825 29.2844 81.4901 31.4057 79.7101L81.8593 37.3745C79.738 39.1545 75.4101 37.4894 72.1929 33.6553Z" fill="#4EA2E2"/>
<path d="M81.8598 37.3745C83.9812 35.5944 83.0928 31.0432 79.8756 27.2091C76.6584 23.375 72.3306 21.7099 70.2093 23.4899C68.0879 25.27 68.9762 29.8211 72.1934 33.6553C75.4106 37.4894 79.7384 39.1545 81.8598 37.3745Z" fill="white"/>
<path d="M31.2022 79.8812C31.9176 80.4696 32.6157 81.1517 33.2677 81.9288C36.4849 85.7628 37.3732 90.3141 35.2519 92.0941L85.5621 49.8789L85.811 49.67C87.9323 47.89 87.044 43.3387 83.8268 39.5047C83.1752 38.7281 82.4767 38.0455 81.7613 37.457L31.2022 79.8812Z" fill="#F5F5F5"/>
<path d="M33.2676 81.9288C36.4847 85.7628 37.373 90.3141 35.2517 92.0941L85.5619 49.8788L85.8108 49.67C87.9322 47.89 87.0438 43.3387 83.8267 39.5046C83.6029 39.238 83.3672 38.9976 83.1339 38.7528L32.5748 81.177C32.8081 81.4217 33.0438 81.6621 33.2676 81.9288Z" fill="#F5F5F5"/>
<path d="M31.6434 57.5052L36.0149 53.8371C36.308 53.5912 36.3648 53.178 36.1431 52.9137C35.9213 52.6494 35.5045 52.6337 35.2115 52.8795L30.8399 56.5477C30.5469 56.7936 30.49 57.2068 30.7118 57.4711C30.9336 57.7354 31.3504 57.7511 31.6434 57.5052Z" fill="#4EA2E2"/>
<path d="M83.4363 25.0605C79.9447 20.8994 75.2312 19.2992 72.7053 21.4188C72.7053 21.4188 72.7053 21.4187 72.7047 21.4192L38.1263 50.434C37.8332 50.6799 37.7764 51.0931 37.9981 51.3574C38.2199 51.6217 38.6367 51.6374 38.9297 51.3915L71.2626 24.2611C71.2565 24.3119 71.26 24.3677 71.2548 24.4186C71.2346 24.6248 71.2237 24.8346 71.2237 25.0508C71.2238 25.1413 71.224 25.2309 71.2271 25.3229C71.236 25.5627 71.2567 25.808 71.2892 26.0565C71.2961 26.1111 71.2987 26.1636 71.307 26.2187C71.3515 26.5182 71.4158 26.8241 71.4941 27.1337C71.5174 27.2259 71.5462 27.3184 71.5721 27.4117C71.6375 27.6424 71.7102 27.8743 71.7933 28.1089C71.8299 28.2128 71.8661 28.3162 71.9068 28.4208C72.0138 28.6989 72.1324 28.978 72.2639 29.2585C72.286 29.3052 72.303 29.3513 72.326 29.3981C72.4802 29.7175 72.654 30.0375 72.84 30.3571C72.8993 30.4591 72.9639 30.5607 73.026 30.6628C73.1688 30.8954 73.3188 31.1269 73.4779 31.3573C73.5499 31.4625 73.6207 31.5663 73.6956 31.6706C73.9136 31.9724 74.1431 32.2717 74.3888 32.5666C74.4032 32.5838 74.4144 32.6014 74.4288 32.6187C74.4433 32.6359 74.4587 32.6499 74.4731 32.6672C74.7213 32.9607 74.9764 33.2378 75.2351 33.5053C75.3244 33.5977 75.4152 33.6855 75.5059 33.7742C75.7057 33.9704 75.9071 34.1587 76.1114 34.3398C76.2011 34.4187 76.29 34.4999 76.3801 34.5761C76.6627 34.8138 76.9476 35.0415 77.2353 35.2488C77.277 35.2791 77.3198 35.3043 77.362 35.3342C77.6154 35.5124 77.8696 35.6776 78.125 35.8313C78.221 35.8886 78.3165 35.9422 78.4124 35.9973C78.6286 36.1194 78.8442 36.2321 79.0606 36.3361C79.1475 36.3783 79.234 36.4223 79.3209 36.4612C79.6122 36.5921 79.9022 36.7085 80.1895 36.8044C80.2423 36.8221 80.2936 36.8338 80.3461 36.8501C80.5861 36.9252 80.8232 36.9882 81.0578 37.0386C81.1478 37.0577 81.2364 37.0739 81.3251 37.0892C81.5377 37.1263 81.7466 37.1525 81.9532 37.1684C82.0046 37.1726 82.0589 37.1857 82.1096 37.1881L32.1545 79.1054C30.2877 80.6718 26.2267 79.0356 23.2868 75.5319C20.3468 72.0282 19.4407 67.7448 21.3075 66.1784L28.5971 60.0617C28.8901 59.8158 28.947 59.4026 28.7252 59.1383C28.5034 58.874 28.0866 58.8583 27.7936 59.1041L20.504 65.2208C17.978 67.3403 18.7355 72.2601 22.227 76.4212C25.3927 80.1939 29.5581 81.8511 32.1915 80.5495C32.7952 81.0677 33.3698 81.6298 33.8881 82.2474C36.828 85.7511 37.7341 90.0346 35.8673 91.601C35.5743 91.8469 35.5174 92.2601 35.7392 92.5244C35.961 92.7887 36.3778 92.8044 36.6708 92.5585L88.9807 48.6653C91.5067 46.5458 90.7493 41.626 87.2577 37.465C86.7555 36.8665 86.1981 36.3184 85.6162 35.8024C87.5708 33.4916 86.6968 28.9463 83.4363 25.0605ZM88.1772 47.7078L38.113 89.7167C38.4119 87.3127 37.3012 84.1629 34.9478 81.3582C34.4577 80.7741 33.9265 80.2261 33.3639 79.7224L84.604 36.7268C85.1739 37.2252 85.7086 37.7711 86.198 38.3542C89.1379 41.8579 90.044 46.1414 88.1772 47.7078ZM84.3558 35.3033C82.489 36.8697 78.428 35.2335 75.4881 31.7299C72.5481 28.2262 71.642 23.9427 73.5088 22.3763C75.3755 20.8099 79.4366 22.4461 82.3765 25.9498C85.3165 29.4534 86.2226 33.7369 84.3558 35.3033Z" fill="#4EA2E2"/>
<path d="M81.1423 31.4735C81.8739 30.8596 81.4777 29.183 80.2574 27.7286C79.0371 26.2743 77.4548 25.593 76.7231 26.2069C75.9915 26.8208 76.3877 28.4974 77.608 29.9518C78.8283 31.4061 80.4107 32.0874 81.1423 31.4735Z" fill="#4EA2E2"/>
</g>
<defs>
<clipPath id="clip0">
<rect width="80" height="80" fill="white" transform="translate(0 52) rotate(-40)"/>
</clipPath>
</defs>
</svg>
