<svg width="80" height="80" viewBox="0 0 80 80" fill="none" xmlns="http://www.w3.org/2000/svg">
<path d="M64.7473 65.4586V23.6815C64.7473 22.2102 64.3907 20.9469 63.6943 19.9512C63.6773 19.9363 63.6603 19.9066 63.6433 19.8917C63.1338 19.2527 62.5902 18.6582 62.0637 18.0637C60.6709 16.5032 59.3461 15.017 58.8875 13.3822V13.3227H59.5839C60.7049 13.3227 61.9448 12.4904 61.9448 11.2866V7.0361C61.9448 5.83227 60.7049 5 59.5839 5H21.1975C19.8556 5 18.8365 5.87686 18.8365 7.0361V11.2866C18.8365 12.4459 19.8556 13.3227 21.1975 13.3227H21.6391V13.4565C21.4862 15.0913 20.1614 16.5032 18.7686 18.0042C18.2081 18.5987 17.6306 19.2229 17.121 19.862C16 21.0807 16 22.4628 16 23.6815V65.5032C16 68.8917 17.8174 71.9979 20.8578 73.811C21.9958 74.5839 23.4395 75 24.9342 75C25.2229 75 25.5117 74.9851 25.8174 74.9554H54.9979C57.2229 74.9554 59.1422 74.4204 60.569 73.4098C63.5244 71.2994 64.9682 68.5499 64.7473 65.4586ZM21.4013 11.0934V7.21444H59.397V11.0934H21.4013ZM58.9724 71.6561C57.7495 72.5181 56.1529 72.6964 55.0149 72.6964H25.7495C25.6985 72.6964 25.6306 72.6964 25.5796 72.7113C24.4416 72.845 23.2696 72.5924 22.4204 72.0127C22.4034 71.9979 22.3694 71.983 22.3524 71.9682C19.9575 70.5563 18.5817 68.1932 18.5817 65.4883V23.6667C18.5817 22.5372 18.6157 21.8089 19.1592 21.2293C19.1762 21.1996 19.2102 21.1847 19.2272 21.155C19.6688 20.5754 20.2123 20.0106 20.7728 19.4161C22.3015 17.7813 24.034 15.9384 24.2208 13.5754C24.2208 13.5456 24.2208 13.5308 24.2208 13.5011V13.3227H56.3567V13.5011C56.3567 13.5754 56.3737 13.6645 56.3907 13.7389C56.9342 15.9087 58.5308 17.707 60.0764 19.431C60.569 19.9809 61.0786 20.5605 61.5541 21.1401C61.9958 21.7792 62.2166 22.6263 62.2166 23.6667V65.4883C62.2166 65.518 62.2166 65.5329 62.2166 65.5626C62.3864 67.9554 61.2994 70.0064 58.9724 71.6561Z" fill="#4EA2E2"/>
<path d="M57.6476 43.0913C56.9512 43.0913 56.3737 43.5966 56.3737 44.206V60.8663C56.3737 62.8132 55.7113 64.552 54.4714 65.9193L52.2973 68.327C51.8557 68.8026 51.9406 69.5011 52.5011 69.8875C52.7219 70.051 53.0107 70.1253 53.2824 70.1253C53.6561 70.1253 54.0298 69.9767 54.2846 69.7091L56.4756 67.3015C58.0722 65.5478 58.9215 63.3185 58.9215 60.8663V44.206C58.9215 43.5966 58.344 43.0913 57.6476 43.0913Z" fill="#4EA2E2"/>
</svg>
