<svg width="14" height="10" viewBox="0 0 14 10" fill="none" xmlns="http://www.w3.org/2000/svg">
<path d="M0.705078 0L6.22545 4.57831C6.46035 4.75904 6.75399 4.81928 7.04763 4.81928C7.34126 4.81928 7.69363 4.75904 7.86981 4.57831L13.3902 0H0.705078V0Z" fill="#c63335"/>
<path d="M13.3311 1.50596L7.81073 5.84331C7.57582 6.02404 7.34091 6.08428 7.04728 6.08428C6.75364 6.08428 6.51873 6.02404 6.28382 5.84331L0.763455 1.50596C0.352364 1.20476 0 1.38548 0 1.86741V9.03609C0 9.57825 0.411091 9.99994 0.939637 9.99994H13.0375C13.566 9.99994 13.9771 9.57825 13.9771 9.03609V1.86741C14.0946 1.32524 13.7422 1.20476 13.3311 1.50596Z" fill="#c63335"/>
</svg>
