<svg width="80" height="80" viewBox="0 0 80 80" fill="none" xmlns="http://www.w3.org/2000/svg">
<path d="M32.2031 68.2812C30.2647 68.2812 28.6875 69.8583 28.6875 71.7969C28.6875 73.7355 30.2647 75.3125 32.2031 75.3125C34.1416 75.3125 35.7188 73.7355 35.7188 71.7969C35.7188 69.8583 34.1416 68.2812 32.2031 68.2812ZM32.2031 72.9688C31.5569 72.9688 31.0312 72.4431 31.0312 71.7969C31.0312 71.1506 31.5569 70.625 32.2031 70.625C32.8494 70.625 33.375 71.1506 33.375 71.7969C33.375 72.4431 32.8494 72.9688 32.2031 72.9688Z" fill="#4EA2E2"/>
<path d="M47.2031 68.2812C45.2647 68.2812 43.6875 69.8583 43.6875 71.7969C43.6875 73.7355 45.2647 75.3125 47.2031 75.3125C49.1416 75.3125 50.7188 73.7355 50.7188 71.7969C50.7188 69.8583 49.1416 68.2812 47.2031 68.2812ZM47.2031 72.9688C46.5569 72.9688 46.0312 72.4431 46.0312 71.7969C46.0312 71.1506 46.5569 70.625 47.2031 70.625C47.8494 70.625 48.375 71.1506 48.375 71.7969C48.375 72.4431 47.8494 72.9688 47.2031 72.9688Z" fill="#4EA2E2"/>
<path d="M48.2031 0C43.68 0 40 3.67984 40 8.20312V71.7969C40 76.3202 43.68 80 48.2031 80C52.7262 80 56.4062 76.3202 56.4062 71.7969V8.20312C56.4062 3.67984 52.7262 0 48.2031 0ZM48.2031 77.6562C44.9722 77.6562 42.3438 75.0278 42.3438 71.7969C42.3438 68.5659 44.9722 65.9375 48.2031 65.9375C51.4341 65.9375 54.0625 68.5659 54.0625 71.7969C54.0625 75.0278 51.4341 77.6562 48.2031 77.6562ZM54.0625 66.0638C52.5723 64.5411 50.4967 63.5938 48.2031 63.5938C45.9095 63.5938 43.8339 64.5411 42.3438 66.0638V8.20312C42.3438 4.97219 44.9722 2.34375 48.2031 2.34375C51.4341 2.34375 54.0625 4.97219 54.0625 8.20312V66.0638Z" fill="#4EA2E2"/>
<path d="M32.2031 0C27.68 0 24 3.67984 24 8.20312V71.7969C24 76.3202 27.68 80 32.2031 80C36.7262 80 40.4062 76.3202 40.4062 71.7969V8.20312C40.4062 3.67984 36.7262 0 32.2031 0ZM32.2031 77.6562C28.9722 77.6562 26.3438 75.0278 26.3438 71.7969C26.3438 68.5659 28.9722 65.9375 32.2031 65.9375C35.4341 65.9375 38.0625 68.5659 38.0625 71.7969C38.0625 75.0278 35.4341 77.6562 32.2031 77.6562ZM38.0625 66.0638C36.5723 64.5411 34.4967 63.5938 32.2031 63.5938C29.9095 63.5938 27.8339 64.5411 26.3438 66.0638V8.20312C26.3438 4.97219 28.9722 2.34375 32.2031 2.34375C35.4341 2.34375 38.0625 4.97219 38.0625 8.20312V66.0638Z" fill="#4EA2E2"/>
</svg>
