<svg width="65" height="65" viewBox="0 0 65 65" fill="none" xmlns="http://www.w3.org/2000/svg">
<g clip-path="url(#clip0)">
<path d="M61.3353 48.2412L63.3704 50.2763C64.2308 51.1367 65.5954 49.8102 64.7158 48.9309L62.6807 46.8957L64.6757 44.9007C65.5176 44.0589 64.2104 42.6751 63.3303 43.5553L61.3353 45.5504L55.4259 39.641C55.9133 39.1549 60.425 34.7246 61.3221 33.8039L63.3704 35.8522C64.2308 36.7126 65.5954 35.3861 64.7158 34.5067L62.6537 32.4446C63.3208 31.7693 63.9835 31.1133 64.6743 30.477C65.577 29.6456 64.2881 28.2461 63.3852 29.0774C62.6757 29.7308 61.9853 30.4143 61.3083 31.0992L55.4686 25.2595L61.3353 19.3928L63.3436 21.4012C64.2041 22.2617 65.5686 20.9351 64.689 20.0558L62.6807 18.0474L64.7025 16.0256C65.5444 15.1839 64.2372 13.8 63.3571 14.6802L61.3353 16.7021L55.4819 10.8486L61.3486 4.98193L63.3436 6.97695C64.2041 7.83739 65.5686 6.51089 64.689 5.63154L62.694 3.63653L64.7023 1.62819C65.5442 0.786388 64.2371 -0.597456 63.357 0.282778L61.3486 2.29112L59.3404 0.282398C58.4986 -0.5594 57.1146 0.747696 57.995 1.6278L60.0033 3.63614L54.1366 9.50286L48.2699 3.63614L50.2784 1.62768C51.1203 0.785878 49.8131 -0.597964 48.933 0.282271L46.9244 2.29074L44.9161 0.282398C44.0743 -0.5594 42.6903 0.747696 43.5706 1.6278L45.5791 3.63627L39.7124 9.503L33.8456 3.63627L35.854 1.62793C36.6959 0.78613 35.3887 -0.59771 34.5086 0.282524L32.5003 2.29086L30.4916 0.282398C29.6499 -0.5594 28.2659 0.747696 29.1463 1.6278L31.1546 3.63614L25.2879 9.50286L19.4213 3.63627L21.4297 1.62793C22.2716 0.78613 20.9644 -0.59771 20.0842 0.282524L18.0759 2.29086L16.0674 0.282398C15.2257 -0.5594 13.8416 0.747696 14.722 1.6278L16.7304 3.63614L10.8637 9.50286L4.99695 3.63627L7.00532 1.62793C7.84725 0.78613 6.53999 -0.59771 5.65989 0.282524L3.65155 2.29074L1.64307 0.282398C0.801275 -0.5594 -0.582692 0.747696 0.29767 1.6278L2.30601 3.63614L0.31099 5.63116C-0.568611 6.51051 0.796075 7.83704 1.6564 6.97657L3.65142 4.98155L9.5181 10.8483L3.69125 16.6751C3.00954 15.9975 2.32111 15.3243 1.62582 14.6631C0.736583 13.8172 -0.574699 15.1964 0.314669 16.042C0.996883 16.6907 1.67403 17.353 2.34572 18.0206L0.31099 20.0555C-0.568611 20.9349 0.796075 22.2614 1.6564 21.4009L3.68846 19.3689C4.44527 20.1353 5.19383 20.9027 5.93186 21.6595C7.09639 22.8538 8.28932 24.0727 9.50642 25.2842L3.66486 31.126L1.6432 29.1042C0.801408 28.2624 -0.582564 29.5695 0.297797 30.4496L2.31946 32.4714L0.284224 34.5065C-0.595377 35.3858 0.769313 36.7123 1.62963 35.8519L3.66473 33.8168L9.53145 39.6835L3.66486 45.5502L1.66984 43.5552C0.828044 42.7134 -0.555926 44.0205 0.324437 44.9006L2.31946 46.8956L0.284224 48.9309C-0.595377 49.8102 0.769313 51.1367 1.62963 50.2763L3.66473 48.2412L9.53145 54.1079L3.66486 59.9746L1.66984 57.9796C0.828044 57.1378 -0.555926 58.4448 0.324437 59.325L2.31946 61.32L0.31099 63.3284C-0.568611 64.2078 0.796075 65.5343 1.6564 64.6739L3.66473 62.6655L5.67308 64.6739C6.53353 65.5343 7.89806 64.2078 7.01846 63.3284L5.01027 61.3201L10.877 55.4534L16.7302 61.3066L14.7085 63.3284C13.8289 64.2078 15.1936 65.5343 16.0539 64.6739L18.0757 62.6521L20.0974 64.6739C20.9579 65.5343 22.3225 64.2078 21.4429 63.3284L19.4213 61.3066L25.288 55.4399L31.165 61.3171C30.4893 61.988 29.8133 62.6577 29.1378 63.3237C28.2518 64.1971 29.6079 65.5326 30.4737 64.6787C31.1525 64.0094 31.8316 63.3365 32.5104 62.6626L34.5218 64.674C35.3822 65.5344 36.7468 64.2079 35.8672 63.3286L33.8595 61.3208C35.8236 59.3638 37.7788 57.4016 39.7023 55.4682C41.6597 57.4206 43.616 59.3701 45.5703 61.3154L43.5572 63.3286C42.6776 64.2079 44.0423 65.5344 44.9026 64.674L46.9192 62.6574C47.5954 63.3302 48.2724 64.0044 48.9479 64.676C49.8107 65.5337 51.1716 64.2038 50.2895 63.3265C49.6153 62.6563 48.9395 61.9834 48.2647 61.3119L54.1232 55.4534L59.9899 61.3201L57.9815 63.3284C57.1019 64.2078 58.4667 65.5343 59.327 64.6739L61.3353 62.6655L63.3436 64.6739C64.2041 65.5343 65.5686 64.2078 64.689 63.3284L62.6808 61.3201L64.6758 59.3251C65.5178 58.4833 64.2106 57.0995 63.3304 57.9797L61.3354 59.9747L55.4687 54.108L61.3353 48.2412ZM59.9899 46.8957L54.1232 52.7624L48.2545 46.8937C48.5235 46.6258 48.7926 46.3579 49.0614 46.0906C49.9061 45.2514 48.6033 43.8637 47.7203 44.7409C47.4499 45.0095 47.1794 45.2789 46.909 45.5482L41.0444 39.6835L46.9111 33.8168L52.749 39.6547C52.4705 39.9467 52.1937 40.242 51.9204 40.5423C51.0961 41.4479 52.4978 42.7346 53.3275 41.8233C53.5819 41.5438 53.8378 41.2707 54.0947 41.0005L59.9899 46.8957ZM33.8218 46.9061L39.6989 41.029L45.5619 46.892C43.5857 48.8661 41.6186 50.8435 39.6975 52.775C37.7386 50.8201 35.7796 48.8639 33.8218 46.9061ZM32.5001 19.4061L38.3668 25.2728L32.5001 31.1395L26.6334 25.2728L32.5001 19.4061ZM25.2879 23.9272L19.4213 18.0605L25.288 12.1938L31.1547 18.0605L25.2879 23.9272ZM41.0578 25.2728L46.9245 19.4061L52.7779 25.2594L46.9112 31.1261L41.0578 25.2728ZM45.5656 32.4715L39.6989 38.3382L33.8456 32.485L39.7124 26.6183L45.5656 32.4715ZM39.7123 23.9272L33.8456 18.0605L39.7123 12.1938L45.579 18.0605L39.7123 23.9272ZM31.1546 32.4848L25.2838 38.3556C23.3271 36.3931 21.3761 34.4337 19.4292 32.4769L25.2879 26.618L31.1546 32.4848ZM23.9383 39.7011L18.0891 45.5504L12.2224 39.6837L18.0835 33.8225C20.0307 35.7792 21.9816 37.7386 23.9383 39.7011ZM25.2822 41.0482C27.229 42.9999 29.179 44.9527 31.1313 46.9058L25.2879 52.7492L19.4346 46.8959L25.2822 41.0482ZM26.6277 39.7027L32.5001 33.8302L38.3534 39.6835L32.4768 45.5601C30.5246 43.6072 28.5746 41.6544 26.6277 39.7027ZM59.9765 32.4582C59.0851 33.3734 54.5844 37.7932 54.0807 38.2957L48.2565 32.4715L54.1232 26.6048L59.9765 32.4582ZM59.9899 18.0472L54.1232 23.9139L48.2698 18.0605L54.1365 12.1938L59.9899 18.0472ZM46.9244 4.98168L52.7911 10.8484L46.9244 16.7151L41.0576 10.8484L46.9244 4.98168ZM32.5001 4.98168L38.3668 10.8484L32.5001 16.7151L26.6334 10.8484L32.5001 4.98168ZM18.0758 4.98168L23.9425 10.8484L18.0758 16.7151L12.2091 10.8484L18.0758 4.98168ZM7.29426 20.3312C6.55103 19.5689 5.79714 18.7962 5.03412 18.0234L10.8637 12.1938L16.7304 18.0605L10.8502 23.9407C9.64027 22.7367 8.45461 21.5212 7.29426 20.3312ZM5.01027 32.4714L10.8643 26.6173C11.1304 26.8755 11.3946 27.1352 11.6634 27.3911C12.5506 28.2353 13.8651 26.8594 12.9751 26.0126C12.718 25.7679 12.4621 25.5217 12.2071 25.2746L18.0757 19.4061L23.9424 25.2728L18.0869 31.1283C17.8174 30.8572 17.5464 30.5852 17.2771 30.3142C16.4376 29.4701 15.0499 30.7731 15.9277 31.6559C16.1983 31.9281 16.4704 32.2013 16.7414 32.4737L10.877 38.3381L5.01027 32.4714ZM5.01027 46.8957L10.877 41.029L16.7437 46.8957L10.877 52.7624L5.01027 46.8957ZM18.0758 59.9613L12.2225 54.108L18.0892 48.2413L23.9425 54.0945L18.0758 59.9613ZM32.5141 59.9752L26.6334 54.0945L32.4763 48.2517C34.4352 50.2105 36.3955 52.168 38.3556 54.1241C36.4321 56.0572 34.4771 58.0191 32.5141 59.9752ZM46.9159 59.9697C44.9604 58.0232 43.0029 56.0727 41.0444 54.119C42.9651 52.1878 44.932 50.2107 46.9072 48.2375L52.7776 54.1079L46.9159 59.9697Z" fill="#4EA2E2"/>
</g>
<defs>
<clipPath id="clip0">
<rect width="65" height="65" fill="white"/>
</clipPath>
</defs>
</svg>
