<svg width="65" height="65" viewBox="0 0 65 65" fill="none" xmlns="http://www.w3.org/2000/svg">
<g clip-path="url(#clip0)">
<path d="M64.3631 15.8442C63.7561 15.3032 62.8725 15.2071 62.1638 15.6052L59.7566 16.9566L64.8521 4.79869C65.1665 4.04878 64.9699 3.18208 64.363 2.64113C63.756 2.09993 62.8724 2.00395 62.1636 2.40208L55.8678 5.93657L49.6948 2.40919C49.1421 2.09333 48.468 2.07454 47.8984 2.35929L40.6251 5.99599L33.3517 2.35929C32.8156 2.0913 32.1846 2.0913 31.6485 2.35929L24.3751 5.99599L17.1017 2.35929C16.5323 2.07454 15.8581 2.0932 15.3053 2.40919L9.13263 5.93657L2.83678 2.40208C2.12801 2.00408 1.24441 2.10006 0.637452 2.64113C0.0304904 3.18208 -0.165906 4.04878 0.148303 4.79869L5.24381 16.9566L2.83666 15.6052C2.12788 15.2072 1.24429 15.3032 0.637325 15.8442C0.0303634 16.3852 -0.166033 17.2519 0.148176 18.0018L5.24368 30.1597L2.83653 28.8083C2.12775 28.4103 1.24429 28.5063 0.637452 29.0471C0.0304904 29.588 -0.16616 30.4545 0.147922 31.2044L10.7002 56.4025C12.0185 60.2573 15.6292 62.8418 19.7089 62.8418H45.2911C49.3708 62.8418 52.9815 60.2574 54.2998 56.4025L64.8521 31.2044C65.1661 30.4545 64.9694 29.588 64.3626 29.0471C63.7558 28.5063 62.8722 28.4101 62.1635 28.8083L59.7564 30.1597L64.8519 18.0018C65.1665 17.252 64.9701 16.3852 64.3631 15.8442V15.8442ZM49.6951 28.8155C49.1423 28.4997 48.4682 28.4809 47.8987 28.7656L40.6253 32.4023L33.3519 28.7656C32.8158 28.4976 32.1849 28.4976 31.6487 28.7656L24.3754 32.4023L17.102 28.7656C16.5326 28.4807 15.8583 28.4995 15.3056 28.8155L10.0652 31.8099L5.80177 21.6375L8.20879 22.9888C8.6106 23.2138 9.08045 23.2849 9.52288 23.1935C9.95059 23.1059 9.60629 23.2556 16.3103 19.4248L23.5238 23.0315C24.0599 23.2995 24.6908 23.2995 25.227 23.0315L32.5003 19.3948L39.7737 23.0315C40.3098 23.2995 40.9408 23.2995 41.4769 23.0315L48.6904 19.4248C55.4115 23.2654 55.0526 23.1045 55.4702 23.1918C55.8427 23.2701 56.2228 23.23 56.55 23.1025C56.7269 23.0337 56.6332 23.0779 59.1989 21.6375L54.9354 31.8099L49.6951 28.8155ZM8.20879 9.78566C8.79227 10.1133 9.50473 10.1105 10.0858 9.77855L16.3103 6.22171L23.5238 9.82844C24.0599 10.0964 24.6908 10.0964 25.227 9.82844L32.5003 6.19175L39.7737 9.82844C40.3098 10.0964 40.9408 10.0964 41.4769 9.82844L48.6904 6.22171L54.9149 9.77855C55.4958 10.1105 56.2084 10.1132 56.7919 9.78566L59.1989 8.43437L54.9354 18.6068L49.6951 15.6124C49.1423 15.2964 48.4682 15.2779 47.8987 15.5625L40.6253 19.1992L33.3519 15.5625C32.8158 15.2945 32.1849 15.2945 31.6487 15.5625L24.3754 19.1992L17.102 15.5625C16.5326 15.2778 15.8583 15.2964 15.3056 15.6124L10.0652 18.6068L5.80164 8.43437L8.20879 9.78566ZM50.711 55.1269C49.9322 57.4633 47.7541 59.0332 45.2913 59.0332H19.7092C17.2463 59.0332 15.0683 57.4634 14.2896 55.1269C14.254 55.0207 14.8541 56.4611 5.79948 34.8392C8.1476 36.1574 8.15319 36.1613 8.23571 36.2058C8.8221 36.5222 9.50955 36.504 10.0673 36.1945C10.1551 36.1455 11.9196 35.1369 16.3103 32.6279L23.5238 36.2346C24.0599 36.5026 24.6908 36.5026 25.227 36.2346L32.5003 32.5979L39.7737 36.2346C40.3098 36.5026 40.9408 36.5026 41.4769 36.2346L48.6904 32.6279C55.3643 36.4416 54.9603 36.2166 55.1076 36.28C55.6185 36.4996 56.2187 36.4921 56.7434 36.217C56.8231 36.1752 56.4745 36.37 59.2012 34.8393C50.1454 56.4639 50.7465 55.0207 50.711 55.1269Z" fill="#4EA2E2"/>
</g>
<defs>
<clipPath id="clip0">
<rect width="65" height="65" fill="white"/>
</clipPath>
</defs>
</svg>
