<svg width="14" height="14" viewBox="0 0 14 14" fill="none" xmlns="http://www.w3.org/2000/svg">
<path d="M1.14605 1.06395C1.11556 1.03323 1.09844 0.991681 1.09844 0.948372C1.09844 0.905062 1.11556 0.863512 1.14605 0.832797L1.93192 0.0475441C1.96242 0.0172579 2.00358 0.000183827 2.04653 2.74007e-06C2.06808 -0.000121998 2.08944 0.0040133 2.10939 0.0121715C2.12933 0.0203297 2.14748 0.0323503 2.16277 0.0475441L4.8151 2.69511C4.83044 2.71035 4.84262 2.72848 4.85093 2.74846C4.85925 2.76843 4.86353 2.78986 4.86353 2.8115C4.86353 2.83314 4.85925 2.85457 4.85093 2.87455C4.84262 2.89453 4.83044 2.91266 4.8151 2.9279L4.03413 3.71151C4.00391 3.7424 3.96271 3.76008 3.91953 3.76069C3.89787 3.7606 3.87644 3.75621 3.85648 3.74777C3.83653 3.73932 3.81845 3.727 3.80328 3.71151L1.14605 1.06395ZM11.2969 9.16894C11.2662 9.1384 11.2247 9.12126 11.1815 9.12126C11.1382 9.12126 11.0967 9.1384 11.0661 9.16894L10.2851 9.95419C10.2546 9.98491 10.2375 10.0265 10.2375 10.0698C10.2375 10.1131 10.2546 10.1546 10.2851 10.1853L12.9341 12.8345C12.9494 12.8497 12.9676 12.8618 12.9875 12.8699C13.0075 12.8781 13.0288 12.8822 13.0504 12.8821C13.0721 12.882 13.0935 12.8776 13.1134 12.8692C13.1334 12.8607 13.1515 12.8484 13.1666 12.8329L13.946 12.0493C13.9614 12.0341 13.9737 12.016 13.9822 11.996C13.9906 11.976 13.995 11.9546 13.9951 11.9329C13.9945 11.8897 13.9768 11.8484 13.946 11.8181L11.2969 9.16894ZM10.0526 10.4214L10.0379 10.4017C10.0224 10.3845 10.0034 10.3708 9.98227 10.3615C9.96111 10.3522 9.93821 10.3475 9.91509 10.3476C9.88522 10.3479 9.85591 10.3558 9.82995 10.3706C9.59068 10.5101 9.31765 10.581 9.0408 10.5755C8.36299 10.5755 7.20055 10.2148 5.51256 8.49024C2.95683 5.99678 3.33667 4.63775 3.61828 4.16889C3.63789 4.13621 3.64551 4.09771 3.63984 4.06001C3.63416 4.02231 3.61553 3.98777 3.58717 3.96233L3.56589 3.94594L0.916839 1.30165C0.88661 1.27077 0.845417 1.25309 0.802232 1.25247C0.779012 1.25314 0.756199 1.25875 0.73531 1.26892C0.714421 1.2791 0.695934 1.29361 0.681077 1.31149C0.072025 1.96723 -1.49154 4.57873 3.97356 10.0345C6.61114 12.6673 8.88526 14.0018 10.7517 13.9985C11.4648 14.0218 12.1603 13.7741 12.6984 13.305C12.7146 13.2899 12.7277 13.2717 12.7367 13.2514C12.7457 13.2311 12.7505 13.2092 12.7508 13.187C12.7513 13.1649 12.7474 13.1429 12.7393 13.1223C12.7311 13.1017 12.7189 13.083 12.7033 13.0673L10.0526 10.4214Z" fill="#c63335"/>
</svg>
