<svg width="75" height="75" viewBox="0 0 75 75" fill="none" xmlns="http://www.w3.org/2000/svg">
<g clip-path="url(#clip0)">
<path d="M59.6204 22.261C59.6204 22.261 58.2999 22.6008 56.2923 23.5714C53.0559 19.2625 48.4167 16.0903 43.0492 14.7137C41.7264 11.8904 39.5244 9.89012 36.4014 9.83732V9.82925C36.3786 9.82925 36.2846 9.82925 36.2594 9.82925V9.83378C32.8273 9.89327 30.4652 12.1546 29.1687 15.3144C24.9996 16.7792 21.341 19.3403 18.575 22.682C16.9259 21.279 15.7369 20.2971 15.7369 20.2971L14.8843 21.1497L17.6515 23.9181C17.354 24.3302 17.0689 24.7479 16.7967 25.1793L13.8248 22.2117L12.6689 23.3665L15.9293 26.627C15.728 27.0023 15.555 27.3937 15.3718 27.7806L11.8139 24.2225L10.658 25.3784L14.6804 29.3999C14.4836 29.916 14.2844 30.4288 14.1219 30.9609L9.5993 26.4383L8.74316 27.2909C8.74316 27.2909 10.9954 30.0192 13.5989 32.9935C13.2567 34.6013 13.0723 36.263 13.0723 37.9693C13.0723 45.8223 16.8786 52.7849 22.7231 57.1702L21.3589 58.2003L21.3646 58.2072C21.3498 58.2186 21.3291 58.2322 21.312 58.2507C19.9983 59.5645 20.0004 61.6999 21.3177 63.0113C21.3806 63.0779 22.1565 63.8515 22.2241 63.9179C23.539 65.2385 25.6721 65.2385 26.9849 63.9224C27.0032 63.9039 27.017 63.8836 27.0296 63.8696L27.0341 63.8765L29.466 60.7291C30.4742 61.0703 31.5055 61.3473 32.5651 61.551L32.2582 63.755H32.2651C32.2627 63.7755 32.2582 63.7963 32.2582 63.8214C32.2582 65.68 33.7678 67.1884 35.6284 67.1884C35.7224 67.1884 36.8186 67.1884 36.9126 67.1884C38.7713 67.1884 40.284 65.68 40.284 63.8214C40.284 63.794 40.2794 63.7733 40.2747 63.755H40.284L40.0344 61.798C41.5266 61.6148 42.9824 61.3081 44.3807 60.8617L46.6512 63.874L46.6579 63.8671C46.6741 63.8832 46.6833 63.9037 46.7017 63.922C48.0154 65.2381 50.1485 65.2358 51.4648 63.9175C51.5263 63.8535 52.3048 63.0753 52.3733 63.0088C53.6895 61.6952 53.6916 59.5619 52.3733 58.2505C52.3574 58.2299 52.3389 58.2184 52.3229 58.2048L52.3274 58.2003L51.2381 57.3582C57.2257 52.9866 61.1394 45.9323 61.1394 37.9695C61.1394 34.4276 60.3498 31.0757 58.9675 28.0453C62.9476 24.0353 66.0056 20.9283 66.2321 20.7006C66.8304 20.0935 59.6204 22.261 59.6204 22.261ZM25.8055 62.3474C25.1566 62.9975 23.9939 62.8876 23.2065 62.1049C22.4215 61.3176 22.3094 60.1549 22.9628 59.505C23.6151 58.8547 24.7789 58.9625 25.5651 59.7497C26.348 60.5302 26.4577 61.6952 25.8055 62.3474ZM50.5474 62.0291C49.7602 62.8143 48.5975 62.924 47.9451 62.2742C47.2926 61.6217 47.4073 60.4567 48.19 59.6717C48.9726 58.8866 50.1355 58.7767 50.7879 59.4268C51.4423 60.0792 51.3304 61.2443 50.5474 62.0291ZM53.9875 24.8245C52.1657 25.9267 50.0783 27.4453 47.9839 29.5384C45.8004 31.723 42.1038 35.3326 40.7101 36.7241C40.9276 37.5137 43.1567 39.9285 40.8452 43.0481L39.076 44.8332L37.9683 45.6711L37.4807 41.858L37.5379 32.2289C38.3115 29.9298 44.5554 27.3582 44.5554 22.1605C44.5554 20.6557 44.3952 19.1485 44.0657 17.726C48.0274 19.0921 51.4585 21.5835 53.9875 24.8245ZM31.6396 17.4443C31.6351 17.4512 31.5595 17.7727 31.515 18.1058C31.4407 18.4285 31.4291 18.8691 31.4165 19.4652C31.405 19.9894 31.4405 20.6267 31.5321 21.3708C31.5664 21.6934 31.6213 22.0333 31.6956 22.3871C31.7565 22.6948 31.8719 23.0507 31.9954 23.3232C32.6055 24.567 33.0803 25.7996 33.7705 26.6441C33.91 26.8033 34.0532 26.9715 34.1825 27.1191C34.3588 27.3261 34.5154 27.5105 34.6517 27.6352C34.8554 27.8434 35.0053 27.9465 35.0053 27.9488C35.1131 28.0221 35.1621 28.1456 35.1243 28.2544C35.0819 28.3574 34.9675 28.4226 34.8463 28.4066C34.813 28.4043 34.6493 28.3735 34.3954 28.2727C34.3345 28.2439 34.2693 28.2165 34.2065 28.1787L34.0978 28.1204C33.791 27.9488 33.3665 27.7223 32.9384 27.3651C31.5926 26.3065 31.1281 25.1324 30.5546 23.9295C30.3783 23.5084 30.2731 23.1307 30.1931 22.6879C30.1393 22.2986 30.1072 21.9143 30.097 21.4896C30.097 20.677 30.2126 19.9378 30.3109 19.3827C30.4323 18.7474 30.6438 18.2222 30.7892 17.8915C30.8796 17.7049 30.9575 17.5493 31.0136 17.4372C31.208 17.3789 31.4096 17.3365 31.6064 17.2849C31.6349 17.3343 31.6511 17.3881 31.6396 17.4443ZM28.2671 18.4708C28.0772 19.5442 27.9811 20.6647 27.9811 21.7919C27.9811 28.1297 34.4035 30.0283 35.2894 32.1935L35.3341 41.7735L34.9186 44.7418L34.8603 44.6961L28.194 37.9534C28.8155 36.5366 28.9207 34.5166 28.9207 32.7795C28.9207 31.8263 24.3201 27.6447 20.5538 24.3773C22.6206 21.8605 25.2641 19.8372 28.2671 18.4708ZM19.5054 25.7744L25.7379 32.0069L24.6783 33.0632L18.6861 27.0698C18.9481 26.6293 19.2158 26.1956 19.5054 25.7744ZM17.877 28.5725L23.5237 34.2213L23.1175 34.6265L23.0739 34.6734L22.6677 35.0786L17.3268 29.7377C17.4925 29.3392 17.6871 28.957 17.877 28.5725ZM16.7075 31.4254L21.5151 36.2319L20.4555 37.2939L16.2577 33.0961C16.3893 32.5333 16.5323 31.9736 16.7075 31.4254ZM15.6764 37.9692C15.6764 37.1315 15.7347 36.3099 15.8285 35.4961C18.2637 38.1705 20.5514 40.4708 21.2243 40.4708C23.0806 40.4708 25.2596 40.3494 26.673 39.6101L33.2786 46.1561L34.4915 47.7675L34.408 48.3533L24.8831 55.5427C19.3281 51.6678 15.6764 45.2408 15.6764 37.9692ZM31.159 58.5387L33.3884 55.6549L32.9239 58.9782C32.3262 58.8593 31.7403 58.7038 31.159 58.5387ZM36.3204 65.2039C35.2068 65.2039 34.3074 64.4624 34.3074 63.5377C34.3074 62.7274 35.0191 62.0866 35.9448 61.933C36.3029 61.9537 36.6601 61.9879 37.0229 61.9879C37.7827 62.2261 38.33 62.8188 38.33 63.5375C38.33 64.4624 37.4315 65.2039 36.3204 65.2039ZM39.6985 59.2209L38.9982 53.737L42.6899 58.6303C41.7173 58.8914 40.7215 59.0951 39.6985 59.2209ZM58.531 37.9692C58.531 45.3415 54.7842 51.8555 49.1011 55.7099L39.2454 48.088L40.5385 46.4104L42.3307 44.6388L42.34 44.6412C42.34 44.6412 42.8597 44.1262 43.743 43.2474L51.4746 35.6105L51.4425 35.5784C53.3102 33.7223 55.2008 31.8213 56.9883 30.0281C57.9725 32.4886 58.531 35.1632 58.531 37.9692Z" fill="#4EA2E2"/>
<path d="M37.5011 0C16.8252 0 0.0012207 16.8228 0.0012207 37.4999C0.0012207 58.177 16.8252 75 37.5011 75C58.1737 75 74.999 58.1772 74.999 37.4999C74.9988 16.8228 58.1737 0 37.5011 0ZM37.5011 72.3999C18.2591 72.3999 2.60253 56.7421 2.60253 37.4999C2.60253 18.2577 18.2591 2.60131 37.5011 2.60131C56.7434 2.60131 72.3965 18.2581 72.3965 37.5001C72.3965 56.7421 56.7432 72.3999 37.5011 72.3999Z" fill="#4EA2E2"/>
</g>
<defs>
<clipPath id="clip0">
<rect width="75" height="75" fill="white"/>
</clipPath>
</defs>
</svg>
