<svg width="80" height="80" viewBox="0 0 80 80" fill="none" xmlns="http://www.w3.org/2000/svg">
<path d="M60.2306 16.8076H19.1616L22.0472 13.5653L27.8077 7.08076H51.5845L60.2306 16.8076Z" fill=" #4ea2e2"/>
<path d="M19.1616 16.8076H60.2306V21.1307H19.1616V16.8076Z" fill=" #4ea2e2"/>
<path d="M18.0808 21.1307H61.3113V26.5345H18.0808V21.1307Z" fill=" #4ea2e2"/>
<path d="M19.1616 18.9691V16.8076H55.9075V18.9691" fill=" #4ea2e2"/>
<path d="M18.0808 21.1307H58.069V23.2922H18.0808V21.1307Z" fill=" #4ea2e2"/>
<path d="M61.3112 20.0499V16.8076C61.3044 16.7548 61.2938 16.7021 61.2801 16.6509C61.2738 16.4926 61.2157 16.3406 61.1144 16.2187C61.0922 16.1728 61.0669 16.129 61.0379 16.0867L52.3918 6.35989C52.186 6.13034 51.8926 5.99946 51.5844 5.99999H27.8076C27.4994 5.99999 27.2055 6.13192 27.0002 6.362L18.3541 16.0889C18.3251 16.1311 18.2992 16.1754 18.2776 16.2218C18.2301 16.2852 18.1895 16.3538 18.1573 16.4261C18.1341 16.4994 18.1193 16.5754 18.1119 16.6519C18.0976 16.7031 18.0871 16.7548 18.0808 16.8076V20.0499C17.4839 20.0499 17 20.5338 17 21.1307V26.5345C17 27.1313 17.4839 27.6152 18.0808 27.6152H19.3267L26.7422 72.1048C26.8292 72.6257 27.2799 73.0072 27.8076 73.0072H51.5844C52.1121 73.0072 52.5628 72.6257 52.6498 72.1048L60.0653 27.6152H61.3112C61.9081 27.6152 62.392 27.1313 62.392 26.5345V21.1307C62.392 20.5338 61.9081 20.0499 61.3112 20.0499ZM28.2931 8.16151H51.0968L57.8214 15.7268H21.5684L28.2931 8.16151ZM20.2423 17.8884H59.1497V20.0499H20.2423V17.8884ZM50.6688 70.8457H28.7232L21.5178 27.6152H57.8742L50.6688 70.8457ZM60.2305 22.2114V25.4537H19.1615V22.2114" fill=" #4ea2e2"/>
<path d="M31.4704 68.6842H34.2024C34.7992 68.6842 35.2831 68.2003 35.2831 67.6034C35.2831 67.0066 34.7992 66.5227 34.2024 66.5227H32.3854L31.6355 62.0212C31.5374 61.4323 30.9806 61.0349 30.3917 61.1331C29.8028 61.2313 29.4049 61.788 29.503 62.3769L30.4033 67.7807C30.4904 68.3021 30.9416 68.6847 31.4704 68.6842Z" fill=" #4ea2e2"/>
</svg>
