<svg width="80" height="80" viewBox="0 0 80 80" fill="none" xmlns="http://www.w3.org/2000/svg">
<g clip-path="url(#clip0)">
<path d="M80 34.4245C80 33.0891 78.9136 32.0027 77.5781 32.0027H77.1677L73.1423 14.8948C72.4642 12.0128 69.9228 10 66.9622 10H13.0378C10.077 10 7.53578 12.0128 6.85766 14.8948L2.83234 32.0027H2.42188C1.08641 32.0027 0 33.0891 0 34.4245V37.1459C0 38.1111 0.374844 38.9898 0.985937 39.6459C0.374844 40.302 0 41.1808 0 42.1459V44.8673C0 46.2028 1.08641 47.2892 2.42188 47.2892H2.83234L4.80906 55.6903C4.93609 56.2302 5.41734 56.5941 5.94891 56.5941C6.03781 56.5941 6.12797 56.5839 6.21828 56.5627C6.84828 56.4144 7.23891 55.7836 7.09063 55.1534L5.24031 47.2892H74.7602L70.8609 63.8602C70.4331 65.6783 68.83 66.948 66.9622 66.948H63.1745V60.3542C63.1745 58.2808 61.4877 56.5939 59.4141 56.5939C57.3405 56.5939 55.6536 58.2808 55.6536 60.3542V66.948H50.2317V60.3542C50.2317 58.2808 48.5448 56.5939 46.4712 56.5939C44.3978 56.5939 42.7109 58.2808 42.7109 60.3542V66.948H37.2891V60.3542C37.2891 58.2808 35.6022 56.5939 33.5288 56.5939C31.4553 56.5939 29.7683 58.2808 29.7683 60.3542V66.948H24.3464V60.3542C24.3464 58.2808 22.6595 56.5939 20.5859 56.5939C18.5123 56.5939 16.8255 58.2808 16.8255 60.3542V66.948H13.0378C11.17 66.948 9.56688 65.6783 9.13906 63.8602L8.19344 59.8409C8.04531 59.2109 7.41469 58.8206 6.78422 58.9686C6.15422 59.1169 5.76359 59.7477 5.91187 60.3778L6.8575 64.397C7.53562 67.2791 10.0769 69.2919 13.0377 69.2919H66.962C69.9228 69.2919 72.4641 67.2791 73.1422 64.397L77.1675 47.2892H77.578C78.9134 47.2892 79.9998 46.2028 79.9998 44.8673V42.1459C79.9998 41.1808 79.625 40.302 79.0139 39.6459C79.625 38.9898 79.9998 38.1111 79.9998 37.1459V34.4245H80ZM19.1692 66.948V60.3542C19.1692 59.5731 19.8047 58.9377 20.5859 58.9377C21.367 58.9377 22.0027 59.5731 22.0027 60.3542V66.948H19.1692ZM32.112 66.948V60.3542C32.112 59.5731 32.7475 58.9377 33.5288 58.9377C34.3098 58.9377 34.9453 59.5731 34.9453 60.3542V66.948H32.112ZM45.0547 66.948V60.3542C45.0547 59.5731 45.6902 58.9377 46.4712 58.9377C47.2525 58.9377 47.888 59.5731 47.888 60.3542V66.948H45.0547ZM57.9973 66.948V60.3542C57.9973 59.5731 58.6328 58.9377 59.4141 58.9377C60.1952 58.9377 60.8308 59.5731 60.8308 60.3542V66.948H57.9973ZM60.8308 12.3439V18.9377C60.8308 19.7188 60.1953 20.3542 59.4141 20.3542C58.6328 20.3542 57.9973 19.7188 57.9973 18.9377V12.3439H60.8308ZM47.888 12.3439V18.9377C47.888 19.7188 47.2525 20.3542 46.4712 20.3542C45.6902 20.3542 45.0547 19.7188 45.0547 18.9377V12.3439H47.888ZM34.9453 12.3439V18.9377C34.9453 19.7188 34.3098 20.3542 33.5288 20.3542C32.7477 20.3542 32.112 19.7188 32.112 18.9377V12.3439H34.9453ZM22.0027 12.3439V18.9377C22.0027 19.7188 21.3672 20.3542 20.5859 20.3542C19.8047 20.3542 19.1692 19.7188 19.1692 18.9377V12.3439H22.0027ZM2.34375 34.4245C2.34375 34.3814 2.37875 34.3464 2.42188 34.3464H18.2422C18.8894 34.3464 19.4141 33.8217 19.4141 33.1745C19.4141 32.5273 18.8894 32.0027 18.2422 32.0027H5.24016L9.13906 15.4317C9.56688 13.6136 11.17 12.3439 13.0378 12.3439H16.8255V18.9377C16.8255 21.0111 18.5123 22.698 20.5859 22.698C22.6594 22.698 24.3464 21.0111 24.3464 18.9377V12.3439H29.7683V18.9377C29.7683 21.0111 31.4552 22.698 33.5288 22.698C35.6022 22.698 37.2891 21.0111 37.2891 18.9377V12.3439H42.7109V18.9377C42.7109 21.0111 44.3978 22.698 46.4712 22.698C48.5448 22.698 50.2317 21.0111 50.2317 18.9377V12.3439H55.6536V18.9377C55.6536 21.0111 57.3405 22.698 59.4141 22.698C61.4875 22.698 63.1745 21.0111 63.1745 18.9377V12.3439H66.9622C68.83 12.3439 70.4331 13.6136 70.8609 15.4317L74.76 32.0028H48.9375V30.4977C48.9375 28.473 47.2903 26.8258 45.2656 26.8258H34.7344C32.7097 26.8258 31.0625 28.473 31.0625 30.4977V32.0028H22.9297C22.2825 32.0028 21.7578 32.5275 21.7578 33.1747C21.7578 33.8219 22.2825 34.3466 22.9297 34.3466H76.2358C76.2367 34.3466 76.2375 34.3469 76.2384 34.3469C76.2397 34.3469 76.2411 34.3466 76.2423 34.3466H77.578C77.6211 34.3466 77.6561 34.3816 77.6561 34.4247V37.1459C77.6561 37.8783 77.0603 38.4741 76.328 38.4741H3.67172C2.93938 38.4741 2.34359 37.8783 2.34359 37.1459V34.4245H2.34375ZM46.5938 32.0027H33.4062V30.4975C33.4062 29.7652 34.002 29.1694 34.7344 29.1694H45.2656C45.998 29.1694 46.5938 29.7652 46.5938 30.4975V32.0027ZM77.6562 44.8673C77.6562 44.9105 77.6212 44.9455 77.5781 44.9455H2.42188C2.37875 44.9455 2.34375 44.9105 2.34375 44.8673V42.1459C2.34375 41.4136 2.93953 40.8178 3.67188 40.8178H76.3281C77.0605 40.8178 77.6562 41.4136 77.6562 42.1459V44.8673Z" fill="#4EA2E2"/>
</g>
<defs>
<clipPath id="clip0">
<rect width="80" height="80" fill="white"/>
</clipPath>
</defs>
</svg>
