<svg width="80" height="80" viewBox="0 0 80 80" fill="none" xmlns="http://www.w3.org/2000/svg">
<path d="M55.9611 15.711C56.908 15.347 57.8394 15.1273 58.7471 15.0431C61.5025 14.7875 64.0848 15.7459 66.2605 17.6758C68.3932 19.5677 70.1242 22.3953 71.2246 25.9209C71.8467 27.9142 72.2684 30.1244 72.448 32.5071C72.9051 38.5736 71.7248 44.68 69.4473 49.6486C67.1455 54.6703 63.709 58.5503 59.684 60.0976C58.7371 60.4615 57.8057 60.6812 56.898 60.7653C54.1428 61.021 51.5603 60.0627 49.3848 58.1327C47.2521 56.2409 45.5211 53.4132 44.4207 49.8876C43.7984 47.8941 43.3767 45.6839 43.1973 43.3015C42.7403 37.2349 43.9205 31.1286 46.198 26.16C48.4998 21.1382 51.9363 17.2584 55.9611 15.711ZM58.1467 72.0314L25.4671 79.6518C24.3536 79.9114 24.1205 79.8543 23.2828 79.6492C23.1715 79.622 23.0455 79.5912 22.8492 79.5464L22.8373 79.5431L2.30421 74.4953L2.30415 74.4955C2.10121 74.4492 1.77609 74.379 1.50588 74.3205C0.546406 74.1131 0.0625668 74.009 0.0552622 73.2506C0.0476334 72.4733 0.545143 72.3734 1.54856 72.1727C1.70771 72.1408 1.8971 72.1029 2.30846 72.0164H2.3145L30.1286 66.4465C26.533 64.9186 23.1178 62.2738 20.4123 58.5364C17.3987 54.3729 15.2669 48.8599 14.7529 42.0361C14.1791 34.4192 15.3539 26.8213 17.75 20.175C20.2539 13.2301 24.0994 7.31417 28.6869 3.48735C30.674 1.82974 32.5465 0.873954 34.5248 0.416093C36.4853 -0.0376402 38.5263 0.00490159 40.873 0.340668H40.879L61.889 3.50571C64.9963 3.80793 67.9003 5.16929 70.434 7.41688C73.6261 10.2486 76.2196 14.489 77.8717 19.7825C78.8084 22.7828 79.4434 26.1154 79.7144 29.7135C80.4048 38.8772 78.6226 48.1001 75.183 55.6037C71.719 63.1607 66.5605 68.9945 60.529 71.3133C59.7276 71.6213 58.9328 71.8599 58.1467 72.0314ZM33.4123 67.5232L4.55909 73.3013L23.1569 77.8733V77.8731C23.3017 77.9061 23.4678 77.9468 23.6144 77.9827C24.1948 78.1246 24.3563 78.1642 25.1534 77.9785L51.288 71.8842L33.4123 67.5232ZM1.59321 73.2372C1.59602 73.5292 1.60944 73.4261 1.63625 73.2298C1.6056 73.0384 1.59036 72.9454 1.59321 73.2372ZM66.1557 27.2566C66.0673 26.9783 66.1988 26.6731 66.4498 26.5748C66.7007 26.4765 66.9757 26.6227 67.0642 26.901C68.2961 30.745 68.5698 34.8384 68.1198 38.7575C67.6294 43.0282 66.2775 47.0943 64.3694 50.4046C64.2269 50.6532 63.9298 50.7262 63.7061 50.5679C63.4823 50.4097 63.4165 50.08 63.559 49.8317C65.3938 46.6486 66.694 42.736 67.1661 38.6236C67.5978 34.8638 67.3361 30.9392 66.1557 27.2566ZM51.6355 20.7169C52.4438 22.1957 53.1261 23.8719 53.6565 25.7188C54.2325 27.7255 54.6259 29.9207 54.8028 32.2687C55.125 36.5477 54.6988 40.8449 53.684 44.8106C52.6655 48.7903 51.0538 52.4395 49.0103 55.4067C49.4319 55.9212 49.8773 56.3868 50.3438 56.8007C52.2086 58.455 54.418 59.277 56.7715 59.0585C57.5665 58.9847 58.3732 58.7958 59.1834 58.4844C62.8111 57.0897 65.9423 53.5186 68.0721 48.8719C70.2267 44.172 71.3428 38.3926 70.91 32.6476C70.7403 30.394 70.3478 28.3242 69.7711 26.4765C68.7673 23.2608 67.2092 20.7002 65.3015 19.0078C63.4367 17.3536 61.2273 16.5316 58.8738 16.75C58.0788 16.8237 57.2721 17.0126 56.4617 17.3241C54.7198 17.9938 53.0925 19.1655 51.6355 20.7169ZM48.0134 54.0298C49.8336 51.2925 51.2742 47.9674 52.2003 44.3489C53.1661 40.5746 53.5717 36.4839 53.2648 32.4092C53.0965 30.1741 52.728 28.1052 52.1909 26.2342C51.7484 24.6932 51.189 23.2777 50.5309 22.0064C49.4098 23.4372 48.4134 25.1031 47.573 26.9366C45.4186 31.6365 44.3023 37.416 44.7353 43.1609C44.905 45.4143 45.2975 47.4844 45.874 49.332C46.4292 51.1103 47.1538 52.6883 48.0134 54.0298ZM55.6698 4.29318L40.674 2.03411V2.03328C38.4936 1.7217 36.6128 1.67882 34.8384 2.0895C33.0805 2.49639 31.4038 3.35609 29.6096 4.85283C25.2494 8.4902 21.5817 14.1478 19.1794 20.8109C16.8694 27.218 15.7372 34.5459 16.2908 41.8955C16.7774 48.3549 18.7815 53.5544 21.6125 57.4654C24.8528 61.9417 29.1775 64.7371 33.545 65.8028L45.6284 68.7507C45.4884 68.6335 45.3492 68.514 45.2113 68.3917C42.0192 65.56 39.4257 61.3195 37.7734 56.0261C36.8369 53.0257 36.2017 49.6932 35.9307 46.095C35.2405 36.9313 37.0228 27.7084 40.4621 20.2048C43.9263 12.6477 49.0846 6.8141 55.1163 4.49533C55.3011 4.42423 55.4857 4.35688 55.6698 4.29318ZM59.3919 5.20867C58.1503 5.32386 56.888 5.61982 55.6169 6.10846C49.9825 8.27447 45.1292 13.7995 41.8373 20.9812C38.5209 28.2164 36.8025 37.1126 37.4686 45.9545C37.73 49.4236 38.3359 52.616 39.2269 55.4705C40.7823 60.4541 43.2032 64.4275 46.1703 67.0597C49.0944 69.6539 52.5603 70.9424 56.2534 70.5998C57.4948 70.4846 58.7573 70.1887 60.0284 69.7001C65.6625 67.5341 70.5159 62.009 73.808 54.8273C77.1244 47.5921 78.8428 38.696 78.1765 29.8541C77.9153 26.385 77.3092 23.1926 76.4184 20.3381C74.863 15.3545 72.4421 11.381 69.475 8.7489C66.5507 6.15475 63.085 4.86601 59.3919 5.20867Z" fill="#4EA2E2"/>
</svg>
