<svg width="75" height="75" viewBox="0 0 75 75" fill="none" xmlns="http://www.w3.org/2000/svg">
<path d="M46.5907 32.2669L44.005 33.5827C42.9844 34.549 41.9093 35.4819 41.0927 36.5312C38.3578 40.0886 38.1364 45.7646 39.6366 48.8252H42.3584C40.1064 45.9581 40.0745 40.8759 42.1951 37.7138C43.3246 35.965 45.3523 34.3658 46.5907 32.2669Z" fill="#4EA2E2"/>
<path d="M42.5626 48.8253H45.2843C43.0323 45.9583 43.0005 40.876 45.121 37.714C46.5908 35.4653 49.4894 33.4829 50.3604 30.3512L49.0812 31.0009C47.8564 33.1329 45.4884 34.6325 44.0187 36.5312C41.2255 40.185 41.109 45.854 42.5626 48.8253Z" fill="#4EA2E2"/>
<path d="M45.4887 48.8253H48.2241C45.9852 45.975 45.9306 40.894 48.0472 37.714C49.3128 35.7984 53.3955 32.6833 53.5724 28.7353L52.7286 29.1518C52.0754 32.3 48.4827 34.5491 46.9449 36.5312C44.1518 40.185 44.0353 45.854 45.4887 48.8253Z" fill="#4EA2E2"/>
<path d="M56.3898 27.3026L55.7365 27.6359C56.1719 31.6006 51.6539 34.2494 49.8847 36.5314C47.0948 40.1602 46.9539 45.8109 48.4286 48.8253H51.1367C48.822 45.7564 48.945 40.7614 50.9734 37.714C52.3888 35.5486 57.3288 31.9169 56.3898 27.3026Z" fill="#4EA2E2"/>
<path d="M14.7188 43.7111L15.1407 46.4097L62.1592 22.5719C63.1663 22.0554 63.629 20.6561 63.2207 19.44L61.7237 15.0258L12.4189 40.0131C13.6029 40.7126 14.4739 42.0619 14.7188 43.7111Z" fill="#4EA2E2"/>
<path d="M47.585 20.3895C47.5771 20.3924 47.5786 20.3921 47.585 20.3895V20.3895Z" fill="#4EA2E2"/>
<path d="M47.5845 20.3895C48.1784 20.089 47.6363 20.3634 47.5845 20.3895V20.3895Z" fill="#4EA2E2"/>
<path d="M47.5839 20.3895C47.6995 20.3307 50.0232 19.155 64.6443 11.7551L63.3429 8.01263C63.1388 7.39611 62.5536 7.09643 62.05 7.34613L47.7335 14.6093C46.7264 15.1089 46.2638 16.5082 46.6857 17.7242L47.5839 20.3895Z" fill="#4EA2E2"/>
<path d="M13.3852 44.0108C13.1403 42.3616 11.9699 41.1789 10.5954 41.1789C9.23452 41.1789 8.05055 42.3616 7.80559 44.0108L6.79854 50.491L4.83887 54.822V66.1664C4.83887 67.4824 5.70983 68.5484 6.79854 68.5484H68.2016C69.2903 68.5484 70.1613 67.4824 70.1613 66.1664V50.4912H14.3923L13.3852 44.0108ZM10.5954 48.5751C9.64279 48.5751 8.88069 47.6424 8.88069 46.4929C8.88069 45.3436 9.64279 44.3939 10.5954 44.3939C11.5344 44.3939 12.2965 45.3436 12.2965 46.4929C12.2965 47.6424 11.5344 48.5751 10.5954 48.5751Z" fill="#4EA2E2"/>
<path d="M69.1816 47.0927H64.0511C63.5204 47.0927 63.0713 47.609 63.0713 48.2755V48.8253H70.1615V48.2755C70.1615 47.6091 69.726 47.0927 69.1816 47.0927Z" fill="#4EA2E2"/>
</svg>
