<svg width="75" height="75" viewBox="0 0 75 75" fill="none" xmlns="http://www.w3.org/2000/svg">
<path d="M60.0296 5.625H15.9079C13.8564 5.625 12.1875 7.29131 12.1875 9.33944V9.68138C12.1875 11.7294 13.8564 13.3958 15.9079 13.3958H15.9664L24.5027 68.3205C24.5972 68.9275 25.1199 69.375 25.7351 69.375H50.2024C50.8176 69.375 51.3403 68.9275 51.4348 68.3205L59.9711 13.3958H60.0296C62.0811 13.3958 63.75 11.7294 63.75 9.68138V9.33944C63.75 7.29131 62.0811 5.625 60.0296 5.625ZM52.2187 47.0377C52.1197 47.0125 52.0164 46.9974 51.9097 46.9974H37.8394C37.1506 46.9974 36.5923 47.5552 36.5923 48.2425C36.5923 48.9303 37.1506 49.4876 37.8394 49.4876H51.8377L50.1609 60.2764H25.7766L24.0998 49.4876H28.0613C28.7497 49.4876 29.3084 48.9303 29.3084 48.2425C29.3084 47.5552 28.7497 46.9974 28.0613 46.9974H23.9054C23.8406 46.9974 23.7773 47.0042 23.7155 47.0135L20.4447 25.969H55.4932L52.2187 47.0377ZM19.6238 20.688H56.3141L55.8801 23.4788H20.0574L19.6238 20.688ZM26.8035 66.8848L26.1634 62.7667H49.7741L49.134 66.8848H26.8035ZM56.7009 18.1977H19.2366L18.4902 13.3958H57.4473L56.7009 18.1977ZM61.2558 9.68138C61.2558 10.3565 60.7057 10.9056 60.0296 10.9056H15.9083C15.2318 10.9056 14.6817 10.3565 14.6817 9.68138V9.33944C14.6817 8.66435 15.2318 8.11523 15.9083 8.11523H60.0296C60.7057 8.11523 61.2558 8.66435 61.2558 9.33944V9.68138Z" fill="#4EA2E2"/>
<path d="M34.1014 47.7659C33.9013 47.2864 33.4087 46.9712 32.8875 46.9999C32.3828 47.0275 31.9322 47.3642 31.7695 47.8428C31.6005 48.3398 31.77 48.9054 32.1865 49.2264C32.5957 49.5421 33.1691 49.5709 33.6085 49.2995C34.1224 48.9818 34.3299 48.3223 34.1014 47.7659Z" fill="#4EA2E2"/>
</svg>
