<svg width="6" height="6" viewBox="0 0 6 6" fill="none" xmlns="http://www.w3.org/2000/svg">
<path d="M0.500208 3.50001L4.29679 3.50001L2.6461 5.14366C2.55191 5.23773 2.49899 5.36533 2.49899 5.49837C2.49899 5.63141 2.55191 5.759 2.6461 5.85307C2.74029 5.94715 2.86804 6 3.00125 6C3.13445 6 3.2622 5.94715 3.35639 5.85308L5.85743 3.35513C5.90297 3.30762 5.93867 3.2516 5.96248 3.19027C6.01251 3.06864 6.01251 2.93221 5.96248 2.81058C5.93867 2.74926 5.90297 2.69323 5.85743 2.64572L3.35639 0.147778C3.30989 0.100953 3.25457 0.0637853 3.19362 0.0384219C3.13266 0.0130584 3.06728 2.20451e-07 3.00125 2.14678e-07C2.93521 2.08905e-07 2.86983 0.0130584 2.80888 0.0384218C2.74792 0.0637853 2.6926 0.100953 2.6461 0.147778C2.59922 0.194222 2.562 0.249476 2.53661 0.310355C2.51121 0.371235 2.49814 0.436534 2.49814 0.502485C2.49814 0.568437 2.51121 0.633736 2.53661 0.694616C2.562 0.755495 2.59922 0.810749 2.6461 0.857193L4.29679 2.50084L0.500208 2.50084C0.367544 2.50084 0.240314 2.55347 0.146507 2.64716C0.0526999 2.74085 -2.03023e-07 2.86793 -2.14606e-07 3.00043C-2.2619e-07 3.13292 0.0526998 3.26 0.146507 3.35369C0.240314 3.44738 0.367544 3.50001 0.500208 3.50001Z" fill="#C63235"/>
</svg>
