<svg width="1440" height="1013" viewBox="0 0 1440 1013" fill="none" xmlns="http://www.w3.org/2000/svg">
<mask id="mask0_337_6448" style="mask-type:alpha" maskUnits="userSpaceOnUse" x="-10" y="234" width="1524" height="779">
<rect x="-9.8783" y="234.768" width="1522.89" height="777.976" fill="#F2F2F2"/>
</mask>
<g mask="url(#mask0_337_6448)">
</g>
<g opacity="0.5" clip-path="url(#clip0_337_6448)">
<path d="M136.85 383.229C120.63 383.229 104.249 378.631 86.8886 369.223C70.3083 360.237 54.3783 347.794 38.9787 335.752C16.1245 317.899 -7.50024 299.425 -33.7166 291.932L-33.9968 291.852L-33.7266 291.741C-1.4965 278.838 25.5404 301.77 54.1582 326.064C67.8968 337.726 82.1056 349.778 97.3952 358.253C114.646 367.821 130.996 371.397 147.376 369.203C161.785 367.27 176.374 361.98 191.964 353.034C205.903 345.029 219.441 334.85 232.529 325.002C261.798 302.982 292.067 280.22 330.961 277.656C349.332 276.443 368.074 279.279 388.277 286.311C406.298 292.593 423.849 301.589 440.809 310.285C464.554 322.458 489.099 335.041 515.756 340.701C570.11 352.242 589.532 334.65 614.127 312.369C625.885 301.72 639.203 289.658 658.135 279.469C693.817 260.254 738.875 272.496 782.452 284.328C803.495 290.048 823.378 295.448 841.959 297.362C875.56 300.828 909.742 303.253 942.802 305.607C996.156 309.394 1051.32 313.321 1105.37 321.686C1122.18 324.291 1138.77 328.108 1154.81 331.795C1182.74 338.217 1209.13 344.288 1235.07 343.957C1248.99 343.777 1261.55 341.763 1273.47 337.816C1286.78 333.398 1299.01 326.675 1310.89 317.258C1328.79 303.052 1343.71 292.032 1358.32 284.398C1374.8 275.792 1389.38 272.556 1402.9 274.5C1423.05 277.405 1442.12 291.952 1461.21 318.991L1461.32 319.142H1461.13C1452.21 319.362 1443.56 319.192 1435.21 319.021C1408.82 318.5 1383.9 318.02 1357.23 330.002C1345.36 335.331 1335.31 342.234 1325.58 348.916C1306.42 362.07 1288.32 374.493 1260.4 371.528C1239.66 369.324 1217.96 360.447 1196.98 351.852C1180.87 345.26 1164.21 338.437 1148.18 334.74C1109.16 325.744 1066.49 320.304 1013.93 317.629C987.08 316.256 959.353 316.757 932.546 317.228C890.72 317.969 847.463 318.741 805.997 312.52C785.864 309.494 768.344 303.984 751.403 298.664C730.88 292.212 711.498 286.111 691.976 286.482C670.372 286.883 650.59 295.128 629.727 312.419C623.323 317.729 617.529 323.079 611.926 328.268C601.059 338.317 590.803 347.804 579.026 353.895C565.977 360.638 552.299 362.591 535.959 360.067C503.969 355.108 474.941 341.793 446.863 328.91C427.001 319.793 406.458 310.366 385.165 304.074C361.3 297.021 338.926 294.717 316.762 297.031C282.27 300.628 254.523 321.316 227.686 341.322C214.258 351.341 200.369 361.69 186.09 369.424C170.121 378.08 155.161 382.578 140.342 383.179C139.171 383.199 138.01 383.229 136.85 383.229ZM-33.3864 291.812C-7.25009 299.375 16.3146 317.779 39.0988 335.582C54.4984 347.614 70.4083 360.057 86.9787 369.033C105.55 379.102 123.001 383.65 140.322 382.949C155.101 382.348 170.04 377.859 185.98 369.213C200.239 361.479 214.128 351.13 227.546 341.122C254.403 321.095 282.18 300.387 316.722 296.791C338.916 294.476 361.31 296.781 385.195 303.844C406.498 310.145 427.051 319.572 446.923 328.689C474.981 341.563 503.999 354.877 535.959 359.826C552.259 362.351 565.907 360.397 578.905 353.675C590.653 347.604 600.909 338.116 611.766 328.078C617.369 322.899 623.163 317.539 629.567 312.229C650.47 294.907 670.292 286.652 691.946 286.251C711.498 285.881 730.9 291.982 751.433 298.444C768.374 303.773 785.884 309.274 805.997 312.299C847.443 318.521 890.69 317.749 932.516 317.008C959.333 316.527 987.05 316.036 1013.91 317.408C1066.48 320.083 1109.16 325.523 1148.19 334.53C1164.23 338.227 1180.9 345.049 1197.02 351.651C1217.99 360.237 1239.68 369.113 1260.39 371.307C1288.24 374.273 1306.31 361.86 1325.44 348.736C1335.18 342.054 1345.24 335.141 1357.12 329.811C1383.83 317.809 1408.77 318.3 1435.19 318.821C1443.48 318.981 1452.06 319.152 1460.92 318.941C1441.9 292.052 1422.9 277.575 1402.85 274.68C1389.37 272.737 1374.83 275.973 1358.39 284.558C1343.79 292.182 1328.88 303.202 1310.99 317.398C1299.09 326.836 1286.84 333.568 1273.51 337.996C1261.57 341.953 1248.99 343.967 1235.05 344.147C1209.07 344.478 1182.68 338.417 1154.74 331.985C1138.7 328.298 1122.12 324.481 1105.32 321.877C1051.28 313.511 996.116 309.584 942.772 305.797C909.712 303.443 875.53 301.018 841.929 297.552C823.338 295.639 803.445 290.239 782.392 284.518C738.855 272.696 693.837 260.464 658.225 279.639C639.323 289.818 626.005 301.88 614.257 312.52C589.622 334.84 570.16 352.463 515.716 340.892C489.039 335.221 464.474 322.638 440.729 310.456C423.769 301.76 406.228 292.763 388.217 286.492C368.044 279.469 349.322 276.634 330.981 277.846C292.147 280.411 261.898 303.152 232.659 325.153C219.561 335.001 206.013 345.189 192.074 353.204C176.464 362.171 161.855 367.46 147.416 369.394C130.996 371.598 114.606 368.001 97.3051 358.414C81.9956 349.928 67.7867 337.866 54.0381 326.205C25.5303 302.03 -1.38643 279.188 -33.3864 291.812Z" fill="black" fill-opacity="0.5"/>
<path d="M156.032 411.381C140.922 411.381 124.182 406.762 105.03 397.315C86.2682 388.068 67.0762 375.194 48.5047 362.752C20.4672 343.957 -8.5309 324.511 -35.7279 317.98L-36.3783 317.819L-35.7078 317.779C-19.0074 316.737 -1.84673 320.314 16.7449 328.729C33.3152 336.223 49.4653 346.772 65.075 356.961C81.4852 367.681 98.4558 378.761 115.887 386.265C135.419 394.67 153.51 397.606 171.191 395.231C191.654 392.476 206.553 381.706 220.392 368.362C222.143 366.028 223.894 363.663 225.655 361.269C243.266 337.425 261.467 312.78 292.407 306.839C299.091 305.557 306.025 304.976 313.26 305.106C332.132 302.651 350.833 304.064 371.516 309.474C392.079 314.854 411.351 323.289 431.744 332.216C443.071 337.175 454.778 342.304 466.635 346.812C500.637 359.726 526.473 363.363 550.428 358.594C571.951 354.306 592.624 343.376 621.772 320.885C634.23 311.267 646.778 304.525 660.136 300.287C669.022 297.462 678.167 295.789 687.833 295.228C690.725 294.957 693.617 294.887 696.519 295.017C697.069 295.017 697.619 295.027 698.17 295.037C723.576 295.568 749.122 303.002 776.178 310.877C787.485 314.163 799.173 317.569 811.07 320.514C857.679 332.045 906.46 331.214 953.629 330.412C959.963 330.302 966.347 330.192 972.751 330.122C992.163 326.285 1011.36 323.46 1029.22 323.52C1051.51 323.6 1073.75 327.397 1097.22 335.121C1111.47 339.81 1125.27 345.63 1138.72 351.701C1195.66 366.819 1254.36 382.067 1302.08 366.028C1318.84 360.397 1335.23 349.287 1351.08 338.537C1370.73 325.213 1389.3 312.62 1408.52 309.564C1418.86 307.921 1428.39 309.223 1437.63 313.531C1447.99 318.36 1457.76 326.826 1467.52 339.399L1467.64 339.559L1467.44 339.569C1432.59 340.511 1401.31 354.707 1371.06 368.432C1352.82 376.707 1333.96 385.263 1314.73 390.663C1293.19 396.704 1273.34 398.096 1254.03 394.901C1218.42 389.01 1187.37 374.523 1157.36 360.518C1151.19 357.642 1144.96 354.737 1138.65 351.892C1137.97 351.711 1137.29 351.531 1136.61 351.351C1105.55 343.106 1076.23 335.311 1049.46 332.666C1024.14 330.162 998.237 330.012 972.761 330.322C961.534 332.536 950.237 335.091 939.08 337.606C897.964 346.893 855.438 356.49 819.005 349.197C794.82 344.348 775.168 332.085 756.156 320.224C738.605 309.274 722.025 298.925 703.853 295.979C701.392 295.578 698.95 295.328 696.519 295.208C693.577 295.188 690.695 295.248 687.853 295.418C683.611 295.819 679.378 296.66 675.085 297.953C664.359 301.179 653.522 307.12 641.955 316.106C638.833 318.531 635.791 320.915 632.849 323.219C610.565 340.671 592.964 354.456 572.311 362.762C550.047 371.728 526.353 373.311 495.473 367.921C469.117 363.313 441.71 350.409 415.213 337.926C395.071 328.439 374.248 318.631 353.735 312.339C339.156 307.861 325.758 305.527 313.28 305.306C310.898 305.617 308.517 305.988 306.125 306.418C273.965 312.259 254.343 333.097 235.351 353.254C230.408 358.494 225.545 363.663 220.542 368.492C213.227 378.26 205.963 387.337 197.628 394.74C185.93 405.139 174.143 410.379 160.565 411.23C159.074 411.331 157.563 411.381 156.032 411.381ZM-35.0274 317.939C-7.98055 324.632 20.7874 343.927 48.6248 362.581C67.1863 375.024 86.3783 387.888 105.12 397.135C126.163 407.514 144.294 412.062 160.545 411.04C174.083 410.189 185.82 404.959 197.488 394.6C205.533 387.457 212.577 378.741 219.641 369.364C206.033 382.338 191.304 392.737 171.221 395.442C153.51 397.826 135.379 394.891 115.817 386.465C98.3658 378.951 81.3952 367.871 64.9749 357.141C49.3652 346.953 33.2351 336.413 16.6748 328.92C-1.64661 320.624 -18.5672 317.028 -35.0274 317.939ZM1139.85 352.212C1145.78 354.907 1151.64 357.642 1157.46 360.347C1187.46 374.343 1218.5 388.819 1254.08 394.71C1273.36 397.896 1293.18 396.514 1314.69 390.482C1333.91 385.093 1352.76 376.537 1371 368.262C1401.21 354.557 1432.45 340.381 1467.26 339.389C1457.56 326.926 1447.85 318.531 1437.57 313.732C1428.36 309.434 1418.87 308.142 1408.57 309.775C1389.4 312.82 1370.85 325.403 1351.21 338.718C1335.35 349.477 1318.94 360.598 1302.16 366.238C1254.71 382.167 1196.45 367.23 1139.85 352.212ZM314.631 305.136C326.758 305.497 339.726 307.831 353.805 312.149C374.328 318.45 395.161 328.258 415.313 337.756C441.8 350.229 469.187 363.132 495.523 367.741C526.363 373.131 550.027 371.538 572.251 362.591C592.874 354.286 610.465 340.511 632.739 323.079C635.681 320.775 638.733 318.39 641.855 315.966C653.442 306.959 664.299 301.018 675.045 297.783C678.047 296.881 681.029 296.19 684.001 295.729C675.756 296.47 667.891 298.053 660.216 300.497C646.888 304.735 634.36 311.458 621.922 321.065C592.754 343.586 572.061 354.517 550.498 358.814C526.513 363.593 500.637 359.956 466.595 347.023C454.728 342.515 443.011 337.385 431.694 332.426C411.301 323.5 392.039 315.064 371.496 309.694C351.313 304.395 333.022 302.912 314.631 305.136ZM311.309 305.286C304.794 305.286 298.521 305.867 292.457 307.029C261.598 312.95 243.406 337.575 225.825 361.379C224.314 363.433 222.803 365.467 221.312 367.47C226.005 362.892 230.578 358.033 235.221 353.114C254.233 332.937 273.885 312.069 306.105 306.218C308.046 305.867 309.988 305.557 311.919 305.286C311.709 305.286 311.509 305.286 311.309 305.286ZM700.261 295.298C701.472 295.428 702.683 295.588 703.903 295.789C722.115 298.744 738.715 309.093 756.286 320.063C775.278 331.915 794.92 344.168 819.065 349.006C855.458 356.3 897.954 346.702 939.06 337.415C949.867 334.971 960.813 332.506 971.69 330.332C965.646 330.412 959.633 330.513 953.649 330.613C906.47 331.414 857.669 332.246 811.04 320.705C799.133 317.759 787.445 314.353 776.138 311.067C749.832 303.413 724.956 296.17 700.261 295.298ZM990.422 330.002C1010.15 330.002 1030 330.533 1049.5 332.466C1076.29 335.121 1105.62 342.915 1136.68 351.16C1136.97 351.241 1137.26 351.311 1137.55 351.391C1124.45 345.5 1111.02 339.87 1097.17 335.311C1073.72 327.597 1051.5 323.8 1029.23 323.72C1029.03 323.72 1028.82 323.72 1028.61 323.72C1011.26 323.72 992.683 326.425 973.862 330.102C979.365 330.042 984.889 330.002 990.422 330.002Z" fill="black" fill-opacity="0.5"/>
<path d="M172.252 428.913C167.199 428.913 161.945 428.382 156.412 427.31C147.256 425.537 137.54 422.331 126.704 417.512C106.571 408.546 85.5078 395.201 65.1451 382.287C48.5547 371.768 31.404 360.898 14.8237 352.443C-3.76792 342.955 -19.6378 337.585 -33.7166 336.023L-33.7066 335.822C-16.6259 335.822 0.894989 339.168 19.8668 346.051C37.0475 352.282 53.878 360.878 69.5178 369.243C76.9124 373.201 85.6779 379.382 94.9537 385.934C117.007 401.493 142.003 419.135 161.955 417.151C187.722 414.597 201.15 393.939 215.359 372.069C223.514 359.516 231.949 346.542 243.106 336.453C255.724 325.052 270.183 319.021 287.314 318.04C306.326 316.948 326.718 318.991 349.653 324.301C370.095 329.03 390.628 335.862 410.491 342.474C430.383 349.097 450.956 355.939 471.459 360.678C494.453 365.998 514.906 368.051 534.008 366.959C564.907 365.186 589.963 348.465 614.188 332.296C627.126 323.66 639.343 315.505 652.412 309.444C667.221 302.581 680.459 299.676 694.088 300.297C706.595 300.868 719.123 304.705 732.401 312.029C744.239 318.561 755.566 327.196 766.513 335.542C777.85 344.188 789.567 353.114 801.875 359.736C815.673 367.16 828.762 370.816 841.9 370.927C842.06 370.927 842.23 370.927 842.39 370.927C860.451 370.927 879.083 363.072 897.104 355.468C907.981 350.88 919.238 346.131 929.935 343.376C975.153 331.725 1017.05 329.23 1054.48 335.972C1085.98 341.643 1115.26 357.001 1143.56 371.858C1161.82 381.436 1180.69 391.344 1199.87 398.457C1221.36 406.432 1241.02 410.018 1259.98 409.397C1292.29 408.355 1320.99 392.987 1348.74 378.12C1369.35 367.08 1388.81 356.65 1409.7 351.561C1420.94 348.816 1431.49 347.904 1441.95 348.776C1453.67 349.738 1465.01 352.893 1476.62 358.414L1477.28 358.724L1476.56 358.604C1458.04 355.408 1439.12 357.091 1418.71 363.753C1400.48 369.694 1382.69 379.001 1365.48 388.008C1341.39 400.601 1316.49 413.635 1289.4 418.133C1274.7 420.578 1260.43 421.058 1245.78 419.616C1232.71 418.323 1219.64 415.518 1205.79 411.02C1180.05 402.665 1155.38 389.551 1131.51 376.857C1106.44 363.533 1080.53 349.748 1052.8 341.052C1009.21 327.377 974.042 346.472 940.041 364.936C926.192 372.459 911.873 380.234 897.394 385.453C881.194 391.304 866.365 393.318 852.076 391.624C839.508 390.132 826.47 385.213 812.191 376.567C799.453 368.853 786.865 358.905 774.698 349.297C758.248 336.303 741.247 322.868 723.236 314.333C713.54 309.734 704.354 306.909 695.178 305.677C684.862 304.294 674.806 304.966 664.449 307.711C639.213 314.403 620.882 330.292 603.151 345.65C591.604 355.659 579.666 365.998 565.898 373.752C550.458 382.448 534.328 386.866 516.587 387.267C480.965 388.058 449.165 372.58 418.406 357.602C403.676 350.429 388.437 343.015 373.167 337.626C356.077 331.594 340.617 328.769 325.938 328.98C284.732 329.571 263.719 356.079 243.396 381.706C226.656 402.825 210.846 422.762 184.84 427.751C180.777 428.522 176.585 428.913 172.252 428.913ZM-31.9455 336.023C-18.287 337.826 -2.9274 343.146 14.9237 352.252C31.5141 360.718 48.6648 371.588 65.2552 382.107C85.6179 395.011 106.671 408.365 126.794 417.322C137.62 422.14 147.326 425.346 156.462 427.11C166.708 429.093 175.994 429.233 184.83 427.54C210.756 422.571 226.546 402.655 243.266 381.566C263.619 355.899 284.662 329.35 325.968 328.759C340.677 328.549 356.157 331.374 373.267 337.415C388.547 342.805 403.796 350.219 418.526 357.402C449.255 372.359 481.035 387.838 516.607 387.036C534.318 386.645 550.418 382.227 565.828 373.551C579.566 365.807 591.504 355.478 603.041 345.48C620.792 330.102 639.143 314.203 664.419 307.5C674.806 304.745 684.882 304.074 695.228 305.457C704.434 306.689 713.63 309.524 723.346 314.132C741.377 322.678 758.388 336.123 774.848 349.117C787.016 358.724 799.593 368.662 812.321 376.377C826.57 385.012 839.588 389.921 852.126 391.414C866.395 393.107 881.184 391.094 897.354 385.253C911.813 380.033 926.122 372.259 939.971 364.745C974.012 346.261 1009.21 327.156 1052.89 340.851C1080.64 349.557 1106.56 363.343 1131.63 376.667C1155.49 389.35 1180.15 402.464 1205.87 410.81C1219.7 415.298 1232.76 418.103 1245.81 419.395C1260.44 420.838 1274.69 420.357 1289.37 417.913C1316.42 413.414 1341.31 400.391 1365.39 387.808C1382.6 378.801 1400.4 369.494 1418.65 363.543C1438.82 356.961 1457.55 355.238 1475.88 358.263C1464.53 352.944 1453.42 349.898 1441.94 348.956C1431.5 348.095 1420.97 349.006 1409.76 351.741C1388.89 356.831 1369.44 367.25 1348.85 378.28C1321.08 393.157 1292.36 408.535 1260 409.587C1241.02 410.199 1221.33 406.622 1199.81 398.637C1180.62 391.514 1161.74 381.606 1143.48 372.029C1115.18 357.181 1085.92 341.833 1054.45 336.163C1017.05 329.42 975.173 331.915 929.985 343.566C919.298 346.321 908.051 351.06 897.174 355.649C878.973 363.323 860.151 371.267 841.89 371.117C828.722 371.017 815.603 367.34 801.775 359.906C789.457 353.274 777.73 344.338 766.393 335.692C755.446 327.347 744.129 318.711 732.301 312.189C719.053 304.885 706.545 301.048 694.078 300.487C680.489 299.866 667.271 302.772 652.492 309.624C639.443 315.675 627.226 323.83 614.298 332.456C590.053 348.646 564.977 365.376 534.018 367.16C514.906 368.252 494.423 366.198 471.419 360.878C450.906 356.129 430.333 349.287 410.431 342.665C390.578 336.063 370.045 329.23 349.613 324.501C326.708 319.202 306.336 317.148 287.334 318.25C270.253 319.232 255.834 325.243 243.246 336.614C232.109 346.682 223.674 359.646 215.529 372.189C201.29 394.099 187.832 414.797 161.976 417.362C160.935 417.462 159.874 417.512 158.804 417.512C139.341 417.512 115.767 400.871 94.8336 386.104C85.5578 379.562 76.7924 373.371 69.4178 369.424C53.788 361.068 36.9575 352.473 19.7968 346.241C1.50537 339.589 -15.4452 336.243 -31.9455 336.023Z" fill="black" fill-opacity="0.5"/>
<path d="M168.079 443.91C152.179 443.91 133.498 439.612 111.674 430.977C81.1951 418.915 49.4252 400.371 21.3978 384.011C2.39592 372.91 -15.5553 362.431 -29.7341 356.049L-30.6347 355.649L-29.6741 355.859C-8.24071 360.668 19.7267 376.377 49.3352 393.007C76.7523 408.405 105.1 424.334 131.436 433.561C145.685 438.551 157.903 441.095 168.77 441.316C180.887 441.566 191.374 438.801 199.919 433.111C211.536 425.366 219.151 412.533 226.516 400.12C232.039 390.813 237.753 381.185 245.087 373.882C259.987 359.055 276.247 349.888 294.808 345.881C311.168 342.344 329.4 342.665 352.164 346.913C368.514 349.958 384.604 354.446 400.354 359.275C415.534 362.221 430.493 366.238 445.182 370.185C476.882 378.701 509.652 387.507 543.643 385.353C551.078 384.882 558.172 383.7 565.007 381.997C587.121 374.904 604.541 359.856 621.482 345.23C639.913 329.31 657.324 314.273 679.388 310.436C707.556 305.537 734.552 325.403 763.13 346.422C783.243 361.219 803.846 376.377 825.99 383.83C843.991 387.798 861.422 388.399 880.383 385.734C895.673 383.59 911.163 380.304 927.563 376.837C938.039 374.623 948.636 372.379 959.263 370.436C975.553 366.719 992.073 363.403 1008.36 361.82C1033.27 359.395 1055.06 361.379 1075.01 367.881C1098.59 375.555 1120.53 386.515 1141.77 397.115C1164.52 408.475 1186 419.205 1209.25 426.198C1221.74 429.955 1233.53 432.259 1245.31 433.241C1258.49 434.343 1271.34 433.772 1284.6 431.508C1305.62 427.911 1329.77 414.747 1355.35 400.801C1378.29 388.288 1402.02 375.355 1424.6 368.923C1436.8 365.447 1447.54 364.164 1457.41 365.006C1468.55 365.958 1478.28 369.554 1487.14 376.016L1487.48 376.256L1487.07 376.186C1468.24 373.191 1448.64 375.064 1427.15 381.937C1407.97 388.068 1389.02 397.545 1370.7 406.712C1345.15 419.496 1318.74 432.71 1290.81 437.418C1257.9 442.979 1223.88 438.42 1190.97 434.012C1184.74 433.181 1178.31 432.319 1172.03 431.548C1134.5 426.939 1126.44 420.177 1104.88 402.094C1100.78 398.647 1096.13 394.75 1090.69 390.382C1079.39 381.286 1067.16 374.824 1053.31 370.626C1041.01 366.899 1027.76 365.056 1012.76 364.996C1012.53 364.996 1012.31 364.996 1012.08 364.996C994.815 364.996 977.054 367.39 959.333 370.626C953.399 371.979 947.495 373.381 941.642 374.774C912.854 381.626 883.095 388.719 853.497 388.749C853.467 388.749 853.437 388.749 853.407 388.749C843.961 388.749 834.835 386.996 825.959 384.011C824.268 383.64 822.577 383.239 820.876 382.808C803.185 378.31 787.015 371.187 769.895 363.633C752.624 356.019 734.763 348.135 713.759 342.274C696.219 337.375 679.678 337.305 661.727 342.064C645.867 346.261 631.348 353.555 615.989 361.269C599.908 369.344 583.438 377.619 565.087 382.187C560.784 383.57 556.301 384.642 551.598 385.363C530.505 388.589 508.371 387.878 483.936 383.209C462.123 379.041 440.409 372.139 419.426 365.457C413.122 363.453 406.758 361.429 400.344 359.466C386.816 356.841 373.117 355.058 359.278 354.947C342.378 354.807 325.988 356.66 310.548 360.477C294.178 364.515 278.918 370.746 265.17 379.011C253.112 386.255 243.196 396.904 233.61 407.193C222.013 419.646 210.015 432.53 194.336 439.071C186.561 442.287 177.835 443.91 168.079 443.91ZM-28.7435 356.27C-14.7047 362.692 2.88622 372.96 21.4878 383.83C49.5053 400.19 81.2751 418.734 111.734 430.786C146.906 444.702 173.893 447.347 194.226 438.871C209.875 432.349 221.853 419.486 233.43 407.043C243.026 396.734 252.952 386.084 265.03 378.821C278.788 370.556 294.078 364.315 310.468 360.267C325.918 356.45 342.328 354.587 359.248 354.737C372.477 354.847 385.575 356.48 398.523 358.915C383.343 354.296 367.864 350.028 352.134 347.093C329.39 342.855 311.188 342.525 294.848 346.061C276.327 350.068 260.097 359.205 245.227 374.012C237.913 381.296 232.209 390.913 226.686 400.21C219.311 412.643 211.686 425.487 200.029 433.261C191.444 438.981 180.917 441.756 168.76 441.506C157.863 441.276 145.635 438.741 131.366 433.742C105.01 424.505 76.6522 408.576 49.2351 393.177C20.097 376.797 -7.46022 361.319 -28.7435 356.27ZM1012.07 364.805C1012.3 364.805 1012.52 364.805 1012.75 364.805C1027.77 364.856 1041.05 366.699 1053.36 370.436C1067.23 374.643 1079.49 381.115 1090.8 390.232C1096.24 394.6 1100.89 398.507 1104.99 401.943C1126.52 419.997 1134.57 426.749 1172.04 431.357C1178.32 432.129 1184.75 432.99 1190.98 433.822C1223.87 438.23 1257.87 442.788 1290.76 437.228C1318.66 432.519 1345.06 419.305 1370.6 406.532C1388.93 397.365 1407.89 387.878 1427.08 381.746C1448.44 374.914 1467.94 373.01 1486.68 375.926C1477.94 369.644 1468.36 366.138 1457.39 365.196C1447.55 364.355 1436.84 365.637 1424.66 369.103C1402.11 375.535 1378.39 388.459 1355.46 400.962C1329.87 414.917 1305.7 428.091 1284.65 431.688C1271.38 433.952 1258.51 434.523 1245.31 433.421C1233.52 432.439 1221.72 430.125 1209.21 426.368C1185.94 419.375 1164.45 408.636 1141.69 397.275C1120.46 386.675 1098.52 375.725 1074.96 368.051C1055.05 361.559 1033.27 359.586 1008.4 362C993.574 363.443 978.545 366.328 963.675 369.634C979.945 366.819 996.226 364.805 1012.07 364.805ZM827.831 384.431C836.116 387.046 844.611 388.569 853.387 388.569C853.417 388.569 853.447 388.569 853.477 388.569C883.055 388.529 912.804 381.446 941.582 374.593C945.894 373.561 950.237 372.53 954.6 371.518C945.554 373.241 936.538 375.154 927.623 377.038C911.213 380.514 895.723 383.79 880.423 385.934C862.092 388.509 845.201 388.038 827.831 384.431ZM402.215 359.836C408.009 361.63 413.762 363.453 419.456 365.266C440.439 371.938 462.143 378.841 483.946 383.009C508.361 387.677 530.465 388.379 551.538 385.163C555.081 384.622 558.493 383.88 561.805 382.949C555.961 384.241 549.927 385.153 543.643 385.553C509.622 387.707 476.832 378.891 445.122 370.376C431.063 366.599 416.744 362.742 402.215 359.836ZM687.503 338.347C696.219 338.347 704.874 339.589 713.799 342.084C734.813 347.955 752.684 355.839 769.965 363.453C787.075 370.997 803.235 378.13 820.916 382.618C822.027 382.899 823.128 383.169 824.228 383.42C802.705 375.765 782.642 360.998 763.03 346.572C734.482 325.574 707.526 305.737 679.438 310.616C657.434 314.443 640.044 329.461 621.632 345.36C605.362 359.416 588.641 373.852 567.748 381.266C584.999 376.587 600.619 368.743 615.888 361.069C631.258 353.344 645.787 346.051 661.667 341.843C670.523 339.519 679.038 338.347 687.503 338.347Z" fill="black" fill-opacity="0.5"/>
<path d="M160.014 465.089C159.954 465.089 159.894 465.089 159.834 465.089C142.593 465.059 124.252 460.26 103.739 450.402C85.4677 441.626 67.2664 429.784 49.6554 418.323C25.4703 402.585 0.454718 386.305 -24.721 378.08L-25.4314 377.849L-24.681 377.889C10.1207 379.663 39.8092 397.946 68.5171 415.619C82.4158 424.174 96.7848 433.03 111.404 439.743C127.764 447.256 142.803 451.284 157.383 452.045C174.423 452.937 191.964 449.15 211.016 440.464C228.057 432.69 244.847 421.73 261.097 411.13C292.086 390.903 324.126 369.995 361.54 367.851C393.2 366.038 423.939 375.796 453.667 385.223C480.454 393.718 508.161 402.514 536.669 402.965C563.025 403.376 588.601 395.702 613.347 388.278C644.306 378.991 676.316 369.384 710.407 375.315C729.619 378.661 746.08 382.838 760.609 386.525C798.182 396.063 827.861 403.596 879.203 391.765C920.168 382.328 958.252 380.214 995.655 385.313C1030.72 390.092 1066.12 401.112 1107.07 419.966C1183.05 454.951 1254.77 457.525 1339.6 428.292C1351.8 424.084 1364.81 417.602 1378.57 410.75C1397.86 401.142 1417.79 391.214 1437.71 386.445C1460.35 381.025 1479.35 383.379 1495.77 393.648L1496.09 393.849L1495.72 393.839C1475.77 393.097 1454.92 395.942 1431.95 402.535C1411.44 408.415 1391.14 416.69 1371.5 424.685C1343.44 436.116 1314.42 447.938 1283.96 453.207C1243.61 460.19 1200.55 462.014 1162.73 458.327C1140.56 456.163 1120.22 452.145 1102.3 446.365C1082.42 439.953 1065.38 431.337 1051.65 420.748C1026.35 401.232 1001.52 391.464 973.491 390.012C947.885 388.679 922.019 394.159 892.071 400.511C883.295 402.374 874.219 404.298 864.754 406.131C828.741 413.094 796.031 404.929 764.391 397.034C736.083 389.971 706.815 382.658 675.856 386.635C656.474 389.13 639.633 393.768 623.353 398.247C593.084 406.582 564.486 414.456 526.012 406.091C507.641 402.094 489.55 396.624 472.049 391.334C446.303 383.55 421.988 376.196 396.722 373.071C383.143 371.387 370.605 371.107 358.388 372.199C344.709 373.421 331.751 376.327 318.773 381.085C295.399 389.651 275.456 405.3 256.174 420.417C242.115 431.447 227.576 442.848 211.997 451.214C194.576 460.551 177.575 465.089 160.014 465.089ZM-23.9405 378.13C1.01507 386.425 25.8005 402.555 49.7655 418.153C67.3664 429.614 85.5678 441.456 103.829 450.222C124.312 460.06 142.633 464.859 159.834 464.889C159.894 464.889 159.954 464.889 160.014 464.889C177.545 464.889 194.506 460.36 211.877 451.033C227.446 442.678 241.975 431.277 256.024 420.257C275.326 405.119 295.279 389.471 318.683 380.895C331.681 376.126 344.659 373.221 358.348 371.999C370.575 370.907 383.133 371.187 396.722 372.87C419.436 375.685 441.37 381.897 464.254 388.779C460.682 387.667 457.129 386.535 453.587 385.413C423.869 375.986 393.14 366.238 361.53 368.051C324.177 370.185 292.157 391.084 261.187 411.301C244.937 421.91 228.127 432.87 211.076 440.654C191.994 449.36 174.423 453.157 157.353 452.256C142.753 451.484 127.684 447.457 111.304 439.933C96.6747 433.221 82.2957 424.365 68.3971 415.799C39.9293 398.257 10.491 380.123 -23.9405 378.13ZM965.606 389.621C968.238 389.621 970.86 389.681 973.481 389.821C1001.55 391.284 1026.41 401.062 1051.75 420.598C1065.46 431.177 1082.48 439.783 1102.34 446.184C1120.25 451.955 1140.57 455.972 1162.73 458.136C1200.53 461.813 1243.57 460 1283.9 453.017C1314.33 447.747 1343.34 435.936 1371.4 424.505C1391.04 416.5 1411.35 408.225 1431.87 402.344C1454.71 395.792 1475.48 392.937 1495.33 393.628C1479.03 383.56 1460.18 381.276 1437.74 386.645C1417.85 391.404 1397.92 401.332 1378.64 410.94C1364.87 417.802 1351.86 424.284 1339.64 428.492C1300.81 441.877 1264.7 448.599 1229.69 448.599C1188.19 448.599 1148.21 439.152 1106.96 420.157C1066.03 401.302 1030.65 390.302 995.605 385.523C958.232 380.424 920.158 382.528 879.223 391.965C827.83 403.807 798.132 396.273 760.529 386.726C746.009 383.039 729.549 378.861 710.347 375.515C676.296 369.584 644.316 379.182 613.377 388.469C588.621 395.902 563.015 403.586 536.639 403.166C516.616 402.845 496.994 398.427 477.812 392.877C493.512 397.605 509.652 402.334 526.022 405.901C564.446 414.266 593.024 406.392 623.263 398.066C639.553 393.578 656.394 388.94 675.796 386.445C706.795 382.458 736.083 389.771 764.401 396.844C796.021 404.739 828.711 412.904 864.673 405.941C874.139 404.107 883.215 402.184 891.99 400.33C918.907 394.62 942.512 389.621 965.606 389.621Z" fill="black" fill-opacity="0.5"/>
<path d="M1079.66 483.984C1069.91 483.984 1060.14 481.98 1050.17 476.68C1035.92 469.097 1025.15 457.235 1013.76 444.672C1001.1 430.726 988.021 416.3 969.569 407.944C951.478 399.749 933.327 396.003 915.936 394.67C907.891 396.373 900.046 398.257 892.651 400.03C889.249 400.841 886.037 401.613 882.875 402.354C846.693 410.79 811.971 408.736 778.39 406.752C754.415 405.33 729.78 403.877 704.424 406.201C690.875 408.656 677.677 411.942 665.029 416.4C646.888 422.802 631.388 433.04 616.399 442.939C602.14 452.366 588.662 461.262 574.373 465.79C558.353 470.86 543.493 469.738 527.604 462.234C512.604 455.151 498.605 447.297 485.057 439.713C463.213 427.46 442.581 415.899 419.936 408.616C394.511 400.441 370.255 398.888 343.609 403.727C311.559 409.547 288.194 426.769 265.6 443.429C251.791 453.608 237.513 464.137 221.583 471.691C203.752 480.157 185.56 483.984 165.948 483.403C132.637 482.421 93.6128 474.396 61.5628 461.943C33.5554 451.063 -3.45773 431.327 -20.7986 399.088L-20.8886 398.928L-20.7085 398.948C-4.48838 400.3 11.6017 404.708 28.4622 412.423C43.5016 419.305 57.7705 428.131 71.5791 436.657C98.786 453.478 126.924 470.88 162.506 474.466C187.291 476.971 207.204 473.996 225.145 465.119C241.105 457.225 253.372 445.744 266.371 433.581C284.182 416.921 302.593 399.689 332.532 389.751C360.019 380.624 390.998 379.933 427.251 387.647C457.76 394.139 486.668 405.149 518.608 417.823C540.912 426.669 560.744 430.396 581.047 429.554C599.628 428.783 616.989 424.375 637.092 419.265C651.081 415.719 666.93 411.691 685.012 408.556C691.516 407.423 697.97 406.602 704.384 406.011C737.935 399.94 773.607 399.008 808.449 398.096C830.472 397.525 851.275 396.974 871.558 395.221C885.357 394.029 900.336 393.288 915.916 394.48C940.931 389.18 967.938 385.543 989.952 391.925C1014.54 399.048 1021.97 413.194 1029.85 428.161C1035.33 438.591 1040.99 449.37 1052.71 458.878C1062.57 466.872 1074.18 470.389 1088.22 469.627C1100.75 468.956 1114.01 465.009 1126.84 461.202C1136.38 458.367 1146.25 455.431 1155.74 453.879C1176.07 450.532 1196.91 449.891 1217.06 449.28C1238.95 448.609 1261.58 447.928 1283.63 443.76C1301.34 440.414 1322.37 432.54 1344.63 424.204C1398.65 403.987 1459.88 381.075 1501.84 411.25L1502.05 411.401L1501.8 411.431C1462.35 416.42 1423.69 426.819 1386.32 436.877C1350.65 446.475 1313.75 456.393 1276.21 461.603C1256.24 464.378 1235.92 464.218 1216.27 464.057C1197.82 463.917 1178.74 463.767 1160.1 466.061C1147.57 467.604 1135.37 471.351 1123.58 474.967C1108.63 479.556 1094.17 483.984 1079.66 483.984ZM916.636 394.53C933.847 395.912 951.768 399.659 969.659 407.764C988.141 416.139 1001.24 430.576 1013.91 444.541C1025.28 457.084 1036.04 468.936 1050.26 476.51C1074.98 489.664 1098.55 482.431 1123.51 474.777C1135.31 471.16 1147.52 467.413 1160.07 465.861C1178.72 463.566 1197.81 463.717 1216.27 463.857C1235.92 464.007 1256.23 464.167 1276.18 461.402C1313.71 456.193 1350.6 446.275 1386.26 436.677C1423.56 426.639 1462.14 416.27 1501.52 411.26C1459.64 381.366 1398.59 404.218 1344.7 424.385C1322.43 432.72 1301.39 440.594 1283.67 443.95C1261.61 448.118 1238.97 448.809 1217.07 449.481C1196.92 450.092 1176.09 450.733 1155.77 454.079C1146.29 455.642 1136.43 458.567 1126.9 461.402C1114.06 465.219 1100.79 469.157 1088.24 469.838C1074.15 470.599 1062.49 467.063 1052.59 459.038C1040.84 449.511 1035.17 438.711 1029.68 428.262C1021.82 413.324 1014.41 399.218 989.902 392.115C968.138 385.804 941.442 389.31 916.636 394.53ZM-20.5084 399.138C-10.9024 416.901 11.1414 442.117 61.6629 461.743C93.6929 474.186 132.687 482.201 165.978 483.192C185.55 483.773 203.722 479.946 221.523 471.501C237.433 463.947 251.701 453.428 265.51 443.259C288.124 426.589 311.499 409.357 343.599 403.526C370.275 398.677 394.561 400.24 420.016 408.425C442.681 415.709 463.313 427.29 485.167 439.542C498.705 447.136 512.704 454.981 527.694 462.064C543.523 469.537 558.343 470.669 574.313 465.61C588.582 461.092 602.04 452.206 616.289 442.788C631.288 432.88 646.798 422.631 664.959 416.23C676.917 412.012 689.364 408.846 702.122 406.442C696.469 407.013 690.785 407.764 685.062 408.766C666.99 411.902 651.141 415.929 637.152 419.476C617.039 424.585 599.669 428.993 581.067 429.764C560.744 430.616 540.872 426.879 518.548 418.023C486.628 405.35 457.72 394.339 427.221 387.858C391.008 380.153 360.059 380.845 332.612 389.961C302.713 399.89 284.322 417.101 266.531 433.752C253.523 445.924 241.235 457.415 225.255 465.32C207.274 474.216 187.341 477.191 162.506 474.687C126.874 471.09 98.726 453.688 71.489 436.847C57.6904 428.312 43.4215 419.496 28.4021 412.623C11.6317 404.909 -4.37831 400.511 -20.5084 399.138ZM733.032 404.779C748.421 404.779 763.541 405.67 778.41 406.552C811.971 408.535 846.683 410.589 882.835 402.154C885.987 401.422 889.209 400.651 892.611 399.83C899.806 398.106 907.42 396.283 915.235 394.61C899.906 393.488 885.187 394.229 871.588 395.401C851.295 397.155 830.492 397.706 808.469 398.277C774.408 399.168 739.546 400.08 706.665 405.79C715.541 405.069 724.326 404.779 733.032 404.779Z" fill="black" fill-opacity="0.5"/>
<path d="M1068.4 518.988C1056.29 518.988 1044.33 515.792 1031.14 509.1C1012.42 499.592 1001.06 483.152 990.082 467.243C981.306 454.53 972.231 441.396 959.503 432.069C948.526 424.024 936.488 419.405 921.639 417.522C908.521 415.859 895.273 416.58 881.254 417.342C878.212 417.502 875.07 417.672 871.968 417.822C860.431 418.343 848.724 418.704 837.397 419.045C808.799 419.916 779.23 420.808 750.693 424.525C718.733 428.682 691.286 436.036 666.78 447.006C648.419 455.221 633.019 464.458 619.441 472.603C600.119 484.194 583.428 494.203 564.777 497.569C554.93 499.342 545.074 499.182 534.658 497.058C523.311 494.754 511.263 490.145 497.835 482.992C461.672 463.707 429.332 451.685 398.983 446.235C381.052 443.019 363.621 442.137 347.161 443.61C329.19 445.223 311.799 449.691 295.469 456.894C283.561 462.144 272.875 467.313 262.548 472.302C241.525 482.461 223.364 491.227 203.071 496.827C180.847 502.959 158.273 504.521 132.037 501.726C109.653 499.342 76.7623 494.573 49.6754 480.698C34.0757 472.703 22.5685 460.591 11.4315 448.879C2.04568 439.001 -7.66038 428.793 -19.7479 421.149L-20.0581 420.958L-19.6979 420.968C-5.51904 421.329 9.09008 425.316 24.95 433.161C39.1288 440.163 53.1275 449.611 66.666 458.748C93.7729 477.041 121.8 495.946 155.101 498.811C166.758 499.813 177.625 499.312 188.322 497.288C197.878 495.475 207.094 492.479 216.509 488.111C234.03 479.986 249.08 468.626 265.01 456.604C284.652 441.786 304.955 426.458 330.41 417.572C361.11 406.862 394.831 408.716 436.517 423.423C454.498 429.764 470.758 442.989 486.498 455.772C501.867 468.265 516.376 480.057 531.686 485.086C543.854 489.083 556.401 488.021 571.181 481.76C584.229 476.22 596.957 467.524 610.425 458.317C627.786 446.455 645.727 434.182 664.399 429.324C694.237 421.559 728.829 415.969 767.183 412.723C798.552 410.068 832.584 408.886 871.238 409.117C906.37 409.327 935.528 410.669 964.176 425.497C978.475 432.9 990.742 444.481 1002.61 455.692C1016.02 468.355 1029.88 481.449 1046.61 488.362C1075.75 500.404 1098.24 492.8 1124.29 483.994C1130.86 481.77 1137.65 479.476 1144.84 477.392C1169.2 470.339 1194.69 467.714 1219.34 465.179C1237.3 463.326 1255.86 461.422 1273.92 457.816C1286.43 455.321 1304.49 448.889 1325.4 441.436C1387.45 419.325 1472.43 389.04 1502.77 429.644L1502.88 429.794L1502.69 429.804C1453.2 431.918 1405.77 445.403 1359.91 458.447C1331.54 466.512 1302.21 474.857 1272.46 480.527C1253.53 484.134 1234.29 486.178 1215.7 488.161C1187.79 491.137 1158.92 494.203 1131.09 502.638C1124.22 504.722 1117.92 506.896 1111.84 508.99C1098 513.768 1086.04 517.896 1073.37 518.798C1071.72 518.928 1070.06 518.988 1068.4 518.988ZM903.888 416.32C909.872 416.32 915.776 416.59 921.659 417.332C936.549 419.215 948.606 423.854 959.613 431.908C972.371 441.255 981.456 454.41 990.242 467.133C1001.21 483.022 1012.55 499.442 1031.23 508.92C1046.19 516.513 1059.58 519.589 1073.36 518.607C1086 517.706 1097.95 513.578 1111.78 508.809C1117.86 506.705 1124.16 504.541 1131.03 502.448C1158.88 494.012 1187.76 490.937 1215.68 487.961C1234.27 485.977 1253.5 483.934 1272.42 480.327C1302.17 474.657 1331.49 466.321 1359.86 458.257C1405.68 445.233 1453.06 431.758 1502.5 429.614C1472.15 389.36 1387.39 419.566 1325.47 441.626C1304.55 449.08 1286.48 455.522 1273.96 458.016C1255.89 461.623 1237.32 463.536 1219.36 465.38C1194.72 467.914 1169.24 470.539 1144.9 477.582C1137.71 479.666 1130.92 481.96 1124.35 484.174C1098.26 492.99 1075.74 500.604 1046.53 488.532C1029.77 481.609 1015.89 468.495 1002.47 455.822C990.612 444.622 978.355 433.04 964.086 425.657C935.478 410.85 906.34 409.507 871.238 409.297C832.594 409.056 798.562 410.239 767.203 412.903C728.849 416.149 694.277 421.74 664.449 429.504C645.817 434.353 627.886 446.615 610.545 458.467C597.067 467.684 584.339 476.38 571.271 481.93C564.236 484.916 557.802 486.679 551.588 487.33C544.624 488.061 538.1 487.38 531.646 485.266C516.306 480.227 501.777 468.415 486.398 455.922C470.678 443.149 454.428 429.935 436.477 423.603C394.841 408.916 361.16 407.053 330.501 417.752C305.075 426.629 284.772 441.937 265.15 456.754C249.21 468.786 234.15 480.147 216.609 488.282C207.184 492.65 197.948 495.665 188.382 497.469C177.665 499.502 166.788 499.993 155.111 498.991C121.76 496.126 93.7028 477.191 66.5759 458.888C53.0475 449.761 39.0588 440.314 24.8899 433.321C9.19013 425.567 -5.26888 421.589 -19.3176 421.169C-7.36019 428.803 2.27582 438.931 11.5916 448.739C22.7186 460.441 34.2157 472.543 49.7854 480.517C76.8323 494.383 109.703 499.152 132.077 501.526C158.283 504.311 180.827 502.758 203.031 496.627C223.314 491.027 241.465 482.261 262.478 472.112C272.815 467.123 283.501 461.963 295.409 456.704C311.759 449.491 329.17 445.012 347.161 443.399C363.631 441.927 381.082 442.808 399.033 446.024C429.402 451.474 461.762 463.506 497.945 482.802C511.353 489.955 523.381 494.553 534.708 496.847C545.104 498.961 554.941 499.122 564.757 497.358C583.368 494.002 600.049 483.994 619.361 472.413C632.949 464.258 648.349 455.021 666.72 446.806C691.245 435.836 718.703 428.472 750.683 424.314C779.23 420.598 808.809 419.706 837.407 418.834C848.734 418.494 860.441 418.133 871.978 417.612C875.08 417.472 878.222 417.302 881.264 417.131C888.989 416.72 896.504 416.32 903.888 416.32Z" fill="black" fill-opacity="0.5"/>
<path d="M1046.1 536.42C1044.5 536.42 1042.9 536.4 1041.3 536.35C1031.15 536.029 1022.14 534.266 1013.75 530.94C1006.26 527.974 999.438 523.817 992.894 518.247C980.726 507.888 971.3 493.962 962.185 480.497C945.064 455.191 927.353 429.013 890.12 422.591C860.751 417.522 821.327 417.322 781.962 422.02C740.667 426.949 703.553 436.657 677.477 449.34C659.566 458.046 643.516 471.14 627.996 483.803C613.777 495.405 599.068 507.397 583.208 515.722C574.673 520.2 566.468 523.296 558.123 525.199C548.767 527.333 539.471 527.914 529.705 526.983C501.427 524.288 475.141 511.975 449.725 500.063C433.625 492.519 416.975 484.715 399.864 479.345C380.662 473.324 362.961 471.09 345.75 472.533C312.78 475.298 282.331 487.39 252.872 499.081C218.271 512.817 182.508 527.023 141.453 527.023C140.962 527.023 140.472 527.023 139.982 527.013C102.598 526.702 65.3352 520.08 37.748 508.829C11.7518 498.23 4.02694 485.947 -5.75917 470.399C-10.6322 462.655 -16.1557 453.869 -24.761 444.181L-24.9511 443.97L-24.671 444.011C-11.943 446.054 0.945015 450.372 14.7136 457.205C27.0113 463.316 38.9287 470.86 50.4559 478.163C77.913 495.555 106.311 513.528 143.634 515.131C165.298 516.053 185.71 512.917 207.844 505.243C227.396 498.47 245.207 489.253 264.069 479.506C283.641 469.387 303.884 458.928 326.158 451.494C386.225 431.458 440.719 459.84 493.422 487.29C503.008 492.279 512.924 497.448 522.57 502.137C526.693 504.141 530.455 506.024 533.767 507.687C560.494 521.062 566.058 523.847 590.473 506.525C601.5 498.701 609.605 490.345 617.45 482.261C630.918 468.385 643.636 455.281 669.222 446.405C698.13 436.377 731.651 428.242 766.162 422.882C799.673 417.682 834.085 415.088 865.685 415.378C884.326 415.548 899.616 417.372 913.815 421.119C929.654 425.296 944.074 431.938 957.912 441.436C970.87 450.332 981.137 463.957 991.063 477.141C1003.71 493.942 1015.66 509.811 1032.79 516.984C1044.19 521.763 1056.86 522.625 1071.53 519.649C1084.47 517.014 1097.2 511.835 1109.5 506.826C1114.35 504.852 1118.94 502.979 1123.51 501.276C1155.34 489.404 1186.84 483.643 1220.2 477.552C1227.78 476.17 1235.63 474.737 1243.42 473.224C1257.45 470.519 1275.66 465.209 1296.75 459.068C1364.58 439.302 1457.45 412.222 1498.91 448.689L1499.11 448.869H1498.84C1468.55 448.669 1435.89 450.933 1398.99 455.802C1366.02 460.15 1332.56 466.141 1300.2 471.942C1289.98 473.775 1279.41 475.669 1268.98 477.492C1240 482.551 1209.57 493.301 1177.35 504.672C1133.12 520.28 1087.43 536.42 1046.1 536.42ZM837.577 418.434C856.879 418.434 874.88 419.756 890.16 422.391C927.473 428.823 945.204 455.031 962.355 480.377C971.461 493.832 980.876 507.747 993.024 518.086C999.558 523.646 1006.36 527.784 1013.83 530.739C1022.19 534.056 1031.19 535.819 1041.31 536.139C1083.85 537.462 1131.35 520.691 1177.29 504.471C1209.52 493.091 1239.96 482.341 1268.95 477.282C1279.38 475.458 1289.95 473.565 1300.17 471.731C1332.53 465.931 1365.99 459.93 1398.97 455.582C1435.77 450.733 1468.36 448.469 1498.58 448.649C1483.76 435.745 1462.4 430.897 1437.99 430.897C1394.08 430.897 1340.3 446.575 1296.81 459.248C1275.72 465.4 1257.51 470.71 1243.46 473.414C1235.66 474.917 1227.82 476.35 1220.24 477.742C1186.89 483.834 1155.41 489.594 1123.59 501.456C1119.02 503.159 1114.44 505.022 1109.58 507.006C1097.26 512.015 1084.53 517.205 1071.57 519.84C1056.86 522.835 1044.15 521.953 1032.71 517.165C1015.53 509.971 1003.57 494.082 990.903 477.262C980.987 464.097 970.74 450.472 957.802 441.606C943.983 432.129 929.574 425.487 913.765 421.319C899.586 417.582 884.306 415.759 865.685 415.588C834.095 415.308 799.683 417.893 766.192 423.092C731.691 428.442 698.18 436.577 669.282 446.605C643.736 455.472 631.038 468.556 617.59 482.411C609.735 490.496 601.62 498.861 590.583 506.695C566.068 524.087 560.494 521.302 533.677 507.878C530.365 506.215 526.603 504.341 522.48 502.337C512.824 497.649 502.918 492.479 493.332 487.49C440.669 460.06 386.215 431.698 326.228 451.705C303.974 459.128 283.741 469.587 264.169 479.706C245.297 489.464 227.476 498.671 207.914 505.453C185.75 513.137 165.318 516.283 143.624 515.361C106.251 513.768 77.833 495.765 50.3458 478.364C38.8286 471.07 26.9112 463.526 14.6236 457.425C0.975037 450.643 -11.8029 446.345 -24.4208 444.291C-15.9155 453.909 -10.4321 462.625 -5.58906 470.329C4.17703 485.847 11.8818 498.11 37.828 508.679C65.3952 519.92 102.638 526.542 139.992 526.852C140.482 526.852 140.972 526.862 141.463 526.862C182.478 526.862 218.221 512.666 252.802 498.941C282.271 487.24 312.74 475.148 345.73 472.383C362.971 470.94 380.692 473.164 399.924 479.205C417.045 484.575 433.705 492.379 449.815 499.933C475.221 511.835 501.487 524.147 529.735 526.842C539.481 527.774 548.757 527.183 558.093 525.059C566.418 523.166 574.613 520.07 583.128 515.602C598.978 507.287 613.677 495.305 627.886 483.703C643.416 471.03 659.476 457.936 677.407 449.21C703.503 436.517 740.637 426.809 781.952 421.87C800.844 419.556 819.766 418.434 837.577 418.434Z" fill="black" fill-opacity="0.5"/>
<path d="M1031.07 566.836C1007.25 566.836 989.852 561.376 976.524 549.774C963.886 538.784 956.311 523.466 948.286 507.256C942.302 495.184 936.188 482.812 927.593 471.13C917.036 459.98 905.159 449.941 890.21 443.129C881.104 438.971 870.537 435.735 858.88 433.451C848.814 432.61 837.797 432.78 825.94 433.962C791.698 437.378 756.386 448.348 728.009 457.165C723.586 458.537 719.413 459.84 715.431 461.052C687.083 469.668 663.098 487.049 639.894 503.86C611.536 524.408 584.749 543.824 553.45 544.475C550.968 544.525 548.497 544.535 546.035 544.515C539.631 545.777 533.077 546.599 526.283 546.979C510.283 547.881 494.433 544.966 477.833 538.063C475.021 536.891 472.229 535.629 469.457 534.296C457.44 531.551 445.602 528.515 433.885 525.5C400.014 516.794 364.992 507.797 328.249 506.776C298.321 505.944 272.935 514.269 246.048 523.086C236.392 526.251 226.396 529.527 216.099 532.383C187.782 540.237 163.386 538.714 137.55 537.101C124.712 536.3 111.444 535.478 97.085 535.749C81.9656 536.039 68.4671 537.322 56.5697 538.454C32.955 540.708 14.3034 542.481 -0.515886 534.617C-8.19067 530.539 -14.7047 523.957 -20.4283 514.49C-26.4521 504.501 -31.8154 491.007 -36.8185 473.204L-36.8686 473.034L-36.6985 473.084C-19.7979 478.023 -4.55841 485.737 10.1808 493.211C29.0526 502.778 48.5747 512.666 71.9193 516.914C78.4734 518.106 85.0275 519.389 91.9718 520.751C114.576 525.179 137.94 529.758 159.894 530.679C194.986 532.152 225.995 518.397 255.974 505.082C271.264 498.3 287.084 491.277 303.054 486.508C320.955 481.169 337.275 479.235 352.965 480.598C384.885 483.383 410.46 499.202 435.196 514.5C446.293 521.362 457.7 528.415 469.507 534.116C494.133 539.736 519.488 544.094 546.005 544.334C559.934 541.579 573.142 536.66 586.52 529.317C603.781 519.85 618.69 507.838 634.47 495.124C653.582 479.726 673.344 463.807 697.87 452.566C723.856 440.654 758.788 432.429 793.69 429.995C811.971 428.723 829.352 429.093 845.352 431.087C850.115 431.678 854.708 432.419 859.14 433.291C864.764 433.772 870.097 434.563 875.1 435.675C891.35 439.282 904.899 446.345 915.355 456.654C920.038 461.272 924.101 466.081 927.733 471.02C934.487 478.153 940.701 485.747 946.845 493.241C969.979 521.483 991.833 548.171 1036.99 543.914C1080.63 539.806 1126.74 523.737 1171.34 508.198C1205.15 496.417 1240.12 484.224 1273.45 477.502C1286.78 474.817 1301.54 470.88 1317.18 466.722C1346.57 458.898 1379.9 450.022 1411.13 447.747C1447.01 445.133 1474.59 451.624 1495.48 467.604L1495.73 467.794L1495.41 467.784C1467.2 466.662 1436.77 468.225 1402.4 472.573C1371.71 476.45 1340.65 482.15 1310.61 487.671C1293.57 490.796 1275.95 494.032 1258.5 496.917C1213.8 504.311 1175.2 510.693 1133.98 529.277C1125.39 533.154 1116.9 537.602 1108.7 541.9C1097.32 547.861 1085.56 554.022 1073.51 558.641C1060.02 563.81 1047.51 566.475 1035.27 566.796C1033.86 566.816 1032.45 566.836 1031.07 566.836ZM928.684 472.292C936.799 483.603 942.692 495.525 948.466 507.166C964.636 539.826 978.595 568.028 1035.28 566.575C1047.5 566.265 1059.99 563.6 1073.46 558.44C1085.5 553.832 1097.26 547.671 1108.63 541.71C1116.83 537.412 1125.32 532.964 1133.92 529.076C1175.17 510.482 1213.77 504.091 1258.49 496.697C1275.94 493.812 1293.56 490.576 1310.6 487.45C1340.64 481.94 1371.7 476.23 1402.4 472.352C1436.66 468.025 1467 466.452 1495.13 467.554C1474.31 451.745 1446.85 445.333 1411.17 447.928C1379.96 450.202 1346.64 459.078 1317.25 466.903C1301.61 471.07 1286.85 474.997 1273.51 477.682C1240.19 484.405 1205.23 496.587 1171.42 508.369C1126.81 523.917 1080.69 539.986 1037.03 544.094C991.763 548.362 969.879 521.633 946.715 493.351C940.891 486.258 935.018 479.085 928.684 472.292ZM470.338 534.486C472.839 535.679 475.361 536.821 477.902 537.873C494.473 544.765 510.293 547.671 526.263 546.779C532.717 546.418 538.941 545.667 545.034 544.505C519.168 544.174 494.403 539.946 470.338 534.486ZM547.006 544.324C549.147 544.334 551.298 544.324 553.45 544.274C584.689 543.633 611.446 524.238 639.773 503.7C662.988 486.879 686.983 469.477 715.371 460.861C719.353 459.649 723.526 458.357 727.948 456.984C756.326 448.168 791.648 437.188 825.92 433.772C837.097 432.66 847.523 432.439 857.109 433.121C838.297 429.634 816.714 428.592 793.73 430.185C758.848 432.61 723.946 440.825 697.98 452.737C673.485 463.967 653.732 479.876 634.63 495.264C618.84 507.988 603.931 520 586.65 529.477C573.532 536.66 560.604 541.529 547.006 544.324ZM-36.5484 473.314C-31.5653 491.007 -26.2319 504.441 -20.2282 514.37C-14.5246 523.807 -8.04058 530.369 -0.395809 534.426C14.3634 542.261 32.995 540.487 56.5797 538.243C68.4872 537.111 81.9756 535.819 97.115 535.538C111.484 535.268 124.762 536.089 137.6 536.891C163.416 538.504 187.802 540.017 216.079 532.182C226.376 529.327 236.362 526.051 246.018 522.885C272.915 514.069 298.331 505.744 328.289 506.565C365.052 507.587 400.084 516.594 433.965 525.3C445.402 528.235 456.96 531.21 468.687 533.905C457.15 528.265 446.003 521.372 435.136 514.65C410.42 499.362 384.865 483.563 352.995 480.778C337.335 479.415 321.035 481.339 303.164 486.679C287.194 491.447 271.394 498.46 256.104 505.243C226.095 518.557 195.076 532.322 159.934 530.85C137.97 529.928 114.596 525.35 91.9818 520.922C85.0475 519.559 78.4934 518.277 71.9293 517.084C48.5547 512.837 29.0325 502.939 10.1408 493.371C-4.55841 485.937 -19.7379 478.243 -36.5484 473.314ZM860.981 433.642C871.868 435.906 881.684 439.011 890.3 442.939C904.749 449.521 916.326 459.118 926.612 469.808C923.24 465.34 919.488 460.982 915.235 456.784C904.809 446.495 891.3 439.452 875.08 435.856C870.628 434.874 865.925 434.132 860.981 433.642Z" fill="black" fill-opacity="0.5"/>
<path d="M446.843 594.867C440.949 594.867 434.725 594.176 427.961 592.543C411.251 588.525 396.652 578.537 382.533 568.869C365.212 557.008 347.311 544.745 324.797 542.611C292.437 539.536 259.256 544.785 227.176 549.865C194.366 555.054 160.444 560.424 126.313 557.328C110.804 555.926 89.12 560.554 66.1657 565.453C46.3033 569.691 25.7705 574.079 7.43905 574.971C-13.3639 575.983 -28.0431 572.186 -37.4289 563.369C-43.0124 558.12 -46.8348 550.917 -48.786 541.97C-50.8873 532.332 -50.8873 520.3 -48.806 506.205L-48.756 505.894L-48.6159 506.175C-37.9893 527.454 -15.7554 539.415 19.3765 542.752C49.6354 545.627 83.9368 541.69 114.206 538.213C129.255 536.49 143.474 534.857 154.941 534.386C188.712 533.014 224.084 530.629 252.762 518.076C261.608 514.209 269.182 510.042 276.507 506.014C286.403 500.564 295.759 495.425 305.985 492.499C317.302 489.263 328.649 489.023 341.687 491.748C352.634 494.032 362.54 498.38 371.996 505.022C380.442 510.963 387.806 518.197 394.941 525.189C404.847 534.917 415.093 544.976 428.722 552.219C439.719 558.07 452.366 561.546 467.396 562.858C480.814 564.031 494.873 563.409 508.461 562.818C517.227 562.438 526.293 562.037 535.128 562.117C540.161 562.167 545.445 562.478 551.048 562.808C570.59 563.97 592.744 565.293 607.713 554.353C618.96 546.128 625.805 532.984 633.049 519.058C641.364 503.079 649.96 486.559 666.06 475.679C678.387 467.353 693.707 460.1 711.588 454.109C728.809 448.348 748.021 443.99 767.133 441.516C786.965 438.951 806.107 438.39 824.028 439.833C843.08 441.376 859.761 445.133 873.619 451.003C901.587 462.865 917.447 484.986 932.776 506.385C942.932 520.561 952.528 533.955 965.386 544.625C972.301 550.356 979.485 554.744 987.35 558.02C996.166 561.686 1005.63 563.9 1016.29 564.772C1064.35 568.709 1116.19 546.408 1166.32 524.849C1191.53 514.009 1215.34 503.77 1238.05 497.068C1241.36 496.096 1244.78 495.074 1248.31 494.022C1284.85 483.162 1330.32 469.637 1375.52 464.398C1400.11 461.553 1422.17 461.553 1441.09 464.398C1463.04 467.704 1481.64 474.957 1496.37 485.957L1496.64 486.158L1496.3 486.138C1455.21 483.202 1411.88 485.166 1363.83 492.169C1324.24 497.939 1281.71 507.146 1233.81 520.31C1211.96 526.321 1189.6 535.047 1165.9 544.284C1133.65 556.867 1100.3 569.881 1067.1 576.103C1049.17 579.469 1032.95 580.561 1017.51 579.469C1000.1 578.227 984.188 574.249 968.879 567.307C941.682 554.964 929.474 532.362 917.667 510.512C911.253 498.641 904.629 486.368 895.713 476.2C885.747 464.829 873.819 457.225 859.24 452.967C828.981 444.131 786.855 443.78 746.55 452.025C725.637 456.303 706.585 462.565 689.915 470.629C671.853 479.365 657.484 489.845 647.188 501.766C639.843 510.272 635.281 520.651 630.868 530.679C624.794 544.495 619.06 557.539 606.743 565.323C594.265 573.217 573.722 573.227 553.85 573.247C540.331 573.257 527.573 573.268 517.837 575.702C507.831 578.207 498.966 581.453 490.39 584.598C475.691 590.008 462.433 594.867 446.843 594.867ZM304.654 541.499C311.399 541.499 318.123 541.78 324.817 542.421C347.381 544.565 365.312 556.847 382.653 568.719C396.752 578.377 411.331 588.355 428.011 592.363C452.597 598.263 470.088 591.862 490.34 584.438C498.926 581.292 507.791 578.046 517.817 575.542C527.573 573.107 540.351 573.097 553.87 573.087C573.712 573.067 594.225 573.057 606.653 565.193C618.92 557.439 624.644 544.425 630.698 530.639C635.11 520.591 639.683 510.202 647.048 501.676C657.364 489.734 671.763 479.235 689.845 470.489C706.525 462.414 725.597 456.153 746.52 451.865C786.855 443.61 829.021 443.96 859.31 452.807C873.929 457.074 885.887 464.698 895.883 476.099C904.809 486.288 911.443 498.571 917.857 510.452C929.644 532.282 941.832 554.844 968.969 567.156C984.258 574.089 1000.14 578.066 1017.53 579.299C1032.95 580.401 1049.16 579.299 1067.07 575.942C1100.25 569.721 1133.59 556.717 1165.83 544.134C1189.53 534.887 1211.9 526.161 1233.76 520.15C1281.66 506.986 1324.2 497.779 1363.8 492.009C1411.73 485.026 1454.97 483.042 1495.97 485.947C1481.31 475.087 1462.84 467.914 1441.06 464.628C1422.16 461.783 1400.12 461.783 1375.55 464.628C1330.36 469.858 1284.91 483.383 1248.37 494.243C1244.84 495.295 1241.42 496.306 1238.11 497.288C1215.41 503.98 1191.61 514.219 1166.41 525.059C1120.18 544.946 1072.49 565.453 1027.65 565.453C1023.83 565.453 1020.05 565.303 1016.29 564.992C1005.61 564.121 996.136 561.907 987.29 558.23C979.395 554.944 972.201 550.556 965.276 544.805C952.398 534.116 942.792 520.711 932.626 506.525C917.306 485.156 901.477 463.045 873.549 451.214C859.721 445.343 843.05 441.596 824.018 440.053C806.107 438.601 786.975 439.172 767.163 441.736C748.051 444.211 728.859 448.559 711.648 454.319C693.777 460.3 678.477 467.554 666.17 475.869C650.11 486.719 641.524 503.219 633.219 519.168C625.965 533.114 619.1 546.288 607.823 554.533C592.794 565.523 570.61 564.191 551.028 563.029C545.435 562.698 540.141 562.378 535.118 562.338C526.283 562.257 517.227 562.658 508.461 563.039C494.863 563.64 480.794 564.261 467.366 563.079C452.306 561.756 439.629 558.27 428.612 552.409C414.963 545.156 404.707 535.087 394.791 525.35C387.666 518.357 380.302 511.124 371.876 505.203C362.45 498.571 352.554 494.243 341.637 491.958C328.629 489.233 317.312 489.474 306.035 492.7C295.839 495.615 286.493 500.755 276.607 506.195C269.282 510.222 261.698 514.39 252.852 518.267C224.134 530.83 188.742 533.224 154.951 534.597C143.494 535.057 129.285 536.69 114.236 538.424C83.9668 541.9 49.6454 545.837 19.3665 542.962C-15.6754 539.636 -37.9292 527.724 -48.6359 506.565C-50.6672 520.501 -50.6472 532.403 -48.5759 541.95C-46.6347 550.856 -42.8323 558.02 -37.2788 563.239C-27.933 572.025 -13.3039 575.802 7.43905 574.79C25.7505 573.899 46.2833 569.511 66.1357 565.273C89.11 560.364 110.804 555.725 126.343 557.138C160.454 560.234 194.366 554.864 227.156 549.674C252.612 545.637 278.758 541.499 304.654 541.499Z" fill="black" fill-opacity="0.5"/>
<path d="M454.368 607.43C450.065 607.43 445.482 607.24 440.549 606.829C417.325 604.895 393.9 599.876 371.246 595.027C358.848 592.372 346.02 589.627 333.442 587.433C258.986 574.46 180.947 570.663 105.48 566.986L103.459 566.886C95.6541 566.505 79.6541 570.923 61.1326 576.042C20.9975 587.133 -33.9668 602.331 -54.2794 582.484C-58.2919 578.557 -60.8335 573.347 -61.8241 566.996C-62.8848 560.193 -62.2044 551.878 -59.8129 542.271L-59.7629 542.07L-59.6328 542.241C-51.5978 552.83 -43.5728 560.504 -35.0975 565.714C-27.2926 570.512 -19.0475 573.217 -9.91176 573.989C7.45907 575.451 26.601 569.701 48.7748 563.059L50.1757 562.638C81.5753 553.231 108.702 552.589 137.42 551.918C150.178 551.618 163.366 551.307 177.435 550.225C198.428 548.602 220.222 541.179 241.305 533.985C259.766 527.694 278.858 521.182 297.52 518.497C307.576 517.054 316.692 516.804 325.397 517.746C335.173 518.798 344.169 521.312 352.915 525.41C375.359 535.959 387.866 552.169 398.903 566.465C416.054 588.686 430.863 607.881 475.611 601.309L477.812 600.988C485.797 599.816 495.594 598.383 506.16 596.72C507.471 596.25 508.782 595.769 510.123 595.288C519.328 591.952 528.844 588.495 540.642 585.279C551.048 582.444 561.465 581.953 571.541 581.482C576.234 581.262 580.857 581.042 585.39 580.601C587.761 579.869 589.982 579.138 592.024 578.387C611.176 571.394 621.442 556.316 632.299 540.357C639.663 529.537 647.288 518.347 658.115 509.06C660.136 507.327 662.247 505.613 664.459 503.93C668.481 499.592 672.984 495.665 678.167 492.369C691.816 483.683 708.636 476.149 726.808 470.599C728.629 470.048 730.45 469.507 732.291 468.996C742.918 465.37 753.805 462.344 764.671 460.07C786.675 455.461 807.308 454.089 826 455.972C846.712 458.066 864.253 464.147 878.142 474.046C899.065 488.963 911.343 507.357 923.22 525.149C933.066 539.896 942.362 553.832 955.871 564.672C971.04 576.854 989.311 583.316 1013.36 585.039C1070 589.076 1125.66 564.932 1179.48 541.589C1205.83 530.158 1230.71 519.369 1255.77 511.614L1257.17 511.184C1286.43 502.127 1335.4 486.969 1382.52 481.008C1408.51 477.712 1431.24 477.572 1450.06 480.567C1472.29 484.114 1489.71 492.139 1501.83 504.431L1502.02 504.632L1501.74 504.602C1413.35 495.986 1324.65 504.571 1238.13 530.118C1212.68 537.632 1186.94 549.394 1162.05 560.774C1138.76 571.414 1114.69 582.414 1090.47 590.188C1063.26 598.914 1038.93 602.481 1016.09 601.068C956.251 597.382 938.029 570.122 914.965 535.608C906.029 522.234 896.784 508.398 884.116 494.192C850.195 456.143 785.764 454.209 732.161 469.257C706.585 478.013 682.62 490.295 664.599 504.091C656.054 513.307 649.63 524.388 643.356 535.228C635.291 549.163 627.666 562.317 616.199 570.522C606.633 577.375 596.296 579.739 585.42 580.811C564.857 587.123 532.997 592.733 506.21 596.931C489.85 602.801 475.521 607.43 454.368 607.43ZM102.478 566.655C102.819 566.655 103.149 566.665 103.469 566.675L105.49 566.775C180.967 570.452 259.006 574.249 333.472 587.223C346.06 589.417 358.878 592.162 371.286 594.817C393.93 599.666 417.345 604.685 440.559 606.618C469.267 609.003 485.917 603.964 505.159 597.061C494.973 598.654 485.567 600.026 477.832 601.169L475.631 601.489C430.763 608.081 415.924 588.836 398.733 566.565C387.716 552.279 375.218 536.089 352.814 525.57C344.099 521.472 335.113 518.968 325.367 517.916C316.682 516.984 307.576 517.225 297.54 518.667C278.888 521.342 259.806 527.854 241.355 534.146C220.272 541.339 198.458 548.772 177.435 550.395C163.356 551.477 150.158 551.788 137.4 552.089C108.692 552.76 81.5853 553.401 50.2157 562.808L48.8149 563.229C26.631 569.881 7.46908 575.632 -9.94178 574.169C-19.1075 573.398 -27.3727 570.683 -35.2175 565.874C-43.6728 560.684 -51.6778 553.04 -59.6828 542.521C-62.0343 552.018 -62.6947 560.244 -61.644 566.966C-60.6634 573.277 -58.1418 578.447 -54.1493 582.344C-33.9167 602.11 20.9775 586.932 61.0625 575.852C78.8636 570.933 94.3233 566.655 102.478 566.655ZM793.619 460.25C810.48 460.25 826.03 462.424 839.958 466.722C858.23 472.362 873.129 481.559 884.256 494.032C896.934 508.248 906.18 522.084 915.125 535.468C938.159 569.941 956.361 597.161 1016.1 600.838C1038.91 602.24 1063.22 598.684 1090.4 589.968C1114.61 582.204 1138.68 571.204 1161.96 560.564C1186.86 549.183 1212.61 537.412 1238.07 529.898C1324.53 504.371 1413.16 495.775 1501.48 504.351C1489.39 492.209 1472.08 484.264 1450.01 480.748C1431.21 477.752 1408.49 477.893 1382.52 481.189C1335.42 487.15 1286.46 502.307 1257.21 511.354L1255.81 511.785C1230.76 519.539 1205.88 530.329 1179.54 541.75C1129.71 563.369 1078.31 585.66 1025.98 585.66C1021.77 585.66 1017.55 585.52 1013.32 585.209C989.221 583.486 970.92 577.004 955.71 564.802C942.182 553.942 932.876 539.996 923.02 525.239C911.153 507.467 898.885 489.083 877.992 474.186C864.133 464.308 846.632 458.237 825.95 456.153C807.278 454.269 786.665 455.642 764.681 460.24C754.945 462.274 745.189 464.919 735.613 468.055C751.693 463.807 768.274 461.202 784.083 460.461C787.315 460.32 790.487 460.25 793.619 460.25ZM584.419 580.881C580.206 581.262 575.904 581.472 571.541 581.673C561.475 582.144 551.068 582.635 540.682 585.47C528.894 588.676 519.388 592.132 510.183 595.468C509.182 595.829 508.181 596.189 507.201 596.55C533.367 592.432 564.116 586.993 584.419 580.881ZM663.668 504.772C661.787 506.234 659.986 507.707 658.245 509.2C647.438 518.467 639.823 529.647 632.469 540.457C621.582 556.447 611.306 571.544 592.094 578.557C590.323 579.208 588.421 579.849 586.39 580.481C596.867 579.369 606.843 576.944 616.079 570.332C627.516 562.147 635.121 549.013 643.176 535.097C649.269 524.578 655.493 513.828 663.668 504.772ZM728.669 470.228C709.757 475.849 692.336 483.563 678.267 492.519C673.454 495.585 669.232 499.192 665.419 503.179C682.53 490.275 704.814 478.744 728.669 470.228Z" fill="black" fill-opacity="0.5"/>
<path d="M483.976 632.646C447.824 632.646 410.781 626.936 375.499 620.925C364.412 619.031 353.075 617.058 342.108 615.144C278.638 604.064 213.388 592.673 148.817 589.828C145.955 590.028 143.094 590.198 140.242 590.329C121.25 591.2 100.367 596.42 78.2432 601.95C55.9593 607.52 33.055 613.251 11.5917 614.413C7.44907 615.264 3.33652 616.026 -0.706006 616.667C-28.3332 621.025 -46.8848 618.791 -57.4214 609.854C-65.6565 602.872 -68.8185 591.591 -66.8273 576.343L-66.7872 576.063L-66.6371 576.303C-58.8623 589.157 -49.4964 598.474 -38.0193 604.805C-27.8429 610.415 -16.2457 613.511 -2.57718 614.253C2.05571 614.503 6.77866 614.473 11.5716 614.222C31.5141 610.115 52.187 603.843 69.3877 598.624C86.7285 593.364 100.417 589.207 107.101 589.076C120.95 588.806 134.869 589.016 148.807 589.627C169.19 588.185 189.953 585.059 210.105 582.023C233.72 578.467 258.145 574.78 281.95 573.818C308.657 572.736 331.701 575.261 352.414 581.543C365.122 585.4 377.18 589.477 388.847 593.414C441.74 611.277 487.418 626.705 550.908 606.999C569.25 601.309 585.219 591.771 599.729 577.866C612.647 565.473 623.203 550.886 633.41 536.771C641.935 524.979 650.75 512.777 660.847 502.057C672.164 490.035 683.961 481.139 696.919 474.837C724.967 461.212 761.019 459.519 798.432 470.058C815.203 474.787 831.923 481.96 846.783 490.826C861.572 499.643 874.61 510.182 884.486 521.302C907.42 547.109 932.816 573.217 963.025 589.297C993.104 605.306 1025.86 610.596 1066.1 605.937C1088.26 603.373 1112.86 596.54 1141.3 585.059C1166.7 574.8 1192.95 561.766 1218.32 549.173C1265.68 525.66 1314.65 501.346 1363.14 492.069C1389.29 487.069 1413.06 486.759 1435.79 491.147C1448.13 493.521 1460.29 497.368 1471.94 502.558C1484.18 508.018 1496.28 515.151 1507.9 523.777L1508.18 523.987L1507.84 523.957C1488.45 522.534 1469.31 520.25 1450.81 518.036C1423.99 514.83 1398.66 511.795 1372.5 511.154C1342.89 510.432 1317.5 512.917 1292.56 518.988C1253.41 528.525 1223.15 551.938 1193.89 574.59C1180.36 585.059 1166.37 595.889 1151.88 604.966C1135.66 615.134 1120.39 622.087 1105.18 626.214C1079.23 633.267 1042.71 632.897 1005 625.213C967.168 617.509 933.347 603.463 912.203 586.702C892.891 571.384 881.985 553.181 871.438 535.568C862.522 520.681 854.097 506.615 841.359 495.996C827.1 484.114 809.329 478.133 785.434 477.171C768.024 476.47 751.933 478.684 736.254 483.934C722.285 488.612 708.947 495.615 695.508 505.343C670.523 523.416 648.929 548.422 628.036 572.596C625.865 575.111 623.694 577.625 621.522 580.13C607.373 596.43 589.882 609.053 569.54 617.649C551.348 625.333 531.016 629.951 507.371 631.765C499.616 632.376 491.811 632.646 483.976 632.646ZM150.518 589.708C214.558 592.673 279.209 603.964 342.138 614.944C353.105 616.857 364.442 618.841 375.529 620.724C418.445 628.038 463.974 634.91 507.321 631.584C557.242 627.757 594.535 610.886 621.332 580.02C623.503 577.515 625.675 575.001 627.846 572.486C648.739 548.302 670.343 523.286 695.348 505.203C708.817 495.465 722.155 488.452 736.154 483.763C751.863 478.504 767.973 476.29 785.414 476.991C809.349 477.953 827.16 483.944 841.459 495.856C854.227 506.495 862.653 520.571 871.588 535.478C882.125 553.07 893.021 571.264 912.314 586.552C933.427 603.302 967.218 617.318 1005.02 625.022C1042.7 632.706 1079.19 633.067 1105.11 626.024C1120.3 621.897 1135.56 614.954 1151.76 604.795C1166.24 595.719 1180.22 584.899 1193.75 574.43C1223.03 551.768 1253.31 528.335 1292.5 518.798C1317.46 512.716 1342.87 510.232 1372.5 510.953C1398.66 511.594 1424 514.63 1450.83 517.836C1469.23 520.04 1488.25 522.314 1507.5 523.737C1495.99 515.211 1484 508.148 1471.87 502.738C1460.24 497.549 1448.09 493.712 1435.76 491.337C1413.05 486.959 1389.31 487.26 1363.19 492.259C1314.73 501.526 1265.77 525.841 1218.42 549.344C1193.04 561.947 1166.8 574.971 1141.39 585.239C1112.94 596.73 1088.32 603.563 1066.14 606.138C1025.85 610.806 993.074 605.506 962.955 589.477C932.706 573.378 907.3 547.26 884.356 521.432C874.49 510.332 861.472 499.803 846.693 490.997C831.853 482.14 815.143 474.967 798.392 470.249C761.029 459.719 725.027 461.412 697.019 475.017C684.081 481.299 672.304 490.185 661.007 502.187C650.921 512.907 642.105 525.099 633.58 536.881C623.373 551.007 612.817 565.603 599.879 578.006C585.35 591.932 569.36 601.479 550.988 607.18C487.429 626.916 441.72 611.477 388.797 593.595C377.13 589.657 365.072 585.58 352.364 581.723C331.681 575.441 308.657 572.917 281.97 573.999C258.175 574.961 233.76 578.647 210.146 582.204C190.543 585.169 170.371 588.215 150.518 589.708ZM-66.6571 576.654C-68.5583 591.691 -65.4064 602.812 -57.2813 609.704C-46.7948 618.6 -28.3032 620.815 -0.736031 616.467C2.88623 615.896 6.55852 615.224 10.2608 614.483C5.90812 614.683 1.61544 614.683 -2.60719 614.453C-16.3057 613.701 -27.923 610.606 -38.1294 604.986C-49.5465 598.674 -58.8823 589.407 -66.6571 576.654ZM119.049 589.157C115.066 589.157 111.084 589.197 107.111 589.277C100.457 589.407 86.7686 593.555 69.4478 598.814C52.6273 603.914 32.4747 610.035 12.9325 614.142C33.9856 612.83 56.3896 607.22 78.1932 601.77C100.317 596.24 121.22 591.01 140.232 590.138C142.483 590.038 144.735 589.908 146.996 589.758C137.67 589.357 128.355 589.157 119.049 589.157Z" fill="black" fill-opacity="0.5"/>
<path d="M1074.52 650.87C1072.41 650.87 1070.29 650.84 1068.16 650.79C1051.04 650.369 1032.99 648.275 1014.5 644.548C980.506 637.706 945.814 625.603 914.195 609.554C891.18 597.873 875.42 581.072 860.181 564.832C849.254 553.181 838.928 542.17 826.18 532.984C811.751 522.584 796.721 516.353 778.9 513.388C752.934 509.06 731.971 511.845 712.949 522.144C695.938 531.351 682.45 545.487 668.171 560.464C652.201 577.215 635.681 594.526 612.156 607.6C543.934 645.51 486.338 655.679 406.708 643.877C390.068 641.412 373.067 638.727 356.637 636.143C280.619 624.171 202.01 611.778 124.412 614.523C107.371 615.124 86.2782 621.997 63.9343 629.27C37.828 637.766 10.8412 646.562 -12.9837 646.562C-13.1438 646.562 -13.3039 646.562 -13.464 646.562C-26.4321 646.502 -37.1187 643.827 -46.1344 638.387C-56.2006 632.316 -64.1656 622.578 -69.8091 609.454L-70.0993 608.783L-69.639 609.354C-60.4433 620.795 -50.9273 628.919 -40.5309 634.199C-31.2551 638.918 -21.459 641.242 -10.6122 641.322C9.61041 641.462 29.9031 633.828 51.3965 625.744C66.3858 620.113 81.8755 614.283 97.3651 611.327C131.026 604.905 175.864 601.369 220.372 601.639C267.791 601.92 311.188 606.428 342.558 614.333C345.29 615.024 348.041 615.715 350.813 616.417C390.198 626.375 430.913 636.674 471.869 638.968C518.608 641.583 557.172 632.877 589.762 612.349C614.418 596.821 631.438 574.029 647.898 551.978C675.105 515.542 700.791 481.129 756.977 484.344C779.981 485.667 798.442 491.538 815.063 502.828C829.892 512.907 841.459 526.071 853.707 540.006C865.784 553.742 878.262 567.958 895.093 580.701C909.312 591.471 925.602 600.668 943.503 608.031C960.443 615.004 978.835 620.334 998.157 623.88C1034.96 630.643 1073.9 630.803 1110.8 624.341C1147.91 617.839 1190.73 594.106 1236.07 568.97C1283.76 542.531 1333.08 515.191 1380.66 505.072C1406.41 499.592 1429.07 499.663 1449.93 505.293C1461.29 508.358 1472.19 513.167 1482.36 519.579C1493.06 526.341 1503.28 535.117 1512.76 545.657L1512.96 545.877L1512.66 545.817C1477.27 538.664 1439.59 531.521 1402.37 529.738C1382.89 528.796 1364.97 529.347 1347.58 531.421C1328.34 533.715 1310.3 537.802 1292.43 543.904C1261.56 554.453 1236.8 574.359 1212.84 593.615C1199.09 604.665 1184.87 616.096 1169.78 625.483C1152.87 636.002 1136.55 642.825 1119.88 646.361C1105.78 649.357 1090.55 650.87 1074.52 650.87ZM756.686 511.224C763.701 511.224 771.095 511.885 778.94 513.187C796.801 516.163 811.851 522.404 826.31 532.823C839.078 542.03 849.404 553.04 860.341 564.702C875.56 580.931 891.31 597.722 914.295 609.384C945.904 625.423 980.566 637.515 1014.55 644.358C1033.02 648.075 1051.06 650.168 1068.17 650.589C1086.52 651.04 1103.91 649.557 1119.85 646.171C1136.49 642.645 1152.8 635.822 1169.68 625.313C1184.76 615.936 1198.98 604.505 1212.72 593.464C1236.69 574.199 1261.47 554.273 1292.37 543.713C1310.25 537.602 1328.31 533.515 1347.56 531.22C1364.96 529.147 1382.89 528.596 1402.38 529.527C1439.51 531.311 1477.09 538.414 1512.41 545.557C1503 535.128 1492.86 526.442 1482.25 519.739C1472.1 513.328 1461.22 508.529 1449.88 505.473C1429.05 499.863 1406.42 499.793 1380.71 505.263C1333.16 515.381 1283.86 542.711 1236.18 569.14C1190.82 594.276 1147.98 618.029 1110.84 624.531C1073.92 630.993 1034.95 630.833 998.127 624.071C978.795 620.524 960.393 615.184 943.433 608.211C925.512 600.838 909.211 591.641 894.973 580.851C878.132 568.098 865.634 553.882 853.557 540.137C841.319 526.211 829.762 513.057 814.953 502.999C798.362 491.728 779.941 485.867 756.967 484.555C700.892 481.349 675.226 515.722 648.059 552.109C631.588 574.169 614.558 596.981 589.872 612.529C557.242 633.077 518.638 641.793 471.859 639.178C430.893 636.884 390.158 626.585 350.773 616.617C348.011 615.916 345.26 615.224 342.518 614.533C311.158 606.639 267.781 602.13 220.382 601.84C175.884 601.569 131.066 605.106 97.4152 611.528C81.9455 614.483 66.4559 620.304 51.4765 625.934C30.1532 633.949 10.0107 641.533 -10.0619 641.533C-10.242 641.533 -10.4221 641.533 -10.6022 641.533C-21.489 641.462 -31.3051 639.118 -40.6109 634.39C-50.8473 629.18 -60.2432 621.225 -69.3188 610.065C-63.7053 622.808 -55.8704 632.286 -46.0243 638.217C-37.0387 643.636 -26.382 646.301 -13.454 646.361C10.4409 646.482 37.6079 637.635 63.8843 629.08C86.2382 621.806 107.341 614.934 124.412 614.323C202.03 611.578 280.649 623.96 356.677 635.942C373.107 638.527 390.108 641.212 406.748 643.677C427.411 646.742 446.613 648.325 464.884 648.325C516.957 648.325 561.605 635.472 612.076 607.43C635.571 594.376 652.081 577.064 668.041 560.334C682.33 545.356 695.828 531.2 712.869 521.973C726.167 514.76 740.426 511.224 756.686 511.224Z" fill="black" fill-opacity="0.5"/>
<path d="M499.626 669.554C468.056 669.554 435.796 664.845 404.076 660.207C387.026 657.712 370.926 655.368 354.856 653.695C331.321 651.25 306.866 648.365 283.211 645.58C223.174 638.497 161.105 631.164 102.378 629.551C100.777 629.511 99.1663 629.501 97.5553 629.541C83.5265 632.506 68.7673 637.315 53.4978 642.284C7.71922 657.191 -39.6303 672.6 -72.801 637.535L-72.6709 637.385C-64.4958 643.646 -55.9005 647.944 -46.3845 650.539C-37.9092 652.843 -28.9036 653.735 -18.8473 653.254C-0.165696 652.352 19.3465 646.732 38.2182 641.292C57.9105 635.622 78.2132 629.771 97.5252 629.34C106.641 627.417 115.446 626.275 123.892 626.345C199.189 627.076 277.988 634.209 371.876 648.796C419.646 656.22 456.229 658.945 490.52 657.652C532.086 656.079 569.99 648.285 606.393 633.818C618.35 629.07 629.277 622.498 639.613 615.104C640.194 614.593 640.764 614.082 641.344 613.581C652.491 603.743 663.078 594.406 675.165 586.582C687.773 576.123 700.091 566.455 713.77 559.112C722.475 554.443 730.88 551.177 739.476 549.133C749.102 546.849 758.728 546.138 768.914 546.969C785.504 548.322 802.285 553.632 820.226 563.209C836.226 571.755 851.686 582.845 866.635 593.575C887.328 608.432 908.731 623.79 932.146 632.877C964.746 645.53 999.618 652.944 1035.8 654.927C1071.03 656.851 1106.56 653.585 1141.4 645.219C1171.95 637.876 1209.4 615.836 1249.05 592.493C1272.31 578.808 1296.35 564.652 1320.48 552.56C1347.79 538.874 1371.22 529.908 1392.12 525.149C1417.48 519.379 1439.36 519.609 1459.01 525.851C1469.74 529.257 1479.87 534.567 1489.12 541.62C1498.88 549.063 1507.97 558.701 1516.16 570.262L1516.32 570.492L1516.05 570.422C1509.04 568.559 1501.97 566.625 1495.13 564.752C1427.07 546.098 1362.78 528.485 1298.92 568.128C1292.79 571.935 1286.65 575.792 1280.7 579.509C1251.57 597.772 1224.05 615.024 1194.69 629.29C1161.66 645.34 1131.28 655.188 1099.08 660.267C1079.98 663.283 1060.76 664.575 1041.95 664.114C1023.79 663.673 1005.37 661.569 987.22 657.883C952.969 650.92 918.647 638.297 882.295 619.282C875.35 615.655 868.406 611.888 861.692 608.242C839.848 596.39 819.215 585.199 797.032 577.435C785.114 573.268 773.887 570.492 762.69 568.94C750.172 567.216 737.985 567.056 725.427 568.459C708.396 570.362 693.417 575.572 678.287 584.829C677.277 585.45 676.286 586.071 675.296 586.712C672.984 588.626 670.673 590.569 668.331 592.523C659.086 600.257 649.69 608.121 639.743 615.234C624.594 628.589 608.804 642.224 588.601 651.741C560.364 665.096 530.315 669.554 499.626 669.554ZM99.7666 629.31C100.647 629.31 101.518 629.32 102.388 629.35C161.115 630.963 223.194 638.297 283.231 645.38C306.886 648.175 331.341 651.06 354.866 653.495C370.936 655.158 387.046 657.512 404.086 660.006C466.615 669.143 531.266 678.581 588.511 651.591C608.054 642.374 623.483 629.31 638.192 616.356C628.296 623.309 617.85 629.471 606.473 633.999C570.05 648.475 532.116 656.28 490.53 657.853C456.229 659.145 419.626 656.41 371.846 648.996C277.968 634.41 199.179 627.276 123.892 626.545C115.777 626.465 107.331 627.527 98.5959 629.32C98.9961 629.32 99.3864 629.31 99.7666 629.31ZM742.197 567.337C749.022 567.337 755.816 567.807 762.72 568.769C773.927 570.312 785.174 573.097 797.092 577.265C819.295 585.039 839.928 596.23 861.782 608.081C868.496 611.718 875.44 615.485 882.385 619.122C918.727 638.116 953.029 650.74 987.26 657.702C1005.41 661.389 1023.81 663.493 1041.96 663.934C1060.76 664.395 1079.97 663.102 1099.06 660.087C1131.24 655.007 1161.6 645.179 1194.62 629.13C1223.98 614.864 1251.48 597.612 1280.61 579.359C1286.56 575.632 1292.7 571.785 1298.83 567.978C1362.77 528.285 1427.09 545.917 1495.2 564.582C1501.95 566.435 1508.93 568.348 1515.85 570.182C1507.71 558.731 1498.69 549.193 1489.01 541.81C1479.79 534.767 1469.67 529.467 1458.96 526.071C1439.34 519.84 1417.49 519.609 1392.17 525.37C1371.29 530.118 1347.88 539.085 1320.58 552.76C1296.46 564.842 1272.42 578.998 1249.17 592.683C1209.51 616.036 1172.04 638.086 1141.46 645.43C1106.6 653.805 1071.06 657.071 1035.81 655.148C999.608 653.164 964.716 645.75 932.096 633.087C908.651 623.99 887.248 608.622 866.535 593.765C851.586 583.035 836.136 571.945 820.146 563.409C802.235 553.842 785.474 548.542 768.914 547.19C758.758 546.358 749.142 547.069 739.536 549.344C730.96 551.377 722.565 554.633 713.88 559.302C700.671 566.395 688.724 575.662 676.556 585.71C677.097 585.37 677.637 585.029 678.187 584.698C693.337 575.421 708.336 570.202 725.407 568.298C731.06 567.657 736.634 567.337 742.197 567.337ZM-71.7704 638.307C-38.7297 672.099 8.12948 656.851 53.4477 642.094C68.347 637.245 82.756 632.556 96.4746 629.571C77.5027 630.182 57.6003 635.922 38.2883 641.483C19.4065 646.923 -0.11566 652.553 -18.8273 653.454C-28.9036 653.935 -37.9292 653.054 -46.4245 650.74C-55.5702 648.245 -63.8754 644.167 -71.7704 638.307ZM673.815 587.724C662.338 595.338 652.181 604.304 641.485 613.742C641.414 613.802 641.354 613.862 641.284 613.922C650.62 607.14 659.476 599.716 668.201 592.413C670.092 590.83 671.954 589.267 673.815 587.724Z" fill="black" fill-opacity="0.5"/>
<path d="M5.94814 698.828C1.45534 698.828 -2.99743 698.657 -7.39017 698.297C-37.9092 695.772 -60.2832 683.75 -75.7928 661.569L-76.123 661.089L-75.6528 661.429C-65.4964 668.692 -55.19 673.632 -44.1531 676.527C-34.307 679.112 -24.0806 680.003 -12.8936 679.242C7.90938 677.839 29.1226 670.746 49.6254 663.904C68.197 657.702 87.399 651.291 106.691 648.846C156.482 642.565 209.065 650.339 259.927 657.863C285.743 661.68 312.439 665.627 337.955 667.56C347.691 668.292 357.047 668.933 366.063 669.474C369.875 669.324 373.678 669.173 377.46 669.023C387.086 668.632 396.892 668.262 406.378 667.891C466.846 665.577 529.175 663.202 589.982 655.017C609.295 649.077 628.096 640.661 646.438 632.456C662.778 625.143 679.678 617.579 696.569 611.958C715.491 605.657 732.461 602.501 748.441 602.291C781.222 601.86 815.263 613.361 848.194 624.481C869.807 631.775 892.161 639.319 913.574 643.226C998.377 658.664 1078.94 659.756 1153.01 646.472C1206.91 636.804 1248.6 615.305 1292.75 592.543C1299.24 589.197 1305.82 585.8 1312.5 582.424C1317.25 579.349 1322.15 576.293 1327.24 573.278C1336.99 567.497 1347.04 563.64 1357.29 561.326C1389.22 549.354 1454.18 539.756 1490.51 559.983C1505.2 568.158 1513.76 580.421 1515.94 596.44L1515.96 596.61L1515.8 596.55C1508.44 593.785 1501.03 590.85 1493.19 587.754C1449.79 570.573 1401.69 551.528 1357.31 561.536C1355.23 562.317 1353.26 563.129 1351.42 563.95C1337.97 569.961 1325.1 576.273 1312.59 582.615C1299.23 591.26 1287.1 600.057 1275.25 608.632C1257.12 621.756 1240 634.159 1220.48 644.668C1198.55 656.46 1176.77 664.154 1151.92 668.853C1118.75 675.144 1084.07 678.19 1048.84 677.889C1013.23 677.599 978.655 673.912 946.085 666.929C923.501 662.09 900.696 654.456 878.653 647.083C842.24 634.9 804.586 622.297 766.152 621.546C733.372 620.915 700.702 629.811 669.102 638.417C649.319 643.807 628.867 649.377 608.634 652.533C602.45 653.495 596.256 654.396 590.033 655.228C583.358 657.282 576.624 659.035 569.83 660.387C534.648 667.38 496.824 671.147 454.218 671.898C427.501 672.369 398.993 671.658 366.063 669.684C353.225 670.185 340.317 670.656 327.729 671.107C256.534 673.692 182.909 676.377 111.334 684.732C100.127 686.044 88.1494 688.188 75.4715 690.452C52.4071 694.58 28.6923 698.828 5.94814 698.828ZM-75.3025 661.93C-59.8429 683.76 -37.619 695.592 -7.38017 698.096C19.2965 700.31 47.8343 695.191 75.4215 690.252C88.0994 687.978 100.077 685.834 111.294 684.532C182.889 676.176 256.504 673.491 327.709 670.907C339.636 670.476 351.854 670.025 364.032 669.554C355.636 669.043 346.941 668.442 337.925 667.761C312.399 665.837 285.703 661.89 259.887 658.063C209.045 650.539 156.472 642.765 106.711 649.046C87.439 651.481 68.247 657.893 49.6854 664.094C29.1626 670.947 7.93939 678.04 -12.8836 679.442C-24.0906 680.204 -34.337 679.312 -44.2031 676.717C-55.0999 673.862 -65.2763 669.023 -75.3025 661.93ZM762.79 621.316C763.901 621.316 765.022 621.326 766.132 621.346C804.586 622.087 842.26 634.7 878.693 646.892C900.736 654.266 923.531 661.9 946.105 666.739C978.665 673.712 1013.22 677.398 1048.82 677.689C1084.04 677.979 1118.71 674.934 1151.87 668.652C1176.7 663.944 1198.46 656.27 1220.37 644.488C1239.88 633.989 1257 621.596 1275.12 608.472C1286.51 600.227 1298.16 591.781 1310.91 583.466C1304.81 586.572 1298.78 589.678 1292.83 592.743C1248.67 615.515 1206.96 637.014 1153.04 646.692C1078.94 659.986 998.357 658.894 913.524 643.446C892.101 639.539 869.737 631.995 848.114 624.702C815.783 613.792 782.383 602.511 750.172 602.511C749.592 602.511 749.012 602.511 748.431 602.521C732.471 602.722 715.521 605.887 696.619 612.179C679.748 617.799 662.848 625.353 646.508 632.666C628.527 640.711 610.085 648.956 591.173 654.877C596.997 654.086 602.8 653.244 608.584 652.342C628.807 649.187 649.249 643.627 669.032 638.237C699.571 629.901 731.111 621.316 762.79 621.316ZM368.084 669.594C400.154 671.478 428.031 672.149 454.198 671.688C496.794 670.937 534.598 667.18 569.77 660.187C576.164 658.915 582.498 657.282 588.792 655.388C528.354 663.433 466.445 665.797 406.378 668.101C396.892 668.462 387.086 668.843 377.46 669.233C374.348 669.354 371.216 669.474 368.084 669.594ZM1383.19 558.561C1419.99 558.561 1458.15 573.668 1493.26 587.564C1501.04 590.649 1508.4 593.555 1515.71 596.3C1513.5 580.431 1504.98 568.278 1490.4 560.163C1468.68 548.061 1438.61 547.49 1417.22 549.143C1396.59 550.736 1374.6 555.254 1358.67 561.035C1366.74 559.322 1374.92 558.561 1383.19 558.561ZM1355.89 561.867C1346.15 564.201 1336.6 567.958 1327.32 573.458C1322.81 576.133 1318.44 578.848 1314.2 581.563C1326.17 575.522 1338.49 569.501 1351.33 563.76C1352.75 563.129 1354.28 562.488 1355.89 561.867Z" fill="black" fill-opacity="0.5"/>
<path d="M3.1464 709.988C-2.36704 709.988 -7.84045 709.778 -13.2538 709.277C-39.8404 706.842 -60.6234 697.796 -76.7935 681.616L-77.3538 681.055L-76.6734 681.466C-37.519 704.718 9.01005 694.009 54.0081 683.65C78.3933 678.039 101.428 672.73 123.401 672.439C167.029 671.858 211.546 675.465 254.583 678.961C297.64 682.458 342.168 686.074 385.995 685.513C462.053 684.551 528.604 678.57 589.452 667.22C609.335 663.513 628.907 657.021 647.829 650.739C669.392 643.586 691.696 636.183 714.41 632.947C755.446 627.096 798.553 638.427 840.229 649.387C864.694 655.819 890 662.471 914.245 665.396C997.827 675.475 1085.8 673.822 1175.7 660.497C1206.51 655.929 1234.35 648.756 1263.32 637.926C1289.42 628.168 1314.03 616.326 1340.09 603.794C1352.9 597.632 1366.16 591.261 1380.37 584.739C1392.42 579.208 1415 575.281 1436.54 574.961C1463.26 574.56 1484.65 579.609 1496.81 589.167C1507.14 597.302 1511.01 608.592 1508.28 622.728L1508.25 622.868L1508.13 622.798C1486.47 610.666 1464.44 603.403 1440.76 600.588C1419.68 598.083 1397.79 599.205 1373.82 604.004C1329.3 612.92 1284.34 633.528 1240.85 653.454C1203.28 670.666 1164.45 688.459 1126.33 698.477C1106.41 703.706 1086.87 706.532 1066.58 707.103C1048.48 707.614 1030.18 706.311 1010.62 703.115C974.272 697.175 938.76 685.353 904.429 673.922C855.948 657.782 805.827 641.092 750.483 639.489C717.032 638.517 682.01 649.327 648.129 659.786C625.154 666.879 601.41 674.202 578.575 677.679C500.287 689.601 419.076 692.015 340.537 694.339L333.442 694.55C306.366 695.351 278.858 695.642 252.252 695.922C197.468 696.493 140.822 697.084 85.2176 702.244C76.6222 703.045 67.8868 704.147 58.631 705.309C40.3196 707.614 21.5079 709.988 3.1464 709.988ZM-76.083 682.037C-60.033 697.836 -39.4602 706.682 -13.2338 709.086C10.1608 711.22 34.7961 708.115 58.621 705.109C67.8668 703.947 76.6122 702.835 85.2076 702.043C140.822 696.884 197.478 696.293 252.262 695.722C278.868 695.441 306.376 695.161 333.452 694.349L340.547 694.139C419.076 691.815 500.287 689.4 578.555 677.478C601.37 674.002 625.114 666.679 648.079 659.586C681.97 649.127 717.022 638.307 750.493 639.289C805.857 640.901 855.998 657.592 904.489 673.732C938.82 685.163 974.322 696.974 1010.65 702.915C1030.2 706.111 1048.49 707.413 1066.57 706.902C1086.84 706.331 1106.37 703.506 1126.27 698.287C1164.37 688.278 1203.2 670.486 1240.76 653.274C1284.26 633.338 1329.24 612.73 1373.78 603.803C1397.77 598.995 1419.69 597.883 1440.79 600.377C1464.45 603.182 1486.46 610.436 1508.11 622.538C1510.77 608.542 1506.92 597.362 1496.69 589.307C1484.57 579.78 1463.22 574.74 1436.55 575.141C1415.03 575.462 1392.49 579.389 1380.46 584.909C1366.25 591.421 1353 597.803 1340.19 603.964C1288.04 629.05 1243.01 650.709 1175.74 660.688C1085.81 674.012 997.827 675.665 914.225 665.587C889.97 662.661 864.664 656.009 840.189 649.577C798.533 638.627 755.456 627.297 714.45 633.137C691.756 636.373 669.462 643.767 647.899 650.92C628.967 657.201 609.385 663.703 589.492 667.41C528.634 678.761 462.063 684.742 385.995 685.703C342.158 686.265 297.63 682.648 254.563 679.152C211.526 675.655 167.029 672.048 123.401 672.63C101.448 672.92 78.4234 678.22 54.0582 683.84C28.8624 689.641 3.16641 695.552 -21.4389 695.562C-40.5509 695.552 -59.0024 691.985 -76.083 682.037Z" fill="black" fill-opacity="0.5"/>
</g>
<defs>
<clipPath id="clip0_337_6448">
<rect width="1607.74" height="925.637" fill="white" transform="translate(-91.4226)"/>
</clipPath>
</defs>
</svg>
