<svg width="59" height="20" viewBox="0 0 59 20" fill="none" xmlns="http://www.w3.org/2000/svg">
<path d="M15.5694 3.12312L8.51223 0.766812C8.41032 0.742768 8.33389 0.742768 8.23198 0.766812L1.17478 3.12312C0.99644 3.17121 0.894531 3.31547 0.894531 3.48378V8.1964C0.894531 14.2795 1.86267 16.4916 8.18102 19.4971C8.23198 19.5211 8.30841 19.5452 8.35936 19.5452C8.43579 19.5452 8.48675 19.5211 8.5377 19.4971C14.8815 16.4916 15.8497 14.2795 15.8497 8.1964V3.48378C15.8497 3.31547 15.7223 3.17121 15.5694 3.12312ZM15.0089 8.1964C15.0089 14.015 14.2191 15.9145 8.35936 18.7277C2.4996 15.8905 1.73528 14.015 1.73528 8.1964V3.77231L8.38484 1.56026L15.0344 3.77231L15.0089 8.1964Z" fill="#DDDDDD"/>
<path d="M10.8561 11.7332H12.5121C12.7414 11.7332 12.9198 11.5625 12.9198 11.3431C12.9198 11.1237 12.7414 10.9531 12.5121 10.9531H11.2638V8.1742C11.2638 7.95481 11.0854 7.78418 10.8561 7.78418C10.6268 7.78418 10.4485 7.95481 10.4485 8.1742V11.3431C10.4485 11.5625 10.6268 11.7332 10.8561 11.7332Z" fill="#DDDDDD"/>
<path d="M5.04733 8.56422H5.88808C6.11737 8.56422 6.29572 8.39359 6.29572 8.1742C6.29572 7.95481 6.11737 7.78418 5.88808 7.78418H5.04733C4.35945 7.78418 3.79895 8.32046 3.79895 8.97862C3.79895 9.63679 4.35945 10.1731 5.04733 10.1731C5.27663 10.1731 5.45497 10.3437 5.45497 10.5631C5.45497 10.7825 5.27663 10.9531 5.04733 10.9531H4.20659C3.97729 10.9531 3.79895 11.1237 3.79895 11.3431C3.79895 11.5625 3.97729 11.7332 4.20659 11.7332H5.04733C5.73522 11.7332 6.29572 11.1969 6.29572 10.5387C6.29572 9.88055 5.73522 9.34427 5.04733 9.34427C4.81804 9.34427 4.6397 9.17363 4.6397 8.95425C4.6397 8.73486 4.81804 8.56422 5.04733 8.56422Z" fill="#DDDDDD"/>
<path d="M7.11096 8.95237C7.11096 9.61167 7.67146 10.1489 8.35934 10.1489C8.58864 10.1489 8.76698 10.3198 8.76698 10.5396C8.76698 10.7593 8.58864 10.9303 8.35934 10.9303H7.5186C7.2893 10.9303 7.11096 11.1012 7.11096 11.321C7.11096 11.5407 7.2893 11.7117 7.5186 11.7117H8.35934C9.04723 11.7117 9.60773 11.1745 9.60773 10.5152C9.60773 9.85586 9.04723 9.31865 8.35934 9.31865C8.13005 9.31865 7.95171 9.14772 7.95171 8.92795C7.95171 8.70818 8.13005 8.53725 8.35934 8.53725H9.20009C9.42939 8.53725 9.60773 8.36632 9.60773 8.14656C9.60773 7.92679 9.42939 7.75586 9.20009 7.75586H8.35934C7.67146 7.75586 7.11096 8.29307 7.11096 8.95237Z" fill="#DDDDDD"/>
<path d="M23.3452 8.10736C23.3452 8.22928 23.3197 8.37558 23.2433 8.52188C23.1669 8.66818 23.065 8.81448 22.9376 8.96078C22.8102 9.10709 22.6319 9.20462 22.4026 9.30215C22.1733 9.39969 21.944 9.42407 21.6382 9.42407C21.4089 9.42407 21.2306 9.39969 21.0523 9.37531C20.8739 9.32654 20.721 9.27777 20.5682 9.18024C20.4153 9.10709 20.2879 8.98517 20.1605 8.83887C20.0586 8.71695 19.9567 8.57065 19.8803 8.42435C19.8039 8.27805 19.7529 8.10736 19.702 7.93668C19.651 7.76599 19.651 7.57092 19.651 7.37585C19.651 7.05887 19.702 6.76627 19.8039 6.52243C19.9058 6.27859 20.0332 6.05914 20.2115 5.88846C20.3898 5.71777 20.5937 5.57147 20.8484 5.47394C21.0777 5.3764 21.358 5.32764 21.6128 5.32764C21.944 5.32764 22.2497 5.40079 22.5045 5.5227C22.7592 5.64462 22.9631 5.81531 23.0904 5.98599C23.2178 6.18106 23.2943 6.35175 23.2943 6.52243C23.2943 6.61996 23.2688 6.69312 23.1924 6.76627C23.1159 6.83942 23.0395 6.8638 22.9376 6.8638C22.8357 6.8638 22.7592 6.83942 22.7083 6.79065C22.6573 6.74188 22.6064 6.66873 22.5299 6.54681C22.428 6.35175 22.3006 6.20544 22.1478 6.10791C21.9949 6.01038 21.8166 5.96161 21.6128 5.96161C21.2815 5.96161 21.0013 6.08353 20.7975 6.32736C20.5937 6.5712 20.4918 6.93695 20.4918 7.40024C20.4918 7.71722 20.5427 7.96106 20.6191 8.15613C20.721 8.3512 20.8484 8.52188 21.0013 8.61942C21.1542 8.71695 21.358 8.76572 21.5873 8.76572C21.8166 8.76572 22.0204 8.71695 22.1987 8.59503C22.3771 8.47311 22.479 8.30243 22.5809 8.08298C22.6064 7.98544 22.6573 7.88791 22.7083 7.83914C22.7592 7.76599 22.8357 7.74161 22.9631 7.74161C23.065 7.74161 23.1414 7.76599 23.2178 7.83914C23.2943 7.93668 23.3452 8.00983 23.3452 8.10736Z" fill="#DDDDDD"/>
<path d="M26.9121 7.99494C26.9121 8.21937 26.8867 8.41887 26.8102 8.61836C26.7338 8.81785 26.6319 8.96747 26.5045 9.11709C26.3771 9.24178 26.1988 9.36646 26.0204 9.44127C25.8421 9.51608 25.6128 9.54102 25.3835 9.54102C25.1542 9.54102 24.9504 9.51608 24.7466 9.44127C24.5427 9.36646 24.3899 9.26671 24.2625 9.11709C24.1351 8.99241 24.0332 8.81785 23.9568 8.6433C23.8803 8.46874 23.8549 8.24431 23.8549 8.01988C23.8549 7.79545 23.8803 7.59596 23.9568 7.39646C24.0332 7.19697 24.1351 7.04735 24.2625 6.92267C24.3899 6.79798 24.5682 6.6733 24.7466 6.62343C24.9249 6.54862 25.1542 6.52368 25.3835 6.52368C25.6128 6.52368 25.8166 6.54862 26.0204 6.62343C26.1988 6.69824 26.3771 6.79798 26.5045 6.9476C26.6319 7.09722 26.7338 7.24684 26.8102 7.4214C26.8612 7.57102 26.9121 7.77051 26.9121 7.99494ZM26.1223 7.99494C26.1223 7.6957 26.0459 7.44634 25.9185 7.27178C25.7911 7.09722 25.5873 7.02241 25.358 7.02241C25.2052 7.02241 25.0778 7.07229 24.9504 7.1471C24.8485 7.22191 24.7466 7.34659 24.6956 7.49621C24.6447 7.64583 24.5937 7.82039 24.5937 8.01988C24.5937 8.21937 24.6192 8.39393 24.6956 8.54355C24.7466 8.69317 24.8485 8.79292 24.9504 8.89266C25.0523 8.99241 25.2052 9.01735 25.358 9.01735C25.5873 9.01735 25.7657 8.94254 25.9185 8.76798C26.0714 8.54355 26.1223 8.29418 26.1223 7.99494Z" fill="#DDDDDD"/>
<path d="M30.0713 8.04471V9.04222C30.0713 9.19185 30.0458 9.31654 29.9694 9.39135C29.8929 9.46617 29.791 9.51604 29.6891 9.51604C29.5617 9.51604 29.4853 9.46617 29.4089 9.39135C29.3324 9.31654 29.307 9.19185 29.307 9.04222V7.84521C29.307 7.64571 29.307 7.52102 29.2815 7.39633C29.256 7.29658 29.2305 7.19683 29.1796 7.14695C29.1286 7.07214 29.0267 7.0472 28.8993 7.0472C28.6446 7.0472 28.4917 7.12202 28.4153 7.29658C28.3388 7.47114 28.2879 7.69558 28.2879 8.01978V9.04222C28.2879 9.19185 28.2624 9.31654 28.186 9.39135C28.1095 9.46617 28.0076 9.51604 27.9057 9.51604C27.7783 9.51604 27.7019 9.46617 27.6255 9.39135C27.549 9.31654 27.5236 9.19185 27.5236 9.04222V6.89758C27.5236 6.74795 27.549 6.6482 27.6255 6.57338C27.7019 6.49857 27.7783 6.47363 27.8802 6.47363C27.9821 6.47363 28.0841 6.49857 28.135 6.57338C28.186 6.6482 28.2369 6.74795 28.2369 6.8477V6.92251C28.3643 6.77289 28.5172 6.6482 28.67 6.57338C28.8229 6.49857 29.0012 6.47363 29.1796 6.47363C29.3834 6.47363 29.5363 6.52351 29.6891 6.59832C29.8165 6.67314 29.9439 6.79782 30.0203 6.94745C30.1477 6.79782 30.3006 6.67314 30.428 6.59832C30.5808 6.52351 30.7337 6.49857 30.912 6.49857C31.1158 6.49857 31.2942 6.54845 31.447 6.62326C31.5999 6.69807 31.7018 6.82276 31.7782 6.97239C31.8547 7.09708 31.8802 7.32152 31.8802 7.62077V9.0921C31.8802 9.24173 31.8547 9.36642 31.7782 9.44123C31.7018 9.51604 31.5999 9.56592 31.498 9.56592C31.3706 9.56592 31.2942 9.51604 31.2178 9.44123C31.1413 9.36642 31.1158 9.24173 31.1158 9.0921V7.82027C31.1158 7.67065 31.1158 7.52102 31.0904 7.42127C31.0649 7.32152 31.0394 7.2467 30.9885 7.17189C30.9375 7.09708 30.8356 7.07214 30.7082 7.07214C30.6063 7.07214 30.5044 7.09708 30.428 7.17189C30.3261 7.22177 30.2751 7.32152 30.2241 7.39633C30.0968 7.49608 30.0713 7.72052 30.0713 8.04471Z" fill="#DDDDDD"/>
<path d="M33.3069 6.88742V6.98451C33.4597 6.81459 33.6126 6.69322 33.7655 6.6204C33.9183 6.54757 34.0967 6.49902 34.3005 6.49902C34.5298 6.49902 34.7591 6.54757 34.9629 6.66895C35.1667 6.79032 35.3196 6.96024 35.4215 7.17871C35.5234 7.39718 35.5998 7.6642 35.5998 7.97977C35.5998 8.19824 35.5743 8.41671 35.4979 8.61091C35.4215 8.80511 35.3451 8.95075 35.2177 9.0964C35.0903 9.21777 34.9629 9.31487 34.81 9.3877C34.6572 9.46052 34.4788 9.48479 34.3005 9.48479C34.0712 9.48479 33.8928 9.43624 33.74 9.36342C33.5871 9.2906 33.4597 9.14495 33.3069 8.9993V10.0917C33.3069 10.4072 33.1795 10.5771 32.9502 10.5771C32.7973 10.5771 32.7209 10.5286 32.6699 10.4558C32.619 10.383 32.5935 10.2616 32.5935 10.0917V6.93597C32.5935 6.79032 32.619 6.69322 32.6954 6.6204C32.7718 6.54757 32.8483 6.5233 32.9502 6.5233C33.0521 6.5233 33.154 6.54757 33.205 6.6204C33.2814 6.64467 33.3069 6.74177 33.3069 6.88742ZM34.81 7.93122C34.81 7.73703 34.7846 7.5671 34.7081 7.44573C34.6572 7.30008 34.5553 7.20299 34.4533 7.13016C34.3514 7.05734 34.224 7.00879 34.0967 7.00879C33.8928 7.00879 33.7145 7.08161 33.5616 7.25153C33.4088 7.42146 33.3323 7.63993 33.3323 7.9555C33.3323 8.24679 33.4088 8.46526 33.5362 8.63518C33.689 8.80511 33.8674 8.87793 34.0712 8.87793C34.1986 8.87793 34.326 8.85365 34.4279 8.78083C34.5298 8.70801 34.6317 8.61091 34.6826 8.46526C34.7336 8.31961 34.81 8.14969 34.81 7.93122Z" fill="#DDDDDD"/>
<path d="M36.9502 8.44296V9.06616C36.9502 9.21573 36.9248 9.34037 36.8483 9.41515C36.7719 9.48994 36.67 9.53979 36.5681 9.53979C36.4662 9.53979 36.3643 9.48994 36.2878 9.41515C36.2114 9.34037 36.1859 9.21573 36.1859 9.06616V6.9722C36.1859 6.6232 36.3133 6.47363 36.5681 6.47363C36.6955 6.47363 36.7974 6.52349 36.8483 6.59827C36.8993 6.67306 36.9248 6.7977 36.9502 6.94727C37.0521 6.7977 37.1286 6.67306 37.2305 6.59827C37.3324 6.52349 37.4598 6.47363 37.6126 6.47363C37.7655 6.47363 37.9184 6.52349 38.0712 6.59827C38.2241 6.67306 38.3005 6.77277 38.3005 6.92234C38.3005 7.02205 38.2751 7.09684 38.1986 7.14669C38.1222 7.19655 38.0712 7.24641 37.9948 7.24641C37.9693 7.24641 37.8929 7.22148 37.791 7.19655C37.6891 7.17162 37.5872 7.14669 37.5107 7.14669C37.4088 7.14669 37.3069 7.17162 37.2305 7.22148C37.1541 7.27133 37.1031 7.37105 37.0521 7.47076C37.0012 7.5954 36.9757 7.72004 36.9757 7.86961C36.9757 8.01918 36.9502 8.2186 36.9502 8.44296Z" fill="#DDDDDD"/>
<path d="M40.5171 9.09109C40.3387 9.24066 40.1604 9.34037 39.9821 9.41515C39.8037 9.48994 39.6254 9.51487 39.3961 9.51487C39.1923 9.51487 39.0139 9.46501 38.8865 9.39023C38.7337 9.31544 38.6318 9.21573 38.5299 9.09109C38.4534 8.96645 38.4025 8.81688 38.4025 8.66731C38.4025 8.46788 38.4789 8.29339 38.6063 8.14382C38.7337 7.99425 38.912 7.89454 39.1668 7.84468C39.2177 7.84468 39.3451 7.81975 39.5235 7.7699C39.7018 7.72004 39.8801 7.69511 40.0075 7.67018C40.1349 7.64526 40.2878 7.5954 40.4661 7.54554C40.4661 7.34612 40.4152 7.19655 40.3387 7.12176C40.2623 7.02205 40.1094 6.9722 39.8801 6.9722C39.6763 6.9722 39.5489 6.99712 39.447 7.04698C39.3451 7.09684 39.2687 7.17162 39.1923 7.29626C39.1158 7.39597 39.0649 7.47076 39.0394 7.49569C39.0139 7.52062 38.9375 7.54554 38.8611 7.54554C38.7846 7.54554 38.7082 7.52061 38.6318 7.47076C38.5808 7.4209 38.5299 7.34612 38.5299 7.27133C38.5299 7.14669 38.5808 7.02205 38.6827 6.89741C38.7846 6.77277 38.9375 6.67306 39.1413 6.59827C39.3451 6.52349 39.5999 6.47363 39.9056 6.47363C40.2368 6.47363 40.5171 6.52349 40.6954 6.59827C40.8738 6.67306 41.0266 6.7977 41.103 6.9722C41.1795 7.14669 41.2304 7.37105 41.2304 7.64526C41.2304 7.81975 41.2304 7.96932 41.2304 8.09396C41.2304 8.2186 41.2304 8.34324 41.2304 8.49281C41.2304 8.64238 41.2559 8.79195 41.3069 8.94152C41.3578 9.09109 41.3833 9.1908 41.3833 9.24066C41.3833 9.31544 41.3578 9.39023 41.2814 9.44008C41.205 9.51487 41.1285 9.53979 41.0266 9.53979C40.9502 9.53979 40.8738 9.51487 40.7973 9.44008C40.6699 9.34037 40.5935 9.24066 40.5171 9.09109ZM40.4661 8.01918C40.3642 8.06903 40.1859 8.09396 39.9821 8.14382C39.7782 8.19368 39.6254 8.2186 39.5489 8.24353C39.4725 8.26846 39.3961 8.31832 39.3196 8.36817C39.2432 8.41803 39.2177 8.51774 39.2177 8.61745C39.2177 8.74209 39.2687 8.81688 39.3451 8.91659C39.4216 8.99138 39.5489 9.04123 39.7018 9.04123C39.8547 9.04123 39.9821 9.0163 40.1094 8.94152C40.2368 8.86674 40.3387 8.79195 40.3897 8.69224C40.4661 8.5676 40.4916 8.3931 40.4916 8.11889V8.01918H40.4661Z" fill="#DDDDDD"/>
<path d="M44.6697 8.98544V6.54744C44.1857 6.88876 43.8799 7.0838 43.7016 7.0838C43.6252 7.0838 43.5487 7.05942 43.4978 6.98628C43.4468 6.93752 43.3959 6.86438 43.3959 6.76686C43.3959 6.66934 43.4214 6.5962 43.4978 6.57182C43.5487 6.52306 43.6761 6.4743 43.8035 6.40116C44.0328 6.30364 44.2111 6.18174 44.3385 6.08422C44.4659 5.9867 44.5933 5.84042 44.6952 5.69414C44.7971 5.54786 44.8735 5.47472 44.899 5.42596C44.9245 5.40158 45.0009 5.3772 45.0774 5.3772C45.1793 5.3772 45.2557 5.42596 45.3067 5.4991C45.3576 5.57224 45.4086 5.66976 45.4086 5.79166V8.86354C45.4086 9.22924 45.2812 9.3999 45.0264 9.3999C44.9245 9.3999 44.8226 9.35114 44.7462 9.278C44.6952 9.25362 44.6697 9.13172 44.6697 8.98544Z" fill="#DDDDDD"/>
<path d="M49.6124 7.42847C49.6124 7.72136 49.5869 7.96545 49.5614 8.18512C49.5359 8.40479 49.4595 8.60006 49.3576 8.77091C49.2302 8.99059 49.0773 9.13703 48.8735 9.25907C48.6697 9.38112 48.4404 9.42993 48.2111 9.42993C47.9309 9.42993 47.6761 9.35671 47.4468 9.21026C47.2175 9.06381 47.0392 8.84414 46.9373 8.57565C46.8863 8.4292 46.8353 8.25834 46.8099 8.08749C46.7844 7.91663 46.7589 7.72136 46.7589 7.50169C46.7589 7.2332 46.7844 6.98912 46.8099 6.76945C46.8353 6.54977 46.8863 6.35451 46.9627 6.20806C47.0646 5.93957 47.243 5.74431 47.4468 5.62227C47.6506 5.47582 47.9054 5.427 48.2111 5.427C48.4149 5.427 48.5678 5.45141 48.7461 5.52463C48.9245 5.59786 49.0519 5.67108 49.1538 5.79312C49.2812 5.91516 49.3831 6.06161 49.4595 6.23247C49.5359 6.47655 49.6124 6.89149 49.6124 7.42847ZM48.8226 7.37965C48.8226 7.06235 48.7971 6.79386 48.7716 6.57418C48.7207 6.35451 48.6697 6.20806 48.5678 6.11043C48.4659 6.0128 48.3385 5.93957 48.1602 5.93957C47.9054 5.93957 47.7525 6.06161 47.6506 6.30569C47.5487 6.54978 47.4978 6.9159 47.4978 7.40406C47.4978 7.74577 47.5232 8.01426 47.5487 8.23393C47.5997 8.45361 47.6506 8.60006 47.7525 8.7221C47.8544 8.84414 47.9818 8.89295 48.1602 8.89295C48.3385 8.89295 48.4659 8.84414 48.5678 8.7221C48.6697 8.60006 48.7461 8.45361 48.7716 8.23393C48.7971 8.01426 48.8226 7.72136 48.8226 7.37965Z" fill="#DDDDDD"/>
<path d="M53.0263 7.42847C53.0263 7.72136 53.0008 7.96545 52.9754 8.18512C52.9499 8.40479 52.8734 8.60006 52.7715 8.77091C52.6441 8.99059 52.4913 9.13703 52.2875 9.25907C52.0836 9.38112 51.8544 9.42993 51.6251 9.42993C51.3448 9.42993 51.09 9.35671 50.8607 9.21026C50.6314 9.06381 50.4531 8.84414 50.3512 8.57565C50.3002 8.4292 50.2493 8.25834 50.2238 8.08749C50.1983 7.91663 50.1729 7.72136 50.1729 7.50169C50.1729 7.2332 50.1983 6.98912 50.2238 6.76945C50.2493 6.54977 50.3002 6.35451 50.3767 6.20806C50.4786 5.93957 50.6569 5.74431 50.8607 5.62227C51.0646 5.47582 51.3193 5.427 51.6251 5.427C51.8289 5.427 51.9817 5.45141 52.1601 5.52463C52.3384 5.59786 52.4658 5.67108 52.5677 5.79312C52.6951 5.91516 52.797 6.06161 52.8734 6.23247C52.9499 6.47655 53.0263 6.89149 53.0263 7.42847ZM52.262 7.37965C52.262 7.06235 52.2365 6.79386 52.211 6.57418C52.1601 6.35451 52.1091 6.20806 52.0072 6.11043C51.9053 6.0128 51.7779 5.93957 51.5996 5.93957C51.3448 5.93957 51.1919 6.06161 51.09 6.30569C50.9881 6.54978 50.9372 6.9159 50.9372 7.40406C50.9372 7.74577 50.9626 8.01426 50.9881 8.23393C51.0391 8.45361 51.09 8.60006 51.1919 8.7221C51.2939 8.84414 51.4212 8.89295 51.5996 8.89295C51.7779 8.89295 51.9053 8.84414 52.0072 8.7221C52.1091 8.60006 52.1856 8.45361 52.211 8.23393C52.2365 8.01426 52.262 7.72136 52.262 7.37965Z" fill="#DDDDDD"/>
<path d="M55.1919 6.42053C55.1919 6.76058 55.1155 7.00347 54.9626 7.17349C54.8098 7.34351 54.5805 7.41638 54.3257 7.41638C54.1474 7.41638 53.9945 7.39209 53.8671 7.31923C53.7397 7.24636 53.6378 7.1492 53.5614 6.97918C53.485 6.80915 53.4595 6.63913 53.4595 6.42053C53.4595 6.17764 53.485 5.98332 53.5359 5.83759C53.5869 5.69185 53.6888 5.57041 53.8162 5.47325C53.9435 5.40038 54.1219 5.35181 54.3257 5.35181C54.4786 5.35181 54.606 5.3761 54.7079 5.42467C54.8098 5.47325 54.9117 5.52183 54.9881 5.61899C55.0645 5.71614 55.1155 5.8133 55.1664 5.93475C55.1664 6.10477 55.1919 6.2505 55.1919 6.42053ZM54.6569 6.39624C54.6569 6.15335 54.6314 5.98332 54.5805 5.88617C54.5295 5.78901 54.4276 5.71614 54.3002 5.71614C54.1983 5.71614 54.1474 5.74043 54.0964 5.78901C54.0455 5.83759 53.9945 5.91046 53.9945 6.00761C53.969 6.10477 53.969 6.22622 53.969 6.39624C53.969 6.56626 53.969 6.68771 53.9945 6.78487C54.02 6.88202 54.0455 6.95489 54.0964 7.00347C54.1474 7.05205 54.2238 7.07633 54.3002 7.07633C54.4276 7.07633 54.5295 7.02776 54.5805 6.90631C54.6314 6.80915 54.6569 6.63913 54.6569 6.39624ZM57.0772 5.74043L54.7333 9.33522C54.6824 9.43238 54.6059 9.48096 54.5295 9.48096C54.4786 9.48096 54.4531 9.45667 54.4021 9.43238C54.3512 9.40809 54.3257 9.35951 54.3257 9.31093C54.3257 9.26235 54.3512 9.23807 54.3767 9.1652L56.7206 5.54612C56.7715 5.47325 56.797 5.42467 56.8225 5.40039C56.8479 5.3761 56.8989 5.35181 56.9499 5.35181C57.0008 5.35181 57.0518 5.3761 57.0772 5.40039C57.1027 5.42467 57.1282 5.47325 57.1282 5.52183C57.1792 5.57041 57.1282 5.64328 57.0772 5.74043ZM58.0709 8.36366C58.0709 8.70371 57.9944 8.9466 57.8416 9.11662C57.6887 9.28664 57.4594 9.35951 57.2046 9.35951C57.0263 9.35951 56.8734 9.33522 56.746 9.26236C56.6187 9.18949 56.5167 9.09233 56.4403 8.92231C56.3639 8.75228 56.3384 8.58226 56.3384 8.36366C56.3384 8.02361 56.4148 7.75643 56.5422 7.58641C56.6696 7.41638 56.8989 7.31923 57.2046 7.31923C57.3575 7.31923 57.4849 7.34351 57.5868 7.39209C57.6887 7.44067 57.7906 7.48925 57.867 7.58641C57.9435 7.68356 57.9944 7.78072 58.0454 7.90216C58.0454 8.0479 58.0709 8.19363 58.0709 8.36366ZM57.5358 8.33937C57.5358 8.12077 57.5104 7.95074 57.4594 7.8293C57.4084 7.73214 57.3065 7.65927 57.1792 7.65927C57.0772 7.65927 57.0008 7.68356 56.9499 7.73214C56.8989 7.78072 56.848 7.85359 56.848 7.95074C56.8225 8.0479 56.8225 8.16934 56.8225 8.33937C56.8225 8.58226 56.848 8.75228 56.8989 8.87373C56.9499 8.99517 57.0518 9.04375 57.1792 9.04375C57.3065 9.04375 57.4084 8.99517 57.4594 8.87373C57.5104 8.75228 57.5358 8.58226 57.5358 8.33937Z" fill="#DDDDDD"/>
<path d="M22.9633 12.9857C22.9633 13.2294 22.8869 13.4487 22.7595 13.6193C22.6321 13.8142 22.4538 13.9605 22.199 14.0579C21.9442 14.1554 21.664 14.2285 21.3073 14.2285C20.8997 14.2285 20.5685 14.1554 20.3137 14.0092C20.1353 13.9117 19.9825 13.7655 19.8551 13.5949C19.7277 13.4243 19.6768 13.2538 19.6768 13.0832C19.6768 12.9857 19.7022 12.9126 19.7787 12.8395C19.8551 12.7664 19.9315 12.742 20.0589 12.742C20.1353 12.742 20.2118 12.7664 20.2882 12.8151C20.3392 12.8639 20.3901 12.937 20.4411 13.0588C20.492 13.1806 20.543 13.2781 20.6194 13.3756C20.6704 13.4487 20.7723 13.5218 20.8742 13.5949C20.9761 13.6437 21.129 13.668 21.3073 13.668C21.5621 13.668 21.7659 13.6193 21.9188 13.4974C22.0716 13.3756 22.148 13.2538 22.148 13.0832C22.148 12.9613 22.0971 12.8395 22.0207 12.7664C21.9442 12.6933 21.8168 12.6202 21.6895 12.5714C21.5621 12.5227 21.3837 12.4739 21.1544 12.4252C20.8487 12.3521 20.6194 12.279 20.4156 12.1815C20.2118 12.084 20.0589 11.9622 19.9315 11.816C19.8041 11.6698 19.7532 11.4748 19.7532 11.2555C19.7532 11.0362 19.8041 10.8412 19.9315 10.6706C20.0589 10.5001 20.2373 10.3782 20.4666 10.2807C20.6958 10.1833 20.9761 10.1345 21.2818 10.1345C21.5366 10.1345 21.7659 10.1589 21.9442 10.232C22.1226 10.2807 22.2754 10.3782 22.4028 10.4757C22.5302 10.5732 22.6066 10.6706 22.6576 10.7925C22.7085 10.89 22.734 11.0118 22.734 11.1093C22.734 11.2068 22.7085 11.2799 22.6321 11.3773C22.5557 11.4748 22.4793 11.4992 22.3773 11.4992C22.2754 11.4992 22.199 11.4748 22.148 11.4261C22.0971 11.3773 22.0461 11.3042 21.9952 11.2068C21.9188 11.0605 21.8423 10.9387 21.7149 10.8656C21.613 10.7925 21.4347 10.7437 21.2054 10.7437C21.0016 10.7437 20.8232 10.7925 20.6958 10.89C20.5685 10.9874 20.492 11.0849 20.492 11.2068C20.492 11.2799 20.5175 11.353 20.5685 11.4017C20.6194 11.4504 20.6704 11.4992 20.7468 11.5479C20.8232 11.5967 20.8997 11.621 20.9761 11.6454C21.0525 11.6698 21.1799 11.6941 21.3837 11.7429C21.613 11.7916 21.8168 11.8404 22.0207 11.9135C22.199 11.9866 22.3773 12.0597 22.5047 12.1328C22.6321 12.2303 22.734 12.3277 22.8105 12.4739C22.9124 12.6202 22.9633 12.7907 22.9633 12.9857Z" fill="#DDDDDD"/>
<path d="M25.7402 12.9379H24.237C24.237 13.1121 24.2625 13.2615 24.339 13.3859C24.4154 13.5104 24.4918 13.6099 24.6192 13.6846C24.7466 13.7593 24.874 13.7842 25.0014 13.7842C25.1033 13.7842 25.1797 13.7842 25.2561 13.7593C25.3326 13.7344 25.409 13.7095 25.4854 13.6597C25.5619 13.6099 25.6128 13.5602 25.6892 13.5104C25.7402 13.4606 25.8166 13.3859 25.9185 13.3113C25.9695 13.2864 26.0204 13.2615 26.0969 13.2615C26.1733 13.2615 26.2497 13.2864 26.3007 13.3361C26.3516 13.3859 26.3771 13.4357 26.3771 13.5104C26.3771 13.585 26.3516 13.6597 26.3007 13.7593C26.2497 13.8588 26.1733 13.9335 26.0459 14.0082C25.9185 14.0829 25.7911 14.1575 25.6383 14.2073C25.4599 14.2571 25.2816 14.282 25.0778 14.282C24.5937 14.282 24.2116 14.1326 23.9313 13.8588C23.6511 13.585 23.5237 13.2117 23.5237 12.7388C23.5237 12.5148 23.5492 12.3156 23.6256 12.1165C23.702 11.9174 23.8039 11.768 23.9313 11.6187C24.0587 11.4694 24.2116 11.3698 24.4154 11.2951C24.5937 11.2204 24.823 11.1956 25.0523 11.1956C25.358 11.1956 25.6128 11.2453 25.8166 11.3698C26.0204 11.4942 26.1988 11.6436 26.3007 11.8427C26.4026 12.0418 26.4536 12.241 26.4536 12.4401C26.4536 12.6392 26.4026 12.7388 26.2752 12.8134C26.0969 12.913 25.944 12.9379 25.7402 12.9379ZM24.2625 12.5148H25.6638C25.6383 12.2659 25.5619 12.0667 25.4599 11.9423C25.3326 11.8178 25.1797 11.7431 24.9759 11.7431C24.7721 11.7431 24.6192 11.8178 24.5173 11.9423C24.4154 12.0667 24.288 12.2659 24.2625 12.5148Z" fill="#DDDDDD"/>
<path d="M29.7656 11.7829V13.9108C29.7656 14.1554 29.7401 14.3755 29.6892 14.5467C29.6382 14.7179 29.5363 14.8647 29.4344 14.987C29.307 15.1093 29.1541 15.1826 28.9758 15.2316C28.772 15.2805 28.5427 15.3049 28.2624 15.3049C28.0077 15.3049 27.7529 15.2805 27.5491 15.2071C27.3452 15.1337 27.1924 15.0359 27.065 14.9381C26.9631 14.8158 26.8866 14.7179 26.8866 14.5956C26.8866 14.4978 26.9121 14.4244 26.9886 14.3755C27.065 14.3266 27.1414 14.3021 27.2179 14.3021C27.3198 14.3021 27.4217 14.3511 27.5236 14.4489C27.5745 14.4978 27.6 14.5467 27.651 14.5956C27.7019 14.6446 27.7529 14.6935 27.8038 14.7179C27.8548 14.7424 27.9312 14.7668 28.0077 14.7913C28.0841 14.8158 28.1605 14.8158 28.2624 14.8158C28.4663 14.8158 28.6191 14.7913 28.721 14.7424C28.8229 14.6935 28.8994 14.6201 28.9503 14.5223C29.0013 14.4244 29.0268 14.3266 29.0268 14.2043C29.0268 14.1065 29.0522 13.9108 29.0522 13.6907C28.9248 13.8374 28.7975 13.9597 28.6446 14.0575C28.4917 14.1309 28.3134 14.1798 28.0841 14.1798C27.8293 14.1798 27.6 14.1065 27.4217 13.9842C27.2179 13.8619 27.0905 13.6907 26.9886 13.4461C26.8866 13.2015 26.8357 12.9569 26.8357 12.6634C26.8357 12.4433 26.8612 12.2476 26.9376 12.0764C26.9886 11.9052 27.0905 11.7585 27.2179 11.6362C27.3452 11.5139 27.4726 11.416 27.6255 11.3671C27.7784 11.2937 27.9312 11.2693 28.135 11.2693C28.3643 11.2693 28.5427 11.3182 28.6955 11.3916C28.8484 11.465 29.0013 11.5872 29.1287 11.7585V11.6606C29.1287 11.5383 29.1541 11.4405 29.2306 11.3671C29.307 11.2937 29.3834 11.2693 29.4853 11.2693C29.6382 11.2693 29.7401 11.3182 29.7911 11.416C29.7401 11.465 29.7656 11.6117 29.7656 11.7829ZM27.5491 12.7123C27.5491 13.0058 27.6255 13.226 27.7529 13.3972C27.8803 13.5439 28.0586 13.6173 28.2879 13.6173C28.4153 13.6173 28.5427 13.5928 28.6446 13.5195C28.7465 13.4461 28.8484 13.3483 28.9248 13.226C29.0013 13.1037 29.0268 12.9325 29.0268 12.7368C29.0268 12.4433 28.9503 12.1987 28.8229 12.0275C28.6955 11.8563 28.4917 11.7829 28.2879 11.7829C28.0586 11.7829 27.9057 11.8563 27.7529 12.0275C27.6255 12.1987 27.5491 12.4188 27.5491 12.7123Z" fill="#DDDDDD"/>
<path d="M32.5426 13.856V13.7565C32.4407 13.8809 32.3643 13.9555 32.2624 14.0302C32.1605 14.1048 32.0585 14.1546 31.9312 14.2044C31.8038 14.2542 31.6764 14.2542 31.5235 14.2542C31.3452 14.2542 31.1668 14.2044 31.014 14.1297C30.8611 14.0551 30.7592 13.9555 30.6828 13.8311C30.5809 13.6818 30.5299 13.433 30.5299 13.1343V11.6413C30.5299 11.492 30.5554 11.3675 30.6318 11.2929C30.7082 11.2182 30.7847 11.1933 30.9121 11.1933C31.0395 11.1933 31.1159 11.2431 31.1923 11.3178C31.2688 11.3924 31.2942 11.5168 31.2942 11.6413V12.8357C31.2942 13.0099 31.3197 13.1592 31.3452 13.2836C31.3707 13.4081 31.4216 13.4827 31.498 13.5574C31.5745 13.632 31.6764 13.6569 31.8038 13.6569C31.9312 13.6569 32.0585 13.6071 32.1605 13.5325C32.2624 13.4578 32.3643 13.3583 32.4152 13.2339C32.4662 13.1343 32.4917 12.8855 32.4917 12.5371V11.6164C32.4917 11.4671 32.5171 11.3675 32.5936 11.2929C32.67 11.2182 32.7464 11.1685 32.8738 11.1685C32.9757 11.1685 33.0776 11.1933 33.1541 11.268C33.2305 11.3426 33.256 11.4422 33.256 11.6164V13.7813C33.256 13.9306 33.2305 14.0302 33.1541 14.1048C33.0776 14.1795 33.0012 14.2044 32.8993 14.2044C32.7974 14.2044 32.6955 14.1795 32.6445 14.1048C32.5936 14.0302 32.5426 14.0053 32.5426 13.856Z" fill="#DDDDDD"/>
<path d="M34.7845 13.2085V13.8312C34.7845 13.9806 34.759 14.1052 34.6826 14.1799C34.6061 14.2546 34.5042 14.3044 34.4023 14.3044C34.3004 14.3044 34.1985 14.2546 34.1221 14.1799C34.0456 14.1052 34.0201 13.9806 34.0201 13.8312V11.7389C34.0201 11.3902 34.1475 11.2407 34.4023 11.2407C34.5297 11.2407 34.6316 11.2905 34.6826 11.3653C34.7335 11.44 34.759 11.5645 34.7845 11.714C34.8864 11.5645 34.9628 11.44 35.0647 11.3653C35.1666 11.2905 35.294 11.2407 35.4469 11.2407C35.5997 11.2407 35.7526 11.2905 35.9055 11.3653C36.0583 11.44 36.1348 11.5396 36.1348 11.6891C36.1348 11.7887 36.1093 11.8634 36.0329 11.9132C35.9564 11.9631 35.9055 12.0129 35.829 12.0129C35.8036 12.0129 35.7271 11.988 35.6252 11.9631C35.5233 11.9382 35.4214 11.9132 35.345 11.9132C35.2431 11.9132 35.1411 11.9382 35.0647 11.988C34.9883 12.0378 34.9373 12.1374 34.8864 12.2371C34.8354 12.3616 34.8099 12.4861 34.8099 12.6356C34.7845 12.785 34.7845 12.9843 34.7845 13.2085Z" fill="#DDDDDD"/>
<path d="M38.3513 13.8561C38.173 14.0055 37.9946 14.1052 37.8163 14.1799C37.6379 14.2546 37.4596 14.2795 37.2303 14.2795C37.0265 14.2795 36.8481 14.2297 36.7208 14.155C36.5679 14.0803 36.466 13.9806 36.3641 13.8561C36.2876 13.7316 36.2367 13.5821 36.2367 13.4327C36.2367 13.2334 36.3131 13.059 36.4405 12.9096C36.5679 12.7601 36.7462 12.6605 37.001 12.6107C37.052 12.6107 37.1794 12.5858 37.3577 12.536C37.536 12.4861 37.7144 12.4612 37.8418 12.4363C37.9691 12.4114 38.122 12.3616 38.3003 12.3118C38.3003 12.1125 38.2494 11.9631 38.173 11.8883C38.0965 11.7887 37.9437 11.7389 37.7144 11.7389C37.5106 11.7389 37.3832 11.7638 37.2813 11.8136C37.1793 11.8634 37.1029 11.9382 37.0265 12.0627C36.9501 12.1623 36.8991 12.2371 36.8736 12.262C36.8481 12.2869 36.7717 12.3118 36.6953 12.3118C36.6188 12.3118 36.5424 12.2869 36.466 12.2371C36.415 12.1872 36.3641 12.1125 36.3641 12.0378C36.3641 11.9132 36.415 11.7887 36.5169 11.6642C36.6189 11.5396 36.7717 11.44 36.9755 11.3653C37.1794 11.2905 37.4341 11.2407 37.7398 11.2407C38.0711 11.2407 38.3513 11.2905 38.5296 11.3653C38.708 11.44 38.8608 11.5645 38.9373 11.7389C39.0137 11.9132 39.0647 12.1374 39.0647 12.4114C39.0647 12.5858 39.0647 12.7352 39.0647 12.8598C39.0647 12.9843 39.0647 13.1088 39.0647 13.2583C39.0647 13.4077 39.0901 13.5572 39.1411 13.7066C39.1921 13.8561 39.2175 13.9557 39.2175 14.0055C39.2175 14.0803 39.192 14.155 39.1156 14.2048C39.0392 14.2795 38.9628 14.3044 38.8608 14.3044C38.7844 14.3044 38.708 14.2795 38.6316 14.2048C38.5042 14.1052 38.4277 14.0055 38.3513 13.8561ZM38.3003 12.785C38.1984 12.8349 38.0201 12.8598 37.8163 12.9096C37.6125 12.9594 37.4596 12.9843 37.3832 13.0092C37.3067 13.0341 37.2303 13.0839 37.1539 13.1338C37.0774 13.1836 37.052 13.2832 37.052 13.3828C37.052 13.5074 37.1029 13.5821 37.1794 13.6817C37.2558 13.7565 37.3832 13.8063 37.536 13.8063C37.6889 13.8063 37.8163 13.7814 37.9437 13.7066C38.0711 13.6319 38.173 13.5572 38.2239 13.4576C38.3003 13.333 38.3258 13.1587 38.3258 12.8847V12.785H38.3003Z" fill="#DDDDDD"/>
</svg>
