<svg id="Capa_1" data-name="Capa 1" xmlns="http://www.w3.org/2000/svg" viewBox="0 0 695.64 293.89"><defs><style>.cls-1{font-size:48.04px;font-family:Gotham-Medium, Gotham;font-weight:500;letter-spacing:0.2em;}.cls-1,.cls-10,.cls-4{fill:#fff;}.cls-2{letter-spacing:0.19em;}.cls-3{letter-spacing:0.2em;}.cls-4{font-size:83.83px;font-family:Arial-BoldMT, Arial;font-weight:700;letter-spacing:0.01em;}.cls-11,.cls-5,.cls-8{fill:#da0000;}.cls-5,.cls-7{letter-spacing:0.02em;}.cls-6{fill:#000;}.cls-10,.cls-11,.cls-9{fill-rule:evenodd;}</style></defs><text class="cls-1" transform="translate(314.44 209.1)">Car Servi<tspan class="cls-2" x="306.27" y="0">c</tspan><tspan class="cls-3" x="342.58" y="0">e</tspan></text><text class="cls-4" transform="translate(316.42 151.96)">Z<tspan class="cls-5" x="52.46" y="0">S</tspan><tspan class="cls-6" x="109.63" y="0"> </tspan><tspan class="cls-7" x="134.18" y="0">Motor</tspan></text><rect class="cls-8" x="316.41" y="162.12" width="370.57" height="3.78"/><path class="cls-9" d="M138.86,293.89c-18.18,0-27.07-2.68-27.44-2.79l-.35-.11L98.94,279.86C96.46,279,80.57,273,69.22,266c-8.89-5.53-19.18-14.23-21-15.81L31.4,245.56l-.31-.36c-.12-.13-11.47-13-19.16-27.51A170.56,170.56,0,0,1,.13,189L0,188.6l4.74-17.24c-.18-2.1-1.31-15-1.83-25.55s2.45-23.41,3.07-26L.83,102.54,1,102c.3-.84,7.43-20.85,16.55-34.67A176.17,176.17,0,0,1,37.13,43.05l.33-.32,18.8-4.42C57.67,37,63.33,31.9,75.41,25.67s17.44-8.3,18.82-8.8L107.67,4.14l.41-.1a166.92,166.92,0,0,1,35.28-4h.94a135.32,135.32,0,0,1,34.41,4.34l.43.13,11.86,13c2.32.86,14.38,5.43,21,9.39S227.28,37,228.91,38.14l17,3.88.33.34c.13.14,13.22,13.76,21.45,27.79s14.1,30.88,14.16,31.05l.14.38-3,18.3c.37,2.23,2.77,16.85,3,24.44s-1.78,24.28-2.08,26.66l3.42,17.22-.14.4c-.05.16-5.51,16.6-12.5,29.53-6.64,12.27-18.56,26.34-19.07,26.93l-.29.34-15,5.14a255.72,255.72,0,0,1-21.12,15.86c-10.83,7.22-26.64,12.6-29.25,13.47L173.6,291.49l-.48.08c-.47.08-11.74,2-31.58,2.3-.91,0-1.81,0-2.68,0Z"/><path class="cls-10" d="M281.63,188.09,278.25,171s2.39-18.62,2.1-26.66-3.06-24.5-3.06-24.5l3-18.15s-5.83-16.79-14-30.76S245,43.48,245,43.48l-16.81-3.84s-10-7.12-17.09-11.39-21.07-9.4-21.07-9.4l-11.82-13a135.52,135.52,0,0,0-34.89-4.27,162.72,162.72,0,0,0-34.89,4L95.09,18.28S90,20,76.15,27.11,57.07,39.78,57.07,39.78L38.27,44.2A172,172,0,0,0,18.9,68.26C9.79,82.08,2.53,102.58,2.53,102.58l5.12,17.23S4,134.19,4.52,145.73,6.37,171.5,6.37,171.5l-4.7,17.09a167.57,167.57,0,0,0,11.68,28.34,159.72,159.72,0,0,0,18.94,27.2L49,248.69s11.51,9.92,21.11,15.9c12.08,7.51,29.73,13.86,29.73,13.86l12.1,11.1s9.68,3,29.62,2.71S172.84,290,172.84,290l12.25-11.53s17.66-5.71,29.2-13.4a252.6,252.6,0,0,0,21.21-15.94l14.87-5.1s12.24-14.39,18.87-26.65C276.25,204.41,281.63,188.09,281.63,188.09Z"/><circle cx="142.04" cy="147.27" r="125.66"/><path class="cls-11" d="M137.53,193.55l5.7-27.11H181.6a3.58,3.58,0,0,0,.63-.73,2.66,2.66,0,0,0-.27-1.88c-1-1.22-12.24-15.22-12.24-15.22-7.39-9.18-17.43-21.79-19.29-25.17-.17-.31-.37-.66-.59-1-2.36-4-7.27-12.49-2.06-25,5.64-13.61,19.16-16.14,19.74-16.24l.14,0h53.09l-6.17,27.63H173.71l-.09,0a1.85,1.85,0,0,0-1.05.7,1.22,1.22,0,0,0-.16,1.42l6.19,7.7s21.38,27,26.21,33.13c7.56,9.58,8.73,19.44,3.49,29.32a23.51,23.51,0,0,1-19.8,12.59Z"/><path class="cls-10" d="M99.42,166.44H139l-5.7,27.11H62.71l4.91-24.9c0-.18.93-5.6,3-8.92,1.93-3,6.85-8,8.31-9.52.64-.64,39.83-34.64,47.68-41.45l.06,0H79.83l6.35-27.63h73.71l-.14,0c-.53.09-9.16,2.27-14.92,13.37-.46.9-.91,1.85-1.33,2.87-5.21,12.56-.3,21,2.05,25,.22.37.42.72.59,1s.56.93,1,1.57h0Z"/><path class="cls-10" d="M78.11,217.6H74.38L76,206.08a.39.39,0,0,0-.2.06.61.61,0,0,0-.16.16l-3.28,4.08a5.59,5.59,0,0,1-1.26,1.21,2.82,2.82,0,0,1-1.56.46,2.15,2.15,0,0,1-1.37-.4,3.8,3.8,0,0,1-1-1.27l-2.13-4.08c-.08-.14-.17-.22-.3-.22L63.15,217.6H59.42l2.35-16.83h3.74a2.24,2.24,0,0,1,1.43.45,3.64,3.64,0,0,1,.92,1.23L70,206.53a.33.33,0,0,0,.3.21.47.47,0,0,0,.38-.21l3.26-4.08a5.2,5.2,0,0,1,1.26-1.21,2.83,2.83,0,0,1,1.56-.47h3.74Z"/><path class="cls-10" d="M111.2,213.86a4.2,4.2,0,0,1-1.45,2.63,4.12,4.12,0,0,1-2.81,1.11H97.59a3.13,3.13,0,0,1-2.49-1.09,3.17,3.17,0,0,1-.72-2.65l1.31-9.35a4.42,4.42,0,0,1,4.25-3.74h9.36a3.13,3.13,0,0,1,2.49,1.09,3.17,3.17,0,0,1,.72,2.65Zm-3.68-.38,1.21-8.6a.36.36,0,0,0-.07-.27.33.33,0,0,0-.25-.1H99.79a.44.44,0,0,0-.28.1.47.47,0,0,0-.14.27l-1.2,8.6a.3.3,0,0,0,.31.38h8.62A.39.39,0,0,0,107.52,213.48Z"/><polygon class="cls-10" points="143.58 204.51 137.05 204.51 135.21 217.6 131.48 217.6 133.31 204.51 126.76 204.51 127.28 200.77 144.1 200.77 143.58 204.51"/><path class="cls-10" d="M173.31,213.86a4.2,4.2,0,0,1-1.45,2.63,4.09,4.09,0,0,1-2.8,1.11H159.7a3.16,3.16,0,0,1-2.49-1.09,3.24,3.24,0,0,1-.72-2.65l1.31-9.35a4.23,4.23,0,0,1,1.46-2.65,4.17,4.17,0,0,1,2.8-1.09h9.35a3.16,3.16,0,0,1,2.5,1.09,3.24,3.24,0,0,1,.72,2.65Zm-3.68-.38,1.21-8.6a.36.36,0,0,0-.07-.27.32.32,0,0,0-.25-.1H161.9a.39.39,0,0,0-.27.1.49.49,0,0,0-.15.27l-1.2,8.6a.33.33,0,0,0,.07.28.3.3,0,0,0,.25.1h8.61A.38.38,0,0,0,169.63,213.48Z"/><path class="cls-10" d="M203.45,217.6h-3.73l.86-6.17q.06-.39-.33-.39h-7.1l-.92,6.56H188.5l2.35-16.83h11.22a3.19,3.19,0,0,1,3.22,3.74l-.4,2.8a3.57,3.57,0,0,1-.33,1.07,2.16,2.16,0,0,1-.63.8,1.46,1.46,0,0,1,.41.78,3.25,3.25,0,0,1,0,1.08Zm-2.24-10.66.29-2.06c0-.25-.08-.37-.34-.37h-7.1l-.39,2.8h7.1a.44.44,0,0,0,.3-.11A.4.4,0,0,0,201.21,206.94Z"/></svg>