<svg id="Capa_1" data-name="Capa 1" xmlns="http://www.w3.org/2000/svg" viewBox="0 0 33.64 28.92"><defs><style>.cls-1{fill:#f2f2f2;}.cls-1,.cls-2{fill-rule:evenodd;}.cls-2{fill:#c63336;}</style></defs><path class="cls-1" d="M22.12.07A6.08,6.08,0,0,0,18.7,2.25a5.57,5.57,0,0,0-1,4.91,7.22,7.22,0,0,0,.83,1.64L7.62,18.28a2.37,2.37,0,0,0-.34.41.53.53,0,0,0-.07.2h9.72l-1.1,5.26H.24l1-5a8.48,8.48,0,0,1,.62-1.84,17,17,0,0,1,1.78-2.05c.14-.14,10.53-9.14,10.53-9.14a2,2,0,0,0,.48-.55c.07-.2-.68-.13-.68-.13H4L5.23,0Z"/><path class="cls-2" d="M32.17,5.46,33.4.07H22.12A5.82,5.82,0,0,0,18,3.41a5.39,5.39,0,0,0,.55,5.46c.47.82,3.28,4.36,4.3,5.52l2.67,3.35s.28.54.07.82a1.32,1.32,0,0,1-.34.34H16.92l-1.09,5.25h10.8a4.78,4.78,0,0,0,4-2.59,5.26,5.26,0,0,0-.75-6.07l-5.75-7.3L22.8,6.48a.7.7,0,0,1,.62-1Z"/><path class="cls-1" d="M5.49,28.92H4.74l.34-2.39H5l-.68.82c-.07.07-.14.21-.28.28a.56.56,0,0,1-.34.06.45.45,0,0,1-.27-.06,1,1,0,0,1-.21-.28l-.41-.82a.06.06,0,0,0-.07-.06l-.34,2.38H1.66l.48-3.48h.75c.14,0,.21,0,.28.07a1.2,1.2,0,0,1,.2.28l.41.81.07.07a.06.06,0,0,0,.06-.07l.69-.81c.07-.07.14-.21.27-.28a.51.51,0,0,1,.34-.07H6Zm6.91-.82a.7.7,0,0,1-.35.55.78.78,0,0,1-.54.2H9.59a.78.78,0,0,1-.54-.2.53.53,0,0,1-.14-.55l.27-1.91a.89.89,0,0,1,.89-.75H12a.68.68,0,0,1,.68.62v.2ZM11.64,28l.28-1.77v-.07h-2v.07L9.66,28v.07h1.85A.2.2,0,0,0,11.64,28Zm7.46-1.84H17.73l-.34,2.73h-.82l.4-2.73H15.61l.13-.82h3.49Zm6.15,1.91a.89.89,0,0,1-.89.75H22.45a.81.81,0,0,1-.55-.2.55.55,0,0,1-.14-.55L22,26.19a.85.85,0,0,1,.27-.54.79.79,0,0,1,.55-.21h1.91a.77.77,0,0,1,.55.21.53.53,0,0,1,.14.54ZM24.5,28l.27-1.77v-.07H22.86v.07L22.59,28v.07h1.84C24.5,28.1,24.5,28.1,24.5,28Zm7,.89h-.82l.21-1.3c0-.06,0-.06-.07-.06H29.42l-.2,1.36h-.75L29,25.44h2.32a.77.77,0,0,1,.55.21.53.53,0,0,1,.13.54l-.06.55a.25.25,0,0,1-.07.2.15.15,0,0,1-.14.14c.07.06.07.06.07.13v.21Zm-.48-2.25.07-.41c0-.06,0-.06-.07-.06h-1.5l-.07.54H31C31.06,26.74,31.06,26.74,31.06,26.67Z"/></svg>