<svg width="98" height="14" viewBox="0 0 98 14" fill="none" xmlns="http://www.w3.org/2000/svg">
<path d="M21.1338 0.705566H0.843486C0.540079 0.705566 0.274597 0.95865 0.274597 1.24789V13.432C0.274597 13.7213 0.540079 13.9744 0.843486 13.9744H21.1718C21.4752 13.9744 21.7407 13.7213 21.7407 13.432V1.24789C21.7027 0.95865 21.4373 0.705566 21.1338 0.705566ZM1.94334 4.71875H4.21889C4.5223 4.71875 4.78778 4.82721 4.86363 5.1526L5.35667 7.43035C4.86363 6.23725 3.68793 5.26107 1.90541 4.82721L1.94334 4.71875ZM4.71193 9.92503L3.38452 5.62261C4.33267 6.20109 5.12911 7.10496 5.43252 7.75575L5.58422 8.29807L7.02541 4.79105H8.58037L6.26689 9.92503H4.71193ZM9.71815 9.92503H8.23904L9.14926 4.7549H10.6284L9.71815 9.92503ZM12.2971 9.99734C11.6524 9.99734 11.0076 9.85272 10.6663 9.7081L10.8559 8.55115L11.0456 8.62346C11.5386 8.80423 11.842 8.87654 12.4488 8.87654C12.866 8.87654 13.3211 8.73192 13.3211 8.37038C13.3211 8.15345 13.1315 7.97267 12.5626 7.71959C11.9937 7.46651 11.2731 7.06881 11.2731 6.30956C11.2731 5.29722 12.2971 4.61028 13.7762 4.61028C14.3451 4.61028 14.8002 4.71875 15.1036 4.82721L14.914 5.94801L14.7623 5.8757C14.4968 5.76723 14.1555 5.65877 13.6624 5.69492C13.0936 5.69492 12.8281 5.91185 12.8281 6.12878C12.8281 6.38186 13.1315 6.52648 13.6624 6.77957C14.4968 7.14111 14.914 7.61113 14.914 8.1896C14.8761 9.3104 13.8521 9.99734 12.2971 9.99734ZM18.7066 9.92503C18.7066 9.92503 18.5549 9.34655 18.517 9.16578C18.2894 9.16578 16.8103 9.16578 16.6207 9.16578C16.5448 9.3104 16.3173 9.92503 16.3173 9.92503H14.7623L16.962 5.18876C17.1137 4.86336 17.3792 4.7549 17.7205 4.7549H18.8583L20.034 9.92503H18.7066Z" fill="#DDDDDD"/>
<path d="M17.948 6.52222L17.8343 6.07202C17.7584 6.2596 17.6446 6.59725 17.6446 6.59725C17.6446 6.59725 17.1895 7.79777 17.0757 8.0979H18.2894C18.2135 7.79777 17.948 6.52222 17.948 6.52222Z" fill="#DDDDDD"/>
<path d="M31.298 6.35889C30.8809 6.35889 30.5774 6.47138 30.5774 6.47138L30.5016 6.99633C30.5016 6.99633 30.7671 6.88384 31.1463 6.88384C31.3739 6.88384 31.5256 6.92134 31.5256 7.07133C31.5256 7.18382 31.4877 7.22132 31.4877 7.22132C31.4877 7.22132 31.298 7.22132 31.2222 7.22132C30.7291 7.22132 30.1982 7.4463 30.1982 8.08374C30.1982 8.6087 30.5395 8.72119 30.7671 8.72119C31.1843 8.72119 31.3739 8.45871 31.3739 8.45871L31.336 8.6837H31.8669L32.0945 7.07133C32.0945 6.39638 31.5256 6.35889 31.298 6.35889ZM30.9946 8.19623C30.805 8.19623 30.7671 8.04625 30.7671 7.97125C30.7671 7.82127 30.8429 7.63378 31.298 7.63378C31.4118 7.63378 31.4118 7.63378 31.4118 7.63378C31.4497 7.74627 31.3739 8.19623 30.9946 8.19623Z" fill="#DDDDDD"/>
<path d="M33.1563 6.88398C33.2321 6.88398 33.5735 6.92148 33.5735 6.92148L33.6493 6.39639C33.6493 6.39639 33.4597 6.35889 33.1184 6.35889C32.7012 6.35889 32.2461 6.54642 32.2461 7.10902C32.2461 7.78413 32.9667 7.70912 32.9667 7.97166C32.9667 8.1592 32.777 8.1592 32.5874 8.1592C32.3219 8.1592 32.0564 8.08418 32.0564 8.08418L31.9806 8.60927C31.9806 8.60927 32.1323 8.68429 32.6253 8.68429C32.7391 8.68429 33.4976 8.72179 33.4976 7.93416C33.4976 7.22154 32.815 7.37156 32.815 7.07151C32.8529 6.92148 32.9667 6.88398 33.1563 6.88398Z" fill="#DDDDDD"/>
<path d="M34.4078 6.97244H34.7112L34.7871 6.40968H34.4837L34.5595 6.07202H33.9906C33.9906 6.07202 33.6493 7.98541 33.6493 8.21052C33.6493 8.54817 33.8389 8.69824 34.1044 8.69824C34.332 8.69824 34.4837 8.62321 34.5595 8.62321L34.6354 8.13548C34.5974 8.13548 34.5216 8.13548 34.4837 8.13548C34.294 8.13548 34.2561 8.02293 34.2561 7.94789L34.4078 6.97244Z" fill="#DDDDDD"/>
<path d="M36.8351 3.93335H35.8111C35.6594 4.12057 35.5457 4.3078 35.4319 4.53247H37.2903C37.1385 4.3078 36.9868 4.12057 36.8351 3.93335Z" fill="#DDDDDD"/>
<path d="M44.9899 10.2007C44.9518 10.1632 44.9518 10.1632 44.9518 10.1632H44.9899V10.1257V10.0883C44.9899 10.0883 44.9899 10.0883 44.9518 10.0883H44.9138H44.8376V10.2756H44.8757V10.2007H44.9138C44.9518 10.1632 44.9518 10.2007 44.9899 10.2007V10.2382H45.028L44.9899 10.2007ZM44.9138 10.1257L44.8757 10.0508H44.9138H44.9518C44.9899 10.1257 44.9899 10.1257 44.9138 10.1257C44.9518 10.1257 44.9518 10.1257 44.9138 10.1257Z" fill="#DDDDDD"/>
<path d="M37.5936 4.99243H35.0905C34.9388 5.29285 34.825 5.51816 34.7871 5.59326H37.8212C37.7453 5.4055 37.6695 5.18019 37.5936 4.99243Z" fill="#DDDDDD"/>
<path d="M29.5153 5.92847L28.9085 7.61615V5.92847H28.0362L27.5811 8.66626H28.15L28.4913 6.60354L28.5293 8.66626H28.9465L29.705 6.60354L29.3636 8.66626H29.9705L30.4256 5.92847H29.5153Z" fill="#DDDDDD"/>
<path d="M40.7794 6.35889C40.3622 6.35889 40.0588 6.47141 40.0588 6.47141L39.983 6.959C39.983 6.959 40.2485 6.84648 40.6277 6.84648C40.8553 6.84648 41.007 6.88399 41.007 7.03401C41.007 7.14654 40.9691 7.18404 40.9691 7.18404C40.9691 7.18404 40.7794 7.18404 40.7036 7.18404C40.2105 7.18404 39.6796 7.40909 39.6796 8.04671C39.6796 8.5718 40.0209 8.68433 40.2485 8.68433C40.6656 8.68433 40.8553 8.42178 40.8553 8.42178L40.8173 8.64682H41.3483L41.5759 7.03401C41.5759 6.39639 41.007 6.35889 40.7794 6.35889ZM40.5139 8.19673C40.3243 8.19673 40.2864 8.04671 40.2864 7.97169C40.2864 7.82166 40.3622 7.63413 40.8173 7.63413C40.9311 7.63413 40.9311 7.63413 40.9311 7.63413C40.9311 7.74665 40.8553 8.19673 40.5139 8.19673Z" fill="#DDDDDD"/>
<path d="M45.027 8.31655C45.027 8.27915 44.9891 8.27915 44.9512 8.24175C44.9133 8.24175 44.8754 8.20435 44.8754 8.20435C44.8374 8.20435 44.7995 8.20435 44.7995 8.24175C44.7616 8.24175 44.7616 8.27915 44.7237 8.31655C44.7237 8.35395 44.6857 8.39136 44.6857 8.39136C44.6857 8.39136 44.6857 8.46616 44.7237 8.46616C44.7237 8.50356 44.7616 8.50356 44.7995 8.54097C44.8374 8.54097 44.8754 8.57837 44.8754 8.57837C44.9133 8.57837 44.9512 8.57837 44.9512 8.54097C44.9891 8.54097 44.9891 8.50356 45.027 8.46616C45.027 8.42876 45.065 8.39136 45.065 8.39136C45.027 8.39136 45.027 8.35395 45.027 8.31655ZM44.9891 8.50356C44.9891 8.54097 44.9512 8.54097 44.9512 8.54097C44.9133 8.54097 44.9133 8.57837 44.8754 8.57837C44.8374 8.57837 44.8374 8.57837 44.7995 8.54097C44.7616 8.54097 44.7616 8.50356 44.7616 8.50356C44.7616 8.46616 44.7237 8.46616 44.7237 8.42876C44.7237 8.39136 44.7237 8.39136 44.7616 8.35395C44.7616 8.31655 44.7995 8.31655 44.7995 8.31655C44.8374 8.31655 44.8374 8.31655 44.8754 8.31655C44.9133 8.31655 44.9133 8.31655 44.9512 8.31655C44.9891 8.31655 44.9891 8.35395 44.9891 8.35395C44.9891 8.39136 45.027 8.39136 45.027 8.42876C45.027 8.42876 44.9891 8.46616 44.9891 8.50356Z" fill="#DDDDDD"/>
<path d="M44.914 8.4624L44.8759 8.42481H44.914V8.38721V8.34961C44.914 8.34961 44.914 8.34961 44.8759 8.34961C44.8378 8.34961 44.8378 8.34961 44.8378 8.34961H44.7617V8.5376H44.7997V8.4624H44.8378C44.8759 8.4624 44.8759 8.4624 44.914 8.4624ZM44.8378 8.38721L44.7997 8.31201H44.8378H44.8759C44.914 8.38721 44.914 8.38721 44.8378 8.38721C44.8759 8.38721 44.8759 8.38721 44.8378 8.38721Z" fill="#DDDDDD"/>
<path d="M42.7896 6.39637C42.5242 6.39637 42.3345 6.73374 42.3345 6.73374L42.3724 6.39637H41.8415L41.4622 8.64551H42.069C42.2587 7.67088 42.2587 6.92117 42.6759 7.03363C42.7517 6.65877 42.8276 6.50883 42.9034 6.35889C42.9034 6.39637 42.8655 6.39637 42.7896 6.39637Z" fill="#DDDDDD"/>
<path d="M44.3064 5.92847L44.1926 6.71597C44.1926 6.71597 43.9651 6.41597 43.6238 6.41597C43.0928 6.41597 42.6377 7.05347 42.6377 7.80347C42.6377 8.29097 42.8652 8.74097 43.3583 8.74097C43.6996 8.74097 43.8892 8.51597 43.8892 8.51597L43.8513 8.74097H44.4202L44.8753 6.00347L44.3064 5.92847ZM43.5479 8.14097C43.3204 8.14097 43.2445 7.95347 43.2445 7.69097C43.2445 7.24097 43.4341 6.94097 43.6996 6.94097C43.9272 6.94097 44.003 7.09097 44.003 7.42847C44.003 7.72847 43.8513 8.14097 43.5479 8.14097Z" fill="#DDDDDD"/>
<path d="M46.4682 0.705566H26.1399C25.8365 0.705566 25.571 0.95865 25.571 1.24789V13.432C25.571 13.7213 25.8365 13.9744 26.1399 13.9744H46.4682C46.7716 13.9744 47.0371 13.7213 47.0371 13.432V1.24789C46.9992 0.95865 46.7716 0.705566 46.4682 0.705566ZM45.1029 10.3227C45.1029 10.3589 45.0649 10.3589 45.027 10.395C44.9891 10.395 44.9512 10.4312 44.9512 10.4312C44.9132 10.4312 44.8753 10.4312 44.8753 10.395C44.8374 10.395 44.8374 10.3589 44.7995 10.3227C44.7995 10.2866 44.7615 10.2504 44.7615 10.2504C44.7615 10.2504 44.7615 10.1781 44.7995 10.1781C44.7995 10.142 44.8374 10.142 44.8753 10.1058C44.9132 10.1058 44.9512 10.0697 44.9512 10.0697C44.9891 10.0697 45.027 10.0697 45.027 10.1058C45.0649 10.1058 45.0649 10.142 45.1029 10.1781C45.1029 10.2143 45.1408 10.2504 45.1408 10.2504C45.1408 10.2504 45.1029 10.2866 45.1029 10.3227ZM45.4821 7.32189C45.4821 10.2143 43.0169 12.5643 39.9829 12.5643C38.5796 12.5643 37.2522 12.0582 36.3041 11.2266C35.318 12.0582 34.0285 12.5643 32.6253 12.5643C29.5912 12.5643 27.126 10.2143 27.126 7.32189C27.126 4.42951 29.5533 2.1156 32.5873 2.07945H32.6253C34.0285 2.07945 35.318 2.58561 36.3041 3.41717C37.2901 2.58561 38.5796 2.07945 39.9829 2.07945C43.0169 2.07945 45.4821 4.42951 45.4821 7.32189Z" fill="#DDDDDD"/>
<path d="M35.7354 10.5535C35.925 10.778 36.0767 10.965 36.3042 11.1521C36.4939 10.965 36.6835 10.778 36.8731 10.5535H35.7354Z" fill="#DDDDDD"/>
<path d="M36.4939 7.71472C36.4939 7.71472 36.5698 7.33963 36.5698 7.1896C36.5698 6.81452 36.3802 6.3269 35.7354 6.3269C35.1286 6.3269 34.7114 6.96455 34.7114 7.67721C34.7114 8.5024 35.2424 8.68994 35.7354 8.68994C36.1526 8.68994 36.3422 8.57742 36.3422 8.57742L36.456 8.01479C36.456 8.01479 36.1147 8.16482 35.8492 8.16482C35.2045 8.16482 35.3182 7.71472 35.3182 7.71472H36.4939ZM35.7354 6.88953C36.0768 6.88953 36.0009 7.26462 36.0009 7.30213H35.3562C35.3562 7.22711 35.432 6.88953 35.7354 6.88953Z" fill="#DDDDDD"/>
<path d="M39.2245 6.45578C39.5279 6.45578 39.7555 6.6058 39.7555 6.6058L39.8692 6.00573C39.8692 6.00573 39.5279 5.85571 39.2245 5.85571C38.5418 5.85571 37.8971 6.41828 37.8971 7.50591C37.8971 8.2185 38.2384 8.70605 38.959 8.70605C39.1486 8.70605 39.452 8.63105 39.452 8.63105L39.5658 7.99347C39.5658 7.99347 39.2624 8.14349 39.0728 8.14349C38.6556 8.14349 38.5039 7.84345 38.5039 7.50591C38.466 6.83083 38.8452 6.45578 39.2245 6.45578Z" fill="#DDDDDD"/>
<path d="M35.0146 9.43604C35.1284 9.62303 35.2043 9.84743 35.356 10.0344H37.2902C37.404 9.84743 37.5177 9.66043 37.5936 9.43604H35.0146Z" fill="#DDDDDD"/>
<path d="M37.8592 6.39637C37.5937 6.39637 37.404 6.73374 37.404 6.73374L37.442 6.39637H36.911L36.5317 8.64551H37.1386C37.2903 7.67088 37.3282 6.92117 37.7454 7.03363C37.8212 6.65877 37.8971 6.50883 37.9729 6.35889C37.9729 6.39637 37.935 6.39637 37.8592 6.39637Z" fill="#DDDDDD"/>
<path d="M71.765 0.705566H51.4367C51.1333 0.705566 50.8678 0.95865 50.8678 1.24789V13.432C50.8678 13.7213 51.0954 13.9744 51.4367 13.9744H71.765C72.0684 13.9744 72.3339 13.7213 72.3339 13.432V1.24789C72.3339 0.95865 72.0684 0.705566 71.765 0.705566ZM56.1774 6.74341L56.1016 6.59879C56.1016 6.77957 55.9499 6.92419 55.7602 6.92419H54.7742C54.6225 6.92419 54.5087 6.85188 54.4708 6.74341L54.357 6.52648H53.7881L53.6743 6.77957C53.6364 6.88803 53.4847 6.96034 53.3709 6.96034H52.8779C52.7641 6.96034 52.6503 6.92419 52.6124 6.81572C52.5365 6.70726 52.5365 6.59879 52.5745 6.52648L53.4468 4.57413C53.4847 4.46566 53.6364 4.39335 53.7502 4.39335H54.4708C54.6225 4.39335 54.7362 4.46566 54.7742 4.57413L54.9638 4.97183V4.68259C54.9638 4.50182 55.1155 4.3572 55.3051 4.3572H56.1016C56.2154 4.3572 56.3671 4.42951 56.405 4.53797L56.7084 5.18876L57.0118 4.53797C57.0497 4.42951 57.2014 4.3572 57.3152 4.3572H58.1116C58.1875 4.3572 58.2254 4.39335 58.3013 4.42951C58.3392 4.39335 58.4151 4.3572 58.4909 4.3572H60.1217C60.1976 4.3572 60.2355 4.39335 60.2734 4.39335C60.3113 4.3572 60.3872 4.3572 60.4251 4.3572H61.525C61.8284 4.3572 62.0559 4.3572 62.2835 4.50182C62.3214 4.50182 62.3214 4.53797 62.3593 4.53797C62.3973 4.42951 62.5111 4.3572 62.6628 4.3572H63.1558C63.3075 4.3572 63.4592 4.46566 63.4971 4.64644C63.7247 4.46566 64.0281 4.3572 64.4073 4.3572H64.8625C64.9383 4.3572 65.0142 4.39335 65.0521 4.42951C65.09 4.39335 65.1659 4.3572 65.2417 4.3572H65.9623C66.114 4.3572 66.2278 4.42951 66.2657 4.53797L66.4553 4.93567V4.64644C66.4553 4.46566 66.607 4.32104 66.7967 4.32104H67.5552C67.669 4.32104 67.7828 4.39335 67.8586 4.46566L68.0862 4.82721V4.61028C68.0862 4.42951 68.2379 4.28489 68.4275 4.28489H68.9205C69.1102 4.28489 69.2619 4.42951 69.2619 4.61028V6.56264C69.2619 6.74341 69.1102 6.88803 68.9205 6.88803H68.2379C68.1241 6.88803 68.0103 6.81572 67.9345 6.74341L67.631 6.2734V6.56264C67.631 6.74341 67.4793 6.88803 67.2897 6.88803H66.3036C66.1519 6.88803 66.0382 6.81572 66.0002 6.70726L65.8865 6.45417H65.3176L65.2038 6.6711C65.1659 6.77957 65.0142 6.88803 64.9004 6.88803H64.3315C64.1039 6.88803 63.7247 6.85188 63.4592 6.63495C63.4213 6.77957 63.3075 6.88803 63.1179 6.88803H62.6248C62.5869 6.88803 62.5111 6.88803 62.4731 6.85188C62.4352 6.88803 62.3593 6.88803 62.3214 6.88803H61.8284C61.6388 6.88803 61.4871 6.74341 61.4871 6.56264V6.30956V6.2734C61.4871 6.23725 61.4871 6.20109 61.4871 6.16494C61.4491 6.16494 61.4491 6.16494 61.4112 6.16494H61.2216V6.56264C61.2216 6.74341 61.0699 6.88803 60.8802 6.88803H60.3872C60.3114 6.88803 60.2734 6.85188 60.2355 6.85188C60.1976 6.88803 60.1217 6.88803 60.0838 6.88803H58.453C58.3771 6.88803 58.3392 6.85188 58.2633 6.81572C58.2254 6.85188 58.1496 6.88803 58.0737 6.88803H57.5807C57.3911 6.88803 57.2394 6.74341 57.2394 6.56264L57.1635 6.70726C57.1256 6.81572 56.9739 6.88803 56.8601 6.88803H56.4429C56.3671 6.96034 56.2154 6.88803 56.1774 6.74341ZM69.6032 10.2866H68.6551C68.5033 10.2866 68.3896 10.2143 68.3516 10.1058C68.162 10.2143 67.9345 10.2866 67.631 10.2866H66.6829C66.645 10.2866 66.5691 10.2866 66.5312 10.2504C66.4933 10.2866 66.4553 10.2866 66.3795 10.2866H64.7487C64.7108 10.2866 64.6349 10.2866 64.597 10.2504C64.559 10.2866 64.5211 10.2866 64.4453 10.2866H63.9522C63.7626 10.2866 63.6109 10.142 63.6109 9.96119V9.67195C63.6109 9.63579 63.6109 9.59964 63.6109 9.56348C63.573 9.56348 63.573 9.56348 63.4971 9.56348H63.3075V9.96119C63.3075 10.142 63.1558 10.2866 62.9662 10.2866H62.4731C62.2835 10.2866 62.1318 10.142 62.1318 9.96119V9.45502C61.9422 9.56348 61.7146 9.59964 61.4112 9.59964H61.1457V9.92503C61.1457 10.1058 60.994 10.2504 60.8044 10.2504H59.8562C59.7425 10.2504 59.6666 10.2143 59.5908 10.142L59.2494 9.78041L58.8702 10.1781C58.7943 10.2504 58.7185 10.2866 58.6047 10.2866H56.6705C56.4808 10.2866 56.3291 10.142 56.3291 9.96119V8.00883C56.3291 7.82805 56.4808 7.68344 56.6705 7.68344H58.6426C58.7564 7.68344 58.8322 7.71959 58.9081 7.7919L59.2494 8.15345L59.6287 7.7919C59.7045 7.71959 59.7804 7.68344 59.8562 7.68344H61.4112C61.7525 7.68344 61.9801 7.75575 62.1697 7.86421C62.2076 7.75575 62.3214 7.68344 62.4731 7.68344H63.6109C63.8764 7.68344 64.1039 7.68344 64.3694 7.82805C64.4073 7.82805 64.4073 7.86421 64.4453 7.86421C64.4832 7.75575 64.597 7.68344 64.7487 7.68344H66.3795C66.4933 7.68344 66.607 7.75575 66.6829 7.86421C66.8346 7.75575 67.0622 7.68344 67.3276 7.68344H68.3137C68.4654 7.68344 68.5792 7.75575 68.6171 7.90036C68.7688 7.75575 68.9964 7.68344 69.2998 7.68344H70.2859C70.4755 7.68344 70.6272 7.82805 70.6272 8.00883V8.40653C70.6272 8.515 70.5513 8.62346 70.4755 8.65961C70.6272 8.84039 70.703 9.02116 70.703 9.3104C70.703 9.92503 70.2859 10.2866 69.6032 10.2866Z" fill="#DDDDDD"/>
<path d="M62.0558 5.69502C62.1696 5.65751 62.3971 5.46995 62.3971 5.16985C62.3971 4.94478 62.3213 4.83225 62.1696 4.71971C62.0179 4.64469 61.8282 4.60718 61.5627 4.60718H60.4629V6.63281H60.9559V5.88258H61.4869C61.6765 5.88258 61.7524 5.88258 61.8282 5.9576C61.9041 6.07014 61.9041 6.22018 61.9041 6.33272V6.5953H62.3971V6.18267C62.3971 5.99511 62.3971 5.92009 62.3213 5.80755C62.2454 5.80755 62.1696 5.73253 62.0558 5.69502ZM61.7524 5.43244C61.6765 5.46995 61.6007 5.46995 61.5248 5.46995H60.918V5.01981H61.5248C61.6007 5.01981 61.7145 5.01981 61.7524 5.05732C61.8282 5.09483 61.8662 5.13234 61.8662 5.24488C61.8662 5.3199 61.8282 5.39492 61.7524 5.43244Z" fill="#DDDDDD"/>
<path d="M63.1558 4.60718H62.6627V6.63281H63.1558V4.60718Z" fill="#DDDDDD"/>
<path d="M68.4276 4.621V6.0086L67.5553 4.621H66.7967V6.53364L65.9624 4.621H65.2418L64.5591 6.19611H64.3316C64.2178 6.19611 64.0661 6.15861 63.9902 6.0836C63.9144 5.9711 63.8385 5.82109 63.8385 5.59607C63.8385 5.37105 63.8765 5.22104 63.9902 5.14604C64.104 5.07103 64.1799 5.03353 64.3695 5.03353H64.8246V4.621H64.3695C64.0282 4.621 63.8006 4.696 63.6489 4.84602C63.4213 5.07103 63.3834 5.33355 63.3834 5.63357C63.3834 6.0086 63.4593 6.23362 63.6489 6.38363C63.8006 6.57114 64.104 6.60864 64.3695 6.60864H64.9384L65.128 6.15861H66.152L66.3416 6.60864H67.3277V5.10853L68.2379 6.60864H68.9206V4.5835C68.9206 4.621 68.4276 4.621 68.4276 4.621ZM65.3176 5.78358L65.659 4.99603L66.0003 5.78358H65.3176Z" fill="#DDDDDD"/>
<path d="M64.4073 5.3479C64.2935 5.3479 64.2935 5.3479 64.2556 5.38533C64.2556 5.38533 64.2177 5.46019 64.2177 5.6099C64.2177 5.75962 64.2556 5.79704 64.2556 5.83447C64.2556 5.83447 64.2935 5.83447 64.3694 5.83447L64.5969 5.3479H64.4073Z" fill="#DDDDDD"/>
<path d="M66.3795 8.36783V7.95532H64.7487V9.94287H66.3795V9.53036H65.2417V9.11785H66.3415V8.70534H65.2417V8.36783H66.3795Z" fill="#DDDDDD"/>
<path d="M61.4869 7.95532H59.932L59.3252 8.63053L58.7184 7.95532H56.7462V9.98096H58.6804L59.2872 9.30575L59.8941 9.98096H60.8422V9.30575H61.449C61.8662 9.30575 62.2834 9.19321 62.2834 8.63053C62.2834 8.03035 61.8662 7.95532 61.4869 7.95532ZM58.415 9.53082H57.2013V9.11819H58.2632V8.70556H57.2013V8.33044H58.415L58.9459 8.93063L58.415 9.53082ZM60.3492 9.75589L59.5907 8.93063L60.3492 8.14288V9.75589ZM61.4869 8.8556H60.8422V8.33044H61.4869C61.6766 8.33044 61.7903 8.40546 61.7903 8.59302C61.7903 8.78058 61.6386 8.8556 61.4869 8.8556Z" fill="#DDDDDD"/>
<path d="M64.1419 9.00592C64.2557 8.96842 64.4832 8.78088 64.4832 8.48082C64.4832 8.25578 64.3695 8.14326 64.2178 8.03073C64.0661 7.95572 63.8764 7.91821 63.6489 7.91821H62.5111V9.9436H63.0041V9.19346H63.5351C63.7247 9.19346 63.8385 9.19346 63.8764 9.26847C63.9523 9.38099 63.9523 9.53102 63.9523 9.68105V9.9436H64.4453V9.53102C64.4453 9.34349 64.4453 9.26847 64.3695 9.15595C64.3315 9.11844 64.2557 9.04343 64.1419 9.00592ZM63.8385 8.78088C63.7627 8.81839 63.6868 8.81839 63.611 8.81839H63.0041V8.3683H63.611C63.6868 8.3683 63.8006 8.3683 63.8385 8.40581C63.9144 8.44331 63.9523 8.51833 63.9523 8.59334C63.9523 8.66836 63.9144 8.74337 63.8385 8.78088Z" fill="#DDDDDD"/>
<path d="M68.2377 8.89312C68.124 8.78058 67.9343 8.74307 67.6689 8.74307H67.4034C67.3275 8.74307 67.2517 8.74307 67.2137 8.70556C67.1379 8.66805 67.1 8.63053 67.1 8.55551C67.1 8.48049 67.1379 8.44298 67.1758 8.40546C67.2137 8.36795 67.2896 8.36795 67.3654 8.36795H68.2757V7.95532H67.2896C66.7966 7.95532 66.6069 8.25542 66.6069 8.55551C66.6069 9.19321 67.1758 9.1557 67.6309 9.19321C67.7068 9.19321 67.7826 9.19321 67.8206 9.23072C67.8585 9.26823 67.8964 9.30575 67.8964 9.38077C67.8964 9.41828 67.8585 9.4933 67.8206 9.4933C67.7826 9.53082 67.7068 9.53082 67.6309 9.53082H66.6828V9.98096H67.6309C68.124 9.98096 68.3894 9.7934 68.3894 9.34326C68.3894 9.11819 68.3136 9.00565 68.2377 8.89312Z" fill="#DDDDDD"/>
<path d="M57.315 4.60718L56.7461 5.9576L56.1014 4.60718H55.3049V6.52028L54.4706 4.60718H53.75L52.8777 6.63281H53.4086L53.5983 6.18267H54.6223L54.8119 6.63281H55.798V5.05732L56.5186 6.63281H56.9358L57.6564 5.05732V6.63281H58.1494V4.60718C58.1115 4.60718 57.315 4.60718 57.315 4.60718ZM53.75 5.77004L54.0913 4.9823L54.4326 5.77004H53.75Z" fill="#DDDDDD"/>
<path d="M60.1216 5.01981V4.60718H58.4908V6.63281H60.1216V6.22018H58.9838V5.80755H60.0837V5.39492H58.9838V5.01981H60.1216Z" fill="#DDDDDD"/>
<path d="M70.21 8.89312C70.0963 8.78058 69.9066 8.74307 69.6411 8.74307H69.3757C69.2998 8.74307 69.224 8.74307 69.186 8.70556C69.1102 8.66805 69.0723 8.63053 69.0723 8.55551C69.0723 8.48049 69.1102 8.44298 69.1481 8.40546C69.186 8.36795 69.2619 8.36795 69.3377 8.36795H70.248V7.95532H69.2619C68.7689 7.95532 68.5792 8.25542 68.5792 8.55551C68.5792 9.19321 69.1481 9.1557 69.6032 9.19321C69.6791 9.19321 69.7549 9.19321 69.7929 9.23072C69.8308 9.26823 69.8687 9.30575 69.8687 9.38077C69.8687 9.41828 69.8308 9.4933 69.8308 9.4933C69.7928 9.53082 69.717 9.53082 69.6411 9.53082H68.693V9.98096H69.6411C70.1342 9.98096 70.3997 9.7934 70.3997 9.34326C70.3617 9.11819 70.3238 9.00565 70.21 8.89312Z" fill="#DDDDDD"/>
<path d="M80.8292 8.96069C80.7155 8.96069 80.6396 8.96069 80.6017 8.96069V10.5356C80.6017 10.7606 80.7534 10.7981 80.9051 10.7981C81.5498 10.7981 81.7394 10.3106 81.7394 9.89814C81.7394 9.37317 81.3981 8.96069 80.8292 8.96069Z" fill="#DDDDDD"/>
<path d="M92.0931 11.6035L91.9414 12.052H92.2448L92.0931 11.6035ZM92.0931 11.6035L92.2448 12.052H91.9414L92.0931 11.6035Z" fill="#DDDDDD"/>
<path d="M92.6999 12.4752C92.662 12.4752 92.6241 12.4752 92.5861 12.4003C92.5482 12.3628 92.5482 12.288 92.5103 12.2505L92.2069 11.4268V11.3894C92.169 11.3894 92.131 11.4268 92.0552 11.4643C92.0552 11.5392 92.0173 11.614 91.9793 11.6515L91.7138 12.3628C91.6759 12.4377 91.638 12.4752 91.5621 12.4752V12.5126C91.6001 12.5126 91.6759 12.5126 91.7518 12.5126C91.8276 12.5126 91.8655 12.5126 91.9414 12.5126V12.4752C91.9035 12.4752 91.8276 12.4752 91.8276 12.4377C91.8276 12.4003 91.8276 12.3628 91.8655 12.3254L91.9035 12.1756H92.2448L92.3207 12.3628C92.3207 12.4003 92.3586 12.4377 92.3586 12.4752C92.3586 12.5126 92.2827 12.5126 92.2448 12.5126V12.55C92.3207 12.55 92.3965 12.55 92.4724 12.55C92.5482 12.55 92.6241 12.55 92.6999 12.55V12.4752ZM92.6999 12.5126C92.6241 12.5126 92.5482 12.5126 92.4724 12.5126C92.3965 12.5126 92.3207 12.5126 92.2448 12.5126V12.4752C92.2827 12.4752 92.3586 12.4752 92.3586 12.4377C92.3586 12.4003 92.3586 12.3628 92.3207 12.3254L92.2448 12.1382H91.8655L91.8276 12.288C91.8276 12.3254 91.7897 12.3628 91.7897 12.4003C91.7897 12.4377 91.8655 12.4752 91.9035 12.4752V12.5126C91.8276 12.5126 91.7897 12.5126 91.7138 12.5126C91.6759 12.5126 91.6001 12.5126 91.5621 12.5126V12.4752C91.638 12.4752 91.6759 12.4377 91.7138 12.3628L91.9793 11.6515C92.0173 11.5766 92.0172 11.5017 92.0552 11.4643C92.0931 11.4643 92.169 11.4268 92.2069 11.3894V11.4268L92.5103 12.2505C92.5482 12.288 92.5482 12.3628 92.5861 12.4003C92.6241 12.4752 92.662 12.4752 92.6999 12.5126C92.6999 12.4752 92.6999 12.5126 92.6999 12.5126Z" fill="#DDDDDD"/>
<path d="M80.5259 11.4955L80.5638 11.4581C80.4879 11.4581 80.4121 11.4581 80.2983 11.4581C80.2224 11.4581 80.1087 11.4581 80.0707 11.4581V11.4955H80.1087C80.1845 11.4955 80.2224 11.4955 80.2224 11.5704V12.394C80.2224 12.4689 80.1466 12.4689 80.1087 12.4689H80.0707V12.5063C80.1466 12.5063 80.2224 12.5063 80.2983 12.5063C80.3742 12.5063 80.4879 12.5063 80.5638 12.5063V12.4689H80.5259C80.45 12.4689 80.4121 12.4689 80.4121 12.394V11.5704C80.4121 11.4955 80.45 11.4955 80.5259 11.4955ZM80.5259 12.4689C80.45 12.5063 80.3742 12.5063 80.2983 12.5063C80.2224 12.5063 80.1466 12.5063 80.0707 12.5063V12.4689C80.1087 12.4689 80.1845 12.4689 80.1845 12.3566V11.533C80.1845 11.4581 80.1087 11.4207 80.0707 11.4207C80.1466 11.4207 80.2224 11.4207 80.2983 11.4207C80.3742 11.4207 80.45 11.4207 80.5259 11.4207V11.4581C80.4879 11.4581 80.4121 11.4581 80.4121 11.5704V12.394C80.4121 12.4689 80.45 12.4689 80.5259 12.4689Z" fill="#DDDDDD"/>
<path d="M97.0993 0.705566H76.771C76.4676 0.705566 76.2021 0.95865 76.2021 1.24789V13.432C76.2021 13.7213 76.4676 13.9744 76.771 13.9744H97.0993C97.4027 13.9744 97.6682 13.7213 97.6682 13.432V1.24789C97.6303 0.95865 97.4027 0.705566 97.0993 0.705566ZM92.2448 8.94885C92.3586 8.9127 92.4723 8.87654 92.5482 8.84039C92.5861 8.84039 92.5861 8.80423 92.624 8.80423C92.624 8.80423 92.662 8.80423 92.662 8.84039V9.85272C92.7757 9.74426 92.9274 9.63579 93.0792 9.63579C93.4205 9.63579 93.6101 9.92503 93.6101 10.2143C93.6101 10.5758 93.3446 10.9374 92.9275 10.9374C92.6999 10.9374 92.5861 10.8651 92.5103 10.8289L92.4344 10.9012L92.3586 10.8651C92.3965 10.6843 92.3965 10.5397 92.3965 10.3589V9.16578C92.3965 8.98501 92.3586 8.98501 92.2448 8.94885C92.2448 8.94885 92.2448 8.98501 92.2448 8.94885ZM91.4483 10.8289C91.5621 10.8289 91.6759 10.7566 91.7897 10.6481V9.88888C91.7897 9.81657 91.638 9.81657 91.5621 9.78041V9.74426C91.8276 9.74426 91.9793 9.7081 92.0172 9.7081C92.0552 9.7081 92.0552 9.74426 92.0552 9.74426V10.7566C92.0552 10.7927 92.0931 10.7927 92.131 10.7927C92.1689 10.7927 92.2069 10.7927 92.2448 10.7927V10.8651C92.131 10.8651 91.8655 10.9374 91.8276 10.9374V10.7204C91.638 10.8651 91.5242 10.9374 91.2966 10.9374C91.1449 10.9374 90.9932 10.8289 90.9932 10.612V9.88888C90.9932 9.81657 90.9932 9.74426 90.8036 9.74426V9.7081C90.9174 9.7081 91.1449 9.67195 91.1829 9.67195C91.2208 9.67195 91.2208 9.7081 91.2208 9.74426V10.4674C91.1829 10.5758 91.1829 10.8289 91.4483 10.8289ZM86.0629 1.79021H87.6558C89.5141 1.79021 91.2208 3.12794 91.2208 5.04414C91.2208 6.81572 89.5141 8.26191 87.6558 8.26191H86.0629C84.1666 8.26191 82.6495 6.81572 82.6495 5.04414C82.6495 3.09178 84.2045 1.79021 86.0629 1.79021ZM90.1968 8.98501V8.94885C90.3106 8.9127 90.4243 8.87654 90.5002 8.84039C90.5381 8.84039 90.5381 8.80423 90.576 8.80423C90.576 8.80423 90.614 8.80423 90.614 8.84039V10.7566C90.614 10.8651 90.6898 10.8651 90.7657 10.8651H90.8036V10.9374C90.6898 10.9374 90.614 10.9374 90.5002 10.9374C90.3864 10.9374 90.2726 10.9374 90.1968 10.9374V10.8651H90.2347C90.3106 10.8651 90.3864 10.8651 90.3864 10.7566V9.20194C90.3485 9.02116 90.3106 9.02116 90.1968 8.98501ZM86.5559 9.99734C86.5559 9.85272 86.6697 9.63579 87.011 9.63579C87.0869 9.63579 87.2386 9.67195 87.3523 9.7081L87.3903 9.99734H87.3144C87.2765 9.81657 87.2006 9.7081 87.011 9.7081C86.8972 9.7081 86.7835 9.78041 86.7835 9.88888C86.7835 10.2143 87.4661 10.1058 87.4661 10.5397C87.4661 10.7204 87.3144 10.9012 86.9731 10.9012C86.8593 10.9012 86.7076 10.8651 86.6318 10.7927L86.5938 10.4674H86.6318C86.6697 10.6481 86.7835 10.7927 87.011 10.7927C87.2006 10.7927 87.2386 10.6843 87.2386 10.612C87.2006 10.3589 86.5559 10.4674 86.5559 9.99734ZM86.0629 10.8651H86.2146V10.9374C86.0629 10.9374 85.9491 10.9374 85.7974 10.9374C85.6836 10.9374 85.5698 10.9374 85.4561 10.9374V10.8651H85.5319C85.6078 10.8651 85.6836 10.8651 85.6836 10.7566V9.96119C85.6836 9.88888 85.5698 9.85272 85.5319 9.85272V9.81657C85.7595 9.74426 85.8732 9.67195 85.8732 9.67195C85.8732 9.67195 85.9112 9.67195 85.9112 9.7081V9.96119C85.987 9.85272 86.1008 9.67195 86.2904 9.67195C86.3663 9.67195 86.4421 9.7081 86.4421 9.81657C86.4421 9.88888 86.4042 9.96119 86.2904 9.96119C86.2146 9.96119 86.2146 9.88888 86.1008 9.88888C86.0629 9.88888 85.8732 9.96119 85.8732 10.1058V10.7566C85.9491 10.8651 85.987 10.8651 86.0629 10.8651ZM84.5838 10.3227C84.5838 10.5758 84.7734 10.7927 85.0009 10.7927C85.1526 10.7927 85.3044 10.7204 85.3802 10.612L85.4181 10.6481C85.2664 10.8289 85.1147 10.9735 84.8872 10.9735C84.4321 10.9735 84.3183 10.5397 84.3183 10.3589C84.3183 9.81657 84.6975 9.67195 84.8872 9.67195C85.1147 9.67195 85.3802 9.81657 85.3802 10.1058V10.142H85.3423H84.5079C84.5458 10.1781 84.5458 10.2143 84.5838 10.3227ZM82.4978 8.94885C82.5737 8.94885 82.6495 9.02116 82.6495 9.09347C82.6495 9.16578 82.5737 9.23809 82.4978 9.23809C82.422 9.23809 82.3461 9.16578 82.3461 9.09347C82.3461 9.02116 82.422 8.94885 82.4978 8.94885ZM82.2324 9.81657V9.78041C82.3841 9.74426 82.5358 9.67195 82.5358 9.67195C82.5737 9.67195 82.5737 9.67195 82.5737 9.67195C82.5737 9.67195 82.6116 9.67195 82.6116 9.7081V10.7566C82.6116 10.8651 82.6875 10.8651 82.7633 10.8651H82.8012V10.9374C82.6875 10.9374 82.6116 10.9374 82.4978 10.9374C82.3841 10.9374 82.2703 10.9374 82.1944 10.9374V10.8651H82.2324C82.3082 10.8651 82.3841 10.8651 82.3841 10.7566V9.99734C82.3841 9.88888 82.3461 9.85272 82.2324 9.81657ZM80.0706 10.8651C80.2602 10.8651 80.3361 10.8289 80.3361 10.6481V9.3104C80.3361 9.05732 80.1844 9.09347 80.0706 9.05732V8.98501C80.1844 8.98501 80.2981 8.98501 80.4119 8.98501C80.5257 8.98501 80.7153 8.98501 80.905 8.98501C81.6635 8.98501 82.0807 9.45502 82.0807 9.96119C82.0807 10.2504 81.929 10.9374 80.867 10.9374C80.7153 10.9374 80.5636 10.9374 80.4498 10.9374C80.3361 10.9374 80.1844 10.9374 80.0706 10.9374C80.0706 10.9012 80.0706 10.8651 80.0706 10.8651ZM80.5636 11.5882C80.4878 11.5882 80.4119 11.5882 80.4119 11.6605V12.4559C80.4119 12.5282 80.4498 12.5282 80.5257 12.5282H80.5636V12.6005C80.4878 12.6005 80.374 12.6005 80.2981 12.6005C80.2223 12.6005 80.1464 12.6005 80.0706 12.6005V12.5643H80.1085C80.1844 12.5643 80.2223 12.5643 80.2223 12.492V11.6966C80.2223 11.6243 80.1844 11.6243 80.1085 11.6243H80.0706V11.5158C80.1464 11.5158 80.2223 11.5158 80.2981 11.5158C80.374 11.5158 80.4878 11.5158 80.5636 11.5158V11.5882ZM81.891 11.5882C81.7772 11.5882 81.7393 11.5882 81.7393 11.7689V12.4559C81.7393 12.492 81.7393 12.5643 81.7393 12.6005H81.6635L80.867 11.7328V12.3474C80.867 12.492 80.905 12.5282 81.0187 12.5282H81.0567V12.6005C80.9808 12.6005 80.905 12.6005 80.867 12.6005C80.7912 12.6005 80.7153 12.6005 80.6395 12.6005V12.5643H80.6774C80.7912 12.5643 80.8291 12.492 80.8291 12.3836V11.7328C80.8291 11.6605 80.7533 11.5882 80.6774 11.5882H80.6395V11.5158C80.7153 11.5158 80.7532 11.5158 80.8291 11.5158C80.867 11.5158 80.905 11.5158 80.9808 11.5158L81.6635 12.2751V11.7328C81.6635 11.6243 81.5876 11.5882 81.5497 11.5882H81.5118V11.5158C81.5876 11.5158 81.6635 11.5158 81.7393 11.5158C81.8152 11.5158 81.8531 11.5158 81.929 11.5158C81.891 11.5158 81.891 11.5882 81.891 11.5882ZM83.0288 11.4797C83.0288 11.5158 83.0288 11.552 83.0288 11.5882C83.0288 11.6243 83.0288 11.6605 83.0288 11.6966L82.9909 11.7328C82.9909 11.6605 82.9909 11.5882 82.8771 11.5882H82.6116V12.3836C82.6116 12.492 82.6495 12.492 82.7254 12.492H82.7633V12.6005C82.6875 12.6005 82.5737 12.6005 82.4978 12.6005C82.422 12.6005 82.3082 12.6005 82.2324 12.6005V12.5643H82.2703C82.3461 12.5643 82.3841 12.5643 82.3841 12.4559V11.6605H82.1186C82.0048 11.6605 82.0048 11.6966 81.9669 11.8051H81.929C81.929 11.7689 81.929 11.7328 81.9669 11.6605C81.9669 11.6243 81.9669 11.5882 81.9669 11.5158H82.0048C82.0048 11.552 82.0427 11.552 82.0807 11.552H82.915C82.9529 11.552 82.9909 11.552 82.9909 11.5158L83.0288 11.4797ZM83.9769 12.3474C83.939 12.4197 83.939 12.492 83.939 12.6005C83.8252 12.6005 83.6735 12.6005 83.5218 12.6005C83.3701 12.6005 83.1805 12.6005 83.1047 12.6005V12.5643H83.1426C83.2184 12.5643 83.2564 12.5643 83.2564 12.492V11.6966C83.2564 11.6243 83.2184 11.6243 83.1426 11.6243H83.1047V11.5158C83.2184 11.5158 83.3701 11.5158 83.4839 11.5158C83.6356 11.5158 83.7873 11.5158 83.9011 11.5158C83.9011 11.552 83.9011 11.552 83.9011 11.5882C83.9011 11.6243 83.9011 11.6966 83.9011 11.7328H83.8632C83.8632 11.6243 83.8252 11.552 83.6735 11.552H83.446V11.9497H83.6356C83.7115 11.9497 83.7494 11.9135 83.7494 11.8051H83.7873C83.7873 11.8774 83.7873 11.9135 83.7873 11.9859C83.7873 12.0582 83.7873 12.0943 83.7873 12.1666H83.7494C83.7494 12.0582 83.7494 12.022 83.6356 12.022H83.446V12.3836C83.446 12.492 83.5218 12.492 83.6356 12.492C83.8252 12.492 83.9011 12.492 83.939 12.3112L83.9769 12.3474ZM83.7115 10.9374V10.8651H83.7494C83.8252 10.8651 83.9011 10.8651 83.9011 10.7566V10.0335C83.9011 9.88888 83.7873 9.78041 83.6356 9.78041C83.5598 9.78041 83.4081 9.85272 83.2943 9.92503V10.7566C83.2943 10.8651 83.3701 10.8651 83.446 10.8651H83.4839V10.9374C83.3701 10.9374 83.2943 10.9374 83.1805 10.9374C83.0667 10.9374 82.953 10.9374 82.8771 10.9374V10.8651H82.915C82.9909 10.8651 83.0667 10.8651 83.0667 10.7566V10.0335C83.0667 9.92503 83.0288 9.88888 82.915 9.85272V9.81657C83.0288 9.78041 83.1426 9.74426 83.2943 9.67195C83.2943 9.67195 83.2943 9.67195 83.2943 9.7081V9.88888C83.446 9.78041 83.5977 9.67195 83.7873 9.67195C84.0528 9.67195 84.1286 9.85272 84.1286 10.0697V10.7927C84.1286 10.9012 84.2045 10.9012 84.2804 10.9012H84.3183V10.9735C84.2045 10.9735 84.1287 10.9735 84.0149 10.9735C83.9011 10.9735 83.8252 10.9012 83.7115 10.9374ZM85.1527 12.5282V12.6005C85.1147 12.6005 85.0389 12.6005 85.0009 12.6005C84.963 12.6005 84.8872 12.6005 84.8492 12.6005C84.7355 12.4559 84.6217 12.2751 84.5079 12.1305H84.4321V12.4559C84.4321 12.5643 84.47 12.5643 84.5458 12.5643H84.5838V12.6005C84.5079 12.6005 84.3941 12.6005 84.3183 12.6005C84.2424 12.6005 84.1666 12.6005 84.0907 12.6005V12.5643H84.1286C84.2045 12.5643 84.2424 12.5282 84.2424 12.492V11.7328C84.2424 11.6243 84.2045 11.6243 84.1286 11.6243H84.0907V11.5158C84.1287 11.5158 84.2424 11.5158 84.3183 11.5158C84.3941 11.5158 84.47 11.5158 84.5838 11.5158C84.7734 11.5158 84.963 11.552 84.963 11.8051C84.963 11.9497 84.8872 12.022 84.7355 12.0582L85.0009 12.4197C85.0389 12.492 85.0389 12.5282 85.1527 12.5282ZM86.2904 11.7689V12.4559C86.2904 12.492 86.2904 12.5643 86.2904 12.6005H86.2146L85.4181 11.7328V12.3474C85.4181 12.492 85.4561 12.5282 85.5698 12.5282H85.6078V12.6005C85.5319 12.6005 85.4561 12.6005 85.4181 12.6005C85.3423 12.6005 85.2664 12.6005 85.1906 12.6005V12.5643H85.2285C85.3423 12.5643 85.3802 12.492 85.3802 12.3836V11.7328C85.3802 11.6605 85.3044 11.5882 85.2285 11.5882H85.1906V11.5158C85.2664 11.5158 85.3044 11.5158 85.3802 11.5158C85.4181 11.5158 85.4561 11.5158 85.5319 11.5158L86.2146 12.2751V11.7328C86.2146 11.6243 86.1387 11.5882 86.1008 11.5882H86.0629V11.5158C86.1387 11.5158 86.2146 11.5158 86.2904 11.5158C86.3663 11.5158 86.4042 11.5158 86.4801 11.5158V11.552H86.4421C86.3663 11.5882 86.2904 11.5882 86.2904 11.7689ZM87.542 12.5282V12.6005C87.4661 12.6005 87.3903 12.6005 87.3144 12.6005C87.2386 12.6005 87.1627 12.6005 87.0869 12.6005V12.5643C87.1248 12.5643 87.1627 12.5643 87.1627 12.5282C87.1627 12.5282 87.1627 12.4559 87.1248 12.4197L87.0489 12.2389H86.7076L86.6697 12.3836C86.6697 12.4197 86.6318 12.492 86.6318 12.492C86.6318 12.5282 86.7076 12.5282 86.7455 12.5282H86.7835V12.6005C86.7076 12.6005 86.6697 12.6005 86.5938 12.6005C86.518 12.6005 86.4801 12.6005 86.4421 12.6005V12.5643C86.518 12.5643 86.5559 12.5282 86.5559 12.4559L86.8214 11.7689C86.8593 11.6966 86.8593 11.6243 86.8972 11.5882C86.9352 11.5882 87.011 11.552 87.0489 11.5158V11.552L87.3523 12.3474C87.3523 12.3836 87.3903 12.4559 87.4282 12.492C87.4661 12.5282 87.5041 12.5282 87.542 12.5282ZM88.5281 11.4797C88.5281 11.5158 88.5281 11.552 88.5281 11.5882C88.5281 11.6243 88.5281 11.6605 88.5281 11.6966L88.4901 11.7328C88.4901 11.6605 88.4901 11.5882 88.3763 11.5882H88.1109V12.3836C88.1109 12.492 88.1488 12.492 88.2246 12.492H88.2626V12.6005C88.1867 12.6005 88.0729 12.6005 87.9971 12.6005C87.8833 12.6005 87.8075 12.6005 87.7316 12.6005V12.5643H87.7695C87.8454 12.5643 87.8833 12.5643 87.8833 12.4559V11.6605H87.6178C87.5041 11.6605 87.5041 11.6966 87.4661 11.8051H87.4282C87.4282 11.7689 87.4282 11.7328 87.4282 11.6605C87.4282 11.6243 87.4282 11.5882 87.4282 11.5158H87.4661C87.4661 11.552 87.5041 11.552 87.542 11.552H88.3763C88.4143 11.552 88.4522 11.552 88.4522 11.5158L88.5281 11.4797ZM88.2246 9.92503C88.2246 9.34655 88.7556 8.94885 89.3245 8.94885C89.5521 8.94885 89.7796 9.02116 90.0072 9.09347L90.0451 9.49117H89.9692C89.9313 9.16578 89.6658 9.02116 89.3624 9.02116C89.0211 9.02116 88.5281 9.23809 88.5281 9.88888C88.5281 10.4674 88.9452 10.8651 89.4003 10.8651C89.7038 10.8651 89.9313 10.6843 89.9692 10.395H90.0451L89.9692 10.7927C89.8555 10.8651 89.5141 10.9374 89.3245 10.9374C88.6798 10.9735 88.2246 10.5397 88.2246 9.92503ZM89.059 11.5158V11.552H89.0211C88.9452 11.552 88.9073 11.552 88.9073 11.6243V12.4197C88.9073 12.492 88.9452 12.492 89.0211 12.492H89.059V12.6005C88.9832 12.6005 88.8694 12.6005 88.7935 12.6005C88.7177 12.6005 88.6418 12.6005 88.566 12.6005V12.5643H88.6039C88.6798 12.5643 88.7177 12.5643 88.7177 12.492V11.6966C88.7177 11.6243 88.6798 11.6243 88.6039 11.6243H88.566V11.5158C88.6418 11.5158 88.7177 11.5158 88.7935 11.5158C88.9073 11.5158 88.9832 11.5158 89.059 11.5158ZM89.7038 12.6005C89.3624 12.6005 89.0969 12.3836 89.0969 12.0582C89.0969 11.7328 89.3624 11.4797 89.7038 11.4797C90.0451 11.4797 90.3106 11.6966 90.3106 12.022C90.3106 12.3836 90.0451 12.6005 89.7038 12.6005ZM91.4483 11.7689V12.4559C91.4483 12.492 91.4483 12.5643 91.4483 12.6005H91.3725L90.576 11.7328V12.3474C90.576 12.492 90.614 12.5282 90.7278 12.5282H90.7657V12.6005C90.6898 12.6005 90.614 12.6005 90.576 12.6005C90.5002 12.6005 90.4243 12.6005 90.3485 12.6005V12.5643H90.3864C90.5002 12.5643 90.5381 12.492 90.5381 12.3836V11.7328C90.5381 11.6605 90.4623 11.5882 90.3864 11.5882H90.3485V11.5158C90.4243 11.5158 90.4623 11.5158 90.5381 11.5158C90.576 11.5158 90.614 11.5158 90.6898 11.5158L91.3725 12.2751V11.7328C91.3725 11.6243 91.2966 11.5882 91.2587 11.5882H91.1829V11.5158C91.2587 11.5158 91.3346 11.5158 91.4104 11.5158C91.4863 11.5158 91.5242 11.5158 91.6 11.5158V11.552H91.5621C91.5242 11.5882 91.4483 11.5882 91.4483 11.7689ZM92.7378 12.5282V12.6005C92.662 12.6005 92.5861 12.6005 92.5103 12.6005C92.4344 12.6005 92.3586 12.6005 92.2827 12.6005V12.5643C92.3206 12.5643 92.3586 12.5643 92.3586 12.5282C92.3586 12.5282 92.3586 12.4559 92.3206 12.4197L92.2448 12.2389H91.9414L91.9034 12.3836C91.9034 12.4197 91.8655 12.492 91.8655 12.492C91.8655 12.5282 91.9414 12.5282 91.9793 12.5282H92.0172V12.6005C91.9414 12.6005 91.9035 12.6005 91.8276 12.6005C91.7897 12.6005 91.7138 12.6005 91.638 12.6005V12.5643C91.7138 12.5643 91.7517 12.5282 91.7517 12.4559L92.0172 11.7689C92.0552 11.6966 92.0552 11.6243 92.0931 11.5882C92.131 11.5882 92.2069 11.552 92.2448 11.5158V11.552L92.5482 12.3474C92.5861 12.3836 92.5861 12.4559 92.624 12.492C92.624 12.5282 92.662 12.5282 92.7378 12.5282ZM93.686 12.3112C93.686 12.3836 93.648 12.492 93.6101 12.5643C93.4584 12.5643 93.3446 12.5643 93.1929 12.5643C93.0412 12.5643 92.9274 12.5643 92.7757 12.5643V12.5282H92.8137C92.8895 12.5282 92.9275 12.5282 92.9275 12.4197V11.6605C92.9275 11.5882 92.8895 11.5882 92.8137 11.5882H92.7757V11.5158C92.8516 11.5158 92.9274 11.5158 93.0412 11.5158C93.1171 11.5158 93.1929 11.5158 93.2688 11.5158V11.552H93.2309C93.155 11.552 93.1171 11.552 93.1171 11.6243V12.4197C93.1171 12.492 93.155 12.492 93.1929 12.492C93.2309 12.492 93.2688 12.492 93.2688 12.492C93.3067 12.492 93.3446 12.492 93.3826 12.492C93.4584 12.492 93.4963 12.4559 93.5343 12.4197C93.5722 12.3836 93.5722 12.3474 93.5722 12.3112H93.686ZM93.648 11.8051C93.5343 11.8051 93.4963 11.7328 93.4963 11.6605C93.4963 11.5882 93.5722 11.5158 93.648 11.5158C93.7618 11.5158 93.7997 11.5882 93.7997 11.6605C93.7997 11.7328 93.7239 11.8051 93.648 11.8051Z" fill="#DDDDDD"/>
<path d="M92.8897 9.72461C92.776 9.72461 92.7001 9.79958 92.6243 9.87456V10.5868C92.6243 10.6993 92.738 10.8867 92.9277 10.8867C93.2311 10.8867 93.3828 10.5868 93.3828 10.3244C93.3449 9.94953 93.1173 9.72461 92.8897 9.72461Z" fill="#DDDDDD"/>
<path d="M93.6483 11.4207C93.5724 11.4207 93.4966 11.4955 93.4966 11.5704C93.4966 11.6453 93.5724 11.7202 93.6483 11.7202C93.7241 11.7202 93.7621 11.6453 93.7621 11.5704C93.7621 11.4955 93.7241 11.4207 93.6483 11.4207ZM93.7241 11.6453C93.6862 11.6453 93.6483 11.6079 93.6483 11.5704V11.6079C93.6483 11.6079 93.6483 11.6079 93.6862 11.6079H93.6104C93.6483 11.6079 93.6483 11.6079 93.6483 11.6079V11.4955C93.6483 11.4955 93.6483 11.4581 93.6104 11.4581H93.6862C93.7241 11.4581 93.7241 11.4581 93.7241 11.4955C93.7241 11.533 93.7241 11.533 93.6862 11.533L93.7241 11.5704C93.7241 11.6079 93.7241 11.6079 93.7241 11.6453Z" fill="#DDDDDD"/>
<path d="M93.6103 12.2443C93.6103 12.2817 93.5724 12.3192 93.5724 12.3566C93.5345 12.394 93.4965 12.4315 93.4207 12.4315C93.3448 12.4315 93.269 12.4315 93.1931 12.4315C93.1552 12.4315 93.0794 12.394 93.0794 12.3566V11.533C93.0794 11.4581 93.1173 11.4581 93.1931 11.4581H93.2311V11.4207C93.1552 11.4207 93.0794 11.4207 93.0035 11.4207C92.9277 11.4207 92.8518 11.4207 92.738 11.4207V11.4581H92.776C92.8518 11.4581 92.8897 11.4581 92.8897 11.533V12.3192C92.8897 12.4315 92.8139 12.4315 92.776 12.4315H92.738V12.4689C92.8897 12.4689 93.0035 12.4689 93.1552 12.4689C93.3069 12.4689 93.4207 12.4689 93.5724 12.4689C93.6103 12.394 93.6103 12.2817 93.6483 12.2068C93.6483 12.2443 93.6103 12.2443 93.6103 12.2443ZM93.6103 12.5063C93.4586 12.5063 93.3448 12.5063 93.1931 12.5063C93.0414 12.5063 92.9277 12.5063 92.776 12.5063V12.4689C92.8518 12.4689 92.8897 12.4689 92.8897 12.3566V11.5704C92.8897 11.4955 92.8139 11.4581 92.776 11.4581V11.4207C92.8518 11.4207 92.9277 11.4207 93.0035 11.4207C93.0794 11.4207 93.1552 11.4207 93.2311 11.4207V11.4581H93.1931C93.1173 11.4581 93.0794 11.4581 93.0794 11.533V12.3566C93.0794 12.4315 93.1173 12.4315 93.1931 12.4689C93.2311 12.4689 93.269 12.4689 93.269 12.4689C93.3069 12.4689 93.3448 12.4689 93.3828 12.4689C93.4586 12.4689 93.4965 12.4315 93.5345 12.394C93.5724 12.3566 93.5724 12.3192 93.5724 12.2817H93.6103C93.6483 12.3566 93.6103 12.4315 93.6103 12.5063Z" fill="#DDDDDD"/>
<path d="M86.0629 1.96411C84.3563 1.96411 82.953 3.30174 82.953 4.92859C82.953 6.55544 84.3563 7.89307 86.0629 7.89307C87.7696 7.89307 89.1729 6.55544 89.1729 4.92859C89.1729 3.30174 87.8075 1.96411 86.0629 1.96411ZM85.3803 6.66389C84.6597 6.37467 84.1287 5.72394 84.1287 4.92859C84.1287 4.13324 84.6597 3.44635 85.3803 3.19328V6.66389ZM86.7835 6.66389V3.15713C87.5041 3.4102 88.0351 4.09709 88.0351 4.92859C88.0351 5.72394 87.542 6.41083 86.7835 6.66389Z" fill="#DDDDDD"/>
<path d="M84.9252 9.65405C84.7356 9.65405 84.6218 9.76636 84.5839 9.99097H85.0769C85.1527 9.99097 85.1527 9.95353 85.1527 9.9161C85.1527 9.76636 85.0769 9.65405 84.9252 9.65405Z" fill="#DDDDDD"/>
<path d="M93.6486 11.4626L93.6104 11.5378H93.6486C93.6486 11.5378 93.6868 11.5378 93.6486 11.4626C93.6868 11.5002 93.6486 11.4626 93.6486 11.4626Z" fill="#DDDDDD"/>
<path d="M87.5421 12.4752C87.5041 12.4752 87.4662 12.4752 87.4283 12.4003C87.3904 12.3628 87.3904 12.288 87.3524 12.2505L87.049 11.4268V11.3894C87.0111 11.3894 86.9732 11.4268 86.8973 11.4643C86.8973 11.5392 86.8594 11.614 86.8215 11.6515L86.556 12.3628C86.5181 12.4377 86.4801 12.4752 86.4043 12.4752V12.5126C86.4801 12.5126 86.5181 12.5126 86.556 12.5126C86.6319 12.5126 86.6698 12.5126 86.7456 12.5126V12.4752C86.7077 12.4752 86.6319 12.4752 86.6319 12.4377C86.6319 12.4003 86.6698 12.3628 86.6698 12.3254L86.7077 12.1756H87.049L87.1249 12.3628C87.1249 12.4003 87.1628 12.4377 87.1628 12.4752C87.1628 12.5126 87.087 12.5126 87.049 12.5126V12.55C87.1249 12.55 87.2007 12.55 87.2766 12.55C87.3524 12.55 87.4283 12.55 87.5041 12.55L87.5421 12.4752ZM87.5421 12.5126C87.4662 12.5126 87.3904 12.5126 87.3145 12.5126C87.2387 12.5126 87.1628 12.5126 87.087 12.5126V12.4752C87.1249 12.4752 87.2007 12.4752 87.2007 12.4377C87.2007 12.4003 87.2007 12.3628 87.1628 12.3254L87.087 12.1382H86.7077L86.6698 12.288C86.6698 12.3254 86.6319 12.3628 86.6319 12.4003C86.6319 12.4377 86.7077 12.4752 86.7456 12.4752V12.5126C86.6698 12.5126 86.6319 12.5126 86.556 12.5126C86.5181 12.5126 86.4422 12.5126 86.4043 12.5126V12.4752C86.4801 12.4752 86.5181 12.4377 86.556 12.3628L86.8215 11.6515C86.8594 11.5766 86.8594 11.5017 86.8973 11.4643C86.9353 11.4643 87.0111 11.4268 87.049 11.3894V11.4268L87.3524 12.2505C87.3904 12.288 87.3904 12.3628 87.4283 12.4003C87.4662 12.4752 87.4662 12.4752 87.5421 12.5126C87.5421 12.4752 87.5421 12.5126 87.5421 12.5126Z" fill="#DDDDDD"/>
<path d="M89.059 11.4955L89.0969 11.4581C89.0211 11.4581 88.9452 11.4581 88.8314 11.4581C88.7556 11.4581 88.6418 11.4581 88.6039 11.4581V11.4955H88.6418C88.7177 11.4955 88.7556 11.4955 88.7556 11.5704V12.394C88.7556 12.4689 88.6797 12.4689 88.6418 12.4689H88.6039V12.5063C88.6797 12.5063 88.7556 12.5063 88.8314 12.5063C88.9073 12.5063 89.0211 12.5063 89.0969 12.5063V12.4689H89.059C88.9831 12.4689 88.9452 12.4689 88.9452 12.394V11.5704C88.9452 11.4955 88.9831 11.4955 89.059 11.4955ZM89.059 12.4689C88.9831 12.5063 88.9073 12.5063 88.8314 12.5063C88.7556 12.5063 88.6797 12.5063 88.6039 12.5063V12.4689C88.6418 12.4689 88.7177 12.4689 88.7177 12.3566V11.533C88.7177 11.4581 88.6418 11.4207 88.6039 11.4207C88.6797 11.4207 88.7556 11.4207 88.8314 11.4207C88.9073 11.4207 88.9831 11.4207 89.059 11.4207V11.4581C88.9831 11.4581 88.9452 11.4581 88.9452 11.5704V12.394C88.9073 12.4689 88.9831 12.4689 89.059 12.4689Z" fill="#DDDDDD"/>
<path d="M84.9632 12.3944L84.6977 11.9824C84.8115 11.945 84.9253 11.8326 84.9253 11.7203C84.9253 11.4956 84.7356 11.4581 84.546 11.4581C84.4702 11.4581 84.3943 11.4581 84.2805 11.4581C84.1668 11.4581 84.0909 11.4581 84.053 11.4581V11.4956H84.0909C84.1288 11.4956 84.2047 11.4956 84.2047 11.6079V12.3944C84.2047 12.4693 84.1668 12.4693 84.0909 12.4693H84.053V12.5067C84.1288 12.5067 84.2047 12.5067 84.2805 12.5067C84.3564 12.5067 84.4702 12.5067 84.546 12.5067V12.4693H84.5081C84.4322 12.4693 84.3943 12.4693 84.3943 12.3569V12.0199H84.5081C84.6219 12.2071 84.6977 12.3569 84.8494 12.5442C84.8873 12.5442 84.9632 12.5442 85.0011 12.5442C85.0391 12.5442 85.1149 12.5442 85.1528 12.5442V12.5067C85.0391 12.4693 85.0011 12.4318 84.9632 12.3944ZM85.1149 12.4693C85.077 12.5067 85.0011 12.5067 84.9632 12.5067C84.9253 12.5067 84.8494 12.5067 84.8115 12.5067C84.6977 12.3569 84.5839 12.1697 84.4702 12.0199H84.3564V12.3569C84.3564 12.4693 84.4322 12.5067 84.5081 12.5067H84.546V12.5442C84.4702 12.5442 84.3564 12.5442 84.2805 12.5442C84.2047 12.5442 84.1288 12.5442 84.053 12.5442V12.5067H84.0909C84.1668 12.5067 84.2047 12.4693 84.2047 12.4318V11.6454C84.2047 11.533 84.1288 11.533 84.0909 11.533H84.053V11.4207C84.0909 11.4207 84.2047 11.4207 84.2805 11.4207C84.3943 11.4207 84.4702 11.4207 84.546 11.4207C84.7356 11.4207 84.9253 11.4581 84.9253 11.6828C84.9253 11.8326 84.8494 11.9075 84.6977 11.945L84.9632 12.3569C85.0011 12.4318 85.0391 12.4693 85.1149 12.4693Z" fill="#DDDDDD"/>
<path d="M84.4701 11.4934C84.4322 11.4934 84.3943 11.4934 84.3943 11.4934V11.9802H84.4701C84.6218 11.9802 84.7356 11.9053 84.7356 11.7181C84.7356 11.5683 84.6218 11.4934 84.4701 11.4934ZM84.4701 11.9428H84.3943V11.4934C84.4322 11.4934 84.4322 11.4934 84.4701 11.4934C84.6218 11.4934 84.6977 11.5683 84.6977 11.7181C84.6977 11.9053 84.6218 11.9428 84.4701 11.9428Z" fill="#DDDDDD"/>
<path d="M86.4423 11.4207C86.3665 11.4207 86.3285 11.4207 86.2527 11.4207C86.1768 11.4207 86.101 11.4207 86.0251 11.4207V11.4581H86.063C86.101 11.4581 86.2148 11.4956 86.2148 11.6079V12.2071L85.4942 11.4207C85.4562 11.4207 85.4183 11.4207 85.3425 11.4207C85.2666 11.4207 85.2287 11.4207 85.1528 11.4207V11.4581H85.1908C85.2666 11.4581 85.3425 11.4956 85.3425 11.6079V12.282C85.3425 12.3944 85.3045 12.4693 85.1908 12.4693H85.1528V12.5067C85.2287 12.5067 85.3045 12.5067 85.3804 12.5067C85.4562 12.5067 85.5321 12.5067 85.57 12.5067V12.4693H85.5321C85.4183 12.4693 85.3804 12.4318 85.3804 12.282V11.6454L86.2527 12.5442H86.3285C86.3285 12.5067 86.3285 12.4318 86.3285 12.3944V11.6828C86.3285 11.4956 86.4044 11.4956 86.4802 11.4956H86.5182L86.4423 11.4207ZM86.4423 11.4581C86.3665 11.4581 86.2906 11.4581 86.2906 11.6454V12.3569C86.2906 12.3944 86.2906 12.4693 86.2906 12.5067H86.2527L85.4183 11.6079V12.282C85.4183 12.4318 85.4562 12.4693 85.57 12.4693H85.6079V12.5067C85.5321 12.5067 85.4942 12.5067 85.4183 12.5067C85.3425 12.5067 85.2666 12.5067 85.1908 12.5067V12.4693C85.3045 12.4693 85.3425 12.3944 85.3425 12.282V11.6079C85.3425 11.533 85.2666 11.4581 85.1908 11.4581V11.4207C85.2666 11.4207 85.3045 11.4207 85.3804 11.4207C85.4183 11.4207 85.4562 11.4207 85.5321 11.4207L86.2527 12.2071V11.6079C86.2527 11.4581 86.1389 11.4581 86.101 11.4581H86.063V11.4207C86.1389 11.4207 86.2148 11.4207 86.2906 11.4207C86.3285 11.4581 86.3665 11.4207 86.4423 11.4581Z" fill="#DDDDDD"/>
<path d="M89.7038 11.4934C89.4383 11.4934 89.3624 11.7185 89.3624 11.9436C89.3624 12.2062 89.4762 12.4687 89.7417 12.4687C90.0451 12.4687 90.083 12.2062 90.083 11.9811C90.083 11.756 89.9693 11.4934 89.7038 11.4934Z" fill="#DDDDDD"/>
<path d="M88.4903 11.3894C88.4903 11.4268 88.4524 11.4268 88.4145 11.4268H87.5801C87.5422 11.4268 87.5043 11.4268 87.5043 11.3894H87.4663C87.4663 11.4268 87.4663 11.4643 87.4663 11.5392C87.4663 11.5766 87.4663 11.614 87.4284 11.6889H87.4663C87.5043 11.5766 87.5043 11.5392 87.618 11.5392H87.8835V12.3628C87.8835 12.4752 87.8456 12.5126 87.7697 12.5126H87.7318V12.55C87.8077 12.55 87.9214 12.55 87.9973 12.55C88.0731 12.55 88.1869 12.55 88.2628 12.55V12.5126H88.2248C88.149 12.5126 88.1111 12.5126 88.1111 12.3628V11.5392H88.3766C88.4903 11.5392 88.4903 11.614 88.4903 11.6889H88.5283C88.5283 11.6515 88.5283 11.614 88.5283 11.5766C88.5283 11.5392 88.5283 11.5017 88.5283 11.4643L88.4903 11.3894ZM88.4903 11.5017C88.4903 11.5392 88.4903 11.5766 88.4903 11.614H88.4524C88.4524 11.5392 88.4524 11.4643 88.3386 11.4643H88.0731V12.288C88.0731 12.4003 88.149 12.4377 88.2248 12.4377H88.2628V12.4752C88.1869 12.4752 88.1111 12.4752 87.9973 12.4752C87.9214 12.4752 87.8077 12.4752 87.7318 12.4752V12.4377H87.7697C87.8456 12.4377 87.9214 12.4377 87.9214 12.288V11.4643H87.656C87.5422 11.4643 87.5422 11.5017 87.5043 11.614H87.4663C87.4663 11.5766 87.4663 11.5392 87.4663 11.5017C87.4663 11.4643 87.4663 11.4268 87.4663 11.3894H87.5043C87.5043 11.4268 87.5422 11.4268 87.5801 11.4268H88.4145C88.4524 11.4268 88.4903 11.4268 88.4903 11.3894H88.5283C88.5283 11.4268 88.4903 11.4643 88.4903 11.5017Z" fill="#DDDDDD"/>
<path d="M86.9352 11.6035L86.7834 12.052H87.0869L86.9352 11.6035ZM86.9352 11.6035L87.0869 12.052H86.7834L86.9352 11.6035Z" fill="#DDDDDD"/>
<path d="M86.9352 11.6035L86.7834 12.052H87.0869L86.9352 11.6035Z" fill="#DDDDDD"/>
<path d="M83.9393 12.2443C83.9014 12.4315 83.8255 12.4315 83.6359 12.4315C83.5221 12.4315 83.4463 12.4315 83.4463 12.3192V11.9448H83.6359C83.7497 11.9448 83.7497 12.0197 83.7497 12.0945H83.7876C83.7876 12.0197 83.7876 11.9822 83.7876 11.9073C83.7876 11.8325 83.7876 11.795 83.7876 11.7202H83.7497C83.7497 11.795 83.7118 11.8699 83.6359 11.8699H83.4463V11.4581H83.6738C83.8255 11.4581 83.8635 11.533 83.8635 11.6453H83.9014C83.9014 11.5704 83.9014 11.4581 83.9014 11.4207C83.7876 11.4207 83.6359 11.4207 83.4842 11.4207C83.3325 11.4207 83.1808 11.4207 83.1049 11.4207V11.4581H83.1429C83.2187 11.4581 83.2566 11.4581 83.2566 11.533V12.3566C83.2566 12.4315 83.1808 12.4315 83.1429 12.4315H83.1049V12.4689C83.1808 12.4689 83.3704 12.4689 83.5221 12.4689C83.6738 12.4689 83.8635 12.4689 83.9393 12.4689C83.9393 12.394 83.9772 12.3192 83.9772 12.2068L83.9393 12.2443ZM83.9014 12.5063C83.7876 12.5063 83.6359 12.5063 83.4842 12.5063C83.3325 12.5063 83.1808 12.5063 83.067 12.5063V12.4689C83.1049 12.4689 83.1808 12.4689 83.1808 12.3566V11.533C83.1808 11.4581 83.1049 11.4207 83.067 11.4207C83.1808 11.4207 83.3325 11.4207 83.4463 11.4207C83.5601 11.4207 83.7497 11.4207 83.8255 11.4207C83.8255 11.4581 83.8255 11.4581 83.8255 11.4955C83.8255 11.533 83.8255 11.6078 83.8255 11.6453H83.7876C83.7876 11.533 83.7497 11.4581 83.598 11.4581H83.3704V11.8699H83.56C83.6738 11.8699 83.6738 11.8325 83.6738 11.7202H83.7118C83.7118 11.795 83.7118 11.8325 83.7118 11.9073C83.7118 11.9822 83.7118 12.0197 83.7118 12.0945H83.6738C83.6738 12.0197 83.6359 11.9448 83.56 11.9448H83.3704V12.3192C83.3704 12.4315 83.4842 12.4315 83.56 12.4315C83.7497 12.4315 83.8255 12.4315 83.9014 12.2443H83.9393C83.9393 12.3566 83.9393 12.4315 83.9014 12.5063Z" fill="#DDDDDD"/>
<path d="M91.4105 11.4207C91.3347 11.4207 91.2588 11.4207 91.183 11.4207V11.4581H91.2209C91.2588 11.4581 91.3726 11.4956 91.3726 11.6079V12.2071L90.652 11.4207C90.6141 11.4207 90.5762 11.4207 90.5003 11.4207C90.4244 11.4207 90.3865 11.4207 90.3107 11.4207V11.4581H90.3486C90.4245 11.4581 90.5003 11.4956 90.5003 11.6079V12.282C90.5003 12.3944 90.4624 12.4693 90.3486 12.4693H90.3107V12.5067C90.3865 12.5067 90.4624 12.5067 90.5382 12.5067C90.6141 12.5067 90.6899 12.5067 90.7279 12.5067V12.4693H90.6899C90.5762 12.4693 90.5382 12.4318 90.5382 12.282V11.6454L91.3726 12.5442H91.4485C91.4485 12.5067 91.4485 12.4318 91.4485 12.3944V11.6828C91.4485 11.4956 91.5243 11.4956 91.6002 11.4956H91.6381V11.4207C91.5622 11.4207 91.4864 11.4207 91.4105 11.4207ZM91.6002 11.4581C91.5243 11.4581 91.4485 11.4581 91.4485 11.6454V12.3569C91.4485 12.3944 91.4485 12.4693 91.4485 12.5067H91.4105L90.5762 11.6079V12.282C90.5762 12.4318 90.6141 12.4693 90.7279 12.4693H90.7658V12.5067C90.6899 12.5067 90.652 12.5067 90.5762 12.5067C90.5003 12.5067 90.4245 12.5067 90.3486 12.5067V12.4693C90.4624 12.4693 90.5003 12.3944 90.5003 12.282V11.6079C90.5003 11.533 90.4245 11.4581 90.3486 11.4581V11.4207C90.4245 11.4207 90.4624 11.4207 90.5382 11.4207C90.5762 11.4207 90.6141 11.4207 90.6899 11.4207L91.4105 12.2071V11.6079C91.4105 11.4581 91.2968 11.4581 91.2588 11.4581H91.2209V11.4207C91.2968 11.4207 91.3726 11.4207 91.4485 11.4207C91.4864 11.4581 91.5622 11.4207 91.6002 11.4581Z" fill="#DDDDDD"/>
<path d="M81.7015 11.4207C81.6257 11.4207 81.5498 11.4207 81.474 11.4207V11.4581H81.5119C81.5498 11.4581 81.6636 11.4956 81.6636 11.6079V12.2071L80.943 11.4207C80.9051 11.4207 80.8672 11.4207 80.7913 11.4207C80.7155 11.4207 80.6775 11.4207 80.6017 11.4207V11.4581H80.6396C80.7155 11.4581 80.7913 11.4956 80.7913 11.6079V12.282C80.7913 12.3944 80.7534 12.4693 80.6396 12.4693H80.6017V12.5067C80.6775 12.5067 80.7534 12.5067 80.8292 12.5067C80.9051 12.5067 80.9809 12.5067 81.0189 12.5067V12.4693H80.9809C80.8672 12.4693 80.8292 12.4318 80.8292 12.282V11.6454L81.6257 12.5442H81.7015C81.7015 12.5067 81.7015 12.4318 81.7015 12.3944V11.6828C81.7015 11.4956 81.7774 11.4956 81.8532 11.4956H81.8911V11.4207C81.8153 11.4207 81.7394 11.4207 81.7015 11.4207ZM81.8532 11.4581C81.7774 11.4581 81.7015 11.4581 81.7015 11.6454V12.3569C81.7015 12.3944 81.7015 12.4693 81.7015 12.5067H81.6636L80.8292 11.6079V12.282C80.8292 12.4318 80.8672 12.4693 80.9809 12.4693H81.0189V12.5067C80.943 12.5067 80.9051 12.5067 80.8292 12.5067C80.7534 12.5067 80.6775 12.5067 80.6396 12.5067V12.4693C80.7534 12.4693 80.7913 12.3944 80.7913 12.282V11.6079C80.7913 11.533 80.7155 11.4581 80.6396 11.4581V11.4207C80.7155 11.4207 80.7534 11.4207 80.8292 11.4207C80.8672 11.4207 80.9051 11.4207 80.9809 11.4207L81.7015 12.2071V11.6079C81.7015 11.4581 81.5877 11.4581 81.5498 11.4581H81.5119V11.4207C81.5877 11.4207 81.6636 11.4207 81.7394 11.4207C81.7394 11.4581 81.8153 11.4207 81.8532 11.4581Z" fill="#DDDDDD"/>
<path d="M84.4701 11.4934C84.4322 11.4934 84.3943 11.4934 84.3943 11.4934V11.9434H84.4701C84.6218 11.9434 84.6977 11.9059 84.6977 11.7184C84.6977 11.5684 84.6218 11.4934 84.4701 11.4934Z" fill="#DDDDDD"/>
<path d="M82.9911 11.3894C82.9911 11.4268 82.9531 11.4268 82.9152 11.4268H82.0809C82.0429 11.4268 82.005 11.4268 81.9671 11.3894H81.9292C81.9292 11.4268 81.9292 11.4643 81.9292 11.5392C81.9292 11.5766 81.9292 11.614 81.8912 11.6889H81.9292C81.9671 11.5766 81.9671 11.5392 82.0809 11.5392H82.3463V12.3628C82.3463 12.4752 82.3084 12.5126 82.2326 12.5126H82.1946V12.55C82.2705 12.55 82.3843 12.55 82.4601 12.55C82.536 12.55 82.6497 12.55 82.7256 12.55V12.5126H82.6877C82.6118 12.5126 82.5739 12.5126 82.5739 12.3628V11.5392H82.8394C82.9531 11.5392 82.9531 11.614 82.9531 11.6889H82.9911C82.9911 11.6515 82.9911 11.614 82.9911 11.5766C83.029 11.4643 83.029 11.4268 82.9911 11.3894ZM82.9911 11.5017C82.9911 11.5392 82.9911 11.5766 82.9911 11.614H82.9531C82.9531 11.5392 82.9531 11.4643 82.8394 11.4643H82.5739V12.288C82.5739 12.4003 82.6497 12.4377 82.7256 12.4377H82.7635V12.4752C82.6877 12.4752 82.6118 12.4752 82.498 12.4752C82.4222 12.4752 82.3084 12.4752 82.2326 12.4752V12.4377H82.2705C82.3463 12.4377 82.4222 12.4377 82.4222 12.288V11.4643H82.1567C82.0429 11.4643 82.0429 11.5017 82.005 11.614H81.9671C81.9671 11.5766 81.9671 11.5392 81.9671 11.5017C81.9671 11.4643 81.9671 11.4268 81.9671 11.3894H82.005C82.005 11.4268 82.0429 11.4268 82.0809 11.4268H82.9152C82.9531 11.4268 82.9911 11.4268 82.9911 11.3894H83.029C82.9911 11.4268 82.9911 11.4643 82.9911 11.5017Z" fill="#DDDDDD"/>
<path d="M92.0931 11.6035L91.9793 12.052H92.2448L92.0931 11.6035Z" fill="#DDDDDD"/>
<path d="M89.7038 11.4626C89.4384 11.4626 89.3246 11.7249 89.3246 11.9122C89.3246 12.2119 89.4384 12.4741 89.7038 12.4741C90.0072 12.4741 90.0831 12.2119 90.0831 11.9871C90.0831 11.7623 89.9693 11.4626 89.7038 11.4626ZM89.7418 12.4741C89.4763 12.4741 89.3625 12.2119 89.3625 11.9122C89.3625 11.6874 89.4384 11.4626 89.7038 11.4626C89.9693 11.4626 90.0831 11.7249 90.0831 11.9497C90.0831 12.1744 90.0452 12.4741 89.7418 12.4741Z" fill="#DDDDDD"/>
<path d="M89.7038 11.4207C89.3624 11.4207 89.1349 11.6828 89.1349 11.9824C89.1349 12.3195 89.4004 12.5442 89.7417 12.5442C90.083 12.5442 90.3485 12.3195 90.3485 11.945C90.3106 11.6079 90.0451 11.4207 89.7038 11.4207ZM89.7038 12.5442C89.3624 12.5442 89.1349 12.3195 89.1349 11.9824C89.1349 11.6454 89.4004 11.4207 89.7038 11.4207C90.0451 11.4207 90.3106 11.6079 90.3106 11.945C90.3106 12.3195 90.0451 12.5442 89.7038 12.5442Z" fill="#DDDDDD"/>
</svg>
