<svg width="40" height="21" viewBox="0 0 40 21" fill="none" xmlns="http://www.w3.org/2000/svg">
<path d="M30.5459 11.0885C30.3772 11.006 30.2084 10.9236 29.9975 10.9236C29.7021 10.9236 29.4068 11.0472 29.1959 11.2533C28.9849 11.4594 28.8583 11.748 28.8583 12.0365C28.8583 12.2426 28.9005 12.4487 28.9849 12.6136C29.0693 12.7785 29.1959 12.9021 29.4068 13.0258C29.5756 13.1082 29.7865 13.1907 29.9553 13.1907C30.1662 13.1907 30.335 13.1495 30.5038 13.0258C30.6725 12.9434 30.7991 12.7785 30.9257 12.6136C31.01 12.4487 31.0944 12.2426 31.0944 12.0777C31.0944 11.8716 31.0522 11.7068 30.9257 11.5419C30.8835 11.3358 30.7147 11.2121 30.5459 11.0885Z" fill="#DDDDDD"/>
<path d="M33.0774 5.55933L27.8458 10.4889V16.293H33.8368L39.1528 11.2839L33.0774 5.55933ZM31.0522 12.9934C30.7569 13.2716 30.4194 13.3909 30.0397 13.3909C29.8287 13.3909 29.6178 13.3512 29.4068 13.2716C29.2381 13.1921 29.0693 13.0729 28.9005 12.8741V14.3053H28.5208V10.6876H28.9005V11.1647C29.0271 10.9659 29.1959 10.8466 29.4068 10.7671C29.5756 10.6876 29.7865 10.6479 30.0397 10.6479C30.4194 10.6479 30.7569 10.7671 31.0522 11.0454C31.3476 11.3237 31.4742 11.6417 31.4742 12.0393C31.4742 12.3971 31.3476 12.7151 31.0522 12.9934ZM32.0226 13.3512H31.6429V9.69377H32.0226V13.3512ZM34.765 11.9995C34.765 12.3573 34.7228 12.6356 34.6384 12.8344C34.5541 13.0331 34.4275 13.1524 34.2165 13.2716C34.0478 13.3909 33.7946 13.4307 33.5415 13.4307C33.2883 13.4307 33.0352 13.3909 32.8664 13.2716C32.6977 13.1524 32.5289 13.0331 32.4445 12.8344C32.3602 12.6356 32.318 12.3573 32.318 11.9995V10.7274H32.6977V11.9598C32.6977 12.2778 32.6977 12.4766 32.7399 12.5958C32.7821 12.7548 32.9086 12.8741 33.0352 12.9934C33.1618 13.0729 33.3727 13.1524 33.5415 13.1524C33.7524 13.1524 33.9212 13.1126 34.0478 13.0331C34.1743 12.9536 34.3009 12.8344 34.3431 12.6753C34.3853 12.5561 34.3853 12.3573 34.3853 12.0393V10.8069H34.765V11.9995ZM35.6932 13.3909C35.5244 13.3909 35.3979 13.3512 35.2291 13.3114C35.1025 13.2319 34.976 13.1524 34.8494 13.0331L35.0603 12.7946C35.2291 12.9934 35.4401 13.0729 35.651 13.0729C35.7776 13.0729 35.9042 13.0331 36.0307 12.9536C36.1151 12.8741 36.1995 12.7548 36.1995 12.6356C36.1995 12.5561 36.1573 12.4368 36.1151 12.3573C36.0307 12.2778 35.9042 12.1983 35.651 12.079C35.3979 11.9598 35.2291 11.8405 35.1447 11.7212C35.0603 11.602 35.0182 11.4827 35.0182 11.3237C35.0182 11.1249 35.1025 10.9659 35.2291 10.8069C35.3557 10.6876 35.5666 10.6081 35.7776 10.6081C36.0307 10.6081 36.2839 10.7274 36.537 10.9659L36.3261 11.2044C36.1151 11.0454 35.9463 10.9261 35.7776 10.9261C35.651 10.9261 35.5666 10.9659 35.4823 11.0454C35.3979 11.1249 35.3557 11.2044 35.3557 11.2839C35.3557 11.3634 35.3979 11.443 35.4401 11.5225C35.5244 11.602 35.651 11.6815 35.862 11.8007C36.1151 11.92 36.3261 12.0393 36.4104 12.1983C36.4948 12.3175 36.537 12.4766 36.537 12.5958C36.537 12.7946 36.4526 12.9934 36.2839 13.1524C36.1573 13.3114 35.9464 13.3909 35.6932 13.3909Z" fill="#DDDDDD"/>
<path d="M0 2.72095H1.94077L3.50182 7.13238L5.18944 2.72095H6.41296L8.10059 7.09263L9.66164 2.72095H11.6024L8.73344 10.5105H7.46773L5.78011 6.05933L4.05029 10.5105H2.82677L0 2.72095Z" fill="#DDDDDD"/>
<path d="M18.8591 7.16262H12.193C12.2774 7.71908 12.5306 8.15631 12.9525 8.47429C13.3744 8.79227 13.9229 8.95126 14.5557 8.95126C15.3151 8.95126 15.9902 8.71277 16.5387 8.19605C16.5387 8.19605 17.8466 8.19605 18.5638 8.19605C18.5638 8.59353 18.3107 8.95126 18.3107 8.95126C17.8888 9.54747 17.3403 9.94494 16.7496 10.2232C16.159 10.5014 15.4417 10.6604 14.5979 10.6604C13.29 10.6604 12.2352 10.2629 11.4336 9.50772C10.632 8.75252 10.2101 7.75883 10.2101 6.60615C10.2101 5.41373 10.632 4.42004 11.4336 3.66484C12.2352 2.86989 13.2478 2.47241 14.4713 2.47241C15.7792 2.47241 16.834 2.86989 17.6356 3.66484C18.4372 4.45979 18.8591 5.49322 18.8591 6.76514V7.16262ZM16.7918 5.61247C16.6652 5.17524 16.3699 4.81752 15.9902 4.53928C15.5683 4.26105 15.1042 4.14181 14.5979 4.14181C14.0072 4.14181 13.5009 4.3008 13.079 4.61878C12.8259 4.81752 12.5728 5.1355 12.3196 5.61247H16.7918Z" fill="#DDDDDD"/>
<path d="M20.7578 0.0397258V3.45615C21.1375 3.09861 21.5173 2.82053 21.9814 2.66163C22.4033 2.50273 22.8674 2.38355 23.3737 2.38355C24.4706 2.38355 25.3566 2.78081 26.116 3.5356C26.8755 4.29039 27.2552 5.28353 27.2552 6.47531C27.2552 7.62736 26.8755 8.6205 26.0738 9.37529C25.3144 10.1698 24.3862 10.5273 23.2893 10.5273C22.8252 10.5273 22.3611 10.4479 21.9814 10.289C21.5595 10.1301 21.1797 9.852 20.7578 9.49447V10.3287H18.6905V0H20.7578V0.0397258ZM22.9096 4.21094C22.2767 4.21094 21.7282 4.40957 21.2641 4.84655C20.8422 5.28353 20.6313 5.79997 20.6313 6.47531C20.6313 7.15065 20.8422 7.70681 21.2641 8.14379C21.686 8.58078 22.2345 8.77941 22.9096 8.77941C23.5424 8.77941 24.0909 8.58078 24.5128 8.14379C24.9347 7.70681 25.1457 7.15065 25.1457 6.47531C25.1457 5.79997 24.9347 5.24381 24.5128 4.84655C24.0909 4.40957 23.5846 4.21094 22.9096 4.21094Z" fill="#DDDDDD"/>
<path d="M4.8941 10.2875V11.1224C5.27382 10.7646 5.65353 10.526 6.07544 10.367C6.49735 10.2079 6.96144 10.1284 7.42554 10.1284C8.4803 10.1284 9.3663 10.4862 10.1257 11.2417C10.843 11.9971 11.2227 12.9513 11.2227 14.1441C11.2227 15.2573 10.843 16.2116 10.0835 16.967C9.32411 17.6826 8.43811 18.0802 7.38335 18.0802C6.91925 18.0802 6.49735 18.0007 6.07544 17.8417C5.69572 17.6826 5.27382 17.4441 4.8941 17.0863V20.426H2.86896V10.2875H4.8941ZM7.00363 11.8381C6.37077 11.8381 5.8223 12.0369 5.40039 12.4344C4.97849 12.832 4.76753 13.3887 4.76753 14.0248C4.76753 14.7007 4.97849 15.2573 5.40039 15.6549C5.8223 16.0525 6.32858 16.2911 7.00363 16.2911C7.63649 16.2911 8.14278 16.0923 8.56468 15.6549C8.98659 15.2176 9.19754 14.7007 9.19754 14.0248C9.19754 13.3887 8.98659 12.832 8.56468 12.4344C8.18497 12.0369 7.63649 11.8381 7.00363 11.8381Z" fill="#F4F4F4"/>
<path d="M17.4248 10.2892H19.1969V17.8785H17.4248V17.0838C17.0029 17.4414 16.581 17.6798 16.1591 17.8387C15.7372 17.9977 15.2731 18.0771 14.809 18.0771C13.7121 18.0771 12.7417 17.6798 11.9401 16.9249C11.1385 16.1699 10.7166 15.2163 10.7166 14.1037C10.7166 12.9514 11.0963 11.9581 11.8979 11.2031C12.6573 10.4482 13.6277 10.0906 14.7247 10.0906C15.2309 10.0906 15.7372 10.17 16.1591 10.329C16.6232 10.4879 17.0451 10.7661 17.4248 11.0839V10.2892ZM15.1888 11.8389C14.5137 11.8389 13.9652 12.0376 13.5433 12.4746C13.1214 12.872 12.8683 13.4282 12.8683 14.064C12.8683 14.7395 13.0792 15.256 13.5433 15.6931C14.0074 16.1302 14.5559 16.3288 15.1888 16.3288C15.8638 16.3288 16.4123 16.1302 16.8764 15.6931C17.3405 15.2958 17.5514 14.7395 17.5514 14.064C17.5514 13.3885 17.3405 12.872 16.8764 12.4746C16.4123 12.0376 15.8638 11.8389 15.1888 11.8389Z" fill="#F4F4F4"/>
<path d="M19.1968 10.2886H21.2641L23.3736 15.0593L25.6941 10.2886H27.7614L22.6986 20.6648H20.6313L22.2767 17.3253L19.1968 10.2886Z" fill="#F4F4F4"/>
</svg>
