<svg id="Capa_1" data-name="Capa 1" xmlns="http://www.w3.org/2000/svg" viewBox="0 0 500 500"><defs><style>.cls-1{fill:#fff;}</style></defs><path class="cls-1" d="M437.22,222.65c-4.78-48.13-18.91-87.05-43.22-119-17.91-23.56-38.28-37.93-62.25-43.92A95.67,95.67,0,0,0,309.22,57c-25-.16-50.5-.15-75.13-.13q-21.39,0-42.79,0h-.18c-26,0-48.85,9.79-69.87,29.93C98.91,108.14,83.18,135.38,73.14,170c-17.38,60-15.46,119.51,5.73,176.81,10.84,29.35,26.1,52.36,46.65,70.34,17,14.88,35,23.2,54.88,25.43a3.67,3.67,0,0,1,.4.2c.18.09.35.18.53.25l.28.13H318.37l.17,0c1.88-.42,3.82-.81,5.7-1.19a119.26,119.26,0,0,0,12.53-3c21.88-7,40.58-20.84,57.17-42.46,19.41-25.27,32.34-55.56,39.52-92.6A280.57,280.57,0,0,0,437.22,222.65ZM79,237.84c0-1.47,0-3,0-4.49l12.67,5.2,5.84,2.38c5.91,2.4,12,4.88,17.94,7.47a3.41,3.41,0,0,1,1.59,2.07c.44,7.69.73,15.3,1,23.37.06,1.69.13,3.39.19,5.11L90.48,267.76l-.44-.18c-.3-.12-.61-.23-.9-.36-1.14-.5-2.39-.91-3.59-1.3-2.45-.8-5-1.62-5.94-3.06s-.86-4.35-.68-7.06c.07-1.14.15-2.33.14-3.45C79,247.61,79,242.87,79,237.84Zm44.51-127.92c11.35-19.38,44.66-36.5,68.56-35.68-17.18,12-31.23,27.81-43.9,49.49Zm10.81,139.77,47.38-10.61v31.59L136,280.91Zm58.09,80.76L149.67,340,138.2,298.29l45.19-10.14ZM183,182.13l6.86-1.53c-.08.35-.17.71-.26,1.06-.57,2.31-1.11,4.5-1.49,6.73-1.61,9.5-3.3,19.61-4.71,29.55-.36,2.54-1,3.28-3.36,3.77-10.83,2.27-21.8,4.75-32.41,7.15l-12.11,2.72-.5.1q.36-3.08.71-6.11c.76-6.49,1.48-12.62,2.33-18.84.7-5.08,1.8-10,2.69-13.79a2.86,2.86,0,0,1,1.26-1.51C155.49,188.29,168.83,185.3,183,182.13Zm-25.8-37.79a2.92,2.92,0,0,1,1.61-1.31c16.17-3.71,32.64-7.38,48.57-10.93l.54-.12-8.06,18.28c-.06.13-.12.27-.19.4a5.8,5.8,0,0,0-.61,1.72c-1,6.89-4.81,10.15-13.59,11.61-9.23,1.54-18.49,3.72-27.44,5.83-3.83.9-7.78,1.83-11.68,2.7-.25.06-.5.11-.83.16l1.89-4.62C150.72,159.84,153.89,152.08,157.16,144.34ZM198.2,347l15.15,31.51-3.15.71c-4.23,1-8.53,1.94-12.83,2.9l-3,.66c-5.59,1.26-11.37,2.55-17.07,3.73a2.67,2.67,0,0,1-1.41-.18,157,157,0,0,1-18.56-30.15Zm-3.68,53.61,16.95-3.84,1.65-.37c3.15-.72,6.39-1.45,9.6-2a3.39,3.39,0,0,1,1.7.21,141.26,141.26,0,0,0,32,31.14c-25.81,1.68-47.62-6.23-66.49-24.09ZM255.4,74.93c-2.89,2.17-5.63,4.21-8.32,6.44-8.87,7.35-17.18,16.46-25.38,27.86a7.15,7.15,0,0,1-3.75,2.6c-13.92,3.26-28.11,6.42-41.83,9.49l-6.59,1.47C190.53,90.38,217.22,74,249.05,74c2.37,0,4.78.09,7.21.27ZM118.83,222.63l-.89,6.61c0,.37-.11.74-.19,1.15l-5.15-2.11c-10.6-4.34-20.62-8.44-30.76-12.7a2,2,0,0,1-.47-1,223.7,223.7,0,0,1,8.43-40,5.33,5.33,0,0,1,.79.35L94.21,177c8.92,5.07,18.14,10.31,27.13,15.59a3.12,3.12,0,0,1,1.15,1.85C121.37,203.86,120.08,213.4,118.83,222.63Zm-18.78,67.74c6.36,2.55,12.93,5.19,19.36,7.85a4.07,4.07,0,0,1,1.89,1.45c2.29,9.41,4.42,18.68,6.67,28.5l1.09,4.73c-2.85-1.34-5.68-2.7-8.52-4-9.26-4.43-18.84-9-28.42-13.11-4.71-2-6.69-4.49-7.33-9.15-.82-6-1.89-12-3-18.25q-.51-2.82-1-5.74Zm-6.84,45,5.94,2.77,6.24,2.93c10,4.7,20.42,9.57,30.61,14.4a6.7,6.7,0,0,1,2.51,1.69c3.74,7.1,7.32,14.1,11.1,21.52l1.7,3.33-22.45-7.18c-6-1.93-12.29-3.92-18.41-5.93-.63-.2-2.29-.75-2.61-1.28A184.1,184.1,0,0,1,93,335.24Zm35,57.51,15.54,5,11.41,3.6q6.75,2.13,13.51,4.28a3.68,3.68,0,0,1,1.36.71c6.67,6,13.32,12.09,19.76,17.95l2,1.79c-8.65,1.18-21.78-2.13-35.29-9-13.74-7-25.31-16.3-31.82-25.44Zm86-54.14c-10.32-27.51-15.3-56.59-15.25-88.9.16-40.54,7.8-75.62,23.36-107.25,11.85-24.07,26.22-41.7,43.94-53.9,29.28-20.17,63.56-19.09,91.7,2.89,18.93,14.78,33.65,35.18,45,62.37,13.62,32.63,19.49,67.72,18,107.29-1.45,37.35-9.53,69.87-24.7,99.41-10.3,20.06-22.45,35.42-37.14,47-15.59,12.24-33.08,18.51-50.6,18.18s-34.77-7.32-49.89-20.17C239.46,389.39,224.94,367.51,214.14,338.7Zm-119-181.21,17.31-33.85L139.78,139l-13.22,36.5Z"/><path class="cls-1" d="M349.14,397c13.48-10.33,24.6-24.25,34-42.56,15-29.17,23.34-63.89,23.58-97.76h0c0-36.71-4.68-65.21-15.19-92.4-10.09-26.1-22.75-44.92-39.85-59.24-25.27-21.15-54.78-21.84-81-1.88-13.25,10.11-24.3,23.93-33.77,42.26-13.21,25.57-20.73,53.67-23,85.92-2.63,37.89,2.09,72,14.44,104.25,9.79,25.55,22.79,44.95,39.75,59.31,12.91,10.92,27.24,16.4,41.65,16.4C323.22,411.28,336.71,406.52,349.14,397Zm-74.22-19.36c-14.63-14.22-25.28-32.13-32.58-54.76C225,269,226.58,215.8,247.08,164.73c7.72-19.24,18.07-34.21,31.62-45.75,10.19-8.67,20.41-12.93,31.11-12.93a40.64,40.64,0,0,1,4.39.24c11.1,1.18,21,6.41,31.26,16.47,14.28,14,24.66,31.71,32.68,55.61,7.85,23.43,11.2,46.95,11.21,78.63-.33,31.13-8,62.91-21.68,89.49-7.53,14.66-16.2,26-26.51,34.67C329.44,391,318.27,395,306,393.74,294.94,392.61,285.07,387.49,274.92,377.63Z"/><path class="cls-1" d="M324.56,376.28a56.32,56.32,0,0,0,8.16-5.72c10.67-9.06,19-20.86,26.36-37.15,12.28-27.36,17.74-57,16.69-90.72-1-31.23-7.4-58.1-19.63-82.15-8.41-16.53-17.69-27.78-29.2-35.41-11.26-7.47-22.64-7.46-33.84,0a66.34,66.34,0,0,0-7.56,5.83c-8.36,7.48-15.45,17.14-21.7,29.52-13.25,26.3-19.39,55-19.89,93v.13c.1,1.4.2,3.08.31,5,.3,5.1.67,11.44,1.4,17.85,3.05,26.51,10,49,21.23,68.66,8.52,14.93,17.2,24.47,28.14,30.95a29.18,29.18,0,0,0,15,4.43A28.57,28.57,0,0,0,324.56,376.28ZM319,359.21c-7.22,5.24-10.89,5.27-17.89.12-12.47-9.17-19.49-22.28-24.21-32.68-11.48-25.26-16.48-53.06-15.29-85,1-25.58,5.93-47.91,15.24-68.28,5.79-12.66,12.14-22,20-29.27C302,139.37,306,137,310,137s7.92,2.33,12.92,7c10.3,9.56,17.87,21.95,24.57,40.16,7.29,19.81,10.83,41.15,11.12,67.15-.59,33.28-7.17,60.89-20.13,84.39C332.55,346.4,326.37,353.88,319,359.21Z"/></svg>