<svg id="Capa_1" data-name="Capa 1" xmlns="http://www.w3.org/2000/svg" viewBox="0 0 500 500"><defs><style>.cls-1{fill:#fff;}</style></defs><path class="cls-1" d="M298.21,54.3a201.66,201.66,0,0,0-245,152.58c-1.32,6.07-2.12,12.28-2.89,18.29-.36,2.84-.74,5.78-1.17,8.64-.09.65-.25,1.33-.41,2.06L48.54,237l-.07.36v25.11l0,.5c.32,2.32.61,4.64.89,7,.61,5,1.24,10.24,2.28,15.36,15.64,76.18,60.47,128.46,133.23,155.39,15.28,5.65,31.62,9,50,10.33a5.58,5.58,0,0,1,.94.25c.32.1.65.2,1,.28l.44.12h25.46l.24,0,6.87-.91c4.9-.64,10-1.29,15-2.14,81.69-13.89,147.2-77.88,163-159.23C468.35,183.37,402.66,80.13,298.21,54.3ZM417.93,235.42h12.75c3.29,50.25-10.91,93.74-43.33,132.76l-10.2-7.4a167.5,167.5,0,0,0,40.78-125.36Zm-225.66,151,1-2a101.17,101.17,0,0,1,6.08-10.83c7.92-11.68,16.17-23.44,24.15-34.8q4.33-6.16,8.65-12.34c.84-1.19,1.86-1.9,4.14-1.46a71.92,71.92,0,0,0,27.47,0c2.2-.43,3.2.2,4,1.26,15,19.55,29.42,38.88,40.05,60.21C269.05,402.18,231.16,402.17,192.27,386.42ZM184,405.19c44.43,18.05,87.72,18.05,132.1,0,.22.55.41,1.08.59,1.61,1,3.11,2,6.24,3,9.34l.22.72c-41.89,19-96,19-139.67.14Zm77.14-100.41a63.91,63.91,0,0,1-22.2,0c-8.8-1.53-16.46,1.18-21.57,7.64-21,26.59-40.88,53.12-52.17,85.29-1.09,3.09-2.17,6.18-3.3,9.42l-.31.89a178.55,178.55,0,0,1-34.11-24.76l6-5.1c6.58-5.54,13.39-11.27,19.81-17.22,17.66-16.38,31.19-36.33,44.28-55.62l3-4.4c4.71-6.91,5.09-15,1.09-22.8a68.68,68.68,0,0,1-7.15-21.85c-1.29-9-6.66-15.64-15.12-18.58-3.56-1.23-7.12-2.5-10.67-3.76-17.54-6.24-35.68-12.7-54.69-15.45-9.29-1.35-18.76-2.07-27.92-2.76-3.7-.28-7.4-.56-11.09-.88-.87-.08-1.72-.1-2.57-.1a174.77,174.77,0,0,1,13.14-40.47c2,1.44,4,2.84,6,4.22a242,242,0,0,0,68.84,32.45c7.95,2.35,15.86,4.82,23.93,7.35,9,2.81,17.19.8,25.09-6.16a131.27,131.27,0,0,1,17.87-12.91c5.11-3.19,12-8.56,12.45-18.39,1.86-37.57,1.22-69-7.93-100.09C231,77.57,230,74.41,229,71.11l-.25-.82a169.52,169.52,0,0,1,42.59,0c-.16.58-.33,1.15-.5,1.72-1.23,4.19-2.39,8.16-3.48,12.24a228.86,228.86,0,0,0-7.76,60.16c0,5.68.11,11.46.18,17,.07,5.14.14,10.29.18,15.43.07,10.48,4.9,18.13,14.79,23.4a76.38,76.38,0,0,1,15.62,11.54c7.81,7.21,16.24,9.29,25.78,6.36,3.09-1,6.2-1.88,9.3-2.82,20.28-6.11,41.24-12.44,60.33-23.19,7.53-4.23,15-8.89,22.22-13.39,2.22-1.39,4.44-2.78,6.69-4.16a174.91,174.91,0,0,1,13.08,40.64l-1.95,0c-4.59-.06-8.93-.12-13.38.11a232.65,232.65,0,0,0-65.86,13.49c-7,2.49-14.17,4.91-21.11,7.24l-3.66,1.23c-9.29,3.14-14.93,9.84-16.3,19.39a65.07,65.07,0,0,1-6.92,21.09c-4.09,7.88-3.82,16,.78,22.82,15.43,23,31.38,46.74,53.16,65.76,5.22,4.56,10.71,9,16,13.29l4.28,3.46A180.55,180.55,0,0,1,338.6,408c-.37-1-.73-2-1.08-3-1.83-5.05-3.56-9.82-5.46-14.66-9.37-23.85-23.34-44.39-41.42-67.9-.78-1-1.54-2-2.31-3-1.47-1.95-3-4-4.57-5.92C277.94,306.26,270.12,303.25,261.15,304.78ZM102.54,237.32a261.17,261.17,0,0,1,43.61,10.6l10.67,3.62c5,1.68,9.92,3.37,14.89,5a3.61,3.61,0,0,1,2.81,3.47,73.14,73.14,0,0,0,8.42,26.09c1.18,2.17.92,3.31.07,4.54-14.56,21.14-28,40-44.74,56.47C111,315.15,99.27,279.15,102.54,237.32ZM69,243.23c.1-3.38.2-6.88.67-7.73.84-.42,4.26-.41,7.58-.39h4.91c-3.54,47.82,9.81,89,40.76,125.7l-10.22,7.46L109.46,364c-3.83-5-7.44-9.67-10.71-14.64C77.87,317.61,67.86,281.9,69,243.23Zm148.12-61.81c-7.51,3.53-14.56,8.59-22.19,15.92a6.13,6.13,0,0,1-3.61,1.43c-21.22-6-45.68-13.3-68.08-25.06C145.4,138.29,176,116,216.63,105.82c.12.69.23,1.37.35,2.05a91.17,91.17,0,0,1,1.45,11.75c.44,13.42.68,27.08.92,40.29q.15,8.78.32,17.55C219.71,179.48,219,180.51,217.12,181.42ZM208.39,73.75l3.93,12C166.41,97.19,130.5,123.29,105.5,163.4c-1.26-.83-2.46-1.64-3.62-2.48-2.06-1.49-4.09-3-6.24-4.7L95.3,156C122.19,113.4,159.24,86.46,208.39,73.75Zm186.26,89.7c-25-40-60.9-66.17-106.85-77.7l3.92-12C340.61,86.26,377.67,113.2,404.85,156Zm-21.06,12a148.28,148.28,0,0,1-14.4,6.4c-11.29,4.07-22.89,8-34.11,11.7q-7.92,2.64-15.82,5.31c-1.31.45-2.42.41-3.89-1.15-5.91-6.26-13.09-11.55-22.59-16.65a5.28,5.28,0,0,1-2.08-2.9c-1.47-29.31-.6-51.76,2.8-72.37,40.5,10.1,71.14,32.39,93.47,68ZM355.32,340.27c-6.54-7.67-13.31-15.6-19.66-23.59-3.81-4.8-7.4-10-10.87-15-2.28-3.3-4.64-6.7-7.07-10-1.4-1.9-1.44-3.32-.19-6.58,3.16-8.23,5.64-16.6,7.86-24.41.81-2.87,1.46-3.53,2.61-3.94,21.05-7.41,44.85-15.79,69.54-19.4,2.79,14.93.3,36.32-6.84,58.11s-17.93,40.83-29.29,52Z"/></svg>