<svg id="Capa_1" data-name="Capa 1" xmlns="http://www.w3.org/2000/svg" viewBox="0 0 500 500"><defs><style>.cls-1{fill:#fff;}</style></defs><path class="cls-1" d="M58.34,381c.59-2.39,1.13-4.79,1.77-7.17a53.2,53.2,0,0,1,16-26.11q54.36-49.21,108.74-98.41,28.86-26.1,57.76-52.15c2.35-2.1,3-3.77,1.95-6.93-19-58.77,19.1-120.84,79.93-130.48a101.79,101.79,0,0,1,40.8,1.66c10.2,2.51,13.07,12.53,5.68,20q-18.45,18.59-37.06,37a5,5,0,0,0-1.68,5.18c2.43,11.45,4.57,23,7,34.42a4.44,4.44,0,0,0,2.77,2.76c11.45,2.43,23,4.57,34.41,7a4.93,4.93,0,0,0,5.18-1.67c12-12.14,24.18-24.15,36.19-36.3,3.57-3.6,7.45-5.9,12.66-4.42s7.24,5.46,8.43,10.41c13.86,57.37-24.51,114.42-82.95,123.34a98.24,98.24,0,0,1-46.49-3.81c-2.85-1-4.41-.31-6.32,1.81Q228.74,339.45,154.31,421.7c-9.38,10.4-20.43,17.37-34.41,19.34-.33,0-.62.37-.93.56H106.25a18.28,18.28,0,0,0-2.11-.65c-22.51-4.16-37-17.31-43.88-39-.77-2.45-1.29-5-1.92-7.47Zm281.27-300c-2.13,0-3.24-.07-4.34,0A78.61,78.61,0,0,0,268.4,190.32c3.26,7.69,2.52,11.32-3.63,16.88q-62,56.13-124,112.23C124,334.58,107,349.46,90.62,365a31.22,31.22,0,0,0,13.09,52.89c13.71,3.8,24.74-1,34.08-11.35q77.21-85.58,154.61-171c6-6.63,9.23-7.32,17.43-3.9a78.55,78.55,0,0,0,104.39-45A75.9,75.9,0,0,0,419,160.55c-1.53,1.42-2.53,2.3-3.47,3.23-7.86,7.85-15.76,15.64-23.53,23.57-3.66,3.74-7.77,4.91-12.9,3.85-16.58-3.45-33.2-6.74-49.82-10-6.32-1.25-9.26-4.08-10.54-10.44-3.18-15.75-6.1-31.56-9.63-47.23-1.64-7.26-.09-12.63,5.41-17.7C323,98,330.84,89.7,339.61,80.94Z"/></svg>