<svg width="83" height="98" viewBox="0 0 83 98" fill="none" xmlns="http://www.w3.org/2000/svg">
<path d="M53.1347 22.339C51.6075 22.6763 50.0256 22.6812 48.4963 22.3535C46.967 22.0258 45.526 21.3731 44.2711 20.4396C43.437 19.8301 42.4308 19.5016 41.3977 19.5016C40.3647 19.5016 39.3584 19.8301 38.5244 20.4396C37.2695 21.3731 35.8285 22.0258 34.2992 22.3535C32.7699 22.6812 31.188 22.6763 29.6608 22.339C28.9494 22.1853 28.2127 22.1931 27.5048 22.3617C26.7968 22.5302 26.1357 22.8553 25.5699 23.313C25.0048 23.7713 24.5497 24.3505 24.2379 25.0078C23.926 25.6652 23.7655 26.3841 23.7679 27.1117V41.235C23.7338 44.3651 24.429 47.4601 25.7984 50.275C27.1678 53.0899 29.1738 55.5472 31.6575 57.4524L38.3296 62.3226C39.1636 62.932 40.1699 63.2605 41.2029 63.2605C42.236 63.2605 43.2422 62.932 44.0763 62.3226L50.7483 57.4524C53.2679 55.5676 55.3113 53.1192 56.7151 50.3031C58.1189 47.487 58.8441 44.3815 58.8327 41.235V27.1117C58.8352 26.3841 58.6746 25.6652 58.3628 25.0078C58.051 24.3505 57.5958 23.7713 57.0308 23.313C56.488 22.8829 55.8597 22.5736 55.1878 22.4057C54.516 22.2377 53.816 22.215 53.1347 22.339ZM49.2873 41.235C49.3006 42.8646 48.9333 44.4748 48.2146 45.9375C47.4959 47.4002 46.4458 48.6749 45.1477 49.6603L41.3977 52.4362L37.6478 49.6603C36.3497 48.6749 35.2995 47.4002 34.5809 45.9375C33.8622 44.4748 33.4949 42.8646 33.5082 41.235V32.274C36.2584 32.0801 38.9415 31.3347 41.3977 30.0824C43.854 31.3347 46.5371 32.0801 49.2873 32.274V41.235ZM82.5989 37.4363C81.9151 30.3206 79.4003 23.5033 75.2995 17.6481C71.1986 11.793 65.6514 7.09955 59.198 4.02487C52.7446 0.950183 45.6049 -0.400957 38.4743 0.103017C31.3436 0.606991 24.465 2.9489 18.5082 6.9007C13.3907 10.3227 9.09456 14.8356 5.92845 20.1152C2.76234 25.3949 0.804854 31.3102 0.196603 37.4363C-0.400072 43.5223 0.365469 49.6647 2.43768 55.4181C4.5099 61.1714 7.83682 66.3913 12.1771 70.6991L37.9887 96.5594C38.4414 97.0159 38.98 97.3782 39.5735 97.6255C40.167 97.8727 40.8035 98 41.4464 98C42.0893 98 42.7259 97.8727 43.3194 97.6255C43.9128 97.3782 44.4515 97.0159 44.9042 96.5594L70.6184 70.6991C74.9587 66.3913 78.2856 61.1714 80.3578 55.4181C82.43 49.6647 83.1955 43.5223 82.5989 37.4363ZM63.8002 63.8323L41.3977 86.2348L18.9952 63.8323C15.6937 60.5306 13.1647 56.5385 11.5901 52.1429C10.0154 47.7472 9.43415 43.0574 9.88812 38.4103C10.345 33.6917 11.8448 29.1335 14.2789 25.0654C16.713 20.9974 20.0207 17.521 23.9627 14.8877C29.1297 11.4554 35.1947 9.62453 41.3977 9.62453C47.6008 9.62453 53.6658 11.4554 58.8327 14.8877C62.7629 17.5108 66.0632 20.9718 68.4968 25.0221C70.9303 29.0723 72.4365 33.6113 72.9073 38.3129C73.3761 42.9757 72.8022 47.6844 71.2271 52.098C69.652 56.5116 67.1152 60.5198 63.8002 63.8323Z" fill="black" fill-opacity="0.15"/>
</svg>
