<svg width="98" height="98" viewBox="0 0 98 98" fill="none" xmlns="http://www.w3.org/2000/svg">
<path d="M49 0C39.3087 0 29.8351 2.8738 21.7771 8.25799C13.7191 13.6422 7.43862 21.2949 3.72992 30.2485C0.0212309 39.2021 -0.949132 49.0543 0.941543 58.5594C2.83222 68.0645 7.49902 76.7954 14.3518 83.6482C21.2046 90.501 29.9355 95.1678 39.4406 97.0585C48.9457 98.9491 58.7979 97.9788 67.7515 94.2701C76.7051 90.5614 84.3578 84.2809 89.742 76.2229C95.1262 68.1649 98 58.6913 98 49C98 42.5652 96.7326 36.1935 94.2701 30.2485C91.8076 24.3035 88.1983 18.9018 83.6482 14.3518C79.0982 9.80169 73.6965 6.19238 67.7515 3.7299C61.8065 1.26742 55.4348 0 49 0ZM49 88.2C41.247 88.2 33.6681 85.9009 27.2217 81.5936C20.7753 77.2862 15.7509 71.164 12.7839 64.0012C9.81699 56.8383 9.0407 48.9565 10.5532 41.3524C12.0658 33.7484 15.7992 26.7636 21.2814 21.2814C26.7636 15.7992 33.7484 12.0658 41.3525 10.5532C48.9565 9.04068 56.8383 9.81697 64.0012 12.7839C71.1641 15.7509 77.2863 20.7752 81.5936 27.2216C85.901 33.668 88.2 41.247 88.2 49C88.2 59.3965 84.07 69.3671 76.7186 76.7186C69.3672 84.07 59.3965 88.2 49 88.2ZM53.9 48.657V24.5C53.9 23.2004 53.3838 21.9541 52.4648 21.0352C51.5459 20.1162 50.2996 19.6 49 19.6C47.7005 19.6 46.4541 20.1162 45.5352 21.0352C44.6163 21.9541 44.1 23.2004 44.1 24.5V49C44.1 49 44.1 49.343 44.1 49.539C43.9794 50.5351 44.1676 51.5442 44.639 52.43L51.989 65.17C52.6388 66.3006 53.7111 67.1268 54.97 67.4668C56.229 67.8068 57.5714 67.6328 58.702 66.983C59.8326 66.3332 60.6588 65.2609 60.9988 64.002C61.3388 62.743 61.1648 61.4006 60.515 60.27L53.9 48.657Z" fill="black" fill-opacity="0.15"/>
</svg>
