<svg width="122" height="90" viewBox="0 0 122 90" fill="none" xmlns="http://www.w3.org/2000/svg">
<path d="M78.891 76.1977L76.0003 72.749C75.9895 72.758 75.9788 72.7671 75.968 72.7763L78.891 76.1977ZM114.788 46.11L111.94 42.6258C111.926 42.6375 111.912 42.6493 111.898 42.6612L114.788 46.11ZM114.788 36.6676L111.898 40.1164C111.912 40.1283 111.926 40.1401 111.94 40.1518L114.788 36.6676ZM78.891 6.57986L75.967 10.0004C75.978 10.0099 75.9892 10.0193 76.0003 10.0287L78.891 6.57986ZM71.9858 5.54625L70.1916 1.41943V1.41943L71.9858 5.54625ZM68.0322 11.3011L63.5364 11.1065C63.5336 11.1713 63.5322 11.2362 63.5322 11.3011H68.0322ZM68.0322 23.1681L67.2641 27.6021C68.5724 27.8287 69.914 27.466 70.9299 26.611C71.9458 25.7559 72.5322 24.4959 72.5322 23.1681H68.0322ZM5 85H0.5C0.5 87.021 1.84734 88.7941 3.79446 89.3355C5.74159 89.8769 7.81082 89.0538 8.85408 87.3229L5 85ZM68.0322 59.5375H72.5322C72.5322 58.5904 72.2334 57.6675 71.6783 56.9001L68.0322 59.5375ZM68.0322 71.4365H63.5322C63.5322 71.4926 63.5332 71.5486 63.5353 71.6046L68.0322 71.4365ZM71.9687 77.2219L73.7757 73.1006L71.9687 77.2219ZM81.7816 79.6465L117.679 49.5588L111.898 42.6612L76.0003 72.749L81.7816 79.6465ZM117.636 49.5943C120.099 47.5815 121.527 44.5692 121.527 41.3888H112.527C112.527 41.8682 112.312 42.3223 111.94 42.6258L117.636 49.5943ZM121.527 41.3888C121.527 38.2084 120.099 35.1961 117.636 33.1833L111.94 40.1518C112.312 40.4553 112.527 40.9094 112.527 41.3888H121.527ZM117.679 33.2188L81.7816 3.13107L76.0003 10.0287L111.898 40.1164L117.679 33.2188ZM81.815 3.15931C78.5921 0.40424 74.08 -0.271171 70.1916 1.41943L73.7801 9.67306C74.5117 9.35499 75.3606 9.48206 75.967 10.0004L81.815 3.15931ZM70.1916 1.41943C66.3032 3.11004 63.7197 6.87048 63.5364 11.1065L72.528 11.4956C72.5625 10.6986 73.0485 9.99114 73.7801 9.67306L70.1916 1.41943ZM63.5322 11.3011V23.1681H72.5322V11.3011H63.5322ZM68.8003 18.7342C55.5117 16.4322 44.3942 17.6309 35.2121 21.4032C26.0306 25.1753 19.085 31.3971 13.9439 38.6624C3.76102 53.0526 0.5 71.7235 0.5 85H9.5C9.5 72.814 12.5566 56.2038 21.2906 43.8611C25.6079 37.76 31.2705 32.7525 38.6323 29.728C45.9935 26.7038 55.3542 25.5389 67.2641 27.6021L68.8003 18.7342ZM8.85408 87.3229C14.547 77.8777 24.6183 64.9 35.4595 57.8578C40.8548 54.3531 45.9775 52.6199 50.58 52.9985C54.9778 53.3603 59.7171 55.72 64.386 62.1748L71.6783 56.9001C65.8245 48.8072 58.8849 44.6513 51.3179 44.0288C43.9556 43.4231 36.8276 46.237 30.5569 50.3103C18.0661 58.424 7.14405 72.7253 1.14592 82.6771L8.85408 87.3229ZM63.5322 59.5375V71.4365H72.5322V59.5375H63.5322ZM63.5353 71.6046C63.6942 75.8528 66.2684 79.636 70.1617 81.3431L73.7757 73.1006C73.0433 72.7794 72.5589 72.0677 72.5291 71.2684L63.5353 71.6046ZM70.1617 81.3431C74.055 83.0502 78.5817 82.3805 81.8139 79.6192L75.968 72.7763C75.3599 73.2958 74.5083 73.4218 73.7757 73.1006L70.1617 81.3431Z" fill="black" fill-opacity="0.15"/>
</svg>
