<svg width="12" height="11" viewBox="0 0 12 11" fill="none" xmlns="http://www.w3.org/2000/svg">
<path d="M9.66466 6.06752C9.54287 6.06752 9.41554 6.02877 9.29375 6.00109C9.04712 5.94674 8.80475 5.87458 8.56855 5.78519C8.31173 5.69176 8.02944 5.69661 7.77598 5.79881C7.52253 5.90101 7.31582 6.09333 7.19565 6.33878L7.07386 6.58789C6.53466 6.28794 6.03919 5.91541 5.60131 5.48071C5.16662 5.04283 4.79408 4.54736 4.49413 4.00816L4.72664 3.85316C4.97208 3.73298 5.16441 3.52628 5.26661 3.27283C5.36881 3.01937 5.37366 2.73707 5.28023 2.48026C5.19233 2.24355 5.12021 2.00129 5.06433 1.75505C5.03665 1.63326 5.01451 1.50594 4.9979 1.37861C4.93067 0.988676 4.72643 0.635553 4.42196 0.382838C4.11748 0.130123 3.73278 -0.00557677 3.33713 0.000175656H1.67636C1.43778 -0.00206447 1.20152 0.0471275 0.98366 0.144403C0.765801 0.241678 0.571458 0.384752 0.413862 0.563886C0.256266 0.74302 0.139118 0.954007 0.0703918 1.18248C0.00166558 1.41096 -0.0170248 1.65157 0.0155931 1.88792C0.310511 4.20711 1.36969 6.36196 3.02582 8.01207C4.68195 9.66219 6.84064 10.7135 9.16089 11H9.37125C9.77948 11.0006 10.1736 10.8508 10.4784 10.5793C10.6536 10.4226 10.7935 10.2306 10.8889 10.0159C10.9843 9.80118 11.0331 9.56866 11.032 9.33369V7.67293C11.0252 7.28839 10.8852 6.91814 10.6358 6.62535C10.3865 6.33256 10.0432 6.1354 9.66466 6.06752ZM9.94145 9.38905C9.94135 9.46765 9.92452 9.54533 9.89206 9.61692C9.85961 9.68851 9.81228 9.75237 9.75323 9.80424C9.69156 9.85795 9.61925 9.89803 9.54103 9.92188C9.4628 9.94573 9.38043 9.9528 9.29929 9.94264C7.22604 9.67681 5.30029 8.72834 3.82579 7.24682C2.3513 5.76531 1.41197 3.83508 1.15599 1.76059C1.14718 1.6795 1.1549 1.59746 1.17869 1.51944C1.20247 1.44142 1.24183 1.36903 1.29438 1.30665C1.34626 1.2476 1.41012 1.20027 1.48171 1.16782C1.5533 1.13536 1.63098 1.11853 1.70958 1.11843H3.37034C3.49908 1.11556 3.62479 1.15766 3.72583 1.23749C3.82687 1.31731 3.89692 1.42986 3.92393 1.55576C3.94608 1.70708 3.97376 1.85655 4.00697 2.00417C4.07092 2.29599 4.15603 2.58277 4.26162 2.86223L3.4866 3.22207C3.42033 3.25247 3.36072 3.29566 3.3112 3.34917C3.26167 3.40267 3.2232 3.46543 3.198 3.53384C3.17279 3.60226 3.16135 3.67497 3.16433 3.74782C3.1673 3.82067 3.18464 3.89221 3.21534 3.95834C4.01207 5.66492 5.38389 7.03674 7.09047 7.83347C7.22524 7.88884 7.37642 7.88884 7.51119 7.83347C7.58023 7.80877 7.64368 7.77061 7.69785 7.72119C7.75202 7.67177 7.79583 7.61209 7.82674 7.5456L8.16997 6.77058C8.45615 6.87292 8.74824 6.95796 9.04464 7.02523C9.19226 7.05844 9.34173 7.08612 9.49304 7.10826C9.61895 7.13527 9.7315 7.20533 9.81132 7.30637C9.89114 7.40741 9.93324 7.53312 9.93038 7.66185L9.94145 9.38905Z" fill="black"/>
</svg>
