<svg width="10" height="11" viewBox="0 0 10 11" fill="none" xmlns="http://www.w3.org/2000/svg">
<path d="M5.9641 2.50743C5.79268 2.54529 5.61512 2.54585 5.44346 2.50907C5.2718 2.47228 5.11006 2.39902 4.96921 2.29424C4.87559 2.22583 4.76264 2.18896 4.64668 2.18896C4.53073 2.18896 4.41778 2.22583 4.32416 2.29424C4.18331 2.39902 4.02157 2.47228 3.84991 2.50907C3.67825 2.54585 3.50069 2.54529 3.32927 2.50743C3.24943 2.49019 3.16673 2.49106 3.08727 2.50998C3.00781 2.5289 2.9336 2.56539 2.87009 2.61676C2.80667 2.66821 2.75558 2.73322 2.72058 2.807C2.68558 2.88079 2.66755 2.96148 2.66783 3.04315V4.62842C2.664 4.97975 2.74203 5.32716 2.89574 5.64311C3.04945 5.95907 3.27461 6.23489 3.55339 6.44874L4.3023 6.99539C4.39592 7.0638 4.50887 7.10067 4.62482 7.10067C4.74077 7.10067 4.85372 7.0638 4.94734 6.99539L5.69624 6.44874C5.97905 6.23718 6.20841 5.96235 6.36598 5.64627C6.52355 5.33018 6.60495 4.9816 6.60367 4.62842V3.04315C6.60395 2.96148 6.58593 2.88079 6.55093 2.807C6.51593 2.73322 6.46484 2.66821 6.40142 2.61676C6.34049 2.56849 6.26996 2.53377 6.19455 2.51492C6.11914 2.49607 6.04058 2.49352 5.9641 2.50743ZM5.53225 4.62842C5.53374 4.81133 5.49251 4.99207 5.41184 5.15625C5.33118 5.32043 5.2133 5.46351 5.0676 5.57411L4.64668 5.8857L4.22577 5.57411C4.08007 5.46351 3.96219 5.32043 3.88153 5.15625C3.80086 4.99207 3.75963 4.81133 3.76112 4.62842V3.62259C4.06982 3.60082 4.37098 3.51717 4.64668 3.3766C4.92238 3.51717 5.22355 3.60082 5.53225 3.62259V4.62842ZM9.2713 4.20203C9.19455 3.40334 8.91228 2.63813 8.45198 1.98091C7.99168 1.3237 7.36903 0.796888 6.64467 0.451771C5.92031 0.106653 5.11892 -0.0450053 4.31854 0.0115631C3.51816 0.0681316 2.74607 0.330999 2.07745 0.774568C1.50304 1.15867 1.02082 1.66522 0.665438 2.25783C0.310059 2.85044 0.0903408 3.51441 0.0220677 4.20203C-0.044906 4.88515 0.041022 5.57461 0.273617 6.2204C0.506213 6.86618 0.879643 7.45209 1.36681 7.93562L4.26403 10.8383C4.31485 10.8895 4.37531 10.9302 4.44192 10.958C4.50854 10.9857 4.57999 11 4.65215 11C4.72431 11 4.79576 10.9857 4.86238 10.958C4.92899 10.9302 4.98945 10.8895 5.04027 10.8383L7.92655 7.93562C8.41373 7.45209 8.78716 6.86618 9.01975 6.2204C9.25235 5.57461 9.33828 4.88515 9.2713 4.20203ZM7.16125 7.16485L4.64668 9.67942L2.13212 7.16485C1.76154 6.79425 1.47768 6.34615 1.30093 5.85277C1.12418 5.35938 1.05894 4.83297 1.10989 4.31136C1.16118 3.78172 1.32951 3.27009 1.60273 2.81347C1.87595 2.35685 2.24722 1.96664 2.6897 1.67107C3.26966 1.28581 3.95043 1.0803 4.64668 1.0803C5.34294 1.0803 6.02371 1.28581 6.60367 1.67107C7.04481 1.9655 7.41526 2.35398 7.68841 2.8086C7.96156 3.26322 8.13063 3.7727 8.18348 4.30043C8.2361 4.8238 8.17167 5.35232 7.99488 5.84773C7.81808 6.34314 7.53333 6.79304 7.16125 7.16485Z" fill="black"/>
</svg>
